# SSTK version 0.8.0
# 12
mtllib original-12.mtl
o Group12/mesh53/mesh53-geometry#mesh53-geometry
v -0.070728 -0.239295 0.066688
v 0.057212 -0.239295 0.066688
v -0.006758 -0.247717 0.066688
v -0.130339 -0.214603 0.066688
v -0.006758 -0.247717 0.048699
v -0.070728 -0.239295 0.048699
v -0.130339 -0.214603 0.048699
v 0.116822 -0.214603 0.066688
v 0.057212 -0.239295 0.048699
v -0.181527 -0.175325 0.048699
v -0.181527 -0.175325 0.066688
v 0.116822 -0.214603 0.048699
v 0.168011 -0.175325 0.066688
v -0.220806 -0.124136 0.066688
v 0.168011 -0.175325 0.048699
v -0.220806 -0.124136 0.048699
v 0.207289 -0.124136 0.066688
v -0.245497 -0.064526 0.066688
v 0.207289 -0.124136 0.048699
v -0.245497 -0.064526 0.048699
v 0.231981 -0.064526 0.066688
v 0.231981 -0.064526 0.048699
v -0.253919 -0.000556 0.066688
v 0.240403 -0.000556 0.066688
v -0.253919 -0.000556 0.048699
v 0.240403 -0.000556 0.048699
v -0.245497 0.063414 0.066688
v 0.231981 0.063414 0.048699
v -0.245497 0.063414 0.048699
v 0.231981 0.063414 0.066688
v -0.220806 0.123025 0.066688
v 0.207289 0.123025 0.048699
v -0.220806 0.123025 0.048699
v 0.207289 0.123025 0.066688
v -0.181527 0.174213 0.066688
v 0.168011 0.174213 0.066688
v 0.168011 0.174213 0.048699
v -0.181527 0.174213 0.048699
v -0.130339 0.213492 0.048699
v -0.130339 0.213492 0.066688
v 0.116822 0.213492 0.066688
v 0.116822 0.213492 0.048699
v -0.070728 0.238183 0.048699
v -0.070728 0.238183 0.066688
v 0.057212 0.238183 0.066688
v 0.057212 0.238183 0.048699
v -0.006758 0.246605 0.048699
v -0.006758 0.246605 0.066688
vt -0.000504 0.005411
vt -0.000504 0.003337
vt -0.000368 0.004374
vt -0.000904 0.006378
vt 0.003243 0.000583
vt 0.004289 0.000292
vt 0.004289 0.000583
vt 0.004385 0.000583
vt 0.005431 0.000292
vt 0.005431 0.000583
vt 0.005193 0.000583
vt 0.006238 0.000292
vt 0.006238 0.000583
vt -0.000904 0.002371
vt 0.003243 0.000292
vt 0.004385 0.000292
vt 0.005193 0.000292
vt 0.006656 0.000292
vt 0.00561 0.000583
vt 0.00561 0.000292
vt -0.001541 0.007208
vt 0.001844 0.000583
vt 0.00289 0.000292
vt 0.00289 0.000583
vt 0.000504 0.003337
vt 0.000504 0.005411
vt 0.000368 0.004374
vt 0.000904 0.002371
vt 0.000904 0.006378
vt 0.006656 0.000583
vt 0.001541 0.007208
vt -0.001541 0.001541
vt 0.001844 0.000292
vt 0.001541 0.001541
vt -0.002371 0.007844
vt 0.000285 0.000583
vt 0.00133 0.000292
vt 0.00133 0.000583
vt 0.000285 0.000292
vt 0.002371 0.007844
vt -0.002371 0.000904
vt -0.000285 0.000583
vt -0.00133 0.000292
vt -0.000285 0.000292
vt 0.002371 0.000904
vt -0.003337 0.008245
vt -0.00133 0.000583
vt 0.003337 0.008245
vt -0.003337 0.000504
vt -0.001844 0.000583
vt -0.00289 0.000292
vt -0.001844 0.000292
vt 0.003337 0.000504
vt -0.004374 0.000368
vt -0.00289 0.000583
vt -0.004374 0.008381
vt 0.004374 0.000368
vt -0.004289 0.000292
vt -0.003243 0.000583
vt -0.004289 0.000583
vt -0.003243 0.000292
vt 0.004374 0.008381
vt -0.005411 0.008245
vt -0.004385 0.000583
vt -0.005431 0.000292
vt -0.004385 0.000292
vt 0.005411 0.008245
vt -0.005411 0.000504
vt -0.005431 0.000583
vt 0.005411 0.000504
vt -0.006378 0.007844
vt -0.005193 0.000583
vt -0.006238 0.000292
vt -0.005193 0.000292
vt 0.006378 0.007844
vt -0.006378 0.000904
vt -0.006238 0.000583
vt 0.006378 0.000904
vt -0.007208 0.001541
vt -0.00561 0.000583
vt -0.006656 0.000292
vt -0.00561 0.000292
vt 0.007208 0.001541
vt -0.007208 0.007208
vt -0.006656 0.000583
vt 0.007208 0.007208
vt -0.007844 0.006378
vt 0.007844 0.006378
vt -0.007844 0.002371
vt 0.007844 0.002371
vt -0.008245 0.005411
vt 0.008245 0.005411
vt -0.008245 0.003337
vt 0.008245 0.003337
vt -0.008381 0.004374
vt 0.008381 0.004374
vn 0 0 -1
vn 0 0 1
vn -0.2588189595935752 0.9659258492011171 0
vn 0 1 0
vn 0 -1 0
vn 0.2588189595935752 -0.9659258492011171 0
vn 0.2588189595935757 0.9659258492011171 0
vn -0.2588189595935757 -0.9659258492011171 0
vn 0.500000174843842 0.8660253028382761 0
vn -0.500000174843842 -0.8660253028382761 0
vn 0.7071067811865478 0.7071067811865476 0
vn -0.7071067811865478 -0.7071067811865476 0
vn -0.5000001748438415 0.8660253028382763 0
vn 0.5000001748438415 -0.8660253028382763 0
vn 0.8660253028382763 0.5000001748438415 0
vn -0.8660253028382763 -0.5000001748438415 0
vn -0.7071067811865476 0.7071067811865478 0
vn 0.7071067811865476 -0.7071067811865478 0
vn 0.9659258492011171 0.2588189595935752 0
vn -0.9659258492011171 -0.2588189595935752 0
vn -0.8660253028382761 0.500000174843842 0
vn 0.8660253028382761 -0.500000174843842 0
vn -0.9659258492011171 0.2588189595935757 0
vn 0.9659258492011171 -0.2588189595935757 0
vn 1 0 0
vn -1 0 0
usemtl material_0_0
f 1/1/1 2/2/1 3/3/1
f 2/2/1 1/1/1 4/4/1
f 3/3/2 2/2/2 1/1/2
f 4/4/2 1/1/2 2/2/2
f 2/5/3 5/6/4 3/7/4
f 3/7/5 5/6/5 2/5/6
f 3/8/4 6/9/7 1/10/7
f 1/10/8 6/9/8 3/8/5
f 1/11/7 7/12/9 4/13/9
f 4/13/10 7/12/10 1/11/8
f 2/2/1 4/4/1 8/14/1
f 8/14/2 4/4/2 2/2/2
f 5/6/4 2/5/3 9/15/3
f 9/15/6 2/5/6 5/6/5
f 6/9/7 3/8/4 5/16/4
f 5/16/5 3/8/5 6/9/8
f 7/12/9 1/11/7 6/17/7
f 6/17/8 1/11/8 7/12/10
f 10/18/11 4/19/9 7/20/9
f 7/20/10 4/19/10 10/18/12
f 8/14/1 4/4/1 11/21/1
f 11/21/2 4/4/2 8/14/2
f 8/22/13 9/23/3 2/24/3
f 2/24/6 9/23/6 8/22/14
f 9/25/2 6/26/2 5/27/2
f 5/27/1 6/26/1 9/25/1
f 6/26/2 12/28/2 7/29/2
f 7/29/1 12/28/1 6/26/1
f 4/19/9 10/18/11 11/30/11
f 11/30/12 10/18/12 4/19/10
f 7/29/2 12/28/2 10/31/2
f 10/31/1 12/28/1 7/29/1
f 8/14/1 11/21/1 13/32/1
f 13/32/2 11/21/2 8/14/2
f 9/23/3 8/22/13 12/33/13
f 12/33/14 8/22/14 9/23/6
f 6/26/2 9/25/2 12/28/2
f 12/28/1 9/25/1 6/26/1
f 10/20/11 14/30/15 11/19/11
f 11/19/12 14/30/16 10/20/12
f 10/31/2 12/28/2 15/34/2
f 15/34/1 12/28/1 10/31/1
f 13/32/1 11/21/1 14/35/1
f 14/35/2 11/21/2 13/32/2
f 13/36/17 12/37/13 8/38/13
f 8/38/14 12/37/14 13/36/18
f 14/30/15 10/20/11 16/18/15
f 16/18/16 10/20/12 14/30/16
f 12/37/13 13/36/17 15/39/17
f 15/39/18 13/36/18 12/37/14
f 10/31/2 15/34/2 16/40/2
f 16/40/1 15/34/1 10/31/1
f 13/32/1 14/35/1 17/41/1
f 17/41/2 14/35/2 13/32/2
f 16/17/15 18/13/19 14/11/15
f 14/11/16 18/13/20 16/17/16
f 13/42/17 19/43/21 15/44/17
f 15/44/18 19/43/22 13/42/18
f 16/40/2 15/34/2 19/45/2
f 19/45/1 15/34/1 16/40/1
f 17/41/1 14/35/1 18/46/1
f 18/46/2 14/35/2 17/41/2
f 19/43/21 13/42/17 17/47/21
f 17/47/22 13/42/18 19/43/22
f 18/13/19 16/17/15 20/12/19
f 20/12/20 16/17/16 18/13/20
f 16/40/2 19/45/2 20/48/2
f 20/48/1 19/45/1 16/40/1
f 17/41/1 18/46/1 21/49/1
f 21/49/2 18/46/2 17/41/2
f 17/50/21 22/51/23 19/52/21
f 19/52/22 22/51/24 17/50/22
f 20/16/19 23/10/25 18/8/19
f 18/8/20 23/10/26 20/16/20
f 20/48/2 19/45/2 22/53/2
f 22/53/1 19/45/1 20/48/1
f 21/49/1 18/46/1 24/54/1
f 24/54/2 18/46/2 21/49/2
f 22/51/23 17/50/21 21/55/23
f 21/55/24 17/50/22 22/51/24
f 23/10/25 20/16/19 25/9/25
f 25/9/26 20/16/20 23/10/26
f 24/54/1 18/46/1 23/56/1
f 23/56/2 18/46/2 24/54/2
f 20/48/2 22/53/2 26/57/2
f 26/57/1 22/53/1 20/48/1
f 26/58/26 21/59/23 24/60/26
f 24/60/25 21/59/24 26/58/25
f 21/59/23 26/58/26 22/61/23
f 22/61/24 26/58/25 21/59/24
f 20/48/2 26/57/2 25/62/2
f 25/62/1 26/57/1 20/48/1
f 25/15/25 27/7/24 23/5/25
f 23/5/26 27/7/23 25/15/26
f 24/54/1 23/56/1 27/63/1
f 27/63/2 23/56/2 24/54/2
f 24/64/26 28/65/20 26/66/26
f 26/66/25 28/65/19 24/64/25
f 25/62/2 26/57/2 29/67/2
f 29/67/1 26/57/1 25/62/1
f 27/7/24 25/15/25 29/6/24
f 29/6/23 25/15/26 27/7/23
f 24/54/1 27/63/1 30/68/1
f 30/68/2 27/63/2 24/54/2
f 28/65/20 24/64/26 30/69/20
f 30/69/19 24/64/25 28/65/19
f 29/67/2 26/57/2 28/70/2
f 28/70/1 26/57/1 29/67/1
f 29/33/24 31/24/22 27/22/24
f 27/22/23 31/24/21 29/33/23
f 30/68/1 27/63/1 31/71/1
f 31/71/2 27/63/2 30/68/2
f 30/72/20 32/73/16 28/74/20
f 28/74/19 32/73/15 30/72/19
f 29/67/2 28/70/2 33/75/2
f 33/75/1 28/70/1 29/67/1
f 31/24/22 29/33/24 33/23/22
f 33/23/21 29/33/23 31/24/21
f 30/68/1 31/71/1 34/76/1
f 34/76/2 31/71/2 30/68/2
f 32/73/16 30/72/20 34/77/16
f 34/77/15 30/72/19 32/73/15
f 33/75/2 28/70/2 32/78/2
f 32/78/1 28/70/1 33/75/1
f 33/39/22 35/38/18 31/36/22
f 31/36/21 35/38/17 33/39/21
f 34/76/1 31/71/1 36/79/1
f 36/79/2 31/71/2 34/76/2
f 34/80/16 37/81/12 32/82/16
f 32/82/15 37/81/11 34/80/15
f 33/75/2 32/78/2 37/83/2
f 37/83/1 32/78/1 33/75/1
f 35/38/18 33/39/22 38/37/18
f 38/37/17 33/39/21 35/38/17
f 36/79/1 31/71/1 35/84/1
f 35/84/2 31/71/2 36/79/2
f 37/81/12 34/80/16 36/85/12
f 36/85/11 34/80/15 37/81/11
f 33/75/2 37/83/2 38/86/2
f 38/86/1 37/83/1 33/75/1
f 39/44/14 35/47/18 38/43/18
f 38/43/17 35/47/17 39/44/13
f 36/79/1 35/84/1 40/87/1
f 40/87/2 35/84/2 36/79/2
f 41/85/10 37/82/12 36/80/12
f 36/80/11 37/82/11 41/85/9
f 38/86/2 37/83/2 39/88/2
f 39/88/1 37/83/1 38/86/1
f 35/47/18 39/44/14 40/42/14
f 40/42/13 39/44/13 35/47/17
f 36/79/1 40/87/1 41/89/1
f 41/89/2 40/87/2 36/79/2
f 37/82/12 41/85/10 42/81/10
f 42/81/9 41/85/9 37/82/11
f 39/88/2 37/83/2 42/90/2
f 42/90/1 37/83/1 39/88/1
f 43/52/6 40/55/14 39/51/14
f 39/51/13 40/55/13 43/52/3
f 41/89/1 40/87/1 44/91/1
f 44/91/2 40/87/2 41/89/2
f 45/77/8 42/74/10 41/72/10
f 41/72/9 42/74/9 45/77/7
f 39/88/2 42/90/2 43/92/2
f 43/92/1 42/90/1 39/88/1
f 40/55/14 43/52/6 44/50/6
f 44/50/3 43/52/3 40/55/13
f 41/89/1 44/91/1 45/93/1
f 45/93/2 44/91/2 41/89/2
f 42/74/10 45/77/8 46/73/8
f 46/73/7 45/77/7 42/74/9
f 43/92/2 42/90/2 46/94/2
f 46/94/1 42/90/1 43/92/1
f 47/61/5 44/60/6 43/58/6
f 43/58/3 44/60/3 47/61/4
f 45/93/1 44/91/1 48/95/1
f 48/95/2 44/91/2 45/93/2
f 48/69/5 46/66/8 45/64/8
f 45/64/7 46/66/7 48/69/4
f 43/92/2 46/94/2 47/96/2
f 47/96/1 46/94/1 43/92/1
f 44/60/6 47/61/5 48/59/5
f 48/59/4 47/61/4 44/60/3
f 46/66/8 48/69/5 47/65/5
f 47/65/4 48/69/4 46/66/7
