# SSTK version 0.8.0
# 16
mtllib original-16.mtl
o Group16/mesh66/mesh66-geometry#mesh66-geometry
v -0.321113 0.507646 0.003725
v -0.319929 0.521912 -0.041248
v -0.321113 0.507646 -0.041248
v -0.319929 0.521912 0.003725
v -0.321113 -0.508758 0.003725
v 0.305265 0.528785 0.003725
v -0.317853 0.528781 -0.041248
v -0.321113 -0.508758 -0.041248
v 0.308518 -0.507836 0.003725
v 0.308518 0.507646 0.003725
v -0.317853 0.528781 0.003725
v -0.317916 -0.529928 0.003725
v 0.307220 -0.522304 0.003725
v 0.308518 0.507646 -0.041248
v -0.314835 0.535291 0.003725
v -0.314835 0.535291 -0.041248
v -0.317916 -0.529928 -0.041248
v 0.305080 -0.529264 0.003725
v 0.307220 -0.522304 -0.041248
v 0.308518 -0.507836 -0.041248
v 0.305265 0.528785 -0.041248
v 0.302248 0.535296 0.003725
v -0.314905 -0.536451 0.003725
v 0.301996 -0.535859 0.003725
v 0.305080 -0.529264 -0.041248
v -0.310935 0.541314 0.003725
v -0.310935 0.541314 -0.041248
v -0.314905 -0.536451 -0.041248
v 0.301996 -0.535859 -0.041248
v 0.302248 0.535296 -0.041248
v 0.298348 0.541320 0.003725
v -0.311007 -0.542486 0.003725
v 0.298027 -0.541963 0.003725
v 0.298027 -0.541963 -0.041248
v -0.306230 0.546732 0.003725
v -0.306230 0.546732 -0.041248
v -0.311007 -0.542486 -0.041248
v 0.298348 0.541320 -0.041248
v 0.293643 0.546739 0.003725
v -0.306298 -0.547912 0.003725
v 0.293249 -0.547457 0.003725
v 0.293249 -0.547457 -0.041248
v -0.300812 0.551437 0.003725
v -0.306298 -0.547912 -0.041248
v 0.293643 0.546739 -0.041248
v 0.288224 0.551444 0.003725
v -0.300812 0.551437 -0.041248
v -0.300872 -0.552621 -0.041248
v 0.287755 -0.552235 0.003725
v 0.288224 0.551444 -0.041248
v -0.294789 0.555337 0.003725
v -0.300872 -0.552621 0.003725
v 0.287755 -0.552235 -0.041248
v 0.282200 0.555344 -0.041248
v 0.282200 0.555344 0.003725
v -0.294789 0.555337 -0.041248
v -0.294837 -0.556519 -0.041248
v 0.281651 -0.556204 0.003725
v -0.288279 0.558354 0.003725
v -0.294837 -0.556519 0.003725
v 0.281651 -0.556204 -0.041248
v 0.275688 0.558361 -0.041248
v 0.275688 0.558361 0.003725
v -0.288279 0.558354 -0.041248
v -0.288314 -0.559529 -0.041248
v 0.275056 -0.559288 0.003725
v -0.267144 0.561614 0.003725
v -0.288314 -0.559529 0.003725
v 0.275056 -0.559288 -0.041248
v 0.268819 0.560436 -0.041248
v 0.268819 0.560436 0.003725
v -0.267144 0.561614 -0.041248
v -0.267144 -0.562726 -0.041248
v 0.268096 -0.561428 0.003725
v 0.254550 0.561614 0.003725
v -0.267144 -0.562726 0.003725
v 0.253628 -0.562726 0.003725
v 0.268096 -0.561428 -0.041248
v 0.254550 0.561614 -0.041248
v 0.253628 -0.562726 -0.041248
vn -0.9991437712635447 0.04137299052837915 0
vn -0.9823494269163832 0.1870550812917245 0
vn 0.9991437712635447 -0.04137299052837915 0
vn 0.9823494269163832 -0.1870550812917245 0
vn -0.9971933010781314 -0.0748700226051722 0
vn 0.9971933010781314 0.0748700226051722 0
vn 0 0 1
vn 0 0 -1
vn -0.9345441984294544 0.35584707555612827 0
vn 0.9345441984294544 -0.35584707555612827 0
vn -0.9579267128624687 -0.2870129139681787 0
vn 0.9579267128624687 0.2870129139681787 0
vn 0.9970866678216291 0.07627697458840621 0
vn 0.9572947022713424 0.289113910082552 0
vn -0.9970866678216291 -0.07627697458840621 0
vn -0.9572947022713424 -0.289113910082552 0
vn -0.8754907564796534 0.48323486558679135 0
vn 0.8754907564796534 -0.48323486558679135 0
vn 0.9812661558226247 -0.19265703059345746 0
vn 0.9989992911698744 -0.044726013035912976 0
vn -0.9812661558226247 0.19265703059345746 0
vn -0.9989992911698744 0.044726013035912976 0
vn -0.876166203429607 -0.4820091119136114 0
vn 0.876166203429607 0.4820091119136114 0
vn 0.933103073953087 -0.35960902850081494 0
vn -0.933103073953087 0.35960902850081494 0
vn 0.875561245958322 0.4831071357120598 0
vn -0.875561245958322 -0.4831071357120598 0
vn -0.7991768886966444 0.6010959162838749 0
vn 0.7991768886966444 -0.6010959162838749 0
vn 0.8741895854921788 -0.48558476975396636 0
vn -0.8741895854921788 0.48558476975396636 0
vn -0.7995969796990328 -0.6005369847529666 0
vn 0.7995969796990328 0.6005369847529666 0
vn 0.7983687745718261 -0.6021688299710312 0
vn -0.7983687745718261 0.6021688299710312 0
vn 0.7992206466306635 0.601037734255732 0
vn -0.7992206466306635 -0.601037734255732 0
vn -0.7071067811865476 0.7071067811865478 0
vn 0.7071067811865476 -0.7071067811865478 0
vn -0.7071067811865478 -0.7071067811865476 0
vn 0.7071067811865478 0.7071067811865476 0
vn -0.6010959162838746 0.7991768886966447 0
vn 0.6010959162838746 -0.7991768886966447 0
vn -0.6005369847529668 -0.7995969796990323 0
vn 0.6005369847529668 0.7995969796990323 0
vn 0.6021688299710308 -0.7983687745718265 0
vn -0.6021688299710308 0.7983687745718265 0
vn 0.6010377342557325 0.7992206466306633 0
vn -0.6010377342557325 -0.7992206466306633 0
vn -0.4832348655867909 0.8754907564796536 0
vn 0.4832348655867909 -0.8754907564796536 0
vn 0.48310713571206026 0.8755612459583217 0
vn -0.48310713571206026 -0.8755612459583217 0
vn -0.48200911191361184 -0.8761662034296068 0
vn 0.48200911191361184 0.8761662034296068 0
vn 0.48558476975396603 -0.8741895854921791 0
vn -0.48558476975396603 0.8741895854921791 0
vn -0.28935890252628693 0.9572206775497398 0
vn 0.28935890252628693 -0.9572206775497398 0
vn 0.35564208623468124 0.9346222266234865 0
vn -0.35564208623468124 -0.9346222266234865 0
vn -0.2870129139681792 -0.9579267128624687 0
vn 0.2870129139681792 0.9579267128624687 0
vn 0.3596090285008145 -0.9331030739530872 0
vn -0.3596090285008145 0.9331030739530872 0
vn -0.07644100810439054 0.997074105711298 0
vn 0.07644100810439054 -0.997074105711298 0
vn 0.18674893767582076 0.9824076721386862 0
vn -0.18674893767582076 -0.9824076721386862 0
vn -0.07487002260517264 -0.9971933010781314 0
vn 0.07487002260517264 0.9971933010781314 0
vn 0.19265703059345704 -0.9812661558226249 0
vn -0.19265703059345704 0.9812661558226249 0
vn 0.04119001365653092 0.9991513312681792 0
vn -0.04119001365653092 -0.9991513312681792 0
vn 0.04472601303591253 -0.9989992911698744 0
vn -0.04472601303591253 0.9989992911698744 0
usemtl material_0_0
f 1//1 2//2 3//1
f 2//2 1//1 4//2
f 3//3 2//4 1//3
f 4//4 1//3 2//4
f 3//1 5//5 1//1
f 1//3 5//6 3//3
f 1//7 6//7 4//7
f 4//8 6//8 1//8
f 4//2 7//9 2//2
f 2//4 7//10 4//4
f 5//5 3//1 8//5
f 8//6 3//3 5//6
f 5//7 9//7 1//7
f 1//8 9//8 5//8
f 1//7 10//7 6//7
f 6//8 10//8 1//8
f 4//7 6//7 11//7
f 11//8 6//8 4//8
f 7//9 4//2 11//9
f 11//10 4//4 7//10
f 8//5 12//11 5//5
f 5//6 12//12 8//6
f 5//7 13//7 9//7
f 9//8 13//8 5//8
f 1//7 9//7 10//7
f 10//8 9//8 1//8
f 14//13 6//14 10//13
f 10//15 6//16 14//15
f 11//7 6//7 15//7
f 15//8 6//8 11//8
f 11//9 16//17 7//9
f 7//10 16//18 11//10
f 12//11 8//5 17//11
f 17//12 8//6 12//12
f 12//7 18//7 5//7
f 5//8 18//8 12//8
f 5//7 18//7 13//7
f 13//8 18//8 5//8
f 19//19 9//20 13//19
f 13//21 9//22 19//21
f 20//20 10//13 9//20
f 9//22 10//15 20//22
f 6//14 14//13 21//14
f 21//16 14//15 6//16
f 10//13 20//20 14//13
f 14//15 20//22 10//15
f 15//7 6//7 22//7
f 22//8 6//8 15//8
f 16//17 11//9 15//17
f 15//18 11//10 16//18
f 17//11 23//23 12//11
f 12//12 23//24 17//12
f 12//7 24//7 18//7
f 18//8 24//8 12//8
f 25//25 13//19 18//25
f 18//26 13//21 25//26
f 9//20 19//19 20//20
f 20//22 19//21 9//22
f 13//19 25//25 19//19
f 19//21 25//26 13//21
f 21//14 22//27 6//14
f 6//16 22//28 21//16
f 15//7 22//7 26//7
f 26//8 22//8 15//8
f 15//17 27//29 16//17
f 16//18 27//30 15//18
f 23//23 17//11 28//23
f 28//24 17//12 23//24
f 23//7 24//7 12//7
f 12//8 24//8 23//8
f 29//31 18//25 24//31
f 24//32 18//26 29//32
f 18//25 29//31 25//25
f 25//26 29//32 18//26
f 22//27 21//14 30//27
f 30//28 21//16 22//28
f 26//7 22//7 31//7
f 31//8 22//8 26//8
f 27//29 15//17 26//29
f 26//30 15//18 27//30
f 28//23 32//33 23//23
f 23//24 32//34 28//24
f 23//7 33//7 24//7
f 24//8 33//8 23//8
f 24//31 34//35 29//31
f 29//32 34//36 24//32
f 30//27 31//37 22//27
f 22//28 31//38 30//28
f 26//7 31//7 35//7
f 35//8 31//8 26//8
f 26//29 36//39 27//29
f 27//30 36//40 26//30
f 32//33 28//23 37//33
f 37//34 28//24 32//34
f 32//7 33//7 23//7
f 23//8 33//8 32//8
f 34//35 24//31 33//35
f 33//36 24//32 34//36
f 31//37 30//27 38//37
f 38//38 30//28 31//38
f 35//7 31//7 39//7
f 39//8 31//8 35//8
f 36//39 26//29 35//39
f 35//40 26//30 36//40
f 37//33 40//41 32//33
f 32//34 40//42 37//34
f 32//7 41//7 33//7
f 33//8 41//8 32//8
f 33//35 42//40 34//35
f 34//36 42//39 33//36
f 38//37 39//42 31//37
f 31//38 39//41 38//38
f 35//7 39//7 43//7
f 43//8 39//8 35//8
f 43//43 36//39 35//39
f 35//40 36//40 43//44
f 40//41 37//33 44//41
f 44//42 37//34 40//42
f 40//7 41//7 32//7
f 32//8 41//8 40//8
f 42//40 33//35 41//40
f 41//39 33//36 42//39
f 39//42 38//37 45//42
f 45//41 38//38 39//41
f 43//7 39//7 46//7
f 46//8 39//8 43//8
f 36//39 43//43 47//43
f 47//44 43//44 36//40
f 48//45 40//41 44//41
f 44//42 40//42 48//46
f 40//7 49//7 41//7
f 41//8 49//8 40//8
f 49//47 42//40 41//40
f 41//39 42//39 49//48
f 50//49 39//42 45//42
f 45//41 39//41 50//50
f 39//42 50//49 46//49
f 46//50 50//50 39//41
f 43//7 46//7 51//7
f 51//8 46//8 43//8
f 51//51 47//43 43//43
f 43//44 47//44 51//52
f 40//41 48//45 52//45
f 52//46 48//46 40//42
f 52//7 49//7 40//7
f 40//8 49//8 52//8
f 42//40 49//47 53//47
f 53//48 49//48 42//39
f 54//53 46//49 50//49
f 50//50 46//50 54//54
f 51//7 46//7 55//7
f 55//8 46//8 51//8
f 47//43 51//51 56//51
f 56//52 51//52 47//44
f 57//55 52//45 48//45
f 48//46 52//46 57//56
f 52//7 58//7 49//7
f 49//8 58//8 52//8
f 58//57 53//47 49//47
f 49//48 53//48 58//58
f 46//49 54//53 55//53
f 55//54 54//54 46//50
f 51//7 55//7 59//7
f 59//8 55//8 51//8
f 59//59 56//51 51//51
f 51//52 56//52 59//60
f 52//45 57//55 60//55
f 60//56 57//56 52//46
f 60//7 58//7 52//7
f 52//8 58//8 60//8
f 53//47 58//57 61//57
f 61//58 58//58 53//48
f 62//61 55//53 54//53
f 54//54 55//54 62//62
f 59//7 55//7 63//7
f 63//8 55//8 59//8
f 56//51 59//59 64//59
f 64//60 59//60 56//52
f 65//63 60//55 57//55
f 57//56 60//56 65//64
f 60//7 66//7 58//7
f 58//8 66//8 60//8
f 66//65 61//57 58//57
f 58//58 61//58 66//66
f 55//53 62//61 63//61
f 63//62 62//62 55//54
f 59//7 63//7 67//7
f 67//8 63//8 59//8
f 67//67 64//59 59//59
f 59//60 64//60 67//68
f 60//55 65//63 68//63
f 68//64 65//64 60//56
f 68//7 66//7 60//7
f 60//8 66//8 68//8
f 61//57 66//65 69//65
f 69//66 66//66 61//58
f 70//69 63//61 62//61
f 62//62 63//62 70//70
f 67//7 63//7 71//7
f 71//8 63//8 67//8
f 64//59 67//67 72//67
f 72//68 67//68 64//60
f 73//71 68//63 65//63
f 65//64 68//64 73//72
f 68//7 74//7 66//7
f 66//8 74//8 68//8
f 74//73 69//65 66//65
f 66//66 69//66 74//74
f 63//61 70//69 71//69
f 71//70 70//70 63//62
f 67//7 71//7 75//7
f 75//8 71//8 67//8
f 75//75 72//67 67//67
f 67//68 72//68 75//76
f 68//63 73//71 76//71
f 76//72 73//72 68//64
f 68//7 77//7 74//7
f 74//8 77//8 68//8
f 69//65 74//73 78//73
f 78//74 74//74 69//66
f 79//75 71//69 70//69
f 70//70 71//70 79//76
f 71//69 79//75 75//75
f 75//76 79//76 71//70
f 72//67 75//75 79//75
f 79//76 75//76 72//68
f 80//77 76//71 73//71
f 73//72 76//72 80//78
f 77//7 68//7 76//7
f 76//8 68//8 77//8
f 77//77 78//73 74//73
f 74//74 78//74 77//78
f 76//71 80//77 77//77
f 77//78 80//78 76//72
f 78//73 77//77 80//77
f 80//78 77//78 78//74
