# SSTK version 0.8.0
# 5
mtllib original-5.mtl
o mesh23/mesh23-geometry#mesh23-geometry
v -0.018981 -0.607608 -0.511218
v -0.026601 -0.589713 -0.705337
v -0.025506 -0.587462 -0.70514
v -0.020075 -0.609859 -0.511415
v -0.097121 -0.58779 -0.702764
v -0.018122 -0.60528 -0.511005
v -0.090597 -0.607936 -0.508842
v -0.02792 -0.591867 -0.705516
v -0.096055 -0.590035 -0.703033
v -0.097961 -0.585469 -0.702495
v -0.024646 -0.585134 -0.704926
v -0.091436 -0.605616 -0.508573
v -0.08953 -0.610181 -0.509112
v -0.021395 -0.612013 -0.511594
v -0.017504 -0.602893 -0.510778
v -0.092041 -0.603238 -0.508306
v -0.088244 -0.612334 -0.509379
v -0.094769 -0.592188 -0.7033
v -0.098566 -0.583092 -0.702227
v -0.024028 -0.582747 -0.704699
v -0.023657 -0.580321 -0.70446
v -0.092407 -0.600821 -0.508042
v -0.098932 -0.580676 -0.701964
v -0.017132 -0.600468 -0.510539
v -0.023535 -0.577877 -0.70421
v -0.099056 -0.578239 -0.701707
v -0.092532 -0.598385 -0.507785
v -0.01701 -0.598023 -0.510289
v -0.023663 -0.575433 -0.703952
v -0.098938 -0.575801 -0.701457
v -0.092413 -0.595947 -0.507536
v -0.017138 -0.595579 -0.51003
v -0.024041 -0.573011 -0.703688
v -0.098578 -0.573381 -0.701218
v -0.092053 -0.593527 -0.507297
v -0.017517 -0.593157 -0.509766
v -0.024666 -0.57063 -0.703419
v -0.09798 -0.570998 -0.700991
v -0.091455 -0.591144 -0.507069
v -0.018141 -0.590776 -0.509498
v -0.025532 -0.56831 -0.703149
v -0.097147 -0.568669 -0.700777
v -0.090622 -0.588815 -0.506855
v -0.02227 -0.578383 -0.606188
v -0.019007 -0.588456 -0.509227
v -0.026632 -0.56607 -0.702879
v -0.096086 -0.566414 -0.700578
v -0.089562 -0.586559 -0.506656
v -0.020108 -0.586216 -0.508958
v -0.027958 -0.563928 -0.702612
v -0.094806 -0.564249 -0.700396
v -0.091544 -0.574322 -0.603436
v -0.088282 -0.584395 -0.506475
v -0.021433 -0.584075 -0.50869
vn 0.9197920172404921 -0.3859220263326182 -0.07104107693434816
vn 0.877174103060935 -0.4736752724273059 -0.07872311738086649
vn 0.9540488200151857 -0.2930510279973637 -0.06254553555067276
vn 0.03344784583241812 -0.1032730021136885 0.9940905032458548
vn 0.8528985233917694 -0.5155559149928275 -0.0822569590493578
vn -0.8826420167622463 -0.4696578565352803 -0.019093664932651123
vn -0.9232266755938928 -0.3841539539633772 -0.008845627516039655
vn -0.9558483151134618 -0.29385597066582936 0.001633094853151844
vn 0.9791294127943506 -0.19611897652357904 -0.053319227754477186
vn 0.0013417279370894753 -0.9946414800867031 -0.10337565408294026
vn -0.859515592968073 -0.510540137542595 -0.024118735512670266
vn -0.9797721729397723 -0.19974300521558974 0.012215604787409283
vn 0.9943955882237804 -0.09637297655313201 -0.0434702600794038
vn -0.9944247021423733 -0.1029629628897869 0.02276268969187205
vn 0.999439551218065 0.0047909991622988824 -0.03313049634490096
vn -0.999439551218065 -0.0047909991622988824 0.03313049634490096
vn 0.9941226522878597 0.10590700841780726 -0.022446776520058456
vn -0.9946896910607961 0.09342602644475415 0.04317402089361594
vn 0.9785877818373993 0.20550409187083046 -0.011576763921927533
vn -0.9802983770638846 0.19034597017802304 0.052758919273436525
vn 0.9532458782897756 0.3021950268087798 -0.0006791874520699746
vn -0.9566288150504543 0.28468690539656405 0.06176306429324776
vn 0.9187390568480416 0.3947361516637771 0.010095345048218988
vn -0.9242511316520753 0.375296823261696 0.07008666128114148
vn 0.8758848431388198 0.482079790375121 0.020611095836089968
vn -0.8838975558277194 0.46118903725784943 0.077651675545099
vn 0.8514964800693307 0.5237272500287582 0.02575872680965422
vn -0.8608819484217878 0.5022920943593456 0.08114753739706883
vn -0.0013417279370894753 0.9946414800867031 0.10337565408294026
vn -0.9197920172404921 0.3859220263326182 0.07104107693434816
vn -0.877174103060935 0.4736752724273059 0.07872311738086649
vn -0.9540488200151857 0.2930510279973637 0.06254553555067276
vn -0.03344784583241812 0.1032730021136885 -0.9940905032458548
vn -0.8528985233917694 0.5155559149928275 0.0822569590493578
vn 0.8826420167622463 0.4696578565352803 0.019093664932651123
vn 0.9232266755938928 0.3841539539633772 0.008845627516039655
vn 0.9558483151134618 0.29385597066582936 -0.001633094853151844
vn -0.9791294127943506 0.19611897652357904 0.053319227754477186
vn 0.859515592968073 0.510540137542595 0.024118735512670266
vn 0.9797721729397723 0.19974300521558974 -0.012215604787409283
vn -0.9943955882237804 0.09637297655313201 0.0434702600794038
vn 0.9944247021423733 0.1029629628897869 -0.02276268969187205
vn -0.9941226522878597 -0.10590700841780726 0.022446776520058456
vn 0.9946896910607961 -0.09342602644475415 -0.04317402089361594
vn -0.9785877818373993 -0.20550409187083046 0.011576763921927533
vn 0.9802983770638846 -0.19034597017802304 -0.052758919273436525
vn -0.9532458782897756 -0.3021950268087798 0.0006791874520699746
vn 0.9566288150504543 -0.28468690539656405 -0.06176306429324776
vn -0.9187390568480416 -0.3947361516637771 -0.010095345048218988
vn 0.9242511316520753 -0.375296823261696 -0.07008666128114148
vn -0.8758848431388198 -0.482079790375121 -0.020611095836089968
vn 0.8838975558277194 -0.46118903725784943 -0.077651675545099
vn -0.8514964800693307 -0.5237272500287582 -0.02575872680965422
vn 0.8608819484217878 -0.5022920943593456 -0.08114753739706883
usemtl material_0_0
f 1//1 2//2 3//1
f 2//2 1//1 4//2
f 3//1 6//3 1//1
f 7//4 4//4 1//4
f 4//2 8//5 2//2
f 6//3 3//1 11//3
f 12//4 1//4 6//4
f 13//4 4//4 7//4
f 7//4 1//4 12//4
f 8//5 4//2 14//5
f 13//6 5//7 9//6
f 7//7 10//8 5//7
f 11//3 15//9 6//3
f 12//4 6//4 16//4
f 13//4 14//4 4//4
f 5//7 13//6 7//7
f 10//8 7//7 12//8
f 17//10 8//10 14//10
f 9//6 17//11 13//6
f 15//9 11//3 20//9
f 16//4 6//4 15//4
f 19//12 12//8 16//12
f 14//4 13//4 17//4
f 12//8 19//12 10//8
f 8//10 17//10 18//10
f 17//11 9//6 18//11
f 21//13 15//9 20//9
f 16//4 15//4 22//4
f 16//12 23//14 19//12
f 15//9 21//13 24//13
f 22//4 15//4 24//4
f 23//14 16//12 22//14
f 25//15 24//13 21//13
f 22//4 24//4 27//4
f 22//14 26//16 23//14
f 24//13 25//15 28//15
f 27//4 24//4 28//4
f 26//16 22//14 27//16
f 29//17 28//15 25//15
f 27//4 28//4 31//4
f 27//16 30//18 26//16
f 28//15 29//17 32//17
f 31//4 28//4 32//4
f 30//18 27//16 31//18
f 33//19 32//17 29//17
f 31//4 32//4 35//4
f 31//18 34//20 30//18
f 32//17 33//19 36//19
f 35//4 32//4 36//4
f 34//20 31//18 35//20
f 37//21 36//19 33//19
f 35//4 36//4 39//4
f 39//22 34//20 35//20
f 36//19 37//21 40//21
f 34//20 39//22 38//22
f 39//4 36//4 40//4
f 41//23 40//21 37//21
f 43//24 38//22 39//22
f 39//4 40//4 43//4
f 40//21 41//23 44//23
f 38//22 43//24 42//24
f 43//4 40//4 45//4
f 46//25 44//23 41//23
f 40//21 44//23 45//23
f 48//26 42//24 43//24
f 43//4 45//4 48//4
f 44//23 46//25 49//25
f 44//23 49//25 45//23
f 42//24 48//26 47//26
f 48//4 45//4 49//4
f 50//27 49//25 46//25
f 52//28 47//26 48//26
f 48//4 49//4 53//4
f 49//25 50//27 54//27
f 47//26 52//28 51//28
f 52//28 48//26 53//28
f 53//4 49//4 54//4
f 50//29 53//29 54//29
f 52//29 50//29 51//29
f 53//29 50//29 52//29
usemtl material_1_0
f 3//30 2//31 1//30
f 4//31 1//30 2//31
f 3//4 5//4 2//4
f 1//30 6//32 3//30
f 1//33 4//33 7//33
f 2//31 8//34 4//31
f 5//4 9//4 2//4
f 10//4 5//4 3//4
f 11//32 3//30 6//32
f 6//33 1//33 12//33
f 7//33 4//33 13//33
f 12//33 1//33 7//33
f 14//34 4//31 8//34
f 2//4 9//4 8//4
f 9//35 5//36 13//35
f 5//36 10//37 7//36
f 11//4 10//4 3//4
f 6//32 15//38 11//32
f 16//33 6//33 12//33
f 4//33 14//33 13//33
f 7//36 13//35 5//36
f 12//37 7//36 10//37
f 14//29 8//29 17//29
f 18//4 8//4 9//4
f 13//35 17//39 9//35
f 19//4 10//4 11//4
f 20//38 11//32 15//38
f 15//33 6//33 16//33
f 16//40 12//37 19//40
f 17//33 13//33 14//33
f 10//37 19//40 12//37
f 18//29 17//29 8//29
f 18//39 9//35 17//39
f 20//4 19//4 11//4
f 20//38 15//38 21//41
f 22//33 15//33 16//33
f 19//40 23//42 16//40
f 23//4 19//4 20//4
f 24//41 21//41 15//38
f 24//33 15//33 22//33
f 22//42 16//40 23//42
f 21//4 23//4 20//4
f 21//41 24//41 25//16
f 26//4 23//4 21//4
f 27//33 24//33 22//33
f 23//42 26//15 22//42
f 28//16 25//16 24//41
f 25//4 26//4 21//4
f 28//33 24//33 27//33
f 27//15 22//42 26//15
f 25//16 28//16 29//43
f 30//4 26//4 25//4
f 31//33 28//33 27//33
f 26//15 30//44 27//15
f 32//43 29//43 28//16
f 29//4 30//4 25//4
f 32//33 28//33 31//33
f 31//44 27//15 30//44
f 29//43 32//43 33//45
f 34//4 30//4 29//4
f 35//33 32//33 31//33
f 30//44 34//46 31//44
f 36//45 33//45 32//43
f 33//4 34//4 29//4
f 36//33 32//33 35//33
f 35//46 31//44 34//46
f 33//45 36//45 37//47
f 38//4 34//4 33//4
f 39//33 36//33 35//33
f 35//46 34//46 39//48
f 40//47 37//47 36//45
f 37//4 38//4 33//4
f 38//48 39//48 34//46
f 40//33 36//33 39//33
f 37//47 40//47 41//49
f 42//4 38//4 37//4
f 39//48 38//48 43//50
f 43//33 40//33 39//33
f 44//49 41//49 40//47
f 41//4 42//4 37//4
f 42//50 43//50 38//48
f 45//33 40//33 43//33
f 41//49 44//49 46//51
f 45//49 44//49 40//47
f 47//4 42//4 41//4
f 43//50 42//50 48//52
f 48//33 45//33 43//33
f 49//51 46//51 44//49
f 46//4 47//4 41//4
f 45//49 49//51 44//49
f 47//52 48//52 42//50
f 49//33 45//33 48//33
f 46//51 49//51 50//53
f 51//4 47//4 46//4
f 48//52 47//52 52//54
f 53//33 49//33 48//33
f 54//53 50//53 49//51
f 50//4 51//4 46//4
f 51//54 52//54 47//52
f 53//54 48//52 52//54
f 54//33 49//33 53//33
f 54//10 53//10 50//10
f 51//10 50//10 52//10
f 52//10 50//10 53//10
usemtl material_2_0
f 2//33 5//33 3//33
f 2//33 9//33 5//33
f 3//33 5//33 10//33
f 8//33 9//33 2//33
f 3//33 10//33 11//33
f 9//33 8//33 18//33
f 11//33 10//33 19//33
f 11//33 19//33 20//33
f 20//33 19//33 23//33
f 20//33 23//33 21//33
f 21//33 23//33 26//33
f 21//33 26//33 25//33
f 25//33 26//33 30//33
f 25//33 30//33 29//33
f 29//33 30//33 34//33
f 29//33 34//33 33//33
f 33//33 34//33 38//33
f 33//33 38//33 37//33
f 37//33 38//33 42//33
f 37//33 42//33 41//33
f 41//33 42//33 47//33
f 41//33 47//33 46//33
f 46//33 47//33 51//33
f 46//33 51//33 50//33
