# SSTK version 0.8.0
# 59
mtllib original-59.mtl
o #ID376
v -0.033840 -0.221555 0.091155
v -0.032261 -0.225925 0.088548
v -0.033840 -0.225925 0.091155
v -0.032261 -0.221555 0.088548
v -0.032261 -0.221555 0.088548
v -0.033840 -0.221555 0.091155
v -0.032261 -0.225925 0.088548
v -0.033840 -0.225925 0.091155
v -0.034307 -0.225925 0.091155
v -0.034307 -0.221555 0.091155
v -0.034307 -0.221555 0.091155
v -0.034307 -0.225925 0.091155
v -0.034307 -0.225925 0.091155
v -0.033840 -0.221555 0.091155
v -0.033840 -0.225925 0.091155
v -0.034307 -0.221555 0.091155
v -0.034307 -0.221555 0.091155
v -0.034307 -0.225925 0.091155
v -0.033840 -0.221555 0.091155
v -0.033840 -0.225925 0.091155
vn -0.855444080150312 0 -0.5178951879828451
vn -0.5686602844891699 0 0.8225724775633431
vn 0.5686602844891699 0 -0.8225724775633431
vn 0.855444080150312 0 0.5178951879828451
vn 0.7866921669938689 0 0.6173454740989772
vn -0.7866921669938689 0 -0.6173454740989772
vn 0 0 -1
vn 0 0 1
usemtl material_0_0
f 1//1 2//2 3//1
f 2//2 1//1 4//2
f 5//3 6//4 7//3
f 8//4 7//3 6//4
f 4//2 9//5 2//2
f 9//5 4//2 10//5
f 11//6 5//3 12//6
f 7//3 12//6 5//3
f 13//7 14//7 15//7
f 14//7 13//7 16//7
f 17//8 18//8 19//8
f 20//8 19//8 18//8
