# SSTK version 0.8.0
# 1
mtllib original-1.mtl
o #ID4
v 0.446679 -0.224396 0.482986
v 0.474693 -0.221555 0.470613
v 0.474693 -0.224396 0.470613
v 0.446679 -0.221555 0.482986
v 0.446679 -0.221555 0.482986
v 0.446679 -0.224396 0.482986
v 0.474693 -0.221555 0.470613
v 0.474693 -0.224396 0.470613
v 0.474693 -0.224396 0.470613
v 0.498627 -0.221555 0.466191
v 0.498627 -0.224396 0.466191
v 0.474693 -0.221555 0.470613
v 0.474693 -0.221555 0.470613
v 0.474693 -0.224396 0.470613
v 0.498627 -0.221555 0.466191
v 0.498627 -0.224396 0.466191
v 0.312790 -0.224396 0.704540
v 0.354946 -0.224396 0.703948
v 0.331013 -0.224396 0.708370
v 0.301521 -0.224396 0.692720
v 0.382960 -0.224396 0.691575
v 0.297973 -0.224396 0.673713
v 0.413146 -0.224396 0.672094
v 0.358640 -0.224396 0.668376
v 0.302388 -0.224396 0.648817
v 0.375170 -0.224396 0.668541
v 0.345929 -0.224396 0.662668
v 0.337905 -0.224396 0.651807
v 0.335112 -0.224396 0.636533
v 0.314464 -0.224396 0.619727
v 0.337743 -0.224396 0.617887
v 0.333380 -0.224396 0.588425
v 0.345618 -0.224396 0.597140
v 0.358199 -0.224396 0.575705
v 0.357846 -0.224396 0.557046
v 0.374630 -0.224396 0.555044
v 0.386195 -0.224396 0.527727
v 0.393791 -0.224396 0.536564
v 0.414376 -0.224396 0.521525
v 0.416494 -0.224396 0.502466
v 0.434983 -0.224396 0.510951
v 0.454206 -0.224396 0.505564
v 0.394393 -0.224396 0.663154
v 0.443445 -0.224396 0.646834
v 0.414999 -0.224396 0.652580
v 0.435584 -0.224396 0.637541
v 0.471793 -0.224396 0.617515
v 0.454745 -0.224396 0.619061
v 0.471176 -0.224396 0.598400
v 0.496259 -0.224396 0.586135
v 0.483758 -0.224396 0.576965
v 0.515175 -0.224396 0.554834
v 0.489699 -0.224396 0.561313
v 0.491632 -0.224396 0.556218
v 0.494263 -0.224396 0.537572
v 0.527252 -0.224396 0.525744
v 0.491471 -0.224396 0.522298
v 0.531667 -0.224396 0.500847
v 0.483446 -0.224396 0.511437
v 0.470736 -0.224396 0.505730
v 0.446679 -0.224396 0.482986
v 0.528119 -0.224396 0.481841
v 0.474693 -0.224396 0.470613
v 0.516849 -0.224396 0.470020
v 0.498627 -0.224396 0.466191
v 0.498627 -0.224396 0.466191
v 0.474693 -0.224396 0.470613
v 0.516849 -0.224396 0.470020
v 0.528119 -0.224396 0.481841
v 0.446679 -0.224396 0.482986
v 0.531667 -0.224396 0.500847
v 0.416494 -0.224396 0.502466
v 0.454206 -0.224396 0.505564
v 0.470736 -0.224396 0.505730
v 0.483446 -0.224396 0.511437
v 0.491471 -0.224396 0.522298
v 0.527252 -0.224396 0.525744
v 0.494263 -0.224396 0.537572
v 0.515175 -0.224396 0.554834
v 0.491632 -0.224396 0.556218
v 0.489699 -0.224396 0.561313
v 0.483758 -0.224396 0.576965
v 0.496259 -0.224396 0.586135
v 0.471176 -0.224396 0.598400
v 0.471793 -0.224396 0.617515
v 0.454745 -0.224396 0.619061
v 0.435584 -0.224396 0.637541
v 0.443445 -0.224396 0.646834
v 0.414999 -0.224396 0.652580
v 0.394393 -0.224396 0.663154
v 0.375170 -0.224396 0.668541
v 0.413146 -0.224396 0.672094
v 0.434983 -0.224396 0.510951
v 0.414376 -0.224396 0.521525
v 0.386195 -0.224396 0.527727
v 0.393791 -0.224396 0.536564
v 0.374630 -0.224396 0.555044
v 0.357846 -0.224396 0.557046
v 0.358199 -0.224396 0.575705
v 0.333380 -0.224396 0.588425
v 0.345618 -0.224396 0.597140
v 0.337743 -0.224396 0.617887
v 0.314464 -0.224396 0.619727
v 0.335112 -0.224396 0.636533
v 0.302388 -0.224396 0.648817
v 0.337905 -0.224396 0.651807
v 0.345929 -0.224396 0.662668
v 0.358640 -0.224396 0.668376
v 0.297973 -0.224396 0.673713
v 0.382960 -0.224396 0.691575
v 0.301521 -0.224396 0.692720
v 0.354946 -0.224396 0.703948
v 0.312790 -0.224396 0.704540
v 0.331013 -0.224396 0.708370
v 0.416494 -0.224396 0.502466
v 0.446679 -0.221555 0.482986
v 0.446679 -0.224396 0.482986
v 0.416494 -0.221555 0.502466
v 0.416494 -0.221555 0.502466
v 0.416494 -0.224396 0.502466
v 0.446679 -0.221555 0.482986
v 0.446679 -0.224396 0.482986
v 0.498627 -0.224396 0.466191
v 0.516849 -0.221555 0.470020
v 0.516849 -0.224396 0.470020
v 0.498627 -0.221555 0.466191
v 0.498627 -0.221555 0.466191
v 0.498627 -0.224396 0.466191
v 0.516849 -0.221555 0.470020
v 0.516849 -0.224396 0.470020
v 0.301521 -0.221555 0.692720
v 0.297973 -0.224396 0.673713
v 0.301521 -0.224396 0.692720
v 0.297973 -0.221555 0.673713
v 0.297973 -0.221555 0.673713
v 0.301521 -0.221555 0.692720
v 0.297973 -0.224396 0.673713
v 0.301521 -0.224396 0.692720
v 0.297973 -0.221555 0.673713
v 0.302388 -0.224396 0.648817
v 0.297973 -0.224396 0.673713
v 0.302388 -0.221555 0.648817
v 0.302388 -0.221555 0.648817
v 0.297973 -0.221555 0.673713
v 0.302388 -0.224396 0.648817
v 0.297973 -0.224396 0.673713
v 0.302388 -0.221555 0.648817
v 0.314464 -0.224396 0.619727
v 0.302388 -0.224396 0.648817
v 0.314464 -0.221555 0.619727
v 0.314464 -0.221555 0.619727
v 0.302388 -0.221555 0.648817
v 0.314464 -0.224396 0.619727
v 0.302388 -0.224396 0.648817
v 0.314464 -0.221555 0.619727
v 0.333380 -0.224396 0.588425
v 0.314464 -0.224396 0.619727
v 0.333380 -0.221555 0.588425
v 0.333380 -0.221555 0.588425
v 0.314464 -0.221555 0.619727
v 0.333380 -0.224396 0.588425
v 0.314464 -0.224396 0.619727
v 0.333380 -0.221555 0.588425
v 0.357846 -0.224396 0.557046
v 0.333380 -0.224396 0.588425
v 0.357846 -0.221555 0.557046
v 0.357846 -0.221555 0.557046
v 0.333380 -0.221555 0.588425
v 0.357846 -0.224396 0.557046
v 0.333380 -0.224396 0.588425
v 0.357846 -0.221555 0.557046
v 0.386195 -0.224396 0.527727
v 0.357846 -0.224396 0.557046
v 0.386195 -0.221555 0.527727
v 0.386195 -0.221555 0.527727
v 0.357846 -0.221555 0.557046
v 0.386195 -0.224396 0.527727
v 0.357846 -0.224396 0.557046
v 0.386195 -0.224396 0.527727
v 0.416494 -0.221555 0.502466
v 0.416494 -0.224396 0.502466
v 0.386195 -0.221555 0.527727
v 0.386195 -0.221555 0.527727
v 0.386195 -0.224396 0.527727
v 0.416494 -0.221555 0.502466
v 0.416494 -0.224396 0.502466
v 0.516849 -0.221555 0.470020
v 0.528119 -0.224396 0.481841
v 0.516849 -0.224396 0.470020
v 0.528119 -0.221555 0.481841
v 0.528119 -0.221555 0.481841
v 0.516849 -0.221555 0.470020
v 0.528119 -0.224396 0.481841
v 0.516849 -0.224396 0.470020
v 0.528119 -0.221555 0.481841
v 0.531667 -0.224396 0.500847
v 0.528119 -0.224396 0.481841
v 0.531667 -0.221555 0.500847
v 0.531667 -0.221555 0.500847
v 0.528119 -0.221555 0.481841
v 0.531667 -0.224396 0.500847
v 0.528119 -0.224396 0.481841
v 0.531667 -0.221555 0.500847
v 0.527252 -0.224396 0.525744
v 0.531667 -0.224396 0.500847
v 0.527252 -0.221555 0.525744
v 0.527252 -0.221555 0.525744
v 0.531667 -0.221555 0.500847
v 0.527252 -0.224396 0.525744
v 0.531667 -0.224396 0.500847
v 0.527252 -0.221555 0.525744
v 0.515175 -0.224396 0.554834
v 0.527252 -0.224396 0.525744
v 0.515175 -0.221555 0.554834
v 0.515175 -0.221555 0.554834
v 0.527252 -0.221555 0.525744
v 0.515175 -0.224396 0.554834
v 0.527252 -0.224396 0.525744
v 0.515175 -0.221555 0.554834
v 0.496259 -0.224396 0.586135
v 0.515175 -0.224396 0.554834
v 0.496259 -0.221555 0.586135
v 0.496259 -0.221555 0.586135
v 0.515175 -0.221555 0.554834
v 0.496259 -0.224396 0.586135
v 0.515175 -0.224396 0.554834
v 0.496259 -0.221555 0.586135
v 0.471793 -0.224396 0.617515
v 0.496259 -0.224396 0.586135
v 0.471793 -0.221555 0.617515
v 0.471793 -0.221555 0.617515
v 0.496259 -0.221555 0.586135
v 0.471793 -0.224396 0.617515
v 0.496259 -0.224396 0.586135
v 0.471793 -0.221555 0.617515
v 0.443445 -0.224396 0.646834
v 0.471793 -0.224396 0.617515
v 0.443445 -0.221555 0.646834
v 0.443445 -0.221555 0.646834
v 0.471793 -0.221555 0.617515
v 0.443445 -0.224396 0.646834
v 0.471793 -0.224396 0.617515
v 0.413146 -0.221555 0.672094
v 0.443445 -0.224396 0.646834
v 0.443445 -0.221555 0.646834
v 0.413146 -0.224396 0.672094
v 0.413146 -0.224396 0.672094
v 0.413146 -0.221555 0.672094
v 0.443445 -0.224396 0.646834
v 0.443445 -0.221555 0.646834
v 0.382960 -0.221555 0.691575
v 0.413146 -0.224396 0.672094
v 0.413146 -0.221555 0.672094
v 0.382960 -0.224396 0.691575
v 0.382960 -0.224396 0.691575
v 0.382960 -0.221555 0.691575
v 0.413146 -0.224396 0.672094
v 0.413146 -0.221555 0.672094
v 0.354946 -0.221555 0.703948
v 0.382960 -0.224396 0.691575
v 0.382960 -0.221555 0.691575
v 0.354946 -0.224396 0.703948
v 0.354946 -0.224396 0.703948
v 0.354946 -0.221555 0.703948
v 0.382960 -0.224396 0.691575
v 0.382960 -0.221555 0.691575
v 0.331013 -0.221555 0.708370
v 0.354946 -0.224396 0.703948
v 0.354946 -0.221555 0.703948
v 0.331013 -0.224396 0.708370
v 0.331013 -0.224396 0.708370
v 0.331013 -0.221555 0.708370
v 0.354946 -0.224396 0.703948
v 0.354946 -0.221555 0.703948
v 0.312790 -0.221555 0.704540
v 0.331013 -0.224396 0.708370
v 0.331013 -0.221555 0.708370
v 0.312790 -0.224396 0.704540
v 0.312790 -0.224396 0.704540
v 0.312790 -0.221555 0.704540
v 0.331013 -0.224396 0.708370
v 0.331013 -0.221555 0.708370
v 0.312790 -0.221555 0.704540
v 0.301521 -0.224396 0.692720
v 0.312790 -0.224396 0.704540
v 0.301521 -0.221555 0.692720
v 0.301521 -0.221555 0.692720
v 0.312790 -0.221555 0.704540
v 0.301521 -0.224396 0.692720
v 0.312790 -0.224396 0.704540
vn -0.40402071562978936 0 -0.9147498353877921
vn 0.40402071562978936 0 0.9147498353877921
vn -0.18169930712189683 0 -0.9833541385439035
vn 0.18169930712189683 0 0.9833541385439035
vn 0 -1 0
vn 0 1 0
vn -0.5422492058850045 0 -0.8402177091189414
vn 0.5422492058850045 0 0.8402177091189414
vn 0.2056710943991507 0 -0.9786211733498593
vn -0.2056710943991507 0 0.9786211733498593
vn -0.9830171720426087 0 0.1835135947807471
vn 0.9830171720426087 0 -0.1835135947807471
vn -0.9846393937020156 0 -0.17460029888327025
vn 0.9846393937020156 0 0.17460029888327025
vn -0.9235728899058726 0 -0.38342289580946376
vn 0.9235728899058726 0 0.38342289580946376
vn -0.8558590066561417 0 -0.5172092040224752
vn 0.8558590066561417 0 0.5172092040224752
vn -0.7886245900040872 0 -0.6148749922064528
vn 0.7886245900040872 0 0.6148749922064528
vn -0.7189038876256642 0 -0.6951094880353068
vn 0.7189038876256642 0 0.6951094880353068
vn -0.6403499159546291 0 -0.7680833191372531
vn 0.6403499159546291 0 0.7680833191372531
vn 0.7237889346618667 0 -0.6900214330446847
vn -0.7237889346618667 0 0.6900214330446847
usemtl material_0_0
f 1//1 2//1 3//1
f 2//1 1//1 4//1
f 5//2 6//2 7//2
f 8//2 7//2 6//2
f 9//3 10//3 11//3
f 10//3 9//3 12//3
f 13//4 14//4 15//4
f 16//4 15//4 14//4
f 17//5 18//5 19//5
f 18//5 17//5 20//5
f 18//5 20//5 21//5
f 21//5 20//5 22//5
f 21//5 22//5 23//5
f 23//5 22//5 24//5
f 24//5 22//5 25//5
f 23//5 24//5 26//5
f 24//5 25//5 27//5
f 27//5 25//5 28//5
f 28//5 25//5 29//5
f 29//5 25//5 30//5
f 29//5 30//5 31//5
f 31//5 30//5 32//5
f 31//5 32//5 33//5
f 33//5 32//5 34//5
f 34//5 32//5 35//5
f 34//5 35//5 36//5
f 36//5 35//5 37//5
f 36//5 37//5 38//5
f 38//5 37//5 39//5
f 39//5 37//5 40//5
f 39//5 40//5 41//5
f 41//5 40//5 42//5
f 23//5 43//5 44//5
f 43//5 23//5 26//5
f 44//5 43//5 45//5
f 44//5 45//5 46//5
f 44//5 46//5 47//5
f 47//5 46//5 48//5
f 47//5 48//5 49//5
f 47//5 49//5 50//5
f 50//5 49//5 51//5
f 50//5 51//5 52//5
f 52//5 51//5 53//5
f 52//5 53//5 54//5
f 52//5 54//5 55//5
f 52//5 55//5 56//5
f 56//5 55//5 57//5
f 56//5 57//5 58//5
f 58//5 57//5 59//5
f 58//5 59//5 60//5
f 58//5 60//5 42//5
f 58//5 42//5 40//5
f 58//5 40//5 61//5
f 58//5 61//5 62//5
f 62//5 61//5 63//5
f 62//5 63//5 64//5
f 64//5 63//5 65//5
f 66//6 67//6 68//6
f 68//6 67//6 69//6
f 67//6 70//6 69//6
f 69//6 70//6 71//6
f 70//6 72//6 71//6
f 72//6 73//6 71//6
f 73//6 74//6 71//6
f 74//6 75//6 71//6
f 75//6 76//6 71//6
f 71//6 76//6 77//6
f 76//6 78//6 77//6
f 77//6 78//6 79//6
f 78//6 80//6 79//6
f 80//6 81//6 79//6
f 81//6 82//6 79//6
f 79//6 82//6 83//6
f 82//6 84//6 83//6
f 83//6 84//6 85//6
f 84//6 86//6 85//6
f 86//6 87//6 85//6
f 85//6 87//6 88//6
f 87//6 89//6 88//6
f 89//6 90//6 88//6
f 91//6 92//6 90//6
f 88//6 90//6 92//6
f 73//6 72//6 93//6
f 93//6 72//6 94//6
f 72//6 95//6 94//6
f 94//6 95//6 96//6
f 96//6 95//6 97//6
f 95//6 98//6 97//6
f 97//6 98//6 99//6
f 98//6 100//6 99//6
f 99//6 100//6 101//6
f 101//6 100//6 102//6
f 100//6 103//6 102//6
f 102//6 103//6 104//6
f 103//6 105//6 104//6
f 104//6 105//6 106//6
f 106//6 105//6 107//6
f 107//6 105//6 108//6
f 91//6 108//6 92//6
f 105//6 109//6 108//6
f 108//6 109//6 92//6
f 92//6 109//6 110//6
f 109//6 111//6 110//6
f 110//6 111//6 112//6
f 111//6 113//6 112//6
f 114//6 112//6 113//6
f 115//7 116//7 117//7
f 116//7 115//7 118//7
f 119//8 120//8 121//8
f 122//8 121//8 120//8
f 123//9 124//9 125//9
f 124//9 123//9 126//9
f 127//10 128//10 129//10
f 130//10 129//10 128//10
f 131//11 132//11 133//11
f 132//11 131//11 134//11
f 135//12 136//12 137//12
f 138//12 137//12 136//12
f 139//13 140//13 141//13
f 140//13 139//13 142//13
f 143//14 144//14 145//14
f 146//14 145//14 144//14
f 147//15 148//15 149//15
f 148//15 147//15 150//15
f 151//16 152//16 153//16
f 154//16 153//16 152//16
f 155//17 156//17 157//17
f 156//17 155//17 158//17
f 159//18 160//18 161//18
f 162//18 161//18 160//18
f 163//19 164//19 165//19
f 164//19 163//19 166//19
f 167//20 168//20 169//20
f 170//20 169//20 168//20
f 171//21 172//21 173//21
f 172//21 171//21 174//21
f 175//22 176//22 177//22
f 178//22 177//22 176//22
f 179//23 180//23 181//23
f 180//23 179//23 182//23
f 183//24 184//24 185//24
f 186//24 185//24 184//24
f 187//25 188//25 189//25
f 188//25 187//25 190//25
f 191//26 192//26 193//26
f 194//26 193//26 192//26
f 195//12 196//12 197//12
f 196//12 195//12 198//12
f 199//11 200//11 201//11
f 202//11 201//11 200//11
f 203//14 204//14 205//14
f 204//14 203//14 206//14
f 207//13 208//13 209//13
f 210//13 209//13 208//13
f 211//16 212//16 213//16
f 212//16 211//16 214//16
f 215//15 216//15 217//15
f 218//15 217//15 216//15
f 219//18 220//18 221//18
f 220//18 219//18 222//18
f 223//17 224//17 225//17
f 226//17 225//17 224//17
f 227//20 228//20 229//20
f 228//20 227//20 230//20
f 231//19 232//19 233//19
f 234//19 233//19 232//19
f 235//22 236//22 237//22
f 236//22 235//22 238//22
f 239//21 240//21 241//21
f 242//21 241//21 240//21
f 243//24 244//24 245//24
f 244//24 243//24 246//24
f 247//23 248//23 249//23
f 250//23 249//23 248//23
f 251//8 252//8 253//8
f 252//8 251//8 254//8
f 255//7 256//7 257//7
f 258//7 257//7 256//7
f 259//2 260//2 261//2
f 260//2 259//2 262//2
f 263//1 264//1 265//1
f 266//1 265//1 264//1
f 267//4 268//4 269//4
f 268//4 267//4 270//4
f 271//3 272//3 273//3
f 274//3 273//3 272//3
f 275//10 276//10 277//10
f 276//10 275//10 278//10
f 279//9 280//9 281//9
f 282//9 281//9 280//9
f 283//26 284//26 285//26
f 284//26 283//26 286//26
f 287//25 288//25 289//25
f 290//25 289//25 288//25
