# SSTK version 0.8.0
# 55
mtllib original-55.mtl
o #ID350
v -0.350884 -0.221555 0.395501
v -0.350545 -0.228111 0.401132
v -0.350884 -0.228111 0.395501
v -0.350545 -0.221555 0.401132
v -0.350545 -0.221555 0.401132
v -0.350884 -0.221555 0.395501
v -0.350545 -0.228111 0.401132
v -0.350884 -0.228111 0.395501
v -0.336096 -0.221555 0.417675
v -0.327402 -0.221555 0.417326
v -0.332454 -0.221555 0.417999
v -0.339475 -0.221555 0.416703
v -0.322872 -0.221555 0.415306
v -0.342591 -0.221555 0.415083
v -0.319116 -0.221555 0.412063
v -0.345443 -0.221555 0.412815
v -0.347824 -0.221555 0.409788
v -0.316386 -0.221555 0.407721
v -0.349524 -0.221555 0.405894
v -0.314724 -0.221555 0.402413
v -0.350545 -0.221555 0.401132
v -0.314170 -0.221555 0.396271
v -0.350884 -0.221555 0.395501
v -0.314493 -0.221555 0.391381
v -0.350558 -0.221555 0.390904
v -0.315466 -0.221555 0.387083
v -0.349579 -0.221555 0.386822
v -0.317086 -0.221555 0.383375
v -0.347947 -0.221555 0.383255
v -0.319354 -0.221555 0.380258
v -0.345663 -0.221555 0.380203
v -0.322125 -0.221555 0.377790
v -0.342886 -0.221555 0.377759
v -0.325249 -0.221555 0.376026
v -0.339777 -0.221555 0.376013
v -0.328729 -0.221555 0.374969
v -0.336336 -0.221555 0.374965
v -0.332564 -0.221555 0.374616
v -0.332564 -0.221555 0.374616
v -0.336336 -0.221555 0.374965
v -0.328729 -0.221555 0.374969
v -0.339777 -0.221555 0.376013
v -0.325249 -0.221555 0.376026
v -0.342886 -0.221555 0.377759
v -0.322125 -0.221555 0.377790
v -0.345663 -0.221555 0.380203
v -0.319354 -0.221555 0.380258
v -0.347947 -0.221555 0.383255
v -0.317086 -0.221555 0.383375
v -0.349579 -0.221555 0.386822
v -0.315466 -0.221555 0.387083
v -0.350558 -0.221555 0.390904
v -0.314493 -0.221555 0.391381
v -0.350884 -0.221555 0.395501
v -0.314170 -0.221555 0.396271
v -0.350545 -0.221555 0.401132
v -0.314724 -0.221555 0.402413
v -0.349524 -0.221555 0.405894
v -0.316386 -0.221555 0.407721
v -0.347824 -0.221555 0.409788
v -0.319116 -0.221555 0.412063
v -0.345443 -0.221555 0.412815
v -0.342591 -0.221555 0.415083
v -0.322872 -0.221555 0.415306
v -0.339475 -0.221555 0.416703
v -0.327402 -0.221555 0.417326
v -0.336096 -0.221555 0.417675
v -0.332454 -0.221555 0.417999
v -0.349524 -0.228111 0.405894
v -0.349524 -0.221555 0.405894
v -0.349524 -0.221555 0.405894
v -0.349524 -0.228111 0.405894
v -0.350558 -0.221555 0.390904
v -0.350558 -0.228111 0.390904
v -0.350558 -0.221555 0.390904
v -0.350558 -0.228111 0.390904
v -0.347947 -0.221555 0.383255
v -0.349579 -0.228111 0.386822
v -0.347947 -0.228111 0.383255
v -0.349579 -0.221555 0.386822
v -0.349579 -0.221555 0.386822
v -0.347947 -0.221555 0.383255
v -0.349579 -0.228111 0.386822
v -0.347947 -0.228111 0.383255
v -0.345663 -0.221555 0.380203
v -0.345663 -0.228111 0.380203
v -0.345663 -0.221555 0.380203
v -0.345663 -0.228111 0.380203
v -0.342886 -0.228111 0.377759
v -0.342886 -0.221555 0.377759
v -0.342886 -0.228111 0.377759
v -0.342886 -0.221555 0.377759
v -0.339777 -0.228111 0.376013
v -0.339777 -0.221555 0.376013
v -0.339777 -0.228111 0.376013
v -0.339777 -0.221555 0.376013
v -0.336336 -0.228111 0.374965
v -0.336336 -0.221555 0.374965
v -0.336336 -0.228111 0.374965
v -0.336336 -0.221555 0.374965
v -0.332564 -0.228111 0.374616
v -0.332564 -0.221555 0.374616
v -0.332564 -0.228111 0.374616
v -0.332564 -0.221555 0.374616
v -0.328729 -0.228111 0.374969
v -0.328729 -0.221555 0.374969
v -0.328729 -0.228111 0.374969
v -0.328729 -0.221555 0.374969
v -0.325249 -0.228111 0.376026
v -0.325249 -0.221555 0.376026
v -0.325249 -0.228111 0.376026
v -0.325249 -0.221555 0.376026
v -0.322125 -0.228111 0.377790
v -0.322125 -0.221555 0.377790
v -0.322125 -0.228111 0.377790
v -0.322125 -0.221555 0.377790
v -0.319354 -0.228111 0.380258
v -0.319354 -0.221555 0.380258
v -0.319354 -0.228111 0.380258
v -0.319354 -0.221555 0.380258
v -0.317086 -0.221555 0.383375
v -0.317086 -0.228111 0.383375
v -0.317086 -0.221555 0.383375
v -0.317086 -0.228111 0.383375
v -0.315466 -0.221555 0.387083
v -0.315466 -0.228111 0.387083
v -0.315466 -0.221555 0.387083
v -0.315466 -0.228111 0.387083
v -0.314493 -0.221555 0.391381
v -0.314493 -0.228111 0.391381
v -0.314493 -0.221555 0.391381
v -0.314493 -0.228111 0.391381
v -0.314170 -0.221555 0.396271
v -0.314170 -0.228111 0.396271
v -0.314170 -0.221555 0.396271
v -0.314170 -0.228111 0.396271
v -0.314724 -0.221555 0.402413
v -0.314724 -0.228111 0.402413
v -0.314724 -0.221555 0.402413
v -0.314724 -0.228111 0.402413
v -0.316386 -0.221555 0.407721
v -0.316386 -0.228111 0.407721
v -0.316386 -0.221555 0.407721
v -0.316386 -0.228111 0.407721
v -0.319116 -0.221555 0.412063
v -0.319116 -0.228111 0.412063
v -0.319116 -0.221555 0.412063
v -0.319116 -0.228111 0.412063
v -0.322872 -0.228111 0.415306
v -0.322872 -0.221555 0.415306
v -0.322872 -0.221555 0.415306
v -0.322872 -0.228111 0.415306
v -0.327402 -0.228111 0.417326
v -0.327402 -0.221555 0.417326
v -0.327402 -0.221555 0.417326
v -0.327402 -0.228111 0.417326
v -0.332454 -0.228111 0.417999
v -0.332454 -0.221555 0.417999
v -0.332454 -0.221555 0.417999
v -0.332454 -0.228111 0.417999
v -0.336096 -0.228111 0.417675
v -0.336096 -0.221555 0.417675
v -0.336096 -0.221555 0.417675
v -0.336096 -0.228111 0.417675
v -0.339475 -0.228111 0.416703
v -0.339475 -0.221555 0.416703
v -0.339475 -0.221555 0.416703
v -0.339475 -0.228111 0.416703
v -0.342591 -0.228111 0.415083
v -0.342591 -0.221555 0.415083
v -0.342591 -0.221555 0.415083
v -0.342591 -0.228111 0.415083
v -0.345443 -0.228111 0.412815
v -0.345443 -0.221555 0.412815
v -0.345443 -0.221555 0.412815
v -0.345443 -0.228111 0.412815
v -0.347824 -0.221555 0.409788
v -0.347824 -0.228111 0.409788
v -0.347824 -0.221555 0.409788
v -0.347824 -0.228111 0.409788
vn 0.9999861252711388 0 0.0052677571331779145
vn 0.9908086656544529 0 -0.13527079531089756
vn -0.9908086656544529 0 0.13527079531089756
vn -0.9999861252711388 0 -0.0052677571331779145
vn 0 -1 0
vn 0 1 0
vn 0.9519163729879812 0 -0.30635799130658753
vn -0.9519163729879812 0 0.30635799130658753
vn 0.9882991960527594 0 0.15252769939086291
vn -0.9882991960527594 0 -0.15252769939086291
vn 0.8598493798944588 0 0.5105477880621117
vn 0.9453223793822558 0 0.3261373928869096
vn -0.9453223793822558 0 -0.3261373928869096
vn -0.8598493798944588 0 -0.5105477880621117
vn 0.7345761049646329 0 0.6785263045858936
vn -0.7345761049646329 0 -0.6785263045858936
vn 0.5784540025043727 0 0.8157150035316693
vn -0.5784540025043727 0 -0.8157150035316693
vn 0.39280079329138423 0 0.919623584293954
vn -0.39280079329138423 0 -0.919623584293954
vn 0.192723904659991 0 0.9812530237266057
vn -0.192723904659991 0 -0.9812530237266057
vn 0.0002958513869985069 0 0.9999999562359776
vn -0.0002958513869985069 0 -0.9999999562359776
vn -0.19223369540986499 0 0.9813491765671724
vn 0.19223369540986499 0 -0.9813491765671724
vn -0.3935264056955867 0 0.9193133133052696
vn 0.3935264056955867 0 -0.9193133133052696
vn -0.5817421011445342 0 0.8133733016001586
vn 0.5817421011445342 0 -0.8133733016001586
vn -0.7411782156373662 0 0.6713083141631795
vn 0.7411782156373662 0 -0.6713083141631795
vn -0.8675425246923477 0 0.49736301415608614
vn 0.8675425246923477 0 -0.49736301415608614
vn -0.9501115189735492 0 0.3119104062287357
vn 0.9501115189735492 0 -0.3119104062287357
vn -0.9896070455156935 0 0.1437981066137531
vn 0.9896070455156935 0 -0.1437981066137531
vn -0.9999291486843747 0 -0.011903680579618159
vn 0.9999291486843747 0 0.011903680579618159
vn -0.9807060132539569 0 -0.19548840264202388
vn 0.9807060132539569 0 0.19548840264202388
vn -0.9079682467358877 0 -0.41903897541798923
vn 0.9079682467358877 0 0.41903897541798923
vn -0.7584220071767455 0 -0.6517638061675384
vn 0.7584220071767455 0 0.6517638061675384
vn -0.5361224967129098 0 -0.844140194824483
vn 0.5361224967129098 0 0.844140194824483
vn -0.27247818859411504 0 -0.9621619597242815
vn 0.27247818859411504 0 0.9621619597242815
vn -0.021878270918718124 0 -0.9997606419846738
vn 0.021878270918718124 0 0.9997606419846738
vn 0.18338910091415864 0 -0.9830404048999698
vn -0.18338910091415864 0 0.9830404048999698
vn 0.3707700934292439 0 -0.9287246835410748
vn -0.3707700934292439 0 0.9287246835410748
vn 0.5444171943302123 0 -0.8388145912641362
vn -0.5444171943302123 0 0.8388145912641362
vn 0.7089870744663439 0 -0.7052214746018832
vn -0.7089870744663439 0 0.7052214746018832
vn 0.8581695912725072 0 -0.5133662947790572
vn -0.8581695912725072 0 0.5133662947790572
usemtl material_0_0
f 1//1 2//2 3//1
f 2//2 1//1 4//2
f 5//3 6//4 7//3
f 8//4 7//3 6//4
f 9//5 10//5 11//5
f 10//5 9//5 12//5
f 10//5 12//5 13//5
f 13//5 12//5 14//5
f 13//5 14//5 15//5
f 15//5 14//5 16//5
f 15//5 16//5 17//5
f 15//5 17//5 18//5
f 18//5 17//5 19//5
f 18//5 19//5 20//5
f 20//5 19//5 21//5
f 20//5 21//5 22//5
f 22//5 21//5 23//5
f 22//5 23//5 24//5
f 24//5 23//5 25//5
f 24//5 25//5 26//5
f 26//5 25//5 27//5
f 26//5 27//5 28//5
f 28//5 27//5 29//5
f 28//5 29//5 30//5
f 30//5 29//5 31//5
f 30//5 31//5 32//5
f 32//5 31//5 33//5
f 32//5 33//5 34//5
f 34//5 33//5 35//5
f 34//5 35//5 36//5
f 36//5 35//5 37//5
f 36//5 37//5 38//5
f 39//6 40//6 41//6
f 40//6 42//6 41//6
f 41//6 42//6 43//6
f 42//6 44//6 43//6
f 43//6 44//6 45//6
f 44//6 46//6 45//6
f 45//6 46//6 47//6
f 46//6 48//6 47//6
f 47//6 48//6 49//6
f 48//6 50//6 49//6
f 49//6 50//6 51//6
f 50//6 52//6 51//6
f 51//6 52//6 53//6
f 52//6 54//6 53//6
f 53//6 54//6 55//6
f 54//6 56//6 55//6
f 55//6 56//6 57//6
f 56//6 58//6 57//6
f 57//6 58//6 59//6
f 58//6 60//6 59//6
f 59//6 60//6 61//6
f 60//6 62//6 61//6
f 62//6 63//6 61//6
f 61//6 63//6 64//6
f 63//6 65//6 64//6
f 64//6 65//6 66//6
f 65//6 67//6 66//6
f 68//6 66//6 67//6
f 4//2 69//7 2//2
f 69//7 4//2 70//7
f 71//8 5//3 72//8
f 7//3 72//8 5//3
f 73//9 3//1 74//9
f 3//1 73//9 1//1
f 6//4 75//10 8//4
f 76//10 8//4 75//10
f 77//11 78//12 79//11
f 78//12 77//11 80//12
f 81//13 82//14 83//13
f 84//14 83//13 82//14
f 85//15 79//11 86//15
f 79//11 85//15 77//11
f 82//14 87//16 84//14
f 88//16 84//14 87//16
f 85//15 89//17 90//17
f 89//17 85//15 86//15
f 88//16 87//16 91//18
f 92//18 91//18 87//16
f 90//17 93//19 94//19
f 93//19 90//17 89//17
f 91//18 92//18 95//20
f 96//20 95//20 92//18
f 94//19 97//21 98//21
f 97//21 94//19 93//19
f 95//20 96//20 99//22
f 100//22 99//22 96//20
f 98//21 101//23 102//23
f 101//23 98//21 97//21
f 99//22 100//22 103//24
f 104//24 103//24 100//22
f 102//23 105//25 106//25
f 105//25 102//23 101//23
f 103//24 104//24 107//26
f 108//26 107//26 104//24
f 106//25 109//27 110//27
f 109//27 106//25 105//25
f 107//26 108//26 111//28
f 112//28 111//28 108//26
f 110//27 113//29 114//29
f 113//29 110//27 109//27
f 111//28 112//28 115//30
f 116//30 115//30 112//28
f 114//29 117//31 118//31
f 117//31 114//29 113//29
f 115//30 116//30 119//32
f 120//32 119//32 116//30
f 121//33 117//31 122//33
f 117//31 121//33 118//31
f 120//32 123//34 119//32
f 124//34 119//32 123//34
f 125//35 122//33 126//35
f 122//33 125//35 121//33
f 123//34 127//36 124//34
f 128//36 124//34 127//36
f 129//37 126//35 130//37
f 126//35 129//37 125//35
f 127//36 131//38 128//36
f 132//38 128//36 131//38
f 133//39 130//37 134//39
f 130//37 133//39 129//37
f 131//38 135//40 132//38
f 136//40 132//38 135//40
f 137//41 134//39 138//41
f 134//39 137//41 133//39
f 135//40 139//42 136//40
f 140//42 136//40 139//42
f 141//43 138//41 142//43
f 138//41 141//43 137//41
f 139//42 143//44 140//42
f 144//44 140//42 143//44
f 145//45 142//43 146//45
f 142//43 145//45 141//43
f 143//44 147//46 144//44
f 148//46 144//44 147//46
f 149//47 145//45 146//45
f 145//45 149//47 150//47
f 151//48 152//48 147//46
f 148//46 147//46 152//48
f 153//49 150//47 149//47
f 150//47 153//49 154//49
f 155//50 156//50 151//48
f 152//48 151//48 156//50
f 157//51 154//49 153//49
f 154//49 157//51 158//51
f 159//52 160//52 155//50
f 156//50 155//50 160//52
f 161//53 158//51 157//51
f 158//51 161//53 162//53
f 163//54 164//54 159//52
f 160//52 159//52 164//54
f 165//55 162//53 161//53
f 162//53 165//55 166//55
f 167//56 168//56 163//54
f 164//54 163//54 168//56
f 169//57 166//55 165//55
f 166//55 169//57 170//57
f 171//58 172//58 167//56
f 168//56 167//56 172//58
f 173//59 170//57 169//57
f 170//57 173//59 174//59
f 175//60 176//60 171//58
f 172//58 171//58 176//60
f 177//61 173//59 178//61
f 173//59 177//61 174//59
f 175//60 179//62 176//60
f 180//62 176//60 179//62
f 70//7 178//61 69//7
f 178//61 70//7 177//61
f 179//62 71//8 180//62
f 72//8 180//62 71//8
f 80//12 74//9 78//12
f 74//9 80//12 73//9
f 75//10 81//13 76//10
f 83//13 76//10 81//13
