# SSTK version 0.8.0
# 47
mtllib original-47.mtl
o #ID298
v 0.069829 -0.197516 0.194187
v 0.161492 -0.197516 0.178556
v 0.226460 -0.197516 0.194187
v 0.152532 -0.197516 0.174844
v 0.144838 -0.197516 0.168940
v 0.069829 -0.197516 0.091155
v 0.171107 -0.197516 0.179821
v 0.138934 -0.197516 0.161246
v 0.135222 -0.197516 0.152287
v 0.133957 -0.197516 0.142671
v 0.135222 -0.197516 0.133056
v 0.138934 -0.197516 0.124096
v 0.144838 -0.197516 0.116402
v 0.152532 -0.197516 0.110498
v 0.161492 -0.197516 0.106787
v 0.171107 -0.197516 0.105521
v 0.206991 -0.197516 0.152287
v 0.226460 -0.197516 0.091155
v 0.203280 -0.197516 0.161246
v 0.197376 -0.197516 0.168940
v 0.189682 -0.197516 0.174844
v 0.180722 -0.197516 0.178556
v 0.208257 -0.197516 0.142671
v 0.206991 -0.197516 0.133056
v 0.203280 -0.197516 0.124096
v 0.197376 -0.197516 0.116402
v 0.189682 -0.197516 0.110498
v 0.180722 -0.197516 0.106787
v 0.069829 -0.197516 0.091155
v 0.171107 -0.197516 0.105521
v 0.226460 -0.197516 0.091155
v 0.180722 -0.197516 0.106787
v 0.189682 -0.197516 0.110498
v 0.197376 -0.197516 0.116402
v 0.203280 -0.197516 0.124096
v 0.206991 -0.197516 0.133056
v 0.208257 -0.197516 0.142671
v 0.206991 -0.197516 0.152287
v 0.171107 -0.197516 0.179821
v 0.226460 -0.197516 0.194187
v 0.180722 -0.197516 0.178556
v 0.189682 -0.197516 0.174844
v 0.197376 -0.197516 0.168940
v 0.203280 -0.197516 0.161246
v 0.161492 -0.197516 0.106787
v 0.152532 -0.197516 0.110498
v 0.144838 -0.197516 0.116402
v 0.138934 -0.197516 0.124096
v 0.135222 -0.197516 0.133056
v 0.133957 -0.197516 0.142671
v 0.135222 -0.197516 0.152287
v 0.138934 -0.197516 0.161246
v 0.144838 -0.197516 0.168940
v 0.161492 -0.197516 0.178556
v 0.069829 -0.197516 0.194187
v 0.152532 -0.197516 0.174844
v 0.069829 -0.197516 0.091155
v 0.069829 -0.197516 0.194187
v -0.038221 -0.210628 0.186951
v -0.038221 -0.210628 0.186951
v 0.069829 -0.197516 0.194187
v 0.069829 -0.197516 0.091155
v -0.033840 -0.210628 0.194187
v -0.033840 -0.210628 0.194187
v -0.042949 -0.210628 0.176460
v -0.042949 -0.210628 0.176460
v -0.046376 -0.210628 0.165475
v -0.046376 -0.210628 0.165475
v -0.048452 -0.210628 0.154157
v -0.048452 -0.210628 0.154157
v -0.049148 -0.210628 0.142671
v -0.049148 -0.210628 0.142671
v -0.048452 -0.210628 0.131185
v -0.048452 -0.210628 0.131185
v -0.046376 -0.210628 0.119867
v -0.046376 -0.210628 0.119867
v -0.042949 -0.210628 0.108882
v -0.042949 -0.210628 0.108882
v -0.038221 -0.210628 0.098392
v -0.038221 -0.210628 0.098392
v -0.033840 -0.210628 0.091155
v -0.033840 -0.210628 0.091155
vn 0 -1 0
vn 0.1156309004868501 -0.9932781041820814 0.005301189022326043
vn 0.12067720114830768 -0.9926866094459391 -0.003210693030545168
vn 0.10766410379773647 -0.9933604350397103 -0.04053994142999681
vn 0.12511789663021802 -0.9892460733567482 -0.07574772795988854
vn 0.08928023813437046 -0.9953926791999227 -0.03496359926938368
vn 0.09629675387813341 -0.995039140072931 -0.024980891006043424
vn 0.10284930090693464 -0.9945998087704658 -0.01390114012257612
vn 0.1088504034816842 -0.9940568317958572 -0.001613946051617966
vn 0.11418200206982834 -0.993387318007583 0.012004450217616047
vn 0.11868720130738301 -0.9925621109334476 0.027088820298399787
vn 0.12216100580241071 -0.9915442470964466 0.04378007207947567
vn 0.1243380049163675 -0.9902874391563328 0.06221614246005583
vn 0.12511789663020983 -0.9892460733567481 0.07574772795990159
vn 0 1 0
vn -0.10766410379773647 0.9933604350397103 0.04053994142999681
vn -0.12067720114830768 0.9926866094459391 0.003210693030545168
vn -0.1156309004868501 0.9932781041820814 -0.005301189022326043
vn -0.12511789663021802 0.9892460733567482 0.07574772795988854
vn -0.08928023813437046 0.9953926791999227 0.03496359926938368
vn -0.09629675387813341 0.995039140072931 0.024980891006043424
vn -0.10284930090693464 0.9945998087704658 0.01390114012257612
vn -0.1088504034816842 0.9940568317958572 0.001613946051617966
vn -0.11418200206982834 0.993387318007583 -0.012004450217616047
vn -0.11868720130738301 0.9925621109334476 -0.027088820298399787
vn -0.12216100580241071 0.9915442470964466 -0.04378007207947567
vn -0.1243380049163675 0.9902874391563328 -0.06221614246005583
vn -0.12511789663020983 0.9892460733567481 -0.07574772795990159
usemtl material_0_0
f 1//1 2//1 3//1
f 2//1 1//1 4//1
f 4//1 1//1 5//1
f 5//1 1//1 6//1
f 3//1 2//1 7//1
f 5//1 6//1 8//1
f 8//1 6//1 9//1
f 9//1 6//1 10//1
f 10//1 6//1 11//1
f 11//1 6//1 12//1
f 12//1 6//1 13//1
f 13//1 6//1 14//1
f 14//1 6//1 15//1
f 15//1 6//1 16//1
f 3//1 17//1 18//1
f 17//1 3//1 19//1
f 19//1 3//1 20//1
f 20//1 3//1 21//1
f 21//1 3//1 22//1
f 22//1 3//1 7//1
f 18//1 17//1 23//1
f 18//1 23//1 24//1
f 18//1 24//1 25//1
f 18//1 25//1 26//1
f 18//1 26//1 27//1
f 18//1 27//1 28//1
f 18//1 28//1 16//1
f 18//1 16//1 6//1
f 57//2 58//3 59//4
f 59//4 58//3 63//5
f 57//2 59//4 65//6
f 57//2 65//6 67//7
f 57//2 67//7 69//8
f 57//2 69//8 71//9
f 57//2 71//9 73//10
f 57//2 73//10 75//11
f 57//2 75//11 77//12
f 57//2 77//12 79//13
f 57//2 79//13 81//14
usemtl material_1_0
f 29//15 30//15 31//15
f 30//15 32//15 31//15
f 32//15 33//15 31//15
f 33//15 34//15 31//15
f 34//15 35//15 31//15
f 35//15 36//15 31//15
f 36//15 37//15 31//15
f 37//15 38//15 31//15
f 39//15 40//15 41//15
f 41//15 40//15 42//15
f 42//15 40//15 43//15
f 43//15 40//15 44//15
f 44//15 40//15 38//15
f 31//15 38//15 40//15
f 30//15 29//15 45//15
f 45//15 29//15 46//15
f 46//15 29//15 47//15
f 47//15 29//15 48//15
f 48//15 29//15 49//15
f 49//15 29//15 50//15
f 50//15 29//15 51//15
f 51//15 29//15 52//15
f 52//15 29//15 53//15
f 39//15 54//15 40//15
f 29//15 55//15 53//15
f 53//15 55//15 56//15
f 56//15 55//15 54//15
f 40//15 54//15 55//15
f 60//16 61//17 62//18
f 64//19 61//17 60//16
f 66//20 60//16 62//18
f 68//21 66//20 62//18
f 70//22 68//21 62//18
f 72//23 70//22 62//18
f 74//24 72//23 62//18
f 76//25 74//24 62//18
f 78//26 76//25 62//18
f 80//27 78//26 62//18
f 82//28 80//27 62//18
