# SSTK version 0.8.0
# 8
mtllib original-8.mtl
o #ID50
v -0.484693 -0.228111 0.331634
v -0.407364 -0.228111 0.339861
v -0.484693 -0.228111 0.339861
v -0.407364 -0.228111 0.331634
v -0.407364 -0.228111 0.331634
v -0.484693 -0.228111 0.331634
v -0.407364 -0.228111 0.339861
v -0.484693 -0.228111 0.339861
v -0.407364 -0.217184 0.331634
v -0.484693 -0.217184 0.331634
v -0.484693 -0.217184 0.331634
v -0.407364 -0.217184 0.331634
v -0.407364 -0.217184 0.331634
v -0.407364 -0.217184 0.339861
v -0.407364 -0.217184 0.339861
v -0.407364 -0.217184 0.331634
v -0.484693 -0.217184 0.339861
v -0.407364 -0.217184 0.339861
v -0.484693 -0.217184 0.339861
v -0.407364 -0.217184 0.339861
v -0.484693 -0.217184 0.339861
v -0.484693 -0.217184 0.331634
v -0.484693 -0.217184 0.331634
v -0.484693 -0.217184 0.339861
vn -0.5773502691895946 -0.5773502691896256 -0.577350269189657
vn 0.5773502691895946 -0.577350269189626 0.5773502691896567
vn -0.5773502691896568 -0.577350269189626 0.5773502691895945
vn 0.5773502691896568 -0.5773502691896256 -0.5773502691895948
vn -0.5773502691896568 0.5773502691896256 0.5773502691895948
vn 0.5773502691895946 0.5773502691896256 0.577350269189657
vn -0.5773502691895946 0.577350269189626 -0.5773502691896567
vn 0.5773502691896568 0.577350269189626 -0.5773502691895945
vn 0 0 -1
vn 0 0 1
vn 1 0 0
vn -1 0 0
usemtl material_0_0
f 1//1 2//2 3//3
f 2//2 1//1 4//4
f 5//5 6//6 7//7
f 8//8 7//7 6//6
f 1//1 9//9 4//4
f 9//9 1//1 10//9
f 11//10 6//6 12//10
f 5//5 12//10 6//6
f 13//11 2//2 4//4
f 2//2 13//11 14//11
f 15//12 16//12 7//7
f 5//5 7//7 16//12
f 17//10 2//2 18//10
f 2//2 17//10 3//3
f 8//8 19//9 7//7
f 20//9 7//7 19//9
f 21//12 1//1 3//3
f 1//1 21//12 22//12
f 23//11 24//11 6//6
f 8//8 6//6 24//11
