# SSTK version 0.8.0
# 27
mtllib original-27.mtl
o #ID174
v -0.188513 -0.221555 -0.271709
v 0.168165 -0.219370 -0.271709
v 0.168165 -0.221555 -0.271709
v -0.188513 -0.219370 -0.271709
v -0.188513 -0.219370 -0.271709
v -0.188513 -0.221555 -0.271709
v 0.168165 -0.219370 -0.271709
v 0.168165 -0.221555 -0.271709
v -0.194912 -0.221555 -0.276168
v -0.188513 -0.219370 -0.271709
v -0.188513 -0.221555 -0.271709
v -0.194912 -0.219370 -0.276168
v -0.194912 -0.219370 -0.276168
v -0.194912 -0.221555 -0.276168
v -0.188513 -0.219370 -0.271709
v -0.188513 -0.221555 -0.271709
v -0.194912 -0.219370 -0.276168
v 0.168165 -0.219370 -0.271709
v -0.188513 -0.219370 -0.271709
v 0.174563 -0.219370 -0.276168
v -0.201073 -0.219370 -0.284122
v 0.180724 -0.219370 -0.284122
v 0.180724 -0.219370 -0.284122
v -0.201073 -0.219370 -0.284122
v 0.174563 -0.219370 -0.276168
v -0.194912 -0.219370 -0.276168
v 0.168165 -0.219370 -0.271709
v -0.188513 -0.219370 -0.271709
v 0.168165 -0.221555 -0.271709
v 0.174563 -0.219370 -0.276168
v 0.174563 -0.221555 -0.276168
v 0.168165 -0.219370 -0.271709
v 0.168165 -0.219370 -0.271709
v 0.168165 -0.221555 -0.271709
v 0.174563 -0.219370 -0.276168
v 0.174563 -0.221555 -0.276168
v -0.201073 -0.219370 -0.284122
v -0.201073 -0.221555 -0.284122
v -0.201073 -0.219370 -0.284122
v -0.201073 -0.221555 -0.284122
v -0.201073 -0.219370 -0.284122
v 0.180724 -0.221555 -0.284122
v 0.180724 -0.219370 -0.284122
v -0.201073 -0.221555 -0.284122
v -0.201073 -0.221555 -0.284122
v -0.201073 -0.219370 -0.284122
v 0.180724 -0.221555 -0.284122
v 0.180724 -0.219370 -0.284122
v 0.180724 -0.221555 -0.284122
v 0.180724 -0.219370 -0.284122
v 0.180724 -0.219370 -0.284122
v 0.180724 -0.221555 -0.284122
vn 0 0 -1
vn 0.6890662003635214 0 -0.7246984003822413
vn 0.571760787091744 0 -0.8204203814778308
vn 0 -1 0
vn -0.5717607870916558 0 -0.8204203814778923
vn -0.6890662003634433 0 -0.7246984003823156
vn 0.7905760166814993 0 -0.6123639129210781
vn 0 0 1
vn -0.7905760166814333 0 -0.6123639129211632
vn -0.6890662003635214 0 0.7246984003822413
vn -0.571760787091744 0 0.8204203814778308
vn 0 1 0
vn 0.5717607870916558 0 0.8204203814778923
vn 0.6890662003634433 0 0.7246984003823156
vn -0.7905760166814993 0 0.6123639129210781
vn 0.7905760166814333 0 0.6123639129211632
usemtl material_0_0
f 5//8 6//8 7//8
f 8//8 7//8 6//8
f 13//10 14//10 15//11
f 16//11 15//11 14//10
f 23//12 24//12 25//12
f 24//12 26//12 25//12
f 25//12 26//12 27//12
f 28//12 27//12 26//12
f 33//13 34//13 35//14
f 36//14 35//14 34//13
f 13//10 39//15 14//10
f 40//15 14//10 39//15
f 45//1 46//1 47//1
f 48//1 47//1 46//1
f 51//16 35//14 52//16
f 36//14 52//16 35//14
usemtl material_1_0
f 1//1 2//1 3//1
f 2//1 1//1 4//1
f 9//2 10//3 11//3
f 10//3 9//2 12//2
f 17//4 18//4 19//4
f 18//4 17//4 20//4
f 20//4 17//4 21//4
f 20//4 21//4 22//4
f 29//5 30//6 31//6
f 30//6 29//5 32//5
f 37//7 9//2 38//7
f 9//2 37//7 12//2
f 41//8 42//8 43//8
f 42//8 41//8 44//8
f 30//6 49//9 31//6
f 49//9 30//6 50//9
