# SSTK version 0.8.0
# 64
mtllib original-64.mtl
o #ID406
v -0.032050 0.179330 0.427226
v -0.023351 0.204838 0.460469
v -0.032050 0.204838 0.460469
v -0.023351 0.179330 0.427226
v -0.023351 0.179330 0.427226
v -0.032050 0.179330 0.427226
v -0.023351 0.204838 0.460469
v -0.032050 0.204838 0.460469
v -0.023351 0.146088 0.401718
v -0.032050 0.146088 0.401718
v -0.032050 0.146088 0.401718
v -0.023351 0.146088 0.401718
v -0.023351 0.107376 0.385683
v -0.032050 0.107376 0.385683
v -0.032050 0.107376 0.385683
v -0.023351 0.107376 0.385683
v -0.023351 0.065833 0.380214
v -0.032050 0.065833 0.380214
v -0.032050 0.065833 0.380214
v -0.023351 0.065833 0.380214
v -0.023351 0.024290 0.385683
v -0.032050 0.024290 0.385683
v -0.032050 0.024290 0.385683
v -0.023351 0.024290 0.385683
v -0.023351 -0.014422 0.401718
v -0.032050 -0.014422 0.401718
v -0.032050 -0.014422 0.401718
v -0.023351 -0.014422 0.401718
v -0.023351 -0.047665 0.427226
v -0.032050 -0.047665 0.427226
v -0.032050 -0.047665 0.427226
v -0.023351 -0.047665 0.427226
v -0.032050 -0.073173 0.460469
v -0.023351 -0.073173 0.460469
v -0.032050 -0.073173 0.460469
v -0.023351 -0.073173 0.460469
vn 0.07087799024238034 -0.7053284024123783 0.7053284024123819
vn 0.7377002410557421 -0.5846783325395222 0.33756421878674286
vn 0.07087799253421652 -0.8638473308868706 0.4987425178325475
vn 0.737700200290311 -0.4773879001878857 0.4773879001879251
vn 0.7377002410557287 -0.33756421878670345 0.5846783325395618
vn 0.07087799253419687 -0.49874251783254414 0.8638473308868743
vn 0.7377001995945064 -0.17473609990396083 0.652123999641616
vn 0.07087799131699234 -0.2581681047972412 0.9634965179035516
vn 0.7377002215531301 7.146218058880293e-9 0.6751284197250645
vn 0.07087798947929644 0 0.9974849926727584
vn 0.7377001995945064 0.17473609990396055 0.652123999641616
vn 0.07087799131699234 0.25816810479724084 0.9634965179035516
vn 0.7377002410557287 0.3375642187867032 0.5846783325395619
vn 0.07087799253419687 0.49874251783254375 0.8638473308868745
vn 0.7377002002903111 0.4773879001878855 0.47738790018792543
vn 0.07087799024238034 0.705328402412378 0.7053284024123821
vn 0.07087799253421652 0.8638473308868704 0.49874251783254797
vn 0.737700197924005 0.5846783983546447 0.3375641990500936
vn -0.737700200290311 0.4773879001878857 -0.4773879001879251
vn -0.07087799024238034 0.7053284024123783 -0.7053284024123819
vn -0.7377002410557421 0.5846783325395222 -0.33756421878674286
vn -0.07087799253421652 0.8638473308868706 -0.4987425178325475
vn -0.07087799253419687 0.49874251783254414 -0.8638473308868743
vn -0.7377002410557287 0.33756421878670345 -0.5846783325395618
vn -0.07087799131699234 0.2581681047972412 -0.9634965179035516
vn -0.7377001995945064 0.17473609990396083 -0.652123999641616
vn -0.07087798947929644 0 -0.9974849926727584
vn -0.7377002215531301 -7.146218058880293e-9 -0.6751284197250645
vn -0.07087799131699234 -0.25816810479724084 -0.9634965179035516
vn -0.7377001995945064 -0.17473609990396055 -0.652123999641616
vn -0.07087799253419687 -0.49874251783254375 -0.8638473308868745
vn -0.7377002410557287 -0.3375642187867032 -0.5846783325395619
vn -0.07087799024238034 -0.705328402412378 -0.7053284024123821
vn -0.7377002002903111 -0.4773879001878855 -0.47738790018792543
vn -0.07087799253421652 -0.8638473308868704 -0.49874251783254797
vn -0.737700197924005 -0.5846783983546447 -0.3375641990500936
usemtl material_0_0
f 1//1 2//2 3//3
f 2//2 1//1 4//4
f 1//1 9//5 4//4
f 9//5 1//1 10//6
f 10//6 13//7 9//5
f 13//7 10//6 14//8
f 14//8 17//9 13//7
f 17//9 14//8 18//10
f 18//10 21//11 17//9
f 21//11 18//10 22//12
f 22//12 25//13 21//11
f 25//13 22//12 26//14
f 26//14 29//15 25//13
f 29//15 26//14 30//16
f 29//15 33//17 34//18
f 33//17 29//15 30//16
usemtl material_1_0
f 5//19 6//20 7//21
f 8//22 7//21 6//20
f 11//23 6//20 12//24
f 5//19 12//24 6//20
f 15//25 11//23 16//26
f 12//24 16//26 11//23
f 19//27 15//25 20//28
f 16//26 20//28 15//25
f 23//29 19//27 24//30
f 20//28 24//30 19//27
f 27//31 23//29 28//32
f 24//30 28//32 23//29
f 31//33 27//31 32//34
f 28//32 32//34 27//31
f 31//33 32//34 35//35
f 36//36 35//35 32//34
