# SSTK version 0.8.0
# 15
mtllib original-15.mtl
o #ID100
v -0.379173 -0.224396 0.668376
v -0.366462 -0.227237 0.662668
v -0.366462 -0.224396 0.662668
v -0.379173 -0.227237 0.668376
v -0.379173 -0.227237 0.668376
v -0.379173 -0.224396 0.668376
v -0.366462 -0.227237 0.662668
v -0.366462 -0.224396 0.662668
v -0.414926 -0.227237 0.663154
v -0.379173 -0.227237 0.668376
v -0.395703 -0.227237 0.668541
v -0.366462 -0.227237 0.662668
v -0.435532 -0.227237 0.652580
v -0.358437 -0.227237 0.651807
v -0.456117 -0.227237 0.637541
v -0.355645 -0.227237 0.636533
v -0.475278 -0.227237 0.619061
v -0.358276 -0.227237 0.617887
v -0.491709 -0.227237 0.598400
v -0.366150 -0.227237 0.597140
v -0.504291 -0.227237 0.576965
v -0.378732 -0.227237 0.575705
v -0.510231 -0.227237 0.561313
v -0.395163 -0.227237 0.555044
v -0.512165 -0.227237 0.556218
v -0.514796 -0.227237 0.537572
v -0.414324 -0.227237 0.536564
v -0.512004 -0.227237 0.522298
v -0.434909 -0.227237 0.521525
v -0.503979 -0.227237 0.511437
v -0.455515 -0.227237 0.510951
v -0.491269 -0.227237 0.505730
v -0.474739 -0.227237 0.505564
v -0.474739 -0.227237 0.505564
v -0.491269 -0.227237 0.505730
v -0.455515 -0.227237 0.510951
v -0.503979 -0.227237 0.511437
v -0.434909 -0.227237 0.521525
v -0.512004 -0.227237 0.522298
v -0.414324 -0.227237 0.536564
v -0.514796 -0.227237 0.537572
v -0.395163 -0.227237 0.555044
v -0.512165 -0.227237 0.556218
v -0.510231 -0.227237 0.561313
v -0.378732 -0.227237 0.575705
v -0.504291 -0.227237 0.576965
v -0.366150 -0.227237 0.597140
v -0.491709 -0.227237 0.598400
v -0.358276 -0.227237 0.617887
v -0.475278 -0.227237 0.619061
v -0.355645 -0.227237 0.636533
v -0.456117 -0.227237 0.637541
v -0.358437 -0.227237 0.651807
v -0.435532 -0.227237 0.652580
v -0.366462 -0.227237 0.662668
v -0.414926 -0.227237 0.663154
v -0.379173 -0.227237 0.668376
v -0.395703 -0.227237 0.668541
v -0.358437 -0.224396 0.651807
v -0.366462 -0.227237 0.662668
v -0.358437 -0.227237 0.651807
v -0.366462 -0.224396 0.662668
v -0.366462 -0.224396 0.662668
v -0.358437 -0.224396 0.651807
v -0.366462 -0.227237 0.662668
v -0.358437 -0.227237 0.651807
v -0.395703 -0.224396 0.668541
v -0.379173 -0.227237 0.668376
v -0.379173 -0.224396 0.668376
v -0.395703 -0.227237 0.668541
v -0.395703 -0.227237 0.668541
v -0.395703 -0.224396 0.668541
v -0.379173 -0.227237 0.668376
v -0.379173 -0.224396 0.668376
v -0.355645 -0.224396 0.636533
v -0.358437 -0.227237 0.651807
v -0.355645 -0.227237 0.636533
v -0.358437 -0.224396 0.651807
v -0.358437 -0.224396 0.651807
v -0.355645 -0.224396 0.636533
v -0.358437 -0.227237 0.651807
v -0.355645 -0.227237 0.636533
v -0.414926 -0.224396 0.663154
v -0.395703 -0.227237 0.668541
v -0.395703 -0.224396 0.668541
v -0.414926 -0.227237 0.663154
v -0.414926 -0.227237 0.663154
v -0.414926 -0.224396 0.663154
v -0.395703 -0.227237 0.668541
v -0.395703 -0.224396 0.668541
v -0.435532 -0.224396 0.652580
v -0.414926 -0.227237 0.663154
v -0.414926 -0.224396 0.663154
v -0.435532 -0.227237 0.652580
v -0.435532 -0.227237 0.652580
v -0.435532 -0.224396 0.652580
v -0.414926 -0.227237 0.663154
v -0.414926 -0.224396 0.663154
v -0.456117 -0.224396 0.637541
v -0.435532 -0.227237 0.652580
v -0.435532 -0.224396 0.652580
v -0.456117 -0.227237 0.637541
v -0.456117 -0.227237 0.637541
v -0.456117 -0.224396 0.637541
v -0.435532 -0.227237 0.652580
v -0.435532 -0.224396 0.652580
v -0.475278 -0.224396 0.619061
v -0.456117 -0.227237 0.637541
v -0.456117 -0.224396 0.637541
v -0.475278 -0.227237 0.619061
v -0.475278 -0.227237 0.619061
v -0.475278 -0.224396 0.619061
v -0.456117 -0.227237 0.637541
v -0.456117 -0.224396 0.637541
v -0.475278 -0.224396 0.619061
v -0.491709 -0.227237 0.598400
v -0.475278 -0.227237 0.619061
v -0.491709 -0.224396 0.598400
v -0.491709 -0.224396 0.598400
v -0.475278 -0.224396 0.619061
v -0.491709 -0.227237 0.598400
v -0.475278 -0.227237 0.619061
v -0.491709 -0.224396 0.598400
v -0.504291 -0.227237 0.576965
v -0.491709 -0.227237 0.598400
v -0.504291 -0.224396 0.576965
v -0.504291 -0.224396 0.576965
v -0.491709 -0.224396 0.598400
v -0.504291 -0.227237 0.576965
v -0.491709 -0.227237 0.598400
v -0.504291 -0.224396 0.576965
v -0.510231 -0.227237 0.561313
v -0.504291 -0.227237 0.576965
v -0.510231 -0.224396 0.561313
v -0.510231 -0.224396 0.561313
v -0.504291 -0.224396 0.576965
v -0.510231 -0.227237 0.561313
v -0.504291 -0.227237 0.576965
v -0.510231 -0.224396 0.561313
v -0.512165 -0.227237 0.556218
v -0.510231 -0.227237 0.561313
v -0.512165 -0.224396 0.556218
v -0.512165 -0.224396 0.556218
v -0.510231 -0.224396 0.561313
v -0.512165 -0.227237 0.556218
v -0.510231 -0.227237 0.561313
v -0.512165 -0.224396 0.556218
v -0.514796 -0.227237 0.537572
v -0.512165 -0.227237 0.556218
v -0.514796 -0.224396 0.537572
v -0.514796 -0.224396 0.537572
v -0.512165 -0.224396 0.556218
v -0.514796 -0.227237 0.537572
v -0.512165 -0.227237 0.556218
v -0.514796 -0.224396 0.537572
v -0.512004 -0.227237 0.522298
v -0.514796 -0.227237 0.537572
v -0.512004 -0.224396 0.522298
v -0.512004 -0.224396 0.522298
v -0.514796 -0.224396 0.537572
v -0.512004 -0.227237 0.522298
v -0.514796 -0.227237 0.537572
v -0.512004 -0.224396 0.522298
v -0.503979 -0.227237 0.511437
v -0.512004 -0.227237 0.522298
v -0.503979 -0.224396 0.511437
v -0.503979 -0.224396 0.511437
v -0.512004 -0.224396 0.522298
v -0.503979 -0.227237 0.511437
v -0.512004 -0.227237 0.522298
v -0.503979 -0.227237 0.511437
v -0.491269 -0.224396 0.505730
v -0.491269 -0.227237 0.505730
v -0.503979 -0.224396 0.511437
v -0.503979 -0.224396 0.511437
v -0.503979 -0.227237 0.511437
v -0.491269 -0.224396 0.505730
v -0.491269 -0.227237 0.505730
v -0.491269 -0.227237 0.505730
v -0.474739 -0.224396 0.505564
v -0.474739 -0.227237 0.505564
v -0.491269 -0.224396 0.505730
v -0.491269 -0.224396 0.505730
v -0.491269 -0.227237 0.505730
v -0.474739 -0.224396 0.505564
v -0.474739 -0.227237 0.505564
v -0.474739 -0.227237 0.505564
v -0.455515 -0.224396 0.510951
v -0.455515 -0.227237 0.510951
v -0.474739 -0.224396 0.505564
v -0.474739 -0.224396 0.505564
v -0.474739 -0.227237 0.505564
v -0.455515 -0.224396 0.510951
v -0.455515 -0.227237 0.510951
v -0.455515 -0.227237 0.510951
v -0.434909 -0.224396 0.521525
v -0.434909 -0.227237 0.521525
v -0.455515 -0.224396 0.510951
v -0.455515 -0.224396 0.510951
v -0.455515 -0.227237 0.510951
v -0.434909 -0.224396 0.521525
v -0.434909 -0.227237 0.521525
v -0.434909 -0.227237 0.521525
v -0.414324 -0.224396 0.536564
v -0.414324 -0.227237 0.536564
v -0.434909 -0.224396 0.521525
v -0.434909 -0.224396 0.521525
v -0.434909 -0.227237 0.521525
v -0.414324 -0.224396 0.536564
v -0.414324 -0.227237 0.536564
v -0.414324 -0.227237 0.536564
v -0.395163 -0.224396 0.555044
v -0.395163 -0.227237 0.555044
v -0.414324 -0.224396 0.536564
v -0.414324 -0.224396 0.536564
v -0.414324 -0.227237 0.536564
v -0.395163 -0.224396 0.555044
v -0.395163 -0.227237 0.555044
v -0.395163 -0.224396 0.555044
v -0.378732 -0.227237 0.575705
v -0.395163 -0.227237 0.555044
v -0.378732 -0.224396 0.575705
v -0.378732 -0.224396 0.575705
v -0.395163 -0.224396 0.555044
v -0.378732 -0.227237 0.575705
v -0.395163 -0.227237 0.555044
v -0.378732 -0.224396 0.575705
v -0.366150 -0.227237 0.597140
v -0.378732 -0.227237 0.575705
v -0.366150 -0.224396 0.597140
v -0.366150 -0.224396 0.597140
v -0.378732 -0.224396 0.575705
v -0.366150 -0.227237 0.597140
v -0.378732 -0.227237 0.575705
v -0.366150 -0.224396 0.597140
v -0.358276 -0.227237 0.617887
v -0.366150 -0.227237 0.597140
v -0.358276 -0.224396 0.617887
v -0.358276 -0.224396 0.617887
v -0.366150 -0.224396 0.597140
v -0.358276 -0.227237 0.617887
v -0.366150 -0.227237 0.597140
v -0.358276 -0.224396 0.617887
v -0.355645 -0.227237 0.636533
v -0.358276 -0.227237 0.617887
v -0.355645 -0.224396 0.636533
v -0.355645 -0.224396 0.636533
v -0.358276 -0.224396 0.617887
v -0.355645 -0.227237 0.636533
v -0.358276 -0.227237 0.617887
vn 0.4096574187853821 0 0.9122394418320763
vn 0 -1 0
vn 0.8042785597159844 0 0.5942524702356582
vn 0.01003361961836563 0 0.9999496619717183
vn 0.9836989656223631 0 0.17982309371572058
vn -0.26986090441372146 0 0.9628993157485409
vn -0.45653358853023507 0 0.8897061776472647
vn -0.5899236974920744 0 0.8074589965671815
vn -0.6942005914131523 0 0.7197815910966531
vn -0.7826753956361604 0 0.622430096529546
vn -0.8624102613441741 0 0.5062099773100815
vn -0.9349248026169437 0 0.3548459009931899
vn -0.9901923225267395 0 0.1397110031783518
vn -0.9836989656223631 0 -0.17982309371572058
vn -0.8042785597159844 0 -0.5942524702356582
vn -0.4096574187853821 0 -0.9122394418320763
vn -0.01003361961836563 0 -0.9999496619717183
vn 0.26986090441372146 0 -0.9628993157485409
vn 0.45653358853023507 0 -0.8897061776472647
vn 0.5899236974920744 0 -0.8074589965671815
vn 0.6942005914131523 0 -0.7197815910966531
vn 0.7826753956361604 0 -0.622430096529546
vn 0.8624102613441741 0 -0.5062099773100815
vn 0.9349248026169437 0 -0.3548459009931899
vn 0.9901923225267395 0 -0.1397110031783518
vn 0 1 0
usemtl material_0_0
f 5//16 6//16 7//16
f 8//16 7//16 6//16
f 34//26 35//26 36//26
f 35//26 37//26 36//26
f 36//26 37//26 38//26
f 37//26 39//26 38//26
f 38//26 39//26 40//26
f 39//26 41//26 40//26
f 40//26 41//26 42//26
f 41//26 43//26 42//26
f 43//26 44//26 42//26
f 42//26 44//26 45//26
f 44//26 46//26 45//26
f 45//26 46//26 47//26
f 46//26 48//26 47//26
f 47//26 48//26 49//26
f 48//26 50//26 49//26
f 49//26 50//26 51//26
f 50//26 52//26 51//26
f 51//26 52//26 53//26
f 52//26 54//26 53//26
f 53//26 54//26 55//26
f 54//26 56//26 55//26
f 55//26 56//26 57//26
f 58//26 57//26 56//26
f 63//15 64//15 65//15
f 66//15 65//15 64//15
f 71//17 72//17 73//17
f 74//17 73//17 72//17
f 79//14 80//14 81//14
f 82//14 81//14 80//14
f 87//18 88//18 89//18
f 90//18 89//18 88//18
f 95//19 96//19 97//19
f 98//19 97//19 96//19
f 103//20 104//20 105//20
f 106//20 105//20 104//20
f 111//21 112//21 113//21
f 114//21 113//21 112//21
f 119//22 120//22 121//22
f 122//22 121//22 120//22
f 127//23 128//23 129//23
f 130//23 129//23 128//23
f 135//24 136//24 137//24
f 138//24 137//24 136//24
f 143//24 144//24 145//24
f 146//24 145//24 144//24
f 151//25 152//25 153//25
f 154//25 153//25 152//25
f 159//5 160//5 161//5
f 162//5 161//5 160//5
f 167//3 168//3 169//3
f 170//3 169//3 168//3
f 175//1 176//1 177//1
f 178//1 177//1 176//1
f 183//4 184//4 185//4
f 186//4 185//4 184//4
f 191//6 192//6 193//6
f 194//6 193//6 192//6
f 199//7 200//7 201//7
f 202//7 201//7 200//7
f 207//8 208//8 209//8
f 210//8 209//8 208//8
f 215//9 216//9 217//9
f 218//9 217//9 216//9
f 223//10 224//10 225//10
f 226//10 225//10 224//10
f 231//11 232//11 233//11
f 234//11 233//11 232//11
f 239//12 240//12 241//12
f 242//12 241//12 240//12
f 247//13 248//13 249//13
f 250//13 249//13 248//13
usemtl material_1_0
f 1//1 2//1 3//1
f 2//1 1//1 4//1
f 9//2 10//2 11//2
f 10//2 9//2 12//2
f 12//2 9//2 13//2
f 12//2 13//2 14//2
f 14//2 13//2 15//2
f 14//2 15//2 16//2
f 16//2 15//2 17//2
f 16//2 17//2 18//2
f 18//2 17//2 19//2
f 18//2 19//2 20//2
f 20//2 19//2 21//2
f 20//2 21//2 22//2
f 22//2 21//2 23//2
f 22//2 23//2 24//2
f 24//2 23//2 25//2
f 24//2 25//2 26//2
f 24//2 26//2 27//2
f 27//2 26//2 28//2
f 27//2 28//2 29//2
f 29//2 28//2 30//2
f 29//2 30//2 31//2
f 31//2 30//2 32//2
f 31//2 32//2 33//2
f 59//3 60//3 61//3
f 60//3 59//3 62//3
f 67//4 68//4 69//4
f 68//4 67//4 70//4
f 75//5 76//5 77//5
f 76//5 75//5 78//5
f 83//6 84//6 85//6
f 84//6 83//6 86//6
f 91//7 92//7 93//7
f 92//7 91//7 94//7
f 99//8 100//8 101//8
f 100//8 99//8 102//8
f 107//9 108//9 109//9
f 108//9 107//9 110//9
f 115//10 116//10 117//10
f 116//10 115//10 118//10
f 123//11 124//11 125//11
f 124//11 123//11 126//11
f 131//12 132//12 133//12
f 132//12 131//12 134//12
f 139//12 140//12 141//12
f 140//12 139//12 142//12
f 147//13 148//13 149//13
f 148//13 147//13 150//13
f 155//14 156//14 157//14
f 156//14 155//14 158//14
f 163//15 164//15 165//15
f 164//15 163//15 166//15
f 171//16 172//16 173//16
f 172//16 171//16 174//16
f 179//17 180//17 181//17
f 180//17 179//17 182//17
f 187//18 188//18 189//18
f 188//18 187//18 190//18
f 195//19 196//19 197//19
f 196//19 195//19 198//19
f 203//20 204//20 205//20
f 204//20 203//20 206//20
f 211//21 212//21 213//21
f 212//21 211//21 214//21
f 219//22 220//22 221//22
f 220//22 219//22 222//22
f 227//23 228//23 229//23
f 228//23 227//23 230//23
f 235//24 236//24 237//24
f 236//24 235//24 238//24
f 243//25 244//25 245//25
f 244//25 243//25 246//25
