# SSTK version 0.8.0
# 21
mtllib original-21.mtl
o #ID138
v 0.203142 -0.219370 -0.333204
v 0.201342 -0.221555 -0.340516
v 0.203142 -0.221555 -0.333204
v 0.201342 -0.219370 -0.340516
v 0.201342 -0.219370 -0.340516
v 0.203142 -0.219370 -0.333204
v 0.201342 -0.221555 -0.340516
v 0.203142 -0.221555 -0.333204
v 0.201886 -0.219370 -0.328103
v 0.201886 -0.221555 -0.328103
v 0.201886 -0.219370 -0.328103
v 0.201886 -0.221555 -0.328103
v -0.223491 -0.219370 -0.333204
v 0.201886 -0.219370 -0.328103
v -0.222235 -0.219370 -0.328103
v 0.203142 -0.219370 -0.333204
v -0.221691 -0.219370 -0.340516
v 0.201342 -0.219370 -0.340516
v 0.201342 -0.219370 -0.340516
v -0.221691 -0.219370 -0.340516
v 0.203142 -0.219370 -0.333204
v -0.223491 -0.219370 -0.333204
v 0.201886 -0.219370 -0.328103
v -0.222235 -0.219370 -0.328103
v -0.221691 -0.219370 -0.340516
v 0.201342 -0.221555 -0.340516
v 0.201342 -0.219370 -0.340516
v -0.221691 -0.221555 -0.340516
v -0.221691 -0.221555 -0.340516
v -0.221691 -0.219370 -0.340516
v 0.201342 -0.221555 -0.340516
v 0.201342 -0.219370 -0.340516
v -0.222235 -0.221555 -0.328103
v 0.201886 -0.219370 -0.328103
v 0.201886 -0.221555 -0.328103
v -0.222235 -0.219370 -0.328103
v -0.222235 -0.219370 -0.328103
v -0.222235 -0.221555 -0.328103
v 0.201886 -0.219370 -0.328103
v 0.201886 -0.221555 -0.328103
v -0.223491 -0.219370 -0.333204
v -0.222235 -0.221555 -0.328103
v -0.223491 -0.221555 -0.333204
v -0.222235 -0.219370 -0.328103
v -0.222235 -0.219370 -0.328103
v -0.223491 -0.219370 -0.333204
v -0.222235 -0.221555 -0.328103
v -0.223491 -0.221555 -0.333204
v -0.221691 -0.219370 -0.340516
v -0.221691 -0.221555 -0.340516
v -0.221691 -0.219370 -0.340516
v -0.221691 -0.221555 -0.340516
vn -1 0 0
vn -0.9710066934067899 0 0.23905229837676104
vn -0.9710066934067643 0 -0.23905229837686565
vn 0 -1 0
vn 0 0 1
vn 0 0 -1
vn 1 0 0
vn 0.9710066934067899 0 -0.23905229837676104
vn 0.9710066934067643 0 0.23905229837686565
vn 0 1 0
usemtl material_0_0
f 5//8 6//7 7//8
f 8//7 7//8 6//7
f 6//7 11//9 8//7
f 12//9 8//7 11//9
f 19//10 20//10 21//10
f 20//10 22//10 21//10
f 21//10 22//10 23//10
f 24//10 23//10 22//10
f 29//6 30//6 31//6
f 32//6 31//6 30//6
f 37//5 38//5 39//5
f 40//5 39//5 38//5
f 45//2 46//1 47//2
f 48//1 47//2 46//1
f 46//1 51//3 48//1
f 52//3 48//1 51//3
usemtl material_1_0
f 1//1 2//2 3//1
f 2//2 1//1 4//2
f 9//3 3//1 10//3
f 3//1 9//3 1//1
f 13//4 14//4 15//4
f 14//4 13//4 16//4
f 16//4 13//4 17//4
f 16//4 17//4 18//4
f 25//5 26//5 27//5
f 26//5 25//5 28//5
f 33//6 34//6 35//6
f 34//6 33//6 36//6
f 41//7 42//8 43//7
f 42//8 41//7 44//8
f 49//9 43//7 50//9
f 43//7 49//9 41//7
