# SSTK version 0.8.0
# 16
mtllib original-16.mtl
o #ID106
v -0.535708 -0.221555 0.554834
v -0.547785 -0.224396 0.525744
v -0.535708 -0.224396 0.554834
v -0.547785 -0.221555 0.525744
v -0.547785 -0.221555 0.525744
v -0.535708 -0.221555 0.554834
v -0.547785 -0.224396 0.525744
v -0.535708 -0.224396 0.554834
v -0.375479 -0.221555 0.703948
v -0.333323 -0.221555 0.704540
v -0.351545 -0.221555 0.708370
v -0.322053 -0.221555 0.692720
v -0.403493 -0.221555 0.691575
v -0.318505 -0.221555 0.673713
v -0.433679 -0.221555 0.672094
v -0.322920 -0.221555 0.648817
v -0.463978 -0.221555 0.646834
v -0.334997 -0.221555 0.619727
v -0.492326 -0.221555 0.617515
v -0.353913 -0.221555 0.588425
v -0.516792 -0.221555 0.586135
v -0.378379 -0.221555 0.557046
v -0.535708 -0.221555 0.554834
v -0.406727 -0.221555 0.527727
v -0.547785 -0.221555 0.525744
v -0.437027 -0.221555 0.502466
v -0.552199 -0.221555 0.500847
v -0.467212 -0.221555 0.482986
v -0.548652 -0.221555 0.481841
v -0.495226 -0.221555 0.470613
v -0.537382 -0.221555 0.470020
v -0.519160 -0.221555 0.466191
v -0.519160 -0.221555 0.466191
v -0.537382 -0.221555 0.470020
v -0.495226 -0.221555 0.470613
v -0.548652 -0.221555 0.481841
v -0.467212 -0.221555 0.482986
v -0.552199 -0.221555 0.500847
v -0.437027 -0.221555 0.502466
v -0.547785 -0.221555 0.525744
v -0.406727 -0.221555 0.527727
v -0.535708 -0.221555 0.554834
v -0.378379 -0.221555 0.557046
v -0.516792 -0.221555 0.586135
v -0.353913 -0.221555 0.588425
v -0.492326 -0.221555 0.617515
v -0.334997 -0.221555 0.619727
v -0.463978 -0.221555 0.646834
v -0.322920 -0.221555 0.648817
v -0.433679 -0.221555 0.672094
v -0.318505 -0.221555 0.673713
v -0.403493 -0.221555 0.691575
v -0.322053 -0.221555 0.692720
v -0.375479 -0.221555 0.703948
v -0.333323 -0.221555 0.704540
v -0.351545 -0.221555 0.708370
v -0.547785 -0.221555 0.525744
v -0.552199 -0.224396 0.500847
v -0.547785 -0.224396 0.525744
v -0.552199 -0.221555 0.500847
v -0.552199 -0.221555 0.500847
v -0.547785 -0.221555 0.525744
v -0.552199 -0.224396 0.500847
v -0.547785 -0.224396 0.525744
v -0.433679 -0.224396 0.672094
v -0.414926 -0.224396 0.663154
v -0.395703 -0.224396 0.668541
v -0.463978 -0.224396 0.646834
v -0.435532 -0.224396 0.652580
v -0.456117 -0.224396 0.637541
v -0.492326 -0.224396 0.617515
v -0.475278 -0.224396 0.619061
v -0.491709 -0.224396 0.598400
v -0.516792 -0.224396 0.586135
v -0.504291 -0.224396 0.576965
v -0.535708 -0.224396 0.554834
v -0.510231 -0.224396 0.561313
v -0.512165 -0.224396 0.556218
v -0.514796 -0.224396 0.537572
v -0.547785 -0.224396 0.525744
v -0.512004 -0.224396 0.522298
v -0.552199 -0.224396 0.500847
v -0.503979 -0.224396 0.511437
v -0.491269 -0.224396 0.505730
v -0.474739 -0.224396 0.505564
v -0.437027 -0.224396 0.502466
v -0.467212 -0.224396 0.482986
v -0.548652 -0.224396 0.481841
v -0.495226 -0.224396 0.470613
v -0.537382 -0.224396 0.470020
v -0.519160 -0.224396 0.466191
v -0.375479 -0.224396 0.703948
v -0.333323 -0.224396 0.704540
v -0.351545 -0.224396 0.708370
v -0.322053 -0.224396 0.692720
v -0.403493 -0.224396 0.691575
v -0.318505 -0.224396 0.673713
v -0.379173 -0.224396 0.668376
v -0.322920 -0.224396 0.648817
v -0.366462 -0.224396 0.662668
v -0.358437 -0.224396 0.651807
v -0.355645 -0.224396 0.636533
v -0.334997 -0.224396 0.619727
v -0.358276 -0.224396 0.617887
v -0.353913 -0.224396 0.588425
v -0.366150 -0.224396 0.597140
v -0.378732 -0.224396 0.575705
v -0.378379 -0.224396 0.557046
v -0.395163 -0.224396 0.555044
v -0.406727 -0.224396 0.527727
v -0.414324 -0.224396 0.536564
v -0.434909 -0.224396 0.521525
v -0.455515 -0.224396 0.510951
v -0.474739 -0.224396 0.505564
v -0.455515 -0.224396 0.510951
v -0.437027 -0.224396 0.502466
v -0.434909 -0.224396 0.521525
v -0.406727 -0.224396 0.527727
v -0.414324 -0.224396 0.536564
v -0.395163 -0.224396 0.555044
v -0.378379 -0.224396 0.557046
v -0.378732 -0.224396 0.575705
v -0.353913 -0.224396 0.588425
v -0.366150 -0.224396 0.597140
v -0.358276 -0.224396 0.617887
v -0.334997 -0.224396 0.619727
v -0.355645 -0.224396 0.636533
v -0.322920 -0.224396 0.648817
v -0.358437 -0.224396 0.651807
v -0.366462 -0.224396 0.662668
v -0.379173 -0.224396 0.668376
v -0.395703 -0.224396 0.668541
v -0.433679 -0.224396 0.672094
v -0.318505 -0.224396 0.673713
v -0.403493 -0.224396 0.691575
v -0.322053 -0.224396 0.692720
v -0.375479 -0.224396 0.703948
v -0.333323 -0.224396 0.704540
v -0.351545 -0.224396 0.708370
v -0.519160 -0.224396 0.466191
v -0.537382 -0.224396 0.470020
v -0.495226 -0.224396 0.470613
v -0.548652 -0.224396 0.481841
v -0.467212 -0.224396 0.482986
v -0.552199 -0.224396 0.500847
v -0.491269 -0.224396 0.505730
v -0.503979 -0.224396 0.511437
v -0.512004 -0.224396 0.522298
v -0.547785 -0.224396 0.525744
v -0.514796 -0.224396 0.537572
v -0.535708 -0.224396 0.554834
v -0.512165 -0.224396 0.556218
v -0.510231 -0.224396 0.561313
v -0.504291 -0.224396 0.576965
v -0.516792 -0.224396 0.586135
v -0.491709 -0.224396 0.598400
v -0.492326 -0.224396 0.617515
v -0.475278 -0.224396 0.619061
v -0.456117 -0.224396 0.637541
v -0.463978 -0.224396 0.646834
v -0.435532 -0.224396 0.652580
v -0.414926 -0.224396 0.663154
v -0.516792 -0.221555 0.586135
v -0.535708 -0.224396 0.554834
v -0.516792 -0.224396 0.586135
v -0.535708 -0.221555 0.554834
v -0.535708 -0.221555 0.554834
v -0.516792 -0.221555 0.586135
v -0.535708 -0.224396 0.554834
v -0.516792 -0.224396 0.586135
v -0.353913 -0.221555 0.588425
v -0.334997 -0.224396 0.619727
v -0.353913 -0.224396 0.588425
v -0.334997 -0.221555 0.619727
v -0.334997 -0.221555 0.619727
v -0.353913 -0.221555 0.588425
v -0.334997 -0.224396 0.619727
v -0.353913 -0.224396 0.588425
v -0.334997 -0.221555 0.619727
v -0.322920 -0.224396 0.648817
v -0.334997 -0.224396 0.619727
v -0.322920 -0.221555 0.648817
v -0.322920 -0.221555 0.648817
v -0.334997 -0.221555 0.619727
v -0.322920 -0.224396 0.648817
v -0.334997 -0.224396 0.619727
v -0.322920 -0.221555 0.648817
v -0.318505 -0.224396 0.673713
v -0.322920 -0.224396 0.648817
v -0.318505 -0.221555 0.673713
v -0.318505 -0.221555 0.673713
v -0.322920 -0.221555 0.648817
v -0.318505 -0.224396 0.673713
v -0.322920 -0.224396 0.648817
v -0.318505 -0.221555 0.673713
v -0.322053 -0.224396 0.692720
v -0.318505 -0.224396 0.673713
v -0.322053 -0.221555 0.692720
v -0.322053 -0.221555 0.692720
v -0.318505 -0.221555 0.673713
v -0.322053 -0.224396 0.692720
v -0.318505 -0.224396 0.673713
v -0.322053 -0.221555 0.692720
v -0.333323 -0.224396 0.704540
v -0.322053 -0.224396 0.692720
v -0.333323 -0.221555 0.704540
v -0.333323 -0.221555 0.704540
v -0.322053 -0.221555 0.692720
v -0.333323 -0.224396 0.704540
v -0.322053 -0.224396 0.692720
v -0.351545 -0.221555 0.708370
v -0.333323 -0.224396 0.704540
v -0.333323 -0.221555 0.704540
v -0.351545 -0.224396 0.708370
v -0.351545 -0.224396 0.708370
v -0.351545 -0.221555 0.708370
v -0.333323 -0.224396 0.704540
v -0.333323 -0.221555 0.704540
v -0.375479 -0.221555 0.703948
v -0.351545 -0.224396 0.708370
v -0.351545 -0.221555 0.708370
v -0.375479 -0.224396 0.703948
v -0.375479 -0.224396 0.703948
v -0.375479 -0.221555 0.703948
v -0.351545 -0.224396 0.708370
v -0.351545 -0.221555 0.708370
v -0.403493 -0.221555 0.691575
v -0.375479 -0.224396 0.703948
v -0.375479 -0.221555 0.703948
v -0.403493 -0.224396 0.691575
v -0.403493 -0.224396 0.691575
v -0.403493 -0.221555 0.691575
v -0.375479 -0.224396 0.703948
v -0.375479 -0.221555 0.703948
v -0.433679 -0.221555 0.672094
v -0.403493 -0.224396 0.691575
v -0.403493 -0.221555 0.691575
v -0.433679 -0.224396 0.672094
v -0.433679 -0.224396 0.672094
v -0.433679 -0.221555 0.672094
v -0.403493 -0.224396 0.691575
v -0.403493 -0.221555 0.691575
v -0.463978 -0.221555 0.646834
v -0.433679 -0.224396 0.672094
v -0.433679 -0.221555 0.672094
v -0.463978 -0.224396 0.646834
v -0.463978 -0.224396 0.646834
v -0.463978 -0.221555 0.646834
v -0.433679 -0.224396 0.672094
v -0.433679 -0.221555 0.672094
v -0.463978 -0.221555 0.646834
v -0.492326 -0.224396 0.617515
v -0.463978 -0.224396 0.646834
v -0.492326 -0.221555 0.617515
v -0.492326 -0.221555 0.617515
v -0.463978 -0.221555 0.646834
v -0.492326 -0.224396 0.617515
v -0.463978 -0.224396 0.646834
v -0.492326 -0.221555 0.617515
v -0.516792 -0.224396 0.586135
v -0.492326 -0.224396 0.617515
v -0.516792 -0.221555 0.586135
v -0.516792 -0.221555 0.586135
v -0.492326 -0.221555 0.617515
v -0.516792 -0.224396 0.586135
v -0.492326 -0.224396 0.617515
v -0.552199 -0.221555 0.500847
v -0.548652 -0.224396 0.481841
v -0.552199 -0.224396 0.500847
v -0.548652 -0.221555 0.481841
v -0.548652 -0.221555 0.481841
v -0.552199 -0.221555 0.500847
v -0.548652 -0.224396 0.481841
v -0.552199 -0.224396 0.500847
v -0.548652 -0.221555 0.481841
v -0.537382 -0.224396 0.470020
v -0.548652 -0.224396 0.481841
v -0.537382 -0.221555 0.470020
v -0.537382 -0.221555 0.470020
v -0.548652 -0.221555 0.481841
v -0.537382 -0.224396 0.470020
v -0.548652 -0.224396 0.481841
v -0.537382 -0.224396 0.470020
v -0.519160 -0.221555 0.466191
v -0.519160 -0.224396 0.466191
v -0.537382 -0.221555 0.470020
v -0.537382 -0.221555 0.470020
v -0.537382 -0.224396 0.470020
v -0.519160 -0.221555 0.466191
v -0.519160 -0.224396 0.466191
v -0.519160 -0.224396 0.466191
v -0.495226 -0.221555 0.470613
v -0.495226 -0.224396 0.470613
v -0.519160 -0.221555 0.466191
v -0.519160 -0.221555 0.466191
v -0.519160 -0.224396 0.466191
v -0.495226 -0.221555 0.470613
v -0.495226 -0.224396 0.470613
v -0.495226 -0.224396 0.470613
v -0.467212 -0.221555 0.482986
v -0.467212 -0.224396 0.482986
v -0.495226 -0.221555 0.470613
v -0.495226 -0.221555 0.470613
v -0.495226 -0.224396 0.470613
v -0.467212 -0.221555 0.482986
v -0.467212 -0.224396 0.482986
v -0.467212 -0.224396 0.482986
v -0.437027 -0.221555 0.502466
v -0.437027 -0.224396 0.502466
v -0.467212 -0.221555 0.482986
v -0.467212 -0.221555 0.482986
v -0.467212 -0.224396 0.482986
v -0.437027 -0.221555 0.502466
v -0.437027 -0.224396 0.502466
v -0.437027 -0.224396 0.502466
v -0.406727 -0.221555 0.527727
v -0.406727 -0.224396 0.527727
v -0.437027 -0.221555 0.502466
v -0.437027 -0.221555 0.502466
v -0.437027 -0.224396 0.502466
v -0.406727 -0.221555 0.527727
v -0.406727 -0.224396 0.527727
v -0.406727 -0.221555 0.527727
v -0.378379 -0.224396 0.557046
v -0.406727 -0.224396 0.527727
v -0.378379 -0.221555 0.557046
v -0.378379 -0.221555 0.557046
v -0.406727 -0.221555 0.527727
v -0.378379 -0.224396 0.557046
v -0.406727 -0.224396 0.527727
v -0.378379 -0.221555 0.557046
v -0.353913 -0.224396 0.588425
v -0.378379 -0.224396 0.557046
v -0.353913 -0.221555 0.588425
v -0.353913 -0.221555 0.588425
v -0.378379 -0.221555 0.557046
v -0.353913 -0.224396 0.588425
v -0.378379 -0.224396 0.557046
vn -0.9235728899059139 0 0.38342289580936423
vn 0.9235728899059139 0 -0.38342289580936423
vn 0 -1 0
vn 0 1 0
vn -0.9846393937020342 0 0.1746002988831642
vn 0.9846393937020342 0 -0.1746002988831642
vn -0.8558590066561974 0 0.517209204022383
vn 0.8558590066561974 0 -0.517209204022383
vn 0.9830171720425891 0 0.183513594780853
vn -0.9830171720425891 0 -0.183513594780853
vn 0.7237889346617923 0 0.6900214330447626
vn -0.7237889346617923 0 -0.6900214330447626
vn 0.2056710943990453 0 0.9786211733498815
vn -0.2056710943990453 0 -0.9786211733498815
vn -0.18169930712200272 0 0.9833541385438841
vn 0.18169930712200272 0 -0.9833541385438841
vn -0.40402071562988795 0 0.9147498353877487
vn 0.40402071562988795 0 -0.9147498353877487
vn -0.542249205885095 0 0.8402177091188832
vn 0.542249205885095 0 -0.8402177091188832
vn -0.6403499159547119 0 0.7680833191371841
vn 0.6403499159547119 0 -0.7680833191371841
vn -0.7189038876257391 0 0.6951094880352294
vn 0.7189038876257391 0 -0.6951094880352294
vn -0.7886245900041535 0 0.6148749922063678
vn 0.7886245900041535 0 -0.6148749922063678
usemtl material_0_0
f 1//1 2//1 3//1
f 2//1 1//1 4//1
f 5//2 6//2 7//2
f 8//2 7//2 6//2
f 9//3 10//3 11//3
f 10//3 9//3 12//3
f 12//3 9//3 13//3
f 12//3 13//3 14//3
f 14//3 13//3 15//3
f 14//3 15//3 16//3
f 16//3 15//3 17//3
f 16//3 17//3 18//3
f 18//3 17//3 19//3
f 18//3 19//3 20//3
f 20//3 19//3 21//3
f 20//3 21//3 22//3
f 22//3 21//3 23//3
f 22//3 23//3 24//3
f 24//3 23//3 25//3
f 24//3 25//3 26//3
f 26//3 25//3 27//3
f 26//3 27//3 28//3
f 28//3 27//3 29//3
f 28//3 29//3 30//3
f 30//3 29//3 31//3
f 30//3 31//3 32//3
f 33//4 34//4 35//4
f 34//4 36//4 35//4
f 35//4 36//4 37//4
f 36//4 38//4 37//4
f 37//4 38//4 39//4
f 38//4 40//4 39//4
f 39//4 40//4 41//4
f 40//4 42//4 41//4
f 41//4 42//4 43//4
f 42//4 44//4 43//4
f 43//4 44//4 45//4
f 44//4 46//4 45//4
f 45//4 46//4 47//4
f 46//4 48//4 47//4
f 47//4 48//4 49//4
f 48//4 50//4 49//4
f 49//4 50//4 51//4
f 50//4 52//4 51//4
f 51//4 52//4 53//4
f 52//4 54//4 53//4
f 53//4 54//4 55//4
f 56//4 55//4 54//4
f 57//5 58//5 59//5
f 58//5 57//5 60//5
f 61//6 62//6 63//6
f 64//6 63//6 62//6
f 65//3 66//3 67//3
f 66//3 65//3 68//3
f 66//3 68//3 69//3
f 69//3 68//3 70//3
f 70//3 68//3 71//3
f 70//3 71//3 72//3
f 72//3 71//3 73//3
f 73//3 71//3 74//3
f 73//3 74//3 75//3
f 75//3 74//3 76//3
f 75//3 76//3 77//3
f 77//3 76//3 78//3
f 78//3 76//3 79//3
f 79//3 76//3 80//3
f 79//3 80//3 81//3
f 81//3 80//3 82//3
f 81//3 82//3 83//3
f 83//3 82//3 84//3
f 84//3 82//3 85//3
f 85//3 82//3 86//3
f 86//3 82//3 87//3
f 87//3 82//3 88//3
f 87//3 88//3 89//3
f 89//3 88//3 90//3
f 89//3 90//3 91//3
f 92//3 93//3 94//3
f 93//3 92//3 95//3
f 95//3 92//3 96//3
f 95//3 96//3 97//3
f 97//3 96//3 65//3
f 97//3 65//3 98//3
f 97//3 98//3 99//3
f 98//3 65//3 67//3
f 99//3 98//3 100//3
f 99//3 100//3 101//3
f 99//3 101//3 102//3
f 99//3 102//3 103//3
f 103//3 102//3 104//3
f 103//3 104//3 105//3
f 105//3 104//3 106//3
f 105//3 106//3 107//3
f 105//3 107//3 108//3
f 108//3 107//3 109//3
f 108//3 109//3 110//3
f 110//3 109//3 111//3
f 110//3 111//3 112//3
f 110//3 112//3 86//3
f 86//3 112//3 113//3
f 86//3 113//3 85//3
f 114//4 115//4 116//4
f 115//4 117//4 116//4
f 116//4 117//4 118//4
f 117//4 119//4 118//4
f 119//4 120//4 118//4
f 118//4 120//4 121//4
f 120//4 122//4 121//4
f 121//4 122//4 123//4
f 122//4 124//4 123//4
f 124//4 125//4 123//4
f 123//4 125//4 126//4
f 125//4 127//4 126//4
f 126//4 127//4 128//4
f 127//4 129//4 128//4
f 129//4 130//4 128//4
f 130//4 131//4 128//4
f 132//4 133//4 131//4
f 128//4 131//4 134//4
f 131//4 133//4 134//4
f 133//4 135//4 134//4
f 134//4 135//4 136//4
f 135//4 137//4 136//4
f 136//4 137//4 138//4
f 139//4 138//4 137//4
f 140//4 141//4 142//4
f 141//4 143//4 142//4
f 142//4 143//4 144//4
f 143//4 145//4 144//4
f 144//4 145//4 116//4
f 116//4 145//4 114//4
f 114//4 145//4 146//4
f 146//4 145//4 147//4
f 147//4 145//4 148//4
f 145//4 149//4 148//4
f 148//4 149//4 150//4
f 149//4 151//4 150//4
f 150//4 151//4 152//4
f 152//4 151//4 153//4
f 153//4 151//4 154//4
f 151//4 155//4 154//4
f 154//4 155//4 156//4
f 155//4 157//4 156//4
f 156//4 157//4 158//4
f 158//4 157//4 159//4
f 157//4 160//4 159//4
f 159//4 160//4 161//4
f 161//4 160//4 162//4
f 160//4 133//4 162//4
f 132//4 162//4 133//4
f 163//7 164//7 165//7
f 164//7 163//7 166//7
f 167//8 168//8 169//8
f 170//8 169//8 168//8
f 171//8 172//8 173//8
f 172//8 171//8 174//8
f 175//7 176//7 177//7
f 178//7 177//7 176//7
f 179//2 180//2 181//2
f 180//2 179//2 182//2
f 183//1 184//1 185//1
f 186//1 185//1 184//1
f 187//6 188//6 189//6
f 188//6 187//6 190//6
f 191//5 192//5 193//5
f 194//5 193//5 192//5
f 195//9 196//9 197//9
f 196//9 195//9 198//9
f 199//10 200//10 201//10
f 202//10 201//10 200//10
f 203//11 204//11 205//11
f 204//11 203//11 206//11
f 207//12 208//12 209//12
f 210//12 209//12 208//12
f 211//13 212//13 213//13
f 212//13 211//13 214//13
f 215//14 216//14 217//14
f 218//14 217//14 216//14
f 219//15 220//15 221//15
f 220//15 219//15 222//15
f 223//16 224//16 225//16
f 226//16 225//16 224//16
f 227//17 228//17 229//17
f 228//17 227//17 230//17
f 231//18 232//18 233//18
f 234//18 233//18 232//18
f 235//19 236//19 237//19
f 236//19 235//19 238//19
f 239//20 240//20 241//20
f 242//20 241//20 240//20
f 243//21 244//21 245//21
f 244//21 243//21 246//21
f 247//22 248//22 249//22
f 250//22 249//22 248//22
f 251//23 252//23 253//23
f 252//23 251//23 254//23
f 255//24 256//24 257//24
f 258//24 257//24 256//24
f 259//25 260//25 261//25
f 260//25 259//25 262//25
f 263//26 264//26 265//26
f 266//26 265//26 264//26
f 267//10 268//10 269//10
f 268//10 267//10 270//10
f 271//9 272//9 273//9
f 274//9 273//9 272//9
f 275//12 276//12 277//12
f 276//12 275//12 278//12
f 279//11 280//11 281//11
f 282//11 281//11 280//11
f 283//14 284//14 285//14
f 284//14 283//14 286//14
f 287//13 288//13 289//13
f 290//13 289//13 288//13
f 291//16 292//16 293//16
f 292//16 291//16 294//16
f 295//15 296//15 297//15
f 298//15 297//15 296//15
f 299//18 300//18 301//18
f 300//18 299//18 302//18
f 303//17 304//17 305//17
f 306//17 305//17 304//17
f 307//20 308//20 309//20
f 308//20 307//20 310//20
f 311//19 312//19 313//19
f 314//19 313//19 312//19
f 315//22 316//22 317//22
f 316//22 315//22 318//22
f 319//21 320//21 321//21
f 322//21 321//21 320//21
f 323//24 324//24 325//24
f 324//24 323//24 326//24
f 327//23 328//23 329//23
f 330//23 329//23 328//23
f 331//26 332//26 333//26
f 332//26 331//26 334//26
f 335//25 336//25 337//25
f 338//25 337//25 336//25
