# SSTK version 0.8.0
# 33
mtllib original-33.mtl
o #ID210
v -0.161012 -0.221555 -0.252543
v 0.126000 -0.221555 -0.246526
v -0.146349 -0.221555 -0.246526
v 0.140663 -0.221555 -0.252543
v -0.161540 -0.221555 -0.252911
v 0.141192 -0.221555 -0.252911
v 0.141192 -0.221555 -0.252911
v -0.161540 -0.221555 -0.252911
v 0.140663 -0.221555 -0.252543
v -0.161012 -0.221555 -0.252543
v 0.126000 -0.221555 -0.246526
v -0.146349 -0.221555 -0.246526
vn 0 -1 0
vn 0 1 0
usemtl material_0_0
f 1//1 2//1 3//1
f 2//1 1//1 4//1
f 4//1 1//1 5//1
f 4//1 5//1 6//1
f 7//2 8//2 9//2
f 8//2 10//2 9//2
f 9//2 10//2 11//2
f 12//2 11//2 10//2
