# SSTK version 0.8.0
# 48
mtllib original-48.mtl
o #ID304
v -0.048452 -0.210628 0.131185
v -0.049148 -0.225925 0.142671
v -0.048452 -0.225925 0.131185
v -0.049148 -0.210628 0.142671
v -0.049148 -0.210628 0.142671
v -0.048452 -0.210628 0.131185
v -0.049148 -0.225925 0.142671
v -0.048452 -0.225925 0.131185
v -0.046376 -0.210628 0.119867
v -0.046376 -0.225925 0.119867
v -0.046376 -0.210628 0.119867
v -0.046376 -0.225925 0.119867
v -0.048452 -0.225925 0.154157
v -0.048452 -0.210628 0.154157
v -0.048452 -0.210628 0.154157
v -0.048452 -0.225925 0.154157
v -0.042949 -0.210628 0.108882
v -0.042949 -0.225925 0.108882
v -0.042949 -0.210628 0.108882
v -0.042949 -0.225925 0.108882
v -0.046376 -0.225925 0.165475
v -0.046376 -0.210628 0.165475
v -0.046376 -0.210628 0.165475
v -0.046376 -0.225925 0.165475
v -0.038221 -0.210628 0.098392
v -0.038221 -0.225925 0.098392
v -0.038221 -0.210628 0.098392
v -0.038221 -0.225925 0.098392
v -0.042949 -0.225925 0.176460
v -0.042949 -0.210628 0.176460
v -0.042949 -0.210628 0.176460
v -0.042949 -0.225925 0.176460
v -0.033840 -0.221555 0.091155
v -0.033840 -0.225925 0.091155
v -0.033840 -0.210628 0.091155
v -0.033840 -0.210628 0.091155
v -0.033840 -0.221555 0.091155
v -0.033840 -0.225925 0.091155
v -0.038221 -0.225925 0.186951
v -0.038221 -0.210628 0.186951
v -0.038221 -0.210628 0.186951
v -0.038221 -0.225925 0.186951
v 0.226460 -0.197516 0.091155
v -0.033840 -0.225925 0.091155
v 0.263610 -0.225925 0.091155
v 0.069829 -0.197516 0.091155
v -0.033840 -0.210628 0.091155
v -0.033840 -0.221555 0.091155
v -0.033840 -0.221555 0.091155
v -0.033840 -0.210628 0.091155
v -0.033840 -0.225925 0.091155
v 0.069829 -0.197516 0.091155
v 0.226460 -0.197516 0.091155
v 0.263610 -0.225925 0.091155
v -0.033840 -0.225925 0.194187
v -0.033840 -0.221555 0.194187
v -0.033840 -0.210628 0.194187
v -0.033840 -0.210628 0.194187
v -0.033840 -0.221555 0.194187
v -0.033840 -0.225925 0.194187
v 0.226460 -0.197516 0.091155
v 0.263610 -0.225925 0.194187
v 0.226460 -0.197516 0.194187
v 0.263610 -0.225925 0.091155
v 0.263610 -0.225925 0.091155
v 0.226460 -0.197516 0.091155
v 0.263610 -0.225925 0.194187
v 0.226460 -0.197516 0.194187
v -0.033840 -0.225925 0.194187
v 0.226460 -0.197516 0.194187
v 0.263610 -0.225925 0.194187
v 0.069829 -0.197516 0.194187
v -0.033840 -0.210628 0.194187
v -0.033840 -0.221555 0.194187
v -0.033840 -0.221555 0.194187
v -0.033840 -0.225925 0.194187
v -0.033840 -0.210628 0.194187
v 0.069829 -0.197516 0.194187
v 0.226460 -0.197516 0.194187
v 0.263610 -0.225925 0.194187
vn 0.9926914126180345 0 0.1206804015340148
vn 1 0 0
vn 0.9708724816376382 0 0.23959679546849943
vn 0.9926914126180476 0 -0.12068040153390788
vn 0.9348621536913502 0 0.3550109203891766
vn 0.970872481637664 0 -0.23959679546839488
vn 0.8851867909286338 0 0.4652357952323391
vn 0.9348621536913885 0 -0.3550109203890759
vn 0.855444080150312 0 0.5178951879828451
vn 0.8851867909286841 0 -0.46523579523224384
vn 0 0 1
vn 0.8554440801503679 0 -0.517895187982753
vn -0.6074501187061684 -0.7943578244619118 0
vn 0 0 -1
vn -1 0 0
vn -0.9926914126180345 0 -0.1206804015340148
vn -0.9708724816376382 0 -0.23959679546849943
vn -0.9926914126180476 0 0.12068040153390788
vn -0.9348621536913502 0 -0.3550109203891766
vn -0.970872481637664 0 0.23959679546839488
vn -0.8851867909286338 0 -0.4652357952323391
vn -0.9348621536913885 0 0.3550109203890759
vn -0.855444080150312 0 -0.5178951879828451
vn -0.8851867909286841 0 0.46523579523224384
vn -0.8554440801503679 0 0.517895187982753
vn 0.6074501187061684 0.7943578244619118 0
usemtl material_0_0
f 1//1 2//2 3//1
f 2//2 1//1 4//2
f 9//3 3//1 10//3
f 3//1 9//3 1//1
f 4//2 13//4 2//2
f 13//4 4//2 14//4
f 17//5 10//3 18//5
f 10//3 17//5 9//3
f 14//4 21//6 13//4
f 21//6 14//4 22//6
f 25//7 18//5 26//7
f 18//5 25//7 17//5
f 22//6 29//8 21//6
f 29//8 22//6 30//8
f 33//9 26//7 34//9
f 26//7 33//9 25//7
f 25//7 33//9 35//9
f 30//8 39//10 29//8
f 39//10 30//8 40//10
f 43//11 44//11 45//11
f 44//11 43//11 46//11
f 44//11 46//11 47//11
f 44//11 47//11 48//11
f 40//10 55//12 39//10
f 55//12 40//10 56//12
f 56//12 40//10 57//12
f 61//13 62//13 63//13
f 62//13 61//13 64//13
f 69//14 70//14 71//14
f 70//14 69//14 72//14
f 72//14 69//14 73//14
f 73//14 69//14 74//14
usemtl material_1_0
f 5//15 6//16 7//15
f 8//16 7//15 6//16
f 6//16 11//17 8//16
f 12//17 8//16 11//17
f 15//18 5//15 16//18
f 7//15 16//18 5//15
f 11//17 19//19 12//17
f 20//19 12//17 19//19
f 23//20 15//18 24//20
f 16//18 24//20 15//18
f 19//19 27//21 20//19
f 28//21 20//19 27//21
f 31//22 23//20 32//22
f 24//20 32//22 23//20
f 36//23 37//23 27//21
f 27//21 37//23 28//21
f 38//23 28//21 37//23
f 41//24 31//22 42//24
f 32//22 42//24 31//22
f 49//14 50//14 51//14
f 50//14 52//14 51//14
f 52//14 53//14 51//14
f 54//14 51//14 53//14
f 58//25 41//24 59//25
f 59//25 41//24 60//25
f 42//24 60//25 41//24
f 65//26 66//26 67//26
f 68//26 67//26 66//26
f 75//11 76//11 77//11
f 77//11 76//11 78//11
f 78//11 76//11 79//11
f 80//11 79//11 76//11
