# SSTK version 0.8.0
# 20
mtllib original-20.mtl
o #ID132
v -0.205567 -0.219370 -0.376485
v 0.193573 -0.219370 -0.365699
v -0.213922 -0.219370 -0.365699
v 0.185218 -0.219370 -0.376485
v -0.204307 -0.219370 -0.378112
v 0.183958 -0.219370 -0.378112
v 0.183958 -0.219370 -0.378112
v -0.204307 -0.219370 -0.378112
v 0.185218 -0.219370 -0.376485
v -0.205567 -0.219370 -0.376485
v 0.193573 -0.219370 -0.365699
v -0.213922 -0.219370 -0.365699
v 0.193573 -0.219370 -0.365699
v 0.185218 -0.221555 -0.376485
v 0.193573 -0.221555 -0.365699
v 0.185218 -0.219370 -0.376485
v 0.185218 -0.219370 -0.376485
v 0.193573 -0.219370 -0.365699
v 0.185218 -0.221555 -0.376485
v 0.193573 -0.221555 -0.365699
v -0.213922 -0.221555 -0.365699
v 0.193573 -0.219370 -0.365699
v 0.193573 -0.221555 -0.365699
v -0.213922 -0.219370 -0.365699
v -0.213922 -0.219370 -0.365699
v -0.213922 -0.221555 -0.365699
v 0.193573 -0.219370 -0.365699
v 0.193573 -0.221555 -0.365699
v -0.205567 -0.219370 -0.376485
v -0.213922 -0.221555 -0.365699
v -0.205567 -0.221555 -0.376485
v -0.213922 -0.219370 -0.365699
v -0.213922 -0.219370 -0.365699
v -0.205567 -0.219370 -0.376485
v -0.213922 -0.221555 -0.365699
v -0.205567 -0.221555 -0.376485
v -0.204307 -0.219370 -0.378112
v -0.205567 -0.221555 -0.376485
v -0.204307 -0.221555 -0.378112
v -0.205567 -0.219370 -0.376485
v -0.205567 -0.219370 -0.376485
v -0.204307 -0.219370 -0.378112
v -0.205567 -0.221555 -0.376485
v -0.204307 -0.221555 -0.378112
v -0.204307 -0.219370 -0.378112
v 0.183958 -0.221555 -0.378112
v 0.183958 -0.219370 -0.378112
v -0.204307 -0.221555 -0.378112
v -0.204307 -0.221555 -0.378112
v -0.204307 -0.219370 -0.378112
v 0.183958 -0.221555 -0.378112
v 0.183958 -0.219370 -0.378112
v 0.185218 -0.219370 -0.376485
v 0.183958 -0.221555 -0.378112
v 0.185218 -0.221555 -0.376485
v 0.183958 -0.219370 -0.378112
v 0.183958 -0.219370 -0.378112
v 0.185218 -0.219370 -0.376485
v 0.183958 -0.221555 -0.378112
v 0.185218 -0.221555 -0.376485
vn 0 -1 0
vn -0.7905760166814993 0 0.6123639129210781
vn 0 0 -1
vn 0.7905760166814333 0 0.6123639129211632
vn 0 0 1
vn 0 1 0
vn 0.7905760166814993 0 -0.6123639129210781
vn -0.7905760166814333 0 -0.6123639129211632
usemtl material_0_0
f 7//6 8//6 9//6
f 8//6 10//6 9//6
f 9//6 10//6 11//6
f 12//6 11//6 10//6
f 17//7 18//7 19//7
f 20//7 19//7 18//7
f 25//5 26//5 27//5
f 28//5 27//5 26//5
f 33//8 34//8 35//8
f 36//8 35//8 34//8
f 41//8 42//8 43//8
f 44//8 43//8 42//8
f 49//3 50//3 51//3
f 52//3 51//3 50//3
f 57//7 58//7 59//7
f 60//7 59//7 58//7
usemtl material_1_0
f 1//1 2//1 3//1
f 2//1 1//1 4//1
f 4//1 1//1 5//1
f 4//1 5//1 6//1
f 13//2 14//2 15//2
f 14//2 13//2 16//2
f 21//3 22//3 23//3
f 22//3 21//3 24//3
f 29//4 30//4 31//4
f 30//4 29//4 32//4
f 37//4 38//4 39//4
f 38//4 37//4 40//4
f 45//5 46//5 47//5
f 46//5 45//5 48//5
f 53//2 54//2 55//2
f 54//2 53//2 56//2
