# SSTK version 0.8.0
# 40
mtllib original-40.mtl
o #ID252
v -0.091109 -0.221555 -0.228716
v 0.066297 -0.221555 -0.227728
v -0.086645 -0.221555 -0.227728
v 0.070760 -0.221555 -0.228716
v -0.115471 -0.221555 -0.234113
v 0.095122 -0.221555 -0.234113
v 0.095122 -0.221555 -0.234113
v -0.115471 -0.221555 -0.234113
v 0.070760 -0.221555 -0.228716
v -0.091109 -0.221555 -0.228716
v 0.066297 -0.221555 -0.227728
v -0.086645 -0.221555 -0.227728
vn 0 -1 0
vn 0 1 0
usemtl material_0_0
f 1//1 2//1 3//1
f 2//1 1//1 4//1
f 4//1 1//1 5//1
f 4//1 5//1 6//1
f 7//2 8//2 9//2
f 8//2 10//2 9//2
f 9//2 10//2 11//2
f 12//2 11//2 10//2
