# SSTK version 0.8.0
# 29
mtllib original-29.mtl
o #ID186
v -0.116832 -0.219370 -0.234415
v 0.095122 -0.219370 -0.234113
v -0.115471 -0.219370 -0.234113
v 0.096484 -0.219370 -0.234415
v -0.131630 -0.219370 -0.240487
v 0.118574 -0.219370 -0.243479
v -0.146349 -0.219370 -0.246526
v 0.126000 -0.219370 -0.246526
v 0.126000 -0.219370 -0.246526
v -0.146349 -0.219370 -0.246526
v 0.118574 -0.219370 -0.243479
v -0.131630 -0.219370 -0.240487
v 0.096484 -0.219370 -0.234415
v -0.116832 -0.219370 -0.234415
v 0.095122 -0.219370 -0.234113
v -0.115471 -0.219370 -0.234113
v -0.146349 -0.221555 -0.246526
v -0.131630 -0.219370 -0.240487
v -0.131630 -0.221555 -0.240487
v -0.146349 -0.219370 -0.246526
v -0.146349 -0.219370 -0.246526
v -0.146349 -0.221555 -0.246526
v -0.131630 -0.219370 -0.240487
v -0.131630 -0.221555 -0.240487
v -0.146349 -0.219370 -0.246526
v 0.126000 -0.221555 -0.246526
v 0.126000 -0.219370 -0.246526
v -0.146349 -0.221555 -0.246526
v -0.146349 -0.221555 -0.246526
v -0.146349 -0.219370 -0.246526
v 0.126000 -0.221555 -0.246526
v 0.126000 -0.219370 -0.246526
v 0.118574 -0.221555 -0.243479
v 0.126000 -0.219370 -0.246526
v 0.126000 -0.221555 -0.246526
v 0.118574 -0.219370 -0.243479
v 0.118574 -0.219370 -0.243479
v 0.118574 -0.221555 -0.243479
v 0.126000 -0.219370 -0.246526
v 0.126000 -0.221555 -0.246526
v 0.096484 -0.221555 -0.234415
v 0.118574 -0.219370 -0.243479
v 0.118574 -0.221555 -0.243479
v 0.096484 -0.219370 -0.234415
v 0.096484 -0.219370 -0.234415
v 0.096484 -0.221555 -0.234415
v 0.118574 -0.219370 -0.243479
v 0.118574 -0.221555 -0.243479
v 0.095122 -0.221555 -0.234113
v 0.095122 -0.219370 -0.234113
v 0.095122 -0.219370 -0.234113
v 0.095122 -0.221555 -0.234113
v -0.115471 -0.221555 -0.234113
v 0.095122 -0.219370 -0.234113
v 0.095122 -0.221555 -0.234113
v -0.115471 -0.219370 -0.234113
v -0.115471 -0.219370 -0.234113
v -0.115471 -0.221555 -0.234113
v 0.095122 -0.219370 -0.234113
v 0.095122 -0.221555 -0.234113
v -0.116832 -0.221555 -0.234415
v -0.115471 -0.219370 -0.234113
v -0.115471 -0.221555 -0.234113
v -0.116832 -0.219370 -0.234415
v -0.116832 -0.219370 -0.234415
v -0.116832 -0.221555 -0.234415
v -0.115471 -0.219370 -0.234113
v -0.115471 -0.221555 -0.234113
v -0.131630 -0.221555 -0.240487
v -0.131630 -0.219370 -0.240487
v -0.131630 -0.219370 -0.240487
v -0.131630 -0.221555 -0.240487
vn 0 -1 0
vn 0.3796187992859033 0 -0.9251429982595821
vn 0 0 1
vn -0.3796187992858037 0 -0.9251429982596229
vn -0.29903821166416605 0 -0.9542411372209321
vn -0.21626270236041914 0 -0.9763352106565494
vn 0 0 -1
vn 0.2990382116642688 0 -0.9542411372208998
vn 0.2162627023605243 0 -0.9763352106565262
vn 0 1 0
vn -0.3796187992859033 0 0.9251429982595821
vn 0.3796187992858037 0 0.9251429982596229
vn 0.29903821166416605 0 0.9542411372209321
vn 0.21626270236041914 0 0.9763352106565494
vn -0.2990382116642688 0 0.9542411372208998
vn -0.2162627023605243 0 0.9763352106565262
usemtl material_0_0
f 9//10 10//10 11//10
f 10//10 12//10 11//10
f 11//10 12//10 13//10
f 12//10 14//10 13//10
f 13//10 14//10 15//10
f 16//10 15//10 14//10
f 21//11 22//11 23//11
f 24//11 23//11 22//11
f 29//7 30//7 31//7
f 32//7 31//7 30//7
f 37//12 38//12 39//12
f 40//12 39//12 38//12
f 45//13 46//13 47//12
f 48//12 47//12 46//13
f 51//14 52//14 45//13
f 46//13 45//13 52//14
f 57//3 58//3 59//3
f 60//3 59//3 58//3
f 65//15 66//15 67//16
f 68//16 67//16 66//15
f 71//11 72//11 65//15
f 66//15 65//15 72//11
usemtl material_1_0
f 1//1 2//1 3//1
f 2//1 1//1 4//1
f 4//1 1//1 5//1
f 4//1 5//1 6//1
f 6//1 5//1 7//1
f 6//1 7//1 8//1
f 17//2 18//2 19//2
f 18//2 17//2 20//2
f 25//3 26//3 27//3
f 26//3 25//3 28//3
f 33//4 34//4 35//4
f 34//4 33//4 36//4
f 41//5 42//4 43//4
f 42//4 41//5 44//5
f 49//6 44//5 41//5
f 44//5 49//6 50//6
f 53//7 54//7 55//7
f 54//7 53//7 56//7
f 61//8 62//9 63//9
f 62//9 61//8 64//8
f 69//2 64//8 61//8
f 64//8 69//2 70//2
