# SSTK version 0.8.0
# 53
mtllib original-53.mtl
o #ID338
v -0.644918 0.128094 0.301184
v -0.637770 0.099685 0.390515
v -0.642733 -0.190961 0.323037
v -0.642733 -0.190961 0.323037
v -0.637770 0.099685 0.390515
v -0.644918 0.128094 0.301184
v -0.635585 -0.193146 0.412368
v -0.635585 -0.193146 0.412368
v -0.653793 -0.188775 0.233917
v -0.653793 -0.188775 0.233917
v -0.629514 0.062535 0.471833
v -0.629514 0.062535 0.471833
v -0.649422 0.145576 0.212064
v -0.649422 0.145576 0.212064
v -0.627329 -0.195331 0.493686
v -0.627329 -0.195331 0.493686
v -0.664390 -0.184405 0.145053
v -0.664390 -0.184405 0.145053
v -0.612055 0.012273 0.550800
v -0.612055 0.012273 0.550800
v -0.655649 0.160874 0.123200
v -0.655649 0.160874 0.123200
v -0.607684 -0.195331 0.572653
v -0.607684 -0.195331 0.572653
v -0.678889 -0.180034 0.056492
v -0.678889 -0.180034 0.056492
v -0.598883 -0.016136 0.588959
v -0.598883 -0.016136 0.588959
v -0.652666 0.167430 0.034639
v -0.652666 0.167430 0.034639
v -0.594513 -0.193146 0.610812
v -0.594513 -0.193146 0.610812
v -0.692914 -0.177849 -0.031723
v -0.692914 -0.177849 -0.031723
v -0.590068 -0.044545 0.626005
v -0.590068 -0.044545 0.626005
v -0.647022 0.171800 -0.053576
v -0.647022 0.171800 -0.053576
v -0.583512 -0.169108 0.647858
v -0.583512 -0.169108 0.647858
v -0.706457 -0.173478 -0.119546
v -0.706457 -0.173478 -0.119546
v -0.579164 -0.064213 0.664024
v -0.579164 -0.064213 0.664024
v -0.647453 0.173985 -0.139214
v -0.647453 0.173985 -0.139214
v -0.568238 -0.131957 0.685878
v -0.568238 -0.131957 0.685878
v -0.714087 -0.169108 -0.169013
v -0.714087 -0.169108 -0.169013
v -0.550996 -0.088251 0.722459
v -0.550996 -0.088251 0.722459
v -0.648528 0.173985 -0.190866
v -0.648528 0.173985 -0.190866
v -0.720512 -0.164737 -0.219019
v -0.720512 -0.164737 -0.219019
v -0.650581 0.171800 -0.240872
v -0.650581 0.171800 -0.240872
v -0.723826 -0.160366 -0.269271
v -0.723826 -0.160366 -0.269271
v -0.653896 0.165244 -0.291124
v -0.653896 0.165244 -0.291124
v -0.721663 -0.158181 -0.319478
v -0.721663 -0.158181 -0.319478
v -0.653918 0.154318 -0.339146
v -0.653918 0.154318 -0.339146
v -0.716221 -0.153810 -0.369345
v -0.716221 -0.153810 -0.369345
v -0.650661 0.128094 -0.391198
v -0.650661 0.128094 -0.391198
v -0.707531 -0.149440 -0.418583
v -0.707531 -0.149440 -0.418583
v -0.646342 0.097500 -0.433880
v -0.646342 0.097500 -0.433880
v -0.695645 -0.142884 -0.466902
v -0.695645 -0.142884 -0.466902
v -0.641012 0.053794 -0.480015
v -0.641012 0.053794 -0.480015
v -0.680630 -0.136328 -0.514023
v -0.680630 -0.136328 -0.514023
v -0.634739 -0.000839 -0.516209
v -0.634739 -0.000839 -0.516209
v -0.658206 -0.129772 -0.559669
v -0.658206 -0.129772 -0.559669
v -0.631983 -0.048916 -0.546557
v -0.631983 -0.048916 -0.546557
v -0.637218 -0.123216 -0.603573
v -0.637218 -0.123216 -0.603573
vn 0.9974965960682113 -0.008100720968069696 -0.0702489797230487
vn 0.9962029176040911 0.000869364415362719 -0.08705740153835383
vn 0.9949713938707767 0.000007886818951437811 -0.10015949938294329
vn -0.9949713938707767 -0.000007886818951437811 0.10015949938294329
vn -0.9962029176040911 -0.000869364415362719 0.08705740153835383
vn -0.9974965960682113 0.008100720968069696 0.0702489797230487
vn 0.9958455955549296 0.0006297916971888699 -0.0910557695935081
vn -0.9958455955549296 -0.0006297916971888699 0.0910557695935081
vn 0.9932569048202182 -0.011913280057814358 -0.11532040055958903
vn -0.9932569048202182 0.011913280057814358 0.11532040055958903
vn 0.9938226290878683 -0.0009762204285726449 -0.11097580324806018
vn -0.9938226290878683 0.0009762204285726449 0.11097580324806018
vn 0.9972792260218347 -0.02354627061438867 -0.06985498182266003
vn -0.9972792260218347 0.02354627061438867 0.06985498182266003
vn 0.990699951632366 -0.0016837739177952894 -0.13605429335754676
vn -0.990699951632366 0.0016837739177952894 0.13605429335754676
vn 0.9902895909272378 -0.028320739740532893 -0.13610459875299255
vn -0.9902895909272378 0.028320739740532893 0.13610459875299255
vn -0.9664584177377046 0.011284610207109656 0.256575104708945
vn 0.9664584177377046 -0.011284610207109656 -0.256575104708945
vn 0.9981252816446228 -0.051256979057391586 -0.033446139384876616
vn -0.9981252816446228 0.051256979057391586 0.033446139384876616
vn -0.9579866700850168 0.011137709652203271 0.2865963910504182
vn 0.9579866700850168 -0.011137709652203271 -0.2865963910504182
vn 0.9856317525573197 -0.07311300648075703 -0.15226469267079346
vn -0.9856317525573197 0.07311300648075703 0.15226469267079346
vn -0.9462093652599862 0.015511069430511762 0.32318298813430124
vn 0.9462093652599862 -0.015511069430511762 -0.32318298813430124
vn 0.9936018144688811 -0.10015340145843872 -0.0521989507600702
vn -0.9936018144688811 0.10015340145843872 0.0521989507600702
vn -0.948748717446488 0.013717190252244342 0.31573360580595117
vn 0.948748717446488 -0.013717190252244342 -0.31573360580595117
vn -0.9834811499801871 0.11343549423067427 0.1410574928257674
vn 0.9834811499801871 -0.11343549423067427 -0.1410574928257674
vn 0.9681103005861118 -0.0024664700014931564 -0.2505122001516091
vn -0.9681103005861118 0.0024664700014931564 0.2505122001516091
vn -0.9891716354180667 0.14643970524338865 -0.009741068348839832
vn 0.9891716354180667 -0.14643970524338865 0.009741068348839832
vn 0.9512304779143022 0.0056578168686366075 -0.30842919283882514
vn -0.9512304779143022 -0.0056578168686366075 0.30842919283882514
vn -0.9760938933181622 0.15752669892165175 0.14975329897481204
vn 0.9760938933181622 -0.15752669892165175 -0.14975329897481204
vn 0.9419014457320309 0.006476790314466794 -0.33582691630530787
vn -0.9419014457320309 -0.006476790314466794 0.33582691630530787
vn -0.9837388348501539 0.17828720631604258 0.021715820769256614
vn 0.9837388348501539 -0.17828720631604258 -0.021715820769256614
vn 0.9137151070574209 0.016397780126654098 -0.4060244031360227
vn -0.9137151070574209 -0.016397780126654098 0.4060244031360227
vn -0.9717159583089438 0.18434459209077284 0.14759799366731793
vn 0.9717159583089438 -0.18434459209077284 -0.14759799366731793
vn 0.9017552708103076 0.006023423805022552 -0.4322049860095251
vn -0.9017552708103076 -0.006023423805022552 0.4322049860095251
vn -0.9799397239782437 0.19684800481669332 0.03112877076164025
vn 0.9799397239782437 -0.19684800481669332 -0.03112877076164025
vn -0.9734073596443433 0.20125469165635396 0.10942879546323288
vn 0.9734073596443433 -0.20125469165635396 -0.10942879546323288
vn -0.9773610706953446 0.2084731937492543 0.03611460891710683
vn 0.9773610706953446 -0.2084731937492543 -0.03611460891710683
vn -0.9776771319387861 0.2083497068063742 0.027162940887307134
vn 0.9776771319387861 -0.2083497068063742 -0.027162940887307134
vn -0.9775396130884089 0.21074740282172524 -0.0013553770181999145
vn 0.9775396130884089 -0.21074740282172524 0.0013553770181999145
vn -0.9765791603744749 0.2069494916028501 -0.05886468761156826
vn 0.9765791603744749 -0.2069494916028501 0.05886468761156826
vn -0.9734371246966104 0.20977510532210553 -0.09173096232731544
vn 0.9734371246966104 -0.20977510532210553 0.09173096232731544
vn -0.9704244819957423 0.2092141961184564 -0.12043979776553687
vn 0.9704244819957423 -0.2092141961184564 0.12043979776553687
vn -0.9580696783847787 0.21342469518488072 -0.19118679568664615
vn 0.9580696783847787 -0.21342469518488072 0.19118679568664615
vn -0.959357266187468 0.21776849232475512 -0.17947289367453406
vn 0.959357266187468 -0.21776849232475512 0.17947289367453406
vn -0.9377914330670701 0.22212490783225658 -0.26684780940926317
vn 0.9377914330670701 -0.22212490783225658 0.26684780940926317
vn -0.9433309825476568 0.2319194957093155 -0.2373604956087036
vn 0.9433309825476568 -0.2319194957093155 0.2373604956087036
vn -0.9022216804001038 0.23973169479206521 -0.3585034922119134
vn 0.9022216804001038 -0.23973169479206521 0.3585034922119134
vn -0.9037550280041469 0.2645172081964508 -0.3365375104281532
vn 0.9037550280041469 -0.2645172081964508 0.3365375104281532
vn -0.8051055121500968 0.2741815041377679 -0.5259559079374255
vn 0.8051055121500968 -0.2741815041377679 0.5259559079374255
vn -0.8637746225952955 0.31690190828977705 -0.39174811024771095
vn 0.8637746225952955 -0.31690190828977705 0.39174811024771095
vn -0.7587180790755044 0.3365190907192379 -0.5577649846176023
vn 0.7587180790755044 -0.3365190907192379 0.5577649846176023
vn -0.867151192387503 0.3402211970132935 -0.3637283968069769
vn 0.867151192387503 -0.3402211970132935 0.3637283968069769
usemtl material_0_0
f 1//1 2//2 3//3
f 4//4 5//5 6//6
f 2//2 7//7 3//3
f 4//4 8//8 5//5
f 1//1 3//3 9//9
f 10//10 4//4 6//6
f 2//2 11//11 7//7
f 8//8 12//12 5//5
f 13//13 1//1 9//9
f 10//10 6//6 14//14
f 11//11 15//15 7//7
f 8//8 16//16 12//12
f 13//13 9//9 17//17
f 18//18 10//10 14//14
f 12//12 16//16 19//19
f 20//20 15//15 11//11
f 21//21 13//13 17//17
f 18//18 14//14 22//22
f 19//19 16//16 23//23
f 24//24 15//15 20//20
f 21//21 17//17 25//25
f 26//26 18//18 22//22
f 19//19 23//23 27//27
f 28//28 24//24 20//20
f 29//29 21//21 25//25
f 26//26 22//22 30//30
f 27//27 23//23 31//31
f 32//32 24//24 28//28
f 30//30 33//33 26//26
f 25//25 34//34 29//29
f 28//28 35//35 32//32
f 31//31 36//36 27//27
f 37//37 33//33 30//30
f 29//29 34//34 38//38
f 35//35 39//39 32//32
f 31//31 40//40 36//36
f 37//37 41//41 33//33
f 34//34 42//42 38//38
f 35//35 43//43 39//39
f 40//40 44//44 36//36
f 45//45 41//41 37//37
f 38//38 42//42 46//46
f 43//43 47//47 39//39
f 40//40 48//48 44//44
f 45//45 49//49 41//41
f 42//42 50//50 46//46
f 43//43 51//51 47//47
f 48//48 52//52 44//44
f 53//53 49//49 45//45
f 46//46 50//50 54//54
f 53//53 55//55 49//49
f 50//50 56//56 54//54
f 53//53 57//57 55//55
f 56//56 58//58 54//54
f 57//57 59//59 55//55
f 56//56 60//60 58//58
f 57//57 61//61 59//59
f 60//60 62//62 58//58
f 61//61 63//63 59//59
f 60//60 64//64 62//62
f 61//61 65//65 63//63
f 64//64 66//66 62//62
f 65//65 67//67 63//63
f 64//64 68//68 66//66
f 65//65 69//69 67//67
f 68//68 70//70 66//66
f 69//69 71//71 67//67
f 68//68 72//72 70//70
f 69//69 73//73 71//71
f 72//72 74//74 70//70
f 73//73 75//75 71//71
f 72//72 76//76 74//74
f 73//73 77//77 75//75
f 76//76 78//78 74//74
f 77//77 79//79 75//75
f 76//76 80//80 78//78
f 77//77 81//81 79//79
f 80//80 82//82 78//78
f 81//81 83//83 79//79
f 80//80 84//84 82//82
f 81//81 85//85 83//83
f 84//84 86//86 82//82
f 85//85 87//87 83//83
f 84//84 88//88 86//86
