# SSTK version 0.8.0
# 49
mtllib original-49.mtl
o #ID310
v -0.060942 -0.182503 0.216622
v 0.298413 -0.182503 0.228991
v -0.051235 -0.182503 0.228991
v 0.298413 -0.182503 0.056352
v -0.069084 -0.182503 0.203172
v -0.075545 -0.182503 0.188838
v -0.080227 -0.182503 0.173829
v -0.083065 -0.182503 0.158365
v -0.084015 -0.182503 0.142671
v -0.083065 -0.182503 0.126978
v -0.080227 -0.182503 0.111513
v -0.075545 -0.182503 0.096504
v -0.069084 -0.182503 0.082170
v -0.060942 -0.182503 0.068721
v -0.051235 -0.182503 0.056352
v -0.051235 -0.182503 0.056352
v -0.060942 -0.182503 0.068721
v 0.298413 -0.182503 0.056352
v -0.069084 -0.182503 0.082170
v -0.075545 -0.182503 0.096504
v -0.080227 -0.182503 0.111513
v -0.083065 -0.182503 0.126978
v -0.084015 -0.182503 0.142671
v -0.083065 -0.182503 0.158365
v -0.080227 -0.182503 0.173829
v -0.075545 -0.182503 0.188838
v -0.069084 -0.182503 0.203172
v -0.060942 -0.182503 0.216622
v 0.298413 -0.182503 0.228991
v -0.051235 -0.182503 0.228991
vn 0 -1 0
vn 0 1 0
usemtl material_0_0
f 16//2 17//2 18//2
f 17//2 19//2 18//2
f 19//2 20//2 18//2
f 20//2 21//2 18//2
f 21//2 22//2 18//2
f 22//2 23//2 18//2
f 23//2 24//2 18//2
f 24//2 25//2 18//2
f 25//2 26//2 18//2
f 26//2 27//2 18//2
f 27//2 28//2 18//2
f 18//2 28//2 29//2
f 30//2 29//2 28//2
usemtl material_1_0
f 1//1 2//1 3//1
f 2//1 1//1 4//1
f 4//1 1//1 5//1
f 4//1 5//1 6//1
f 4//1 6//1 7//1
f 4//1 7//1 8//1
f 4//1 8//1 9//1
f 4//1 9//1 10//1
f 4//1 10//1 11//1
f 4//1 11//1 12//1
f 4//1 12//1 13//1
f 4//1 13//1 14//1
f 4//1 14//1 15//1
