# SSTK version 0.8.0
# 25
mtllib original-25.mtl
o #ID162
v 0.131779 -0.062028 -0.774846
v 0.171114 -0.221555 -0.792591
v 0.164558 -0.173478 -0.792591
v 0.164558 -0.173478 -0.792591
v 0.171114 -0.221555 -0.792591
v 0.131779 -0.062028 -0.774846
v 0.131779 -0.062028 -0.650633
v 0.164558 -0.173478 -0.792591
v 0.164558 -0.173478 -0.640493
v 0.131779 -0.062028 -0.774846
v 0.131779 -0.062028 -0.774846
v 0.131779 -0.062028 -0.650633
v 0.164558 -0.173478 -0.792591
v 0.164558 -0.173478 -0.640493
v 0.131779 -0.062028 -0.774846
v -0.191647 -0.221555 -0.792591
v 0.171114 -0.221555 -0.792591
v -0.152311 -0.062028 -0.774846
v -0.152311 -0.062028 -0.774846
v 0.131779 -0.062028 -0.774846
v -0.191647 -0.221555 -0.792591
v 0.171114 -0.221555 -0.792591
v 0.169815 -0.173478 -0.780813
v 0.171114 -0.221555 -0.792591
v 0.176371 -0.221555 -0.780813
v 0.164558 -0.173478 -0.792591
v 0.164558 -0.173478 -0.792591
v 0.169815 -0.173478 -0.780813
v 0.171114 -0.221555 -0.792591
v 0.176371 -0.221555 -0.780813
v -0.191647 -0.221555 -0.640493
v 0.131779 -0.062028 -0.650633
v 0.164558 -0.173478 -0.640493
v 0.164558 -0.173478 -0.640493
v 0.131779 -0.062028 -0.650633
v -0.191647 -0.221555 -0.640493
v -0.152311 -0.062028 -0.650633
v -0.018185 -0.062028 -0.683188
v 0.131779 -0.062028 -0.650633
v -0.025564 -0.062028 -0.686244
v -0.152311 -0.062028 -0.774846
v -0.010266 -0.062028 -0.682145
v -0.031900 -0.062028 -0.691106
v -0.036762 -0.062028 -0.697443
v -0.039818 -0.062028 -0.704821
v -0.040861 -0.062028 -0.712740
v -0.039818 -0.062028 -0.720658
v -0.036762 -0.062028 -0.728037
v -0.031900 -0.062028 -0.734373
v -0.025564 -0.062028 -0.739235
v -0.018185 -0.062028 -0.742292
v -0.010266 -0.062028 -0.743334
v 0.005031 -0.062028 -0.686244
v 0.131779 -0.062028 -0.774846
v -0.002348 -0.062028 -0.683188
v 0.011367 -0.062028 -0.691106
v 0.016229 -0.062028 -0.697443
v 0.019285 -0.062028 -0.704821
v 0.020328 -0.062028 -0.712740
v 0.019285 -0.062028 -0.720658
v 0.016229 -0.062028 -0.728037
v 0.011367 -0.062028 -0.734373
v 0.005031 -0.062028 -0.739235
v -0.002348 -0.062028 -0.742292
v -0.152311 -0.062028 -0.774846
v -0.010266 -0.062028 -0.743334
v 0.131779 -0.062028 -0.774846
v -0.002348 -0.062028 -0.742292
v 0.005031 -0.062028 -0.739235
v 0.011367 -0.062028 -0.734373
v 0.016229 -0.062028 -0.728037
v 0.019285 -0.062028 -0.720658
v 0.020328 -0.062028 -0.712740
v 0.019285 -0.062028 -0.704821
v 0.016229 -0.062028 -0.697443
v 0.011367 -0.062028 -0.691106
v 0.005031 -0.062028 -0.686244
v -0.010266 -0.062028 -0.682145
v 0.131779 -0.062028 -0.650633
v -0.002348 -0.062028 -0.683188
v -0.018185 -0.062028 -0.742292
v -0.025564 -0.062028 -0.739235
v -0.031900 -0.062028 -0.734373
v -0.036762 -0.062028 -0.728037
v -0.039818 -0.062028 -0.720658
v -0.040861 -0.062028 -0.712740
v -0.039818 -0.062028 -0.704821
v -0.036762 -0.062028 -0.697443
v -0.031900 -0.062028 -0.691106
v -0.025564 -0.062028 -0.686244
v -0.018185 -0.062028 -0.683188
v -0.152311 -0.062028 -0.650633
v 0.164558 -0.173478 -0.792591
v 0.169815 -0.173478 -0.652271
v 0.164558 -0.173478 -0.640493
v 0.174172 -0.173478 -0.664534
v 0.177595 -0.173478 -0.677189
v 0.180058 -0.173478 -0.690141
v 0.181544 -0.173478 -0.703291
v 0.182040 -0.173478 -0.716542
v 0.181544 -0.173478 -0.729792
v 0.180058 -0.173478 -0.742944
v 0.177595 -0.173478 -0.755895
v 0.174172 -0.173478 -0.768550
v 0.169815 -0.173478 -0.780813
v 0.169815 -0.173478 -0.780813
v 0.164558 -0.173478 -0.792591
v 0.174172 -0.173478 -0.768550
v 0.177595 -0.173478 -0.755895
v 0.180058 -0.173478 -0.742944
v 0.181544 -0.173478 -0.729792
v 0.182040 -0.173478 -0.716542
v 0.181544 -0.173478 -0.703291
v 0.180058 -0.173478 -0.690141
v 0.177595 -0.173478 -0.677189
v 0.174172 -0.173478 -0.664534
v 0.169815 -0.173478 -0.652271
v 0.164558 -0.173478 -0.640493
v -0.152311 -0.062028 -0.774846
v -0.185091 -0.173478 -0.792591
v -0.191647 -0.221555 -0.792591
v -0.191647 -0.221555 -0.792591
v -0.185091 -0.173478 -0.792591
v -0.152311 -0.062028 -0.774846
v 0.174172 -0.173478 -0.768550
v 0.180728 -0.221555 -0.768550
v 0.174172 -0.173478 -0.768550
v 0.180728 -0.221555 -0.768550
v 0.171114 -0.221555 -0.640493
v 0.171114 -0.221555 -0.640493
v -0.152311 -0.062028 -0.650633
v -0.152311 -0.062028 -0.650633
v -0.152311 -0.062028 -0.774846
v -0.185091 -0.173478 -0.640493
v -0.185091 -0.173478 -0.792591
v -0.152311 -0.062028 -0.650633
v -0.152311 -0.062028 -0.650633
v -0.152311 -0.062028 -0.774846
v -0.185091 -0.173478 -0.640493
v -0.185091 -0.173478 -0.792591
v 0.177595 -0.173478 -0.755895
v 0.184151 -0.221555 -0.755895
v 0.177595 -0.173478 -0.755895
v 0.184151 -0.221555 -0.755895
v 0.180058 -0.173478 -0.742944
v 0.186614 -0.221555 -0.742944
v 0.180058 -0.173478 -0.742944
v 0.186614 -0.221555 -0.742944
v 0.181544 -0.173478 -0.729792
v 0.188100 -0.221555 -0.729792
v 0.181544 -0.173478 -0.729792
v 0.188100 -0.221555 -0.729792
v 0.182040 -0.173478 -0.716542
v 0.188596 -0.221555 -0.716542
v 0.182040 -0.173478 -0.716542
v 0.188596 -0.221555 -0.716542
v 0.181544 -0.173478 -0.703291
v 0.188100 -0.221555 -0.703291
v 0.181544 -0.173478 -0.703291
v 0.188100 -0.221555 -0.703291
v 0.180058 -0.173478 -0.690141
v 0.186614 -0.221555 -0.690141
v 0.180058 -0.173478 -0.690141
v 0.186614 -0.221555 -0.690141
v 0.177595 -0.173478 -0.677189
v 0.184151 -0.221555 -0.677189
v 0.177595 -0.173478 -0.677189
v 0.184151 -0.221555 -0.677189
v 0.174172 -0.173478 -0.664534
v 0.180728 -0.221555 -0.664534
v 0.174172 -0.173478 -0.664534
v 0.180728 -0.221555 -0.664534
v 0.169815 -0.173478 -0.652271
v 0.176371 -0.221555 -0.652271
v 0.169815 -0.173478 -0.652271
v 0.176371 -0.221555 -0.652271
v 0.164558 -0.173478 -0.640493
v 0.171114 -0.221555 -0.640493
v 0.164558 -0.173478 -0.640493
v 0.171114 -0.221555 -0.640493
v -0.185091 -0.173478 -0.792591
v -0.196904 -0.221555 -0.780813
v -0.191647 -0.221555 -0.792591
v -0.190348 -0.173478 -0.780813
v -0.190348 -0.173478 -0.780813
v -0.185091 -0.173478 -0.792591
v -0.196904 -0.221555 -0.780813
v -0.191647 -0.221555 -0.792591
v -0.191647 -0.221555 -0.640493
v -0.185091 -0.173478 -0.640493
v -0.152311 -0.062028 -0.650633
v -0.152311 -0.062028 -0.650633
v -0.185091 -0.173478 -0.640493
v -0.191647 -0.221555 -0.640493
v -0.190348 -0.173478 -0.652271
v -0.185091 -0.173478 -0.792591
v -0.185091 -0.173478 -0.640493
v -0.194705 -0.173478 -0.664534
v -0.198127 -0.173478 -0.677189
v -0.200591 -0.173478 -0.690141
v -0.202077 -0.173478 -0.703291
v -0.202574 -0.173478 -0.716542
v -0.202077 -0.173478 -0.729792
v -0.200591 -0.173478 -0.742944
v -0.198127 -0.173478 -0.755895
v -0.194705 -0.173478 -0.768550
v -0.190348 -0.173478 -0.780813
v -0.190348 -0.173478 -0.780813
v -0.194705 -0.173478 -0.768550
v -0.185091 -0.173478 -0.792591
v -0.198127 -0.173478 -0.755895
v -0.200591 -0.173478 -0.742944
v -0.202077 -0.173478 -0.729792
v -0.202574 -0.173478 -0.716542
v -0.202077 -0.173478 -0.703291
v -0.200591 -0.173478 -0.690141
v -0.198127 -0.173478 -0.677189
v -0.194705 -0.173478 -0.664534
v -0.190348 -0.173478 -0.652271
v -0.185091 -0.173478 -0.640493
v -0.201261 -0.221555 -0.768550
v -0.194705 -0.173478 -0.768550
v -0.194705 -0.173478 -0.768550
v -0.201261 -0.221555 -0.768550
v -0.190348 -0.173478 -0.652271
v -0.191647 -0.221555 -0.640493
v -0.196904 -0.221555 -0.652271
v -0.185091 -0.173478 -0.640493
v -0.185091 -0.173478 -0.640493
v -0.190348 -0.173478 -0.652271
v -0.191647 -0.221555 -0.640493
v -0.196904 -0.221555 -0.652271
v -0.198127 -0.173478 -0.755895
v -0.207147 -0.221555 -0.742944
v -0.204683 -0.221555 -0.755895
v -0.200591 -0.173478 -0.742944
v -0.200591 -0.173478 -0.742944
v -0.198127 -0.173478 -0.755895
v -0.207147 -0.221555 -0.742944
v -0.204683 -0.221555 -0.755895
v -0.194705 -0.173478 -0.664534
v -0.201261 -0.221555 -0.664534
v -0.194705 -0.173478 -0.664534
v -0.201261 -0.221555 -0.664534
v -0.198127 -0.173478 -0.677189
v -0.204683 -0.221555 -0.677189
v -0.198127 -0.173478 -0.677189
v -0.204683 -0.221555 -0.677189
v -0.200591 -0.173478 -0.690141
v -0.207147 -0.221555 -0.690141
v -0.200591 -0.173478 -0.690141
v -0.207147 -0.221555 -0.690141
v -0.202077 -0.173478 -0.703291
v -0.208633 -0.221555 -0.703291
v -0.202077 -0.173478 -0.703291
v -0.208633 -0.221555 -0.703291
v -0.202574 -0.173478 -0.716542
v -0.209129 -0.221555 -0.716542
v -0.202574 -0.173478 -0.716542
v -0.209129 -0.221555 -0.716542
v -0.202077 -0.173478 -0.729792
v -0.208633 -0.221555 -0.729792
v -0.202077 -0.173478 -0.729792
v -0.208633 -0.221555 -0.729792
vn 0.7070505269817283 0.09641598367933168 0.7005594267340972
vn -0.7070505269817283 -0.09641598367933168 -0.7005594267340972
vn -0.9593655079406971 -0.28216630233549894 0
vn 0.9593655079406971 0.28216630233549894 0
vn 0 -0.11055110454877086 0.9938704408941069
vn 0 0.11055110454877086 -0.9938704408941069
vn -0.9206341287393547 -0.1255410039189999 0.3696921115405887
vn -0.9061618816537461 -0.12356749749823585 0.4044770918108534
vn -0.9215436994839784 -0.12566509992963076 0.3673764997942287
vn 0.9061618816537461 0.12356749749823585 -0.4044770918108534
vn 0.9206341287393547 0.1255410039189999 -0.3696921115405887
vn 0.9215436994839784 0.12566509992963076 -0.3673764997942287
vn 0.002878109010724672 -0.06285684023304901 -0.9980184037002722
vn 0.008855637183677528 -0.08130261168582988 -0.9966501206657903
vn 0.005587652730100938 -0.04139942799989444 -0.9991270517297834
vn -0.005587652730100938 0.04139942799989444 0.9991270517297834
vn -0.008855637183677528 0.08130261168582988 0.9966501206657903
vn -0.002878109010724672 0.06285684023304901 0.9980184037002722
vn 0 -1 0
vn 0 1 0
vn -0.7070505269818038 0.0964159836793317 0.7005594267340212
vn 0.7070505269818038 -0.0964159836793317 -0.7005594267340212
vn -0.9462423597563056 -0.1290329945122237 0.2966072873852339
vn -0.946818002202177 -0.12911150030029467 0.29473020068544864
vn 0.9462423597563056 0.1290329945122237 -0.2966072873852339
vn 0.946818002202177 0.12911150030029467 -0.29473020068544864
vn 0 0 -1
vn 0 0 1
vn 0 -0.0634336274243349 -0.9979860594776816
vn 0 0.0634336274243349 0.9979860594776816
vn 0.9593655079406971 -0.28216630233549894 0
vn -0.9593655079406971 0.28216630233549894 0
vn -0.9659007863775414 -0.13171369814239106 0.22290619685621607
vn -0.9662215070195436 -0.13175750095720906 0.22148580160902676
vn 0.9659007863775414 0.13171369814239106 -0.22290619685621607
vn 0.9662215070195436 0.13175750095720906 -0.22148580160902676
vn -0.9797992665077802 -0.1336089954328779 0.14880199491348664
vn -0.9799407863515789 -0.1336282981388505 0.14784969794072472
vn 0.9797992665077802 0.1336089954328779 -0.14880199491348664
vn 0.9799407863515789 0.1336282981388505 -0.14784969794072472
vn -0.9880798350865887 -0.1347382047845359 0.07445707264390759
vn -0.9881150612059306 -0.13474299470989784 0.07397939709546501
vn 0.9880798350865887 0.1347382047845359 -0.07445707264390759
vn 0.9881150612059306 0.13474299470989784 -0.07397939709546501
vn -0.9908301692613374 -0.13511319580836445 0
vn 0.9908301692613374 0.13511319580836445 0
vn -0.9880798350865807 -0.13473820478453588 -0.07445707264401408
vn -0.9881150612059226 -0.1347429947098978 -0.0739793970955715
vn 0.9880798350865807 0.13473820478453588 0.07445707264401408
vn 0.9881150612059226 0.1347429947098978 0.0739793970955715
vn -0.9797992665077642 -0.13360899543287785 -0.14880199491359222
vn -0.9799407863515629 -0.1336282981388504 -0.1478496979408303
vn 0.9797992665077642 0.13360899543287785 0.14880199491359222
vn 0.9799407863515629 0.1336282981388504 0.1478496979408303
vn -0.9659007863775174 -0.13171369814239098 -0.22290619685632015
vn -0.9662215070195197 -0.131757500957209 -0.22148580160913095
vn 0.9659007863775174 0.13171369814239098 0.22290619685632015
vn 0.9662215070195197 0.131757500957209 0.22148580160913095
vn -0.9462423597562736 -0.12903299451222355 -0.29660728738533587
vn -0.9468180022021454 -0.12911150030029453 -0.29473020068555067
vn 0.9462423597562736 0.12903299451222355 0.29660728738533587
vn 0.9468180022021454 0.12911150030029453 0.29473020068555067
vn -0.9206341287393148 -0.1255410039189997 -0.36969211154068765
vn -0.9215436994839387 -0.1256650999296306 -0.36737649979432796
vn 0.9206341287393148 0.1255410039189997 0.36969211154068765
vn 0.9215436994839387 0.1256650999296306 0.36737649979432796
vn -0.9061618816537027 -0.12356749749823573 -0.40447709181095115
vn 0.9061618816537027 0.12356749749823573 0.40447709181095115
vn 0.9061618816537027 -0.1235674974982359 0.40447709181095115
vn 0.9215436994839387 -0.12566509992963076 0.36737649979432796
vn 0.9206341287393148 -0.12554100391899986 0.36969211154068765
vn -0.9206341287393148 0.12554100391899986 -0.36969211154068765
vn -0.9061618816537027 0.1235674974982359 -0.40447709181095115
vn -0.9215436994839387 0.12566509992963076 -0.36737649979432796
vn -0.4984371829319209 0.06796870767254118 -0.8642572704051817
vn 0.4984371829319209 -0.06796870767254118 0.8642572704051817
vn 0.9468180022021454 -0.12911150030029467 0.2947302006855506
vn 0.9462423597562736 -0.1290329945122237 0.2966072873853358
vn -0.9462423597562736 0.1290329945122237 -0.2966072873853358
vn -0.9468180022021454 0.12911150030029467 -0.2947302006855506
vn 0.9206341287393547 -0.12554100391899972 -0.3696921115405887
vn 0.9061618816537461 -0.12356749749823569 -0.4044770918108534
vn 0.9215436994839784 -0.1256650999296306 -0.3673764997942287
vn -0.9061618816537461 0.12356749749823569 0.4044770918108534
vn -0.9206341287393547 0.12554100391899972 0.3696921115405887
vn -0.9215436994839784 0.1256650999296306 0.3673764997942287
vn 0.9659007863775173 -0.13171369814239103 0.22290619685632004
vn 0.9799407863515629 -0.1336282981388505 0.14784969794083022
vn 0.9662215070195197 -0.1317575009572091 0.2214858016091309
vn 0.9797992665077642 -0.1336089954328779 0.14880199491359217
vn -0.9797992665077642 0.1336089954328779 -0.14880199491359217
vn -0.9659007863775173 0.13171369814239103 -0.22290619685632004
vn -0.9799407863515629 0.1336282981388505 -0.14784969794083022
vn -0.9662215070195197 0.1317575009572091 -0.2214858016091309
vn 0.9462423597563056 -0.12903299451222355 -0.29660728738523395
vn 0.9468180022021773 -0.12911150030029456 -0.2947302006854488
vn -0.9462423597563056 0.12903299451222355 0.29660728738523395
vn -0.9468180022021773 0.12911150030029456 0.2947302006854488
vn 0.9659007863775414 -0.13171369814239098 -0.22290619685621615
vn 0.9662215070195437 -0.131757500957209 -0.22148580160902687
vn -0.9659007863775414 0.13171369814239098 0.22290619685621615
vn -0.9662215070195437 0.131757500957209 0.22148580160902687
vn 0.9797992665077802 -0.13360899543287785 -0.14880199491348672
vn 0.9799407863515789 -0.1336282981388504 -0.14784969794072478
vn -0.9797992665077802 0.13360899543287785 0.14880199491348672
vn -0.9799407863515789 0.1336282981388504 0.14784969794072478
vn 0.9880798350865887 -0.13473820478453588 -0.07445707264390766
vn 0.9881150612059306 -0.1347429947098978 -0.07397939709546508
vn -0.9880798350865887 0.13473820478453588 0.07445707264390766
vn -0.9881150612059306 0.1347429947098978 0.07397939709546508
vn 0.9908301692613374 -0.13511319580836445 0
vn -0.9908301692613374 0.13511319580836445 0
vn 0.9880798350865807 -0.1347382047845359 0.07445707264401401
vn 0.9881150612059226 -0.13474299470989784 0.07397939709557143
vn -0.9880798350865807 0.1347382047845359 -0.07445707264401401
vn -0.9881150612059226 0.13474299470989784 -0.07397939709557143
usemtl material_0_0
f 1//1 2//1 3//1
f 4//2 5//2 6//2
f 7//3 8//3 9//3
f 8//3 7//3 10//3
f 11//4 12//4 13//4
f 14//4 13//4 12//4
f 15//5 16//5 17//5
f 16//5 15//5 18//5
f 19//6 20//6 21//6
f 22//6 21//6 20//6
f 23//7 24//8 25//9
f 24//8 23//7 26//8
f 27//10 28//11 29//10
f 30//12 29//10 28//11
f 31//13 32//14 33//15
f 34//16 35//17 36//18
f 37//19 38//19 39//19
f 38//19 37//19 40//19
f 40//19 37//19 41//19
f 39//19 38//19 42//19
f 40//19 41//19 43//19
f 43//19 41//19 44//19
f 44//19 41//19 45//19
f 45//19 41//19 46//19
f 46//19 41//19 47//19
f 47//19 41//19 48//19
f 48//19 41//19 49//19
f 49//19 41//19 50//19
f 50//19 41//19 51//19
f 51//19 41//19 52//19
f 39//19 53//19 54//19
f 53//19 39//19 55//19
f 55//19 39//19 42//19
f 54//19 53//19 56//19
f 54//19 56//19 57//19
f 54//19 57//19 58//19
f 54//19 58//19 59//19
f 54//19 59//19 60//19
f 54//19 60//19 61//19
f 54//19 61//19 62//19
f 54//19 62//19 63//19
f 54//19 63//19 64//19
f 54//19 64//19 52//19
f 54//19 52//19 41//19
f 65//20 66//20 67//20
f 66//20 68//20 67//20
f 68//20 69//20 67//20
f 69//20 70//20 67//20
f 70//20 71//20 67//20
f 71//20 72//20 67//20
f 72//20 73//20 67//20
f 73//20 74//20 67//20
f 74//20 75//20 67//20
f 75//20 76//20 67//20
f 76//20 77//20 67//20
f 78//20 79//20 80//20
f 80//20 79//20 77//20
f 67//20 77//20 79//20
f 66//20 65//20 81//20
f 81//20 65//20 82//20
f 82//20 65//20 83//20
f 83//20 65//20 84//20
f 84//20 65//20 85//20
f 85//20 65//20 86//20
f 86//20 65//20 87//20
f 87//20 65//20 88//20
f 88//20 65//20 89//20
f 89//20 65//20 90//20
f 78//20 91//20 79//20
f 65//20 92//20 90//20
f 90//20 92//20 91//20
f 79//20 91//20 92//20
f 93//19 94//19 95//19
f 94//19 93//19 96//19
f 96//19 93//19 97//19
f 97//19 93//19 98//19
f 98//19 93//19 99//19
f 99//19 93//19 100//19
f 100//19 93//19 101//19
f 101//19 93//19 102//19
f 102//19 93//19 103//19
f 103//19 93//19 104//19
f 104//19 93//19 105//19
f 106//20 107//20 108//20
f 108//20 107//20 109//20
f 109//20 107//20 110//20
f 110//20 107//20 111//20
f 111//20 107//20 112//20
f 112//20 107//20 113//20
f 113//20 107//20 114//20
f 114//20 107//20 115//20
f 115//20 107//20 116//20
f 116//20 107//20 117//20
f 118//20 117//20 107//20
f 119//21 120//21 121//21
f 122//22 123//22 124//22
f 125//23 25//9 126//24
f 25//9 125//23 23//7
f 28//11 127//25 30//12
f 128//26 30//12 127//25
f 31//13 33//15 129//27
f 130//28 34//16 36//18
f 31//13 131//29 32//14
f 35//17 132//30 36//18
f 133//31 134//31 135//31
f 134//31 133//31 136//31
f 137//32 138//32 139//32
f 140//32 139//32 138//32
f 141//33 126//24 142//34
f 126//24 141//33 125//23
f 127//25 143//35 128//26
f 144//36 128//26 143//35
f 145//37 142//34 146//38
f 142//34 145//37 141//33
f 143//35 147//39 144//36
f 148//40 144//36 147//39
f 149//41 146//38 150//42
f 146//38 149//41 145//37
f 147//39 151//43 148//40
f 152//44 148//40 151//43
f 153//45 150//42 154//45
f 150//42 153//45 149//41
f 151//43 155//46 152//44
f 156//46 152//44 155//46
f 157//47 154//45 158//48
f 154//45 157//47 153//45
f 155//46 159//49 156//46
f 160//50 156//46 159//49
f 161//51 158//48 162//52
f 158//48 161//51 157//47
f 159//49 163//53 160//50
f 164//54 160//50 163//53
f 165//55 162//52 166//56
f 162//52 165//55 161//51
f 163//53 167//57 164//54
f 168//58 164//54 167//57
f 169//59 166//56 170//60
f 166//56 169//59 165//55
f 167//57 171//61 168//58
f 172//62 168//58 171//61
f 173//63 170//60 174//64
f 170//60 173//63 169//59
f 171//61 175//65 172//62
f 176//66 172//62 175//65
f 177//67 174//64 178//67
f 174//64 177//67 173//63
f 175//65 179//68 176//66
f 180//68 176//66 179//68
f 181//69 182//70 183//69
f 182//70 181//69 184//71
f 185//72 186//73 187//74
f 188//73 187//74 186//73
f 189//75 190//75 191//75
f 192//76 193//76 194//76
f 195//19 196//19 197//19
f 196//19 195//19 198//19
f 196//19 198//19 199//19
f 196//19 199//19 200//19
f 196//19 200//19 201//19
f 196//19 201//19 202//19
f 196//19 202//19 203//19
f 196//19 203//19 204//19
f 196//19 204//19 205//19
f 196//19 205//19 206//19
f 196//19 206//19 207//19
f 208//20 209//20 210//20
f 209//20 211//20 210//20
f 211//20 212//20 210//20
f 212//20 213//20 210//20
f 213//20 214//20 210//20
f 214//20 215//20 210//20
f 215//20 216//20 210//20
f 216//20 217//20 210//20
f 217//20 218//20 210//20
f 218//20 219//20 210//20
f 220//20 210//20 219//20
f 184//71 221//77 182//70
f 221//77 184//71 222//78
f 223//79 185//72 224//80
f 187//74 224//80 185//72
f 225//81 226//82 227//83
f 226//82 225//81 228//82
f 229//84 230//85 231//84
f 232//86 231//84 230//85
f 233//87 234//88 235//89
f 234//88 233//87 236//90
f 237//91 238//92 239//93
f 240//94 239//93 238//92
f 222//78 235//89 221//77
f 235//89 222//78 233//87
f 238//92 223//79 240//94
f 224//80 240//94 223//79
f 241//95 227//83 242//96
f 227//83 241//95 225//81
f 230//85 243//97 232//86
f 244//98 232//86 243//97
f 245//99 242//96 246//100
f 242//96 245//99 241//95
f 243//97 247//101 244//98
f 248//102 244//98 247//101
f 249//103 246//100 250//104
f 246//100 249//103 245//99
f 247//101 251//105 248//102
f 252//106 248//102 251//105
f 253//107 250//104 254//108
f 250//104 253//107 249//103
f 251//105 255//109 252//106
f 256//110 252//106 255//109
f 257//111 254//108 258//111
f 254//108 257//111 253//107
f 255//109 259//112 256//110
f 260//112 256//110 259//112
f 261//113 258//111 262//114
f 258//111 261//113 257//111
f 259//112 263//115 260//112
f 264//116 260//112 263//115
f 236//90 262//114 234//88
f 262//114 236//90 261//113
f 263//115 237//91 264//116
f 239//93 264//116 237//91
