# SSTK version 0.8.0
# 18
mtllib original-18.mtl
o #ID120
v -0.217063 -0.219370 -0.359314
v -0.219857 -0.221555 -0.347966
v -0.217063 -0.221555 -0.359314
v -0.219857 -0.219370 -0.347966
v -0.219857 -0.219370 -0.347966
v -0.217063 -0.219370 -0.359314
v -0.219857 -0.221555 -0.347966
v -0.217063 -0.221555 -0.359314
v -0.217063 -0.219370 -0.359314
v 0.196714 -0.221555 -0.359314
v 0.196714 -0.219370 -0.359314
v -0.217063 -0.221555 -0.359314
v -0.217063 -0.221555 -0.359314
v -0.217063 -0.219370 -0.359314
v 0.196714 -0.221555 -0.359314
v 0.196714 -0.219370 -0.359314
v -0.219857 -0.219370 -0.347966
v 0.199770 -0.219370 -0.346901
v -0.220119 -0.219370 -0.346901
v 0.199508 -0.219370 -0.347966
v 0.196714 -0.219370 -0.359314
v -0.217063 -0.219370 -0.359314
v -0.217063 -0.219370 -0.359314
v -0.219857 -0.219370 -0.347966
v 0.196714 -0.219370 -0.359314
v 0.199508 -0.219370 -0.347966
v 0.199770 -0.219370 -0.346901
v -0.220119 -0.219370 -0.346901
v -0.219857 -0.219370 -0.347966
v -0.220119 -0.221555 -0.346901
v -0.219857 -0.221555 -0.347966
v -0.220119 -0.219370 -0.346901
v -0.220119 -0.219370 -0.346901
v -0.219857 -0.219370 -0.347966
v -0.220119 -0.221555 -0.346901
v -0.219857 -0.221555 -0.347966
v 0.199508 -0.219370 -0.347966
v 0.196714 -0.221555 -0.359314
v 0.199508 -0.221555 -0.347966
v 0.196714 -0.219370 -0.359314
v 0.196714 -0.219370 -0.359314
v 0.199508 -0.219370 -0.347966
v 0.196714 -0.221555 -0.359314
v 0.199508 -0.221555 -0.347966
v 0.199770 -0.219370 -0.346901
v 0.199508 -0.221555 -0.347966
v 0.199770 -0.221555 -0.346901
v 0.199508 -0.219370 -0.347966
v 0.199508 -0.219370 -0.347966
v 0.199770 -0.219370 -0.346901
v 0.199508 -0.221555 -0.347966
v 0.199770 -0.221555 -0.346901
v -0.220119 -0.221555 -0.346901
v 0.199770 -0.219370 -0.346901
v 0.199770 -0.221555 -0.346901
v -0.220119 -0.219370 -0.346901
v -0.220119 -0.219370 -0.346901
v -0.220119 -0.221555 -0.346901
v 0.199770 -0.219370 -0.346901
v 0.199770 -0.221555 -0.346901
vn 0.9710066934067643 0 0.23905229837686565
vn 0 0 1
vn 0 -1 0
vn -0.9710066934067899 0 0.23905229837676104
vn 0 0 -1
vn -0.9710066934067643 0 -0.23905229837686565
vn 0 1 0
vn 0.9710066934067899 0 -0.23905229837676104
usemtl material_0_0
f 5//6 6//6 7//6
f 8//6 7//6 6//6
f 13//5 14//5 15//5
f 16//5 15//5 14//5
f 23//7 24//7 25//7
f 25//7 24//7 26//7
f 26//7 24//7 27//7
f 28//7 27//7 24//7
f 33//6 34//6 35//6
f 36//6 35//6 34//6
f 41//8 42//8 43//8
f 44//8 43//8 42//8
f 49//8 50//8 51//8
f 52//8 51//8 50//8
f 57//2 58//2 59//2
f 60//2 59//2 58//2
usemtl material_1_0
f 1//1 2//1 3//1
f 2//1 1//1 4//1
f 9//2 10//2 11//2
f 10//2 9//2 12//2
f 17//3 18//3 19//3
f 18//3 17//3 20//3
f 20//3 17//3 21//3
f 21//3 17//3 22//3
f 29//1 30//1 31//1
f 30//1 29//1 32//1
f 37//4 38//4 39//4
f 38//4 37//4 40//4
f 45//4 46//4 47//4
f 46//4 45//4 48//4
f 53//5 54//5 55//5
f 54//5 53//5 56//5
