# SSTK version 0.8.0
# 38
mtllib original-38.mtl
o #ID240
v -0.205567 -0.221555 -0.289924
v 0.180724 -0.221555 -0.284122
v -0.201073 -0.221555 -0.284122
v 0.185218 -0.221555 -0.289924
v -0.206018 -0.221555 -0.290507
v 0.185670 -0.221555 -0.290507
v 0.185670 -0.221555 -0.290507
v -0.206018 -0.221555 -0.290507
v 0.185218 -0.221555 -0.289924
v -0.205567 -0.221555 -0.289924
v 0.180724 -0.221555 -0.284122
v -0.201073 -0.221555 -0.284122
vn 0 -1 0
vn 0 1 0
usemtl material_0_0
f 1//1 2//1 3//1
f 2//1 1//1 4//1
f 4//1 1//1 5//1
f 4//1 5//1 6//1
f 7//2 8//2 9//2
f 8//2 10//2 9//2
f 9//2 10//2 11//2
f 12//2 11//2 10//2
