# SSTK version 0.8.0
# 26
mtllib original-26.mtl
o #ID168
v -0.216222 -0.221555 -0.303680
v 0.195285 -0.221555 -0.302920
v -0.215633 -0.221555 -0.302920
v 0.195874 -0.221555 -0.303680
v -0.217607 -0.221555 -0.309305
v 0.197258 -0.221555 -0.309305
v 0.197258 -0.221555 -0.309305
v -0.217607 -0.221555 -0.309305
v 0.195874 -0.221555 -0.303680
v -0.216222 -0.221555 -0.303680
v 0.195285 -0.221555 -0.302920
v -0.215633 -0.221555 -0.302920
vn 0 -1 0
vn 0 1 0
usemtl material_0_0
f 1//1 2//1 3//1
f 2//1 1//1 4//1
f 4//1 1//1 5//1
f 4//1 5//1 6//1
f 7//2 8//2 9//2
f 8//2 10//2 9//2
f 9//2 10//2 11//2
f 12//2 11//2 10//2
