# SSTK version 0.8.0
# 6
mtllib original-6.mtl
o #ID38
v -0.414877 -0.224396 -0.681288
v -0.384692 -0.221555 -0.700769
v -0.384692 -0.224396 -0.700769
v -0.414877 -0.221555 -0.681288
v -0.414877 -0.221555 -0.681288
v -0.414877 -0.224396 -0.681288
v -0.384692 -0.221555 -0.700769
v -0.384692 -0.224396 -0.700769
v -0.384692 -0.224396 -0.700769
v -0.356678 -0.221555 -0.713142
v -0.356678 -0.224396 -0.713142
v -0.384692 -0.221555 -0.700769
v -0.384692 -0.221555 -0.700769
v -0.384692 -0.224396 -0.700769
v -0.356678 -0.221555 -0.713142
v -0.356678 -0.224396 -0.713142
v -0.518581 -0.224396 -0.479214
v -0.476425 -0.224396 -0.479807
v -0.500358 -0.224396 -0.475385
v -0.529850 -0.224396 -0.491036
v -0.448411 -0.224396 -0.492180
v -0.533399 -0.224396 -0.510042
v -0.418226 -0.224396 -0.511661
v -0.472732 -0.224396 -0.515379
v -0.528984 -0.224396 -0.534938
v -0.456202 -0.224396 -0.515213
v -0.485442 -0.224396 -0.521087
v -0.493467 -0.224396 -0.531948
v -0.496259 -0.224396 -0.547222
v -0.516907 -0.224396 -0.564028
v -0.493628 -0.224396 -0.565868
v -0.497991 -0.224396 -0.595330
v -0.485753 -0.224396 -0.586615
v -0.473172 -0.224396 -0.608050
v -0.473525 -0.224396 -0.626709
v -0.456741 -0.224396 -0.628711
v -0.445177 -0.224396 -0.656028
v -0.437580 -0.224396 -0.647191
v -0.416995 -0.224396 -0.662230
v -0.414877 -0.224396 -0.681288
v -0.396389 -0.224396 -0.672804
v -0.377166 -0.224396 -0.678191
v -0.436978 -0.224396 -0.520601
v -0.387926 -0.224396 -0.536921
v -0.416372 -0.224396 -0.531175
v -0.395787 -0.224396 -0.546214
v -0.359578 -0.224396 -0.566240
v -0.376626 -0.224396 -0.564694
v -0.360195 -0.224396 -0.585355
v -0.335112 -0.224396 -0.597620
v -0.347613 -0.224396 -0.606790
v -0.316196 -0.224396 -0.628921
v -0.341672 -0.224396 -0.622442
v -0.339739 -0.224396 -0.627537
v -0.337108 -0.224396 -0.646183
v -0.304119 -0.224396 -0.658011
v -0.339900 -0.224396 -0.661456
v -0.299704 -0.224396 -0.682908
v -0.347925 -0.224396 -0.672317
v -0.360636 -0.224396 -0.678025
v -0.384692 -0.224396 -0.700769
v -0.303253 -0.224396 -0.701914
v -0.356678 -0.224396 -0.713142
v -0.314522 -0.224396 -0.713735
v -0.332745 -0.224396 -0.717564
v -0.332745 -0.224396 -0.717564
v -0.356678 -0.224396 -0.713142
v -0.314522 -0.224396 -0.713735
v -0.303253 -0.224396 -0.701914
v -0.384692 -0.224396 -0.700769
v -0.299704 -0.224396 -0.682908
v -0.414877 -0.224396 -0.681288
v -0.377166 -0.224396 -0.678191
v -0.360636 -0.224396 -0.678025
v -0.347925 -0.224396 -0.672317
v -0.339900 -0.224396 -0.661456
v -0.304119 -0.224396 -0.658011
v -0.337108 -0.224396 -0.646183
v -0.316196 -0.224396 -0.628921
v -0.339739 -0.224396 -0.627537
v -0.341672 -0.224396 -0.622442
v -0.347613 -0.224396 -0.606790
v -0.335112 -0.224396 -0.597620
v -0.360195 -0.224396 -0.585355
v -0.359578 -0.224396 -0.566240
v -0.376626 -0.224396 -0.564694
v -0.395787 -0.224396 -0.546214
v -0.387926 -0.224396 -0.536921
v -0.416372 -0.224396 -0.531175
v -0.436978 -0.224396 -0.520601
v -0.456202 -0.224396 -0.515213
v -0.418226 -0.224396 -0.511661
v -0.396389 -0.224396 -0.672804
v -0.416995 -0.224396 -0.662230
v -0.445177 -0.224396 -0.656028
v -0.437580 -0.224396 -0.647191
v -0.456741 -0.224396 -0.628711
v -0.473525 -0.224396 -0.626709
v -0.473172 -0.224396 -0.608050
v -0.497991 -0.224396 -0.595330
v -0.485753 -0.224396 -0.586615
v -0.493628 -0.224396 -0.565868
v -0.516907 -0.224396 -0.564028
v -0.496259 -0.224396 -0.547222
v -0.528984 -0.224396 -0.534938
v -0.493467 -0.224396 -0.531948
v -0.485442 -0.224396 -0.521087
v -0.472732 -0.224396 -0.515379
v -0.533399 -0.224396 -0.510042
v -0.448411 -0.224396 -0.492180
v -0.529850 -0.224396 -0.491036
v -0.476425 -0.224396 -0.479807
v -0.518581 -0.224396 -0.479214
v -0.500358 -0.224396 -0.475385
v -0.445177 -0.224396 -0.656028
v -0.414877 -0.221555 -0.681288
v -0.414877 -0.224396 -0.681288
v -0.445177 -0.221555 -0.656028
v -0.445177 -0.221555 -0.656028
v -0.445177 -0.224396 -0.656028
v -0.414877 -0.221555 -0.681288
v -0.414877 -0.224396 -0.681288
v -0.356678 -0.224396 -0.713142
v -0.332745 -0.221555 -0.717564
v -0.332745 -0.224396 -0.717564
v -0.356678 -0.221555 -0.713142
v -0.356678 -0.221555 -0.713142
v -0.356678 -0.224396 -0.713142
v -0.332745 -0.221555 -0.717564
v -0.332745 -0.224396 -0.717564
v -0.529850 -0.221555 -0.491036
v -0.533399 -0.224396 -0.510042
v -0.529850 -0.224396 -0.491036
v -0.533399 -0.221555 -0.510042
v -0.533399 -0.221555 -0.510042
v -0.529850 -0.221555 -0.491036
v -0.533399 -0.224396 -0.510042
v -0.529850 -0.224396 -0.491036
v -0.533399 -0.221555 -0.510042
v -0.528984 -0.224396 -0.534938
v -0.533399 -0.224396 -0.510042
v -0.528984 -0.221555 -0.534938
v -0.528984 -0.221555 -0.534938
v -0.533399 -0.221555 -0.510042
v -0.528984 -0.224396 -0.534938
v -0.533399 -0.224396 -0.510042
v -0.528984 -0.221555 -0.534938
v -0.516907 -0.224396 -0.564028
v -0.528984 -0.224396 -0.534938
v -0.516907 -0.221555 -0.564028
v -0.516907 -0.221555 -0.564028
v -0.528984 -0.221555 -0.534938
v -0.516907 -0.224396 -0.564028
v -0.528984 -0.224396 -0.534938
v -0.516907 -0.221555 -0.564028
v -0.497991 -0.224396 -0.595330
v -0.516907 -0.224396 -0.564028
v -0.497991 -0.221555 -0.595330
v -0.497991 -0.221555 -0.595330
v -0.516907 -0.221555 -0.564028
v -0.497991 -0.224396 -0.595330
v -0.516907 -0.224396 -0.564028
v -0.497991 -0.221555 -0.595330
v -0.473525 -0.224396 -0.626709
v -0.497991 -0.224396 -0.595330
v -0.473525 -0.221555 -0.626709
v -0.473525 -0.221555 -0.626709
v -0.497991 -0.221555 -0.595330
v -0.473525 -0.224396 -0.626709
v -0.497991 -0.224396 -0.595330
v -0.473525 -0.221555 -0.626709
v -0.445177 -0.224396 -0.656028
v -0.473525 -0.224396 -0.626709
v -0.445177 -0.221555 -0.656028
v -0.445177 -0.221555 -0.656028
v -0.473525 -0.221555 -0.626709
v -0.445177 -0.224396 -0.656028
v -0.473525 -0.224396 -0.626709
v -0.332745 -0.224396 -0.717564
v -0.314522 -0.221555 -0.713735
v -0.314522 -0.224396 -0.713735
v -0.332745 -0.221555 -0.717564
v -0.332745 -0.221555 -0.717564
v -0.332745 -0.224396 -0.717564
v -0.314522 -0.221555 -0.713735
v -0.314522 -0.224396 -0.713735
v -0.314522 -0.221555 -0.713735
v -0.303253 -0.224396 -0.701914
v -0.314522 -0.224396 -0.713735
v -0.303253 -0.221555 -0.701914
v -0.303253 -0.221555 -0.701914
v -0.314522 -0.221555 -0.713735
v -0.303253 -0.224396 -0.701914
v -0.314522 -0.224396 -0.713735
v -0.303253 -0.221555 -0.701914
v -0.299704 -0.224396 -0.682908
v -0.303253 -0.224396 -0.701914
v -0.299704 -0.221555 -0.682908
v -0.299704 -0.221555 -0.682908
v -0.303253 -0.221555 -0.701914
v -0.299704 -0.224396 -0.682908
v -0.303253 -0.224396 -0.701914
v -0.299704 -0.221555 -0.682908
v -0.304119 -0.224396 -0.658011
v -0.299704 -0.224396 -0.682908
v -0.304119 -0.221555 -0.658011
v -0.304119 -0.221555 -0.658011
v -0.299704 -0.221555 -0.682908
v -0.304119 -0.224396 -0.658011
v -0.299704 -0.224396 -0.682908
v -0.304119 -0.221555 -0.658011
v -0.316196 -0.224396 -0.628921
v -0.304119 -0.224396 -0.658011
v -0.316196 -0.221555 -0.628921
v -0.316196 -0.221555 -0.628921
v -0.304119 -0.221555 -0.658011
v -0.316196 -0.224396 -0.628921
v -0.304119 -0.224396 -0.658011
v -0.316196 -0.221555 -0.628921
v -0.335112 -0.224396 -0.597620
v -0.316196 -0.224396 -0.628921
v -0.335112 -0.221555 -0.597620
v -0.335112 -0.221555 -0.597620
v -0.316196 -0.221555 -0.628921
v -0.335112 -0.224396 -0.597620
v -0.316196 -0.224396 -0.628921
v -0.335112 -0.221555 -0.597620
v -0.359578 -0.224396 -0.566240
v -0.335112 -0.224396 -0.597620
v -0.359578 -0.221555 -0.566240
v -0.359578 -0.221555 -0.566240
v -0.335112 -0.221555 -0.597620
v -0.359578 -0.224396 -0.566240
v -0.335112 -0.224396 -0.597620
v -0.359578 -0.221555 -0.566240
v -0.387926 -0.224396 -0.536921
v -0.359578 -0.224396 -0.566240
v -0.387926 -0.221555 -0.536921
v -0.387926 -0.221555 -0.536921
v -0.359578 -0.221555 -0.566240
v -0.387926 -0.224396 -0.536921
v -0.359578 -0.224396 -0.566240
v -0.418226 -0.221555 -0.511661
v -0.387926 -0.224396 -0.536921
v -0.387926 -0.221555 -0.536921
v -0.418226 -0.224396 -0.511661
v -0.418226 -0.224396 -0.511661
v -0.418226 -0.221555 -0.511661
v -0.387926 -0.224396 -0.536921
v -0.387926 -0.221555 -0.536921
v -0.448411 -0.221555 -0.492180
v -0.418226 -0.224396 -0.511661
v -0.418226 -0.221555 -0.511661
v -0.448411 -0.224396 -0.492180
v -0.448411 -0.224396 -0.492180
v -0.448411 -0.221555 -0.492180
v -0.418226 -0.224396 -0.511661
v -0.418226 -0.221555 -0.511661
v -0.476425 -0.221555 -0.479807
v -0.448411 -0.224396 -0.492180
v -0.448411 -0.221555 -0.492180
v -0.476425 -0.224396 -0.479807
v -0.476425 -0.224396 -0.479807
v -0.476425 -0.221555 -0.479807
v -0.448411 -0.224396 -0.492180
v -0.448411 -0.221555 -0.492180
v -0.500358 -0.221555 -0.475385
v -0.476425 -0.224396 -0.479807
v -0.476425 -0.221555 -0.479807
v -0.500358 -0.224396 -0.475385
v -0.500358 -0.224396 -0.475385
v -0.500358 -0.221555 -0.475385
v -0.476425 -0.224396 -0.479807
v -0.476425 -0.221555 -0.479807
v -0.518581 -0.221555 -0.479214
v -0.500358 -0.224396 -0.475385
v -0.500358 -0.221555 -0.475385
v -0.518581 -0.224396 -0.479214
v -0.518581 -0.224396 -0.479214
v -0.518581 -0.221555 -0.479214
v -0.500358 -0.224396 -0.475385
v -0.500358 -0.221555 -0.475385
v -0.518581 -0.221555 -0.479214
v -0.529850 -0.224396 -0.491036
v -0.518581 -0.224396 -0.479214
v -0.529850 -0.221555 -0.491036
v -0.529850 -0.221555 -0.491036
v -0.518581 -0.221555 -0.479214
v -0.529850 -0.224396 -0.491036
v -0.518581 -0.224396 -0.479214
vn -0.5422492058850045 0 -0.8402177091189414
vn 0.5422492058850045 0 0.8402177091189414
vn -0.40402071562978936 0 -0.9147498353877921
vn 0.40402071562978936 0 0.9147498353877921
vn 0 -1 0
vn 0 1 0
vn -0.6403499159546291 0 -0.7680833191372531
vn 0.6403499159546291 0 0.7680833191372531
vn -0.18169930712189683 0 -0.9833541385439035
vn 0.18169930712189683 0 0.9833541385439035
vn -0.9830171720426087 0 0.1835135947807471
vn 0.9830171720426087 0 -0.1835135947807471
vn -0.9846393937020156 0 -0.17460029888327025
vn 0.9846393937020156 0 0.17460029888327025
vn -0.9235728899058726 0 -0.38342289580946376
vn 0.9235728899058726 0 0.38342289580946376
vn -0.8558590066561417 0 -0.5172092040224752
vn 0.8558590066561417 0 0.5172092040224752
vn -0.7886245900040872 0 -0.6148749922064528
vn 0.7886245900040872 0 0.6148749922064528
vn -0.7189038876256642 0 -0.6951094880353068
vn 0.7189038876256642 0 0.6951094880353068
vn 0.2056710943991507 0 -0.9786211733498593
vn -0.2056710943991507 0 0.9786211733498593
vn 0.7237889346618667 0 -0.6900214330446847
vn -0.7237889346618667 0 0.6900214330446847
usemtl material_0_0
f 1//1 2//1 3//1
f 2//1 1//1 4//1
f 5//2 6//2 7//2
f 8//2 7//2 6//2
f 9//3 10//3 11//3
f 10//3 9//3 12//3
f 13//4 14//4 15//4
f 16//4 15//4 14//4
f 17//5 18//5 19//5
f 18//5 17//5 20//5
f 18//5 20//5 21//5
f 21//5 20//5 22//5
f 21//5 22//5 23//5
f 23//5 22//5 24//5
f 24//5 22//5 25//5
f 23//5 24//5 26//5
f 24//5 25//5 27//5
f 27//5 25//5 28//5
f 28//5 25//5 29//5
f 29//5 25//5 30//5
f 29//5 30//5 31//5
f 31//5 30//5 32//5
f 31//5 32//5 33//5
f 33//5 32//5 34//5
f 34//5 32//5 35//5
f 34//5 35//5 36//5
f 36//5 35//5 37//5
f 36//5 37//5 38//5
f 38//5 37//5 39//5
f 39//5 37//5 40//5
f 39//5 40//5 41//5
f 41//5 40//5 42//5
f 23//5 43//5 44//5
f 43//5 23//5 26//5
f 44//5 43//5 45//5
f 44//5 45//5 46//5
f 44//5 46//5 47//5
f 47//5 46//5 48//5
f 47//5 48//5 49//5
f 47//5 49//5 50//5
f 50//5 49//5 51//5
f 50//5 51//5 52//5
f 52//5 51//5 53//5
f 52//5 53//5 54//5
f 52//5 54//5 55//5
f 52//5 55//5 56//5
f 56//5 55//5 57//5
f 56//5 57//5 58//5
f 58//5 57//5 59//5
f 58//5 59//5 60//5
f 58//5 60//5 42//5
f 58//5 42//5 40//5
f 58//5 40//5 61//5
f 58//5 61//5 62//5
f 62//5 61//5 63//5
f 62//5 63//5 64//5
f 64//5 63//5 65//5
f 66//6 67//6 68//6
f 68//6 67//6 69//6
f 67//6 70//6 69//6
f 69//6 70//6 71//6
f 70//6 72//6 71//6
f 72//6 73//6 71//6
f 73//6 74//6 71//6
f 74//6 75//6 71//6
f 75//6 76//6 71//6
f 71//6 76//6 77//6
f 76//6 78//6 77//6
f 77//6 78//6 79//6
f 78//6 80//6 79//6
f 80//6 81//6 79//6
f 81//6 82//6 79//6
f 79//6 82//6 83//6
f 82//6 84//6 83//6
f 83//6 84//6 85//6
f 84//6 86//6 85//6
f 86//6 87//6 85//6
f 85//6 87//6 88//6
f 87//6 89//6 88//6
f 89//6 90//6 88//6
f 91//6 92//6 90//6
f 88//6 90//6 92//6
f 73//6 72//6 93//6
f 93//6 72//6 94//6
f 72//6 95//6 94//6
f 94//6 95//6 96//6
f 96//6 95//6 97//6
f 95//6 98//6 97//6
f 97//6 98//6 99//6
f 98//6 100//6 99//6
f 99//6 100//6 101//6
f 101//6 100//6 102//6
f 100//6 103//6 102//6
f 102//6 103//6 104//6
f 103//6 105//6 104//6
f 104//6 105//6 106//6
f 106//6 105//6 107//6
f 107//6 105//6 108//6
f 91//6 108//6 92//6
f 105//6 109//6 108//6
f 108//6 109//6 92//6
f 92//6 109//6 110//6
f 109//6 111//6 110//6
f 110//6 111//6 112//6
f 111//6 113//6 112//6
f 114//6 112//6 113//6
f 115//7 116//7 117//7
f 116//7 115//7 118//7
f 119//8 120//8 121//8
f 122//8 121//8 120//8
f 123//9 124//9 125//9
f 124//9 123//9 126//9
f 127//10 128//10 129//10
f 130//10 129//10 128//10
f 131//11 132//11 133//11
f 132//11 131//11 134//11
f 135//12 136//12 137//12
f 138//12 137//12 136//12
f 139//13 140//13 141//13
f 140//13 139//13 142//13
f 143//14 144//14 145//14
f 146//14 145//14 144//14
f 147//15 148//15 149//15
f 148//15 147//15 150//15
f 151//16 152//16 153//16
f 154//16 153//16 152//16
f 155//17 156//17 157//17
f 156//17 155//17 158//17
f 159//18 160//18 161//18
f 162//18 161//18 160//18
f 163//19 164//19 165//19
f 164//19 163//19 166//19
f 167//20 168//20 169//20
f 170//20 169//20 168//20
f 171//21 172//21 173//21
f 172//21 171//21 174//21
f 175//22 176//22 177//22
f 178//22 177//22 176//22
f 179//23 180//23 181//23
f 180//23 179//23 182//23
f 183//24 184//24 185//24
f 186//24 185//24 184//24
f 187//25 188//25 189//25
f 188//25 187//25 190//25
f 191//26 192//26 193//26
f 194//26 193//26 192//26
f 195//12 196//12 197//12
f 196//12 195//12 198//12
f 199//11 200//11 201//11
f 202//11 201//11 200//11
f 203//14 204//14 205//14
f 204//14 203//14 206//14
f 207//13 208//13 209//13
f 210//13 209//13 208//13
f 211//16 212//16 213//16
f 212//16 211//16 214//16
f 215//15 216//15 217//15
f 218//15 217//15 216//15
f 219//18 220//18 221//18
f 220//18 219//18 222//18
f 223//17 224//17 225//17
f 226//17 225//17 224//17
f 227//20 228//20 229//20
f 228//20 227//20 230//20
f 231//19 232//19 233//19
f 234//19 233//19 232//19
f 235//22 236//22 237//22
f 236//22 235//22 238//22
f 239//21 240//21 241//21
f 242//21 241//21 240//21
f 243//8 244//8 245//8
f 244//8 243//8 246//8
f 247//7 248//7 249//7
f 250//7 249//7 248//7
f 251//2 252//2 253//2
f 252//2 251//2 254//2
f 255//1 256//1 257//1
f 258//1 257//1 256//1
f 259//4 260//4 261//4
f 260//4 259//4 262//4
f 263//3 264//3 265//3
f 266//3 265//3 264//3
f 267//10 268//10 269//10
f 268//10 267//10 270//10
f 271//9 272//9 273//9
f 274//9 273//9 272//9
f 275//24 276//24 277//24
f 276//24 275//24 278//24
f 279//23 280//23 281//23
f 282//23 281//23 280//23
f 283//26 284//26 285//26
f 284//26 283//26 286//26
f 287//25 288//25 289//25
f 290//25 289//25 288//25
