# SSTK version 0.8.0
# 43
mtllib original-43.mtl
o #ID270
v -0.091109 -0.221555 -0.437693
v 0.085147 -0.221555 -0.434506
v -0.105496 -0.221555 -0.434506
v 0.070760 -0.221555 -0.437693
v -0.076670 -0.221555 -0.440891
v 0.056321 -0.221555 -0.440891
v 0.056321 -0.221555 -0.440891
v -0.076670 -0.221555 -0.440891
v 0.070760 -0.221555 -0.437693
v -0.091109 -0.221555 -0.437693
v 0.085147 -0.221555 -0.434506
v -0.105496 -0.221555 -0.434506
vn 0 -1 0
vn 0 1 0
usemtl material_0_0
f 1//1 2//1 3//1
f 2//1 1//1 4//1
f 4//1 1//1 5//1
f 4//1 5//1 6//1
f 7//2 8//2 9//2
f 8//2 10//2 9//2
f 9//2 10//2 11//2
f 12//2 11//2 10//2
