# SSTK version 0.8.0
# 52
mtllib original-52.mtl
o #ID332
v 0.017087 -0.055472 -0.705410
v 0.014259 -0.059842 -0.698580
v 0.017087 -0.059842 -0.705410
v 0.014259 -0.055472 -0.698580
v 0.014259 -0.055472 -0.698580
v 0.017087 -0.055472 -0.705410
v 0.014259 -0.059842 -0.698580
v 0.017087 -0.059842 -0.705410
v 0.018053 -0.055472 -0.712740
v 0.018053 -0.059842 -0.712740
v 0.018053 -0.055472 -0.712740
v 0.018053 -0.059842 -0.712740
v 0.009758 -0.059842 -0.692715
v 0.009758 -0.055472 -0.692715
v 0.009758 -0.055472 -0.692715
v 0.009758 -0.059842 -0.692715
v 0.017087 -0.055472 -0.720069
v 0.017087 -0.059842 -0.720069
v 0.017087 -0.055472 -0.720069
v 0.017087 -0.059842 -0.720069
v 0.003893 -0.055472 -0.688215
v 0.003893 -0.059842 -0.688215
v 0.003893 -0.059842 -0.688215
v 0.003893 -0.055472 -0.688215
v 0.014259 -0.055472 -0.726899
v 0.014259 -0.059842 -0.726899
v 0.014259 -0.055472 -0.726899
v 0.014259 -0.059842 -0.726899
v -0.002937 -0.055472 -0.685385
v -0.002937 -0.059842 -0.685385
v -0.002937 -0.059842 -0.685385
v -0.002937 -0.055472 -0.685385
v 0.009758 -0.055472 -0.732764
v 0.009758 -0.059842 -0.732764
v 0.009758 -0.055472 -0.732764
v 0.009758 -0.059842 -0.732764
v -0.010266 -0.055472 -0.684421
v -0.010266 -0.059842 -0.684421
v -0.010266 -0.059842 -0.684421
v -0.010266 -0.055472 -0.684421
v 0.003893 -0.059842 -0.737264
v 0.003893 -0.055472 -0.737264
v 0.003893 -0.055472 -0.737264
v 0.003893 -0.059842 -0.737264
v -0.017596 -0.055472 -0.685385
v -0.017596 -0.059842 -0.685385
v -0.017596 -0.059842 -0.685385
v -0.017596 -0.055472 -0.685385
v -0.002937 -0.059842 -0.740093
v -0.002937 -0.055472 -0.740093
v -0.002937 -0.055472 -0.740093
v -0.002937 -0.059842 -0.740093
v -0.024426 -0.055472 -0.688215
v -0.024426 -0.059842 -0.688215
v -0.024426 -0.059842 -0.688215
v -0.024426 -0.055472 -0.688215
v -0.010266 -0.059842 -0.741059
v -0.010266 -0.055472 -0.741059
v -0.010266 -0.055472 -0.741059
v -0.010266 -0.059842 -0.741059
v -0.030291 -0.055472 -0.692715
v -0.030291 -0.059842 -0.692715
v -0.030291 -0.059842 -0.692715
v -0.030291 -0.055472 -0.692715
v -0.017596 -0.059842 -0.740093
v -0.017596 -0.055472 -0.740093
v -0.017596 -0.055472 -0.740093
v -0.017596 -0.059842 -0.740093
v -0.034791 -0.059842 -0.698580
v -0.034791 -0.055472 -0.698580
v -0.034791 -0.055472 -0.698580
v -0.034791 -0.059842 -0.698580
v -0.024426 -0.059842 -0.737264
v -0.024426 -0.055472 -0.737264
v -0.024426 -0.055472 -0.737264
v -0.024426 -0.059842 -0.737264
v -0.037620 -0.059842 -0.705410
v -0.037620 -0.055472 -0.705410
v -0.037620 -0.055472 -0.705410
v -0.037620 -0.059842 -0.705410
v -0.030291 -0.059842 -0.732764
v -0.030291 -0.055472 -0.732764
v -0.030291 -0.055472 -0.732764
v -0.030291 -0.059842 -0.732764
v -0.038585 -0.059842 -0.712740
v -0.038585 -0.055472 -0.712740
v -0.038585 -0.055472 -0.712740
v -0.038585 -0.059842 -0.712740
v -0.034791 -0.055472 -0.726899
v -0.034791 -0.059842 -0.726899
v -0.034791 -0.055472 -0.726899
v -0.034791 -0.059842 -0.726899
v -0.037620 -0.059842 -0.720069
v -0.037620 -0.055472 -0.720069
v -0.037620 -0.055472 -0.720069
v -0.037620 -0.059842 -0.720069
vn 0.9659258358036505 0 0.25881900959361365
vn 0.8660254028383021 0 0.5000000016387567
vn 1 0 0
vn 0.7071067811865094 0 0.7071067811865857
vn 0.9659258358036785 0 -0.2588190095935096
vn 0.5000000016386633 0 0.8660254028383557
vn 0.8660254028383557 0 -0.5000000016386633
vn 0.2588190095935096 0 0.9659258358036785
vn 0.7071067811865857 0 -0.7071067811865094
vn 0 0 1
vn 0.5000000016387567 0 -0.8660254028383021
vn -0.25881900959361365 0 0.9659258358036505
vn 0.25881900959361365 0 -0.9659258358036505
vn -0.5000000016387567 0 0.8660254028383021
vn 0 0 -1
vn -0.7071067811865857 0 0.7071067811865094
vn -0.2588190095935096 0 -0.9659258358036785
vn -0.8660254028383557 0 0.5000000016386633
vn -0.5000000016386633 0 -0.8660254028383557
vn -0.9659258358036785 0 0.2588190095935096
vn -0.7071067811865094 0 -0.7071067811865857
vn -1 0 0
vn -0.8660254028383021 0 -0.5000000016387567
vn -0.9659258358036505 0 -0.25881900959361365
usemtl material_0_0
f 5//23 6//24 7//23
f 8//24 7//23 6//24
f 6//24 11//22 8//24
f 12//22 8//24 11//22
f 15//21 5//23 16//21
f 7//23 16//21 5//23
f 11//22 19//20 12//22
f 20//20 12//22 19//20
f 23//19 24//19 16//21
f 15//21 16//21 24//19
f 19//20 27//18 20//20
f 28//18 20//20 27//18
f 31//17 32//17 23//19
f 24//19 23//19 32//17
f 27//18 35//16 28//18
f 36//16 28//18 35//16
f 39//15 40//15 31//17
f 32//17 31//17 40//15
f 43//14 44//14 35//16
f 36//16 35//16 44//14
f 47//13 48//13 39//15
f 40//15 39//15 48//13
f 51//12 52//12 43//14
f 44//14 43//14 52//12
f 55//11 56//11 47//13
f 48//13 47//13 56//11
f 59//10 60//10 51//12
f 52//12 51//12 60//10
f 63//9 64//9 55//11
f 56//11 55//11 64//9
f 67//8 68//8 59//10
f 60//10 59//10 68//8
f 71//7 64//9 72//7
f 63//9 72//7 64//9
f 75//6 76//6 67//8
f 68//8 67//8 76//6
f 79//5 71//7 80//5
f 72//7 80//5 71//7
f 83//4 84//4 75//6
f 76//6 75//6 84//4
f 87//3 79//5 88//3
f 80//5 88//3 79//5
f 83//4 91//2 84//4
f 92//2 84//4 91//2
f 95//1 87//3 96//1
f 88//3 96//1 87//3
f 91//2 95//1 92//2
f 96//1 92//2 95//1
usemtl material_1_0
f 1//1 2//2 3//1
f 2//2 1//1 4//2
f 9//3 3//1 10//3
f 3//1 9//3 1//1
f 4//2 13//4 2//2
f 13//4 4//2 14//4
f 17//5 10//3 18//5
f 10//3 17//5 9//3
f 21//6 13//4 14//4
f 13//4 21//6 22//6
f 25//7 18//5 26//7
f 18//5 25//7 17//5
f 29//8 22//6 21//6
f 22//6 29//8 30//8
f 33//9 26//7 34//9
f 26//7 33//9 25//7
f 37//10 30//8 29//8
f 30//8 37//10 38//10
f 41//11 33//9 34//9
f 33//9 41//11 42//11
f 45//12 38//10 37//10
f 38//10 45//12 46//12
f 49//13 42//11 41//11
f 42//11 49//13 50//13
f 53//14 46//12 45//12
f 46//12 53//14 54//14
f 57//15 50//13 49//13
f 50//13 57//15 58//15
f 61//16 54//14 53//14
f 54//14 61//16 62//16
f 65//17 58//15 57//15
f 58//15 65//17 66//17
f 61//16 69//18 62//16
f 69//18 61//16 70//18
f 73//19 66//17 65//17
f 66//17 73//19 74//19
f 70//18 77//20 69//18
f 77//20 70//18 78//20
f 81//21 74//19 73//19
f 74//19 81//21 82//21
f 78//20 85//22 77//20
f 85//22 78//20 86//22
f 89//23 81//21 90//23
f 81//21 89//23 82//21
f 86//22 93//24 85//22
f 93//24 86//22 94//24
f 94//24 90//23 93//24
f 90//23 94//24 89//23
