# SSTK version 0.8.0
# 32
mtllib original-32.mtl
o #ID204
v -0.220663 -0.219370 -0.321718
v 0.200314 -0.221555 -0.321718
v 0.200314 -0.219370 -0.321718
v -0.220663 -0.221555 -0.321718
v -0.220663 -0.221555 -0.321718
v -0.220663 -0.219370 -0.321718
v 0.200314 -0.221555 -0.321718
v 0.200314 -0.219370 -0.321718
v 0.199508 -0.219370 -0.318442
v 0.200314 -0.221555 -0.321718
v 0.199508 -0.221555 -0.318442
v 0.200314 -0.219370 -0.321718
v 0.200314 -0.219370 -0.321718
v 0.199508 -0.219370 -0.318442
v 0.200314 -0.221555 -0.321718
v 0.199508 -0.221555 -0.318442
v -0.219857 -0.219370 -0.318442
v 0.197258 -0.219370 -0.309305
v -0.217607 -0.219370 -0.309305
v 0.199508 -0.219370 -0.318442
v -0.220663 -0.219370 -0.321718
v 0.200314 -0.219370 -0.321718
v 0.200314 -0.219370 -0.321718
v -0.220663 -0.219370 -0.321718
v 0.199508 -0.219370 -0.318442
v -0.219857 -0.219370 -0.318442
v 0.197258 -0.219370 -0.309305
v -0.217607 -0.219370 -0.309305
v -0.220663 -0.219370 -0.321718
v -0.219857 -0.221555 -0.318442
v -0.220663 -0.221555 -0.321718
v -0.219857 -0.219370 -0.318442
v -0.219857 -0.219370 -0.318442
v -0.220663 -0.219370 -0.321718
v -0.219857 -0.221555 -0.318442
v -0.220663 -0.221555 -0.321718
v 0.197258 -0.219370 -0.309305
v 0.199508 -0.221555 -0.318442
v 0.197258 -0.221555 -0.309305
v 0.199508 -0.219370 -0.318442
v 0.199508 -0.219370 -0.318442
v 0.197258 -0.219370 -0.309305
v 0.199508 -0.221555 -0.318442
v 0.197258 -0.221555 -0.309305
v -0.217607 -0.221555 -0.309305
v 0.197258 -0.219370 -0.309305
v 0.197258 -0.221555 -0.309305
v -0.217607 -0.219370 -0.309305
v -0.217607 -0.219370 -0.309305
v -0.217607 -0.221555 -0.309305
v 0.197258 -0.219370 -0.309305
v 0.197258 -0.221555 -0.309305
v -0.219857 -0.219370 -0.318442
v -0.217607 -0.221555 -0.309305
v -0.219857 -0.221555 -0.318442
v -0.217607 -0.219370 -0.309305
v -0.217607 -0.219370 -0.309305
v -0.219857 -0.219370 -0.318442
v -0.217607 -0.221555 -0.309305
v -0.219857 -0.221555 -0.318442
vn 0 0 1
vn -0.9710066934067643 0 -0.23905229837686565
vn 0 -1 0
vn 0.9710066934067899 0 -0.23905229837676104
vn 0 0 -1
vn 0.9710066934067643 0 0.23905229837686565
vn 0 1 0
vn -0.9710066934067899 0 0.23905229837676104
usemtl material_0_0
f 5//5 6//5 7//5
f 8//5 7//5 6//5
f 13//6 14//6 15//6
f 16//6 15//6 14//6
f 23//7 24//7 25//7
f 24//7 26//7 25//7
f 25//7 26//7 27//7
f 28//7 27//7 26//7
f 33//8 34//8 35//8
f 36//8 35//8 34//8
f 41//6 42//6 43//6
f 44//6 43//6 42//6
f 49//1 50//1 51//1
f 52//1 51//1 50//1
f 57//8 58//8 59//8
f 60//8 59//8 58//8
usemtl material_1_0
f 1//1 2//1 3//1
f 2//1 1//1 4//1
f 9//2 10//2 11//2
f 10//2 9//2 12//2
f 17//3 18//3 19//3
f 18//3 17//3 20//3
f 20//3 17//3 21//3
f 20//3 21//3 22//3
f 29//4 30//4 31//4
f 30//4 29//4 32//4
f 37//2 38//2 39//2
f 38//2 37//2 40//2
f 45//5 46//5 47//5
f 46//5 45//5 48//5
f 53//4 54//4 55//4
f 54//4 53//4 56//4
