# SSTK version 0.8.0
# 54
mtllib original-54.mtl
o #ID344
v -0.297754 -0.228111 0.369449
v -0.290939 -0.221555 0.369449
v -0.290939 -0.228111 0.369449
v -0.297754 -0.221555 0.369449
v -0.297754 -0.221555 0.369449
v -0.297754 -0.228111 0.369449
v -0.290939 -0.221555 0.369449
v -0.290939 -0.228111 0.369449
v -0.297754 -0.221555 0.369449
v -0.290939 -0.221555 0.411660
v -0.297754 -0.221555 0.423166
v -0.290939 -0.221555 0.369449
v -0.262248 -0.221555 0.380991
v -0.290462 -0.221555 0.423166
v -0.262725 -0.221555 0.369449
v -0.255433 -0.221555 0.369449
v -0.262248 -0.221555 0.423166
v -0.255433 -0.221555 0.423166
v -0.262248 -0.221555 0.380991
v -0.262248 -0.221555 0.423166
v -0.255433 -0.221555 0.369449
v -0.255433 -0.221555 0.423166
v -0.262725 -0.221555 0.369449
v -0.290939 -0.221555 0.411660
v -0.297754 -0.221555 0.423166
v -0.290462 -0.221555 0.423166
v -0.290939 -0.221555 0.369449
v -0.297754 -0.221555 0.369449
v -0.290939 -0.221555 0.369449
v -0.290939 -0.228111 0.411660
v -0.290939 -0.228111 0.369449
v -0.290939 -0.221555 0.411660
v -0.290939 -0.221555 0.411660
v -0.290939 -0.221555 0.369449
v -0.290939 -0.228111 0.411660
v -0.290939 -0.228111 0.369449
v -0.297754 -0.228111 0.369449
v -0.290939 -0.228111 0.411660
v -0.297754 -0.228111 0.423166
v -0.290939 -0.228111 0.369449
v -0.262248 -0.228111 0.380991
v -0.290462 -0.228111 0.423166
v -0.262725 -0.228111 0.369449
v -0.255433 -0.228111 0.369449
v -0.262248 -0.228111 0.423166
v -0.255433 -0.228111 0.423166
v -0.262248 -0.228111 0.380991
v -0.262248 -0.228111 0.423166
v -0.255433 -0.228111 0.369449
v -0.255433 -0.228111 0.423166
v -0.262725 -0.228111 0.369449
v -0.290939 -0.228111 0.411660
v -0.297754 -0.228111 0.423166
v -0.290462 -0.228111 0.423166
v -0.290939 -0.228111 0.369449
v -0.297754 -0.228111 0.369449
v -0.297754 -0.221555 0.423166
v -0.297754 -0.228111 0.369449
v -0.297754 -0.228111 0.423166
v -0.297754 -0.221555 0.369449
v -0.297754 -0.221555 0.369449
v -0.297754 -0.221555 0.423166
v -0.297754 -0.228111 0.369449
v -0.297754 -0.228111 0.423166
v -0.290939 -0.221555 0.411660
v -0.262725 -0.228111 0.369449
v -0.290939 -0.228111 0.411660
v -0.262725 -0.221555 0.369449
v -0.262725 -0.221555 0.369449
v -0.290939 -0.221555 0.411660
v -0.262725 -0.228111 0.369449
v -0.290939 -0.228111 0.411660
v -0.262725 -0.228111 0.369449
v -0.255433 -0.221555 0.369449
v -0.255433 -0.228111 0.369449
v -0.262725 -0.221555 0.369449
v -0.262725 -0.221555 0.369449
v -0.262725 -0.228111 0.369449
v -0.255433 -0.221555 0.369449
v -0.255433 -0.228111 0.369449
v -0.255433 -0.221555 0.369449
v -0.255433 -0.228111 0.423166
v -0.255433 -0.228111 0.369449
v -0.255433 -0.221555 0.423166
v -0.255433 -0.221555 0.423166
v -0.255433 -0.221555 0.369449
v -0.255433 -0.228111 0.423166
v -0.255433 -0.228111 0.369449
v -0.262248 -0.221555 0.423166
v -0.255433 -0.228111 0.423166
v -0.255433 -0.221555 0.423166
v -0.262248 -0.228111 0.423166
v -0.262248 -0.228111 0.423166
v -0.262248 -0.221555 0.423166
v -0.255433 -0.228111 0.423166
v -0.255433 -0.221555 0.423166
v -0.262248 -0.221555 0.423166
v -0.262248 -0.228111 0.380991
v -0.262248 -0.228111 0.423166
v -0.262248 -0.221555 0.380991
v -0.262248 -0.221555 0.380991
v -0.262248 -0.221555 0.423166
v -0.262248 -0.228111 0.380991
v -0.262248 -0.228111 0.423166
v -0.262248 -0.221555 0.380991
v -0.290462 -0.228111 0.423166
v -0.262248 -0.228111 0.380991
v -0.290462 -0.221555 0.423166
v -0.290462 -0.221555 0.423166
v -0.262248 -0.221555 0.380991
v -0.290462 -0.228111 0.423166
v -0.262248 -0.228111 0.380991
v -0.297754 -0.221555 0.423166
v -0.290462 -0.228111 0.423166
v -0.290462 -0.221555 0.423166
v -0.297754 -0.228111 0.423166
v -0.297754 -0.228111 0.423166
v -0.297754 -0.221555 0.423166
v -0.290462 -0.228111 0.423166
v -0.290462 -0.221555 0.423166
vn 0 0 -1
vn 0 0 1
vn 0 -1 0
vn 0 1 0
vn 1 0 0
vn -1 0 0
vn -0.8313834942579952 0 -0.5556990961620923
vn 0.8313834942579952 0 0.5556990961620923
vn 0.8311604879385807 0 0.5560325919311752
vn -0.8311604879385807 0 -0.5560325919311752
usemtl material_0_0
f 1//1 2//1 3//1
f 2//1 1//1 4//1
f 5//2 6//2 7//2
f 8//2 7//2 6//2
f 9//3 10//3 11//3
f 10//3 9//3 12//3
f 11//3 13//3 14//3
f 13//3 11//3 10//3
f 13//3 10//3 15//3
f 13//3 15//3 16//3
f 17//3 16//3 18//3
f 16//3 17//3 13//3
f 19//4 20//4 21//4
f 22//4 21//4 20//4
f 21//4 23//4 19//4
f 23//4 24//4 19//4
f 24//4 25//4 19//4
f 26//4 19//4 25//4
f 27//4 28//4 24//4
f 25//4 24//4 28//4
f 29//5 30//5 31//5
f 30//5 29//5 32//5
f 33//6 34//6 35//6
f 36//6 35//6 34//6
f 37//3 38//3 39//3
f 38//3 37//3 40//3
f 39//3 41//3 42//3
f 41//3 39//3 38//3
f 41//3 38//3 43//3
f 41//3 43//3 44//3
f 45//3 44//3 46//3
f 44//3 45//3 41//3
f 47//4 48//4 49//4
f 50//4 49//4 48//4
f 49//4 51//4 47//4
f 51//4 52//4 47//4
f 52//4 53//4 47//4
f 54//4 47//4 53//4
f 55//4 56//4 52//4
f 53//4 52//4 56//4
f 57//6 58//6 59//6
f 58//6 57//6 60//6
f 61//5 62//5 63//5
f 64//5 63//5 62//5
f 65//7 66//7 67//7
f 66//7 65//7 68//7
f 69//8 70//8 71//8
f 72//8 71//8 70//8
f 73//1 74//1 75//1
f 74//1 73//1 76//1
f 77//2 78//2 79//2
f 80//2 79//2 78//2
f 81//5 82//5 83//5
f 82//5 81//5 84//5
f 85//6 86//6 87//6
f 88//6 87//6 86//6
f 89//2 90//2 91//2
f 90//2 89//2 92//2
f 93//1 94//1 95//1
f 96//1 95//1 94//1
f 97//6 98//6 99//6
f 98//6 97//6 100//6
f 101//5 102//5 103//5
f 104//5 103//5 102//5
f 105//9 106//9 107//9
f 106//9 105//9 108//9
f 109//10 110//10 111//10
f 112//10 111//10 110//10
f 113//2 114//2 115//2
f 114//2 113//2 116//2
f 117//1 118//1 119//1
f 120//1 119//1 118//1
