# SSTK version 0.8.0
# 58
mtllib original-58.mtl
o #ID370
v -0.032261 -0.225925 0.088548
v 0.263610 -0.225925 0.091155
v -0.033840 -0.225925 0.091155
v -0.069084 -0.225925 0.082170
v -0.034307 -0.225925 0.091155
v -0.075545 -0.225925 0.096504
v -0.060942 -0.225925 0.216622
v 0.298413 -0.225925 0.228991
v -0.051235 -0.225925 0.228991
v 0.263610 -0.225925 0.194187
v 0.298413 -0.225925 0.056352
v -0.069084 -0.225925 0.203172
v -0.032261 -0.225925 0.196795
v -0.033840 -0.225925 0.194187
v -0.060942 -0.225925 0.068721
v -0.051235 -0.225925 0.056352
v -0.075545 -0.225925 0.188838
v -0.034307 -0.225925 0.194187
v -0.038221 -0.225925 0.186951
v -0.080227 -0.225925 0.173829
v -0.042949 -0.225925 0.176460
v -0.046376 -0.225925 0.165475
v -0.083065 -0.225925 0.158365
v -0.048452 -0.225925 0.154157
v -0.084015 -0.225925 0.142671
v -0.049148 -0.225925 0.142671
v -0.083065 -0.225925 0.126978
v -0.048452 -0.225925 0.131185
v -0.046376 -0.225925 0.119867
v -0.080227 -0.225925 0.111513
v -0.042949 -0.225925 0.108882
v -0.038221 -0.225925 0.098392
v -0.034307 -0.225925 0.091155
v -0.075545 -0.225925 0.096504
v -0.033840 -0.225925 0.091155
v -0.038221 -0.225925 0.098392
v -0.042949 -0.225925 0.108882
v -0.080227 -0.225925 0.111513
v -0.046376 -0.225925 0.119867
v -0.083065 -0.225925 0.126978
v -0.048452 -0.225925 0.131185
v -0.049148 -0.225925 0.142671
v -0.084015 -0.225925 0.142671
v -0.048452 -0.225925 0.154157
v -0.083065 -0.225925 0.158365
v -0.046376 -0.225925 0.165475
v -0.080227 -0.225925 0.173829
v -0.042949 -0.225925 0.176460
v -0.038221 -0.225925 0.186951
v -0.075545 -0.225925 0.188838
v -0.033840 -0.225925 0.194187
v -0.034307 -0.225925 0.194187
v -0.032261 -0.225925 0.196795
v -0.069084 -0.225925 0.203172
v -0.051235 -0.225925 0.056352
v -0.060942 -0.225925 0.068721
v 0.298413 -0.225925 0.056352
v -0.069084 -0.225925 0.082170
v -0.032261 -0.225925 0.088548
v 0.263610 -0.225925 0.091155
v 0.263610 -0.225925 0.194187
v -0.060942 -0.225925 0.216622
v 0.298413 -0.225925 0.228991
v -0.051235 -0.225925 0.228991
v -0.051235 -0.221555 0.228991
v 0.298413 -0.225925 0.228991
v 0.298413 -0.221555 0.228991
v -0.051235 -0.225925 0.228991
v -0.051235 -0.225925 0.228991
v -0.051235 -0.221555 0.228991
v 0.298413 -0.225925 0.228991
v 0.298413 -0.221555 0.228991
v -0.051235 -0.221555 0.228991
v -0.060942 -0.225925 0.216622
v -0.051235 -0.225925 0.228991
v -0.060942 -0.221555 0.216622
v -0.060942 -0.221555 0.216622
v -0.051235 -0.221555 0.228991
v -0.060942 -0.225925 0.216622
v -0.051235 -0.225925 0.228991
v -0.069084 -0.225925 0.203172
v -0.069084 -0.221555 0.203172
v -0.069084 -0.221555 0.203172
v -0.069084 -0.225925 0.203172
v -0.075545 -0.225925 0.188838
v -0.075545 -0.221555 0.188838
v -0.075545 -0.221555 0.188838
v -0.075545 -0.225925 0.188838
v -0.080227 -0.225925 0.173829
v -0.080227 -0.221555 0.173829
v -0.080227 -0.221555 0.173829
v -0.080227 -0.225925 0.173829
v -0.083065 -0.225925 0.158365
v -0.083065 -0.221555 0.158365
v -0.083065 -0.221555 0.158365
v -0.083065 -0.225925 0.158365
v -0.084015 -0.225925 0.142671
v -0.084015 -0.221555 0.142671
v -0.084015 -0.221555 0.142671
v -0.084015 -0.225925 0.142671
v -0.083065 -0.225925 0.126978
v -0.083065 -0.221555 0.126978
v -0.083065 -0.221555 0.126978
v -0.083065 -0.225925 0.126978
v -0.080227 -0.225925 0.111513
v -0.080227 -0.221555 0.111513
v -0.080227 -0.221555 0.111513
v -0.080227 -0.225925 0.111513
v -0.075545 -0.225925 0.096504
v -0.075545 -0.221555 0.096504
v -0.075545 -0.221555 0.096504
v -0.075545 -0.225925 0.096504
v -0.069084 -0.225925 0.082170
v -0.069084 -0.221555 0.082170
v -0.069084 -0.221555 0.082170
v -0.069084 -0.225925 0.082170
v -0.060942 -0.225925 0.068721
v -0.060942 -0.221555 0.068721
v -0.060942 -0.221555 0.068721
v -0.060942 -0.225925 0.068721
v -0.051235 -0.225925 0.056352
v -0.051235 -0.221555 0.056352
v -0.051235 -0.221555 0.056352
v -0.051235 -0.225925 0.056352
v -0.051235 -0.225925 0.056352
v 0.298413 -0.221555 0.056352
v 0.298413 -0.225925 0.056352
v -0.051235 -0.221555 0.056352
v -0.051235 -0.221555 0.056352
v -0.051235 -0.225925 0.056352
v 0.298413 -0.221555 0.056352
v 0.298413 -0.225925 0.056352
v 0.298413 -0.221555 0.056352
v 0.298413 -0.225925 0.228991
v 0.298413 -0.225925 0.056352
v 0.298413 -0.221555 0.228991
v 0.298413 -0.221555 0.228991
v 0.298413 -0.221555 0.056352
v 0.298413 -0.225925 0.228991
v 0.298413 -0.225925 0.056352
vn 0 -1 0
vn 0 1 0
vn 0 0 1
vn 0 0 -1
vn -0.7866921669939354 0 0.6173454740988924
vn -0.8225724775634041 0 0.5686602844890813
vn 0.8225724775634041 0 -0.5686602844890813
vn 0.7866921669939354 0 -0.6173454740988924
vn -0.8851867909286841 0 0.46523579523224384
vn 0.8851867909286841 0 -0.46523579523224384
vn -0.9348621536913885 0 0.3550109203890759
vn 0.9348621536913885 0 -0.3550109203890759
vn -0.970872481637664 0 0.23959679546839488
vn 0.970872481637664 0 -0.23959679546839488
vn -0.9926914126180476 0 0.12068040153390788
vn 0.9926914126180476 0 -0.12068040153390788
vn -1 0 0
vn 1 0 0
vn -0.9926914126180345 0 -0.1206804015340148
vn 0.9926914126180345 0 0.1206804015340148
vn -0.9708724816376382 0 -0.23959679546849943
vn 0.9708724816376382 0 0.23959679546849943
vn -0.9348621536913502 0 -0.3550109203891766
vn 0.9348621536913502 0 0.3550109203891766
vn -0.8851867909286338 0 -0.4652357952323391
vn 0.8851867909286338 0 0.4652357952323391
vn -0.8225724775633431 0 -0.5686602844891699
vn 0.8225724775633431 0 0.5686602844891699
vn -0.7866921669938689 0 -0.6173454740989772
vn 0.7866921669938689 0 0.6173454740989772
usemtl material_0_0
f 1//1 2//1 3//1
f 4//1 5//1 6//1
f 5//1 4//1 1//1
f 7//1 8//1 9//1
f 8//1 7//1 10//1
f 8//1 10//1 11//1
f 10//1 7//1 12//1
f 10//1 12//1 13//1
f 10//1 13//1 14//1
f 11//1 10//1 2//1
f 11//1 2//1 1//1
f 11//1 1//1 4//1
f 11//1 4//1 15//1
f 11//1 15//1 16//1
f 17//1 13//1 12//1
f 13//1 17//1 18//1
f 18//1 17//1 14//1
f 14//1 17//1 19//1
f 19//1 17//1 20//1
f 19//1 20//1 21//1
f 21//1 20//1 22//1
f 22//1 20//1 23//1
f 22//1 23//1 24//1
f 24//1 23//1 25//1
f 24//1 25//1 26//1
f 26//1 25//1 27//1
f 26//1 27//1 28//1
f 28//1 27//1 29//1
f 29//1 27//1 30//1
f 29//1 30//1 31//1
f 31//1 30//1 6//1
f 31//1 6//1 32//1
f 32//1 6//1 3//1
f 3//1 6//1 5//1
f 33//2 34//2 35//2
f 35//2 34//2 36//2
f 36//2 34//2 37//2
f 34//2 38//2 37//2
f 37//2 38//2 39//2
f 38//2 40//2 39//2
f 39//2 40//2 41//2
f 41//2 40//2 42//2
f 40//2 43//2 42//2
f 42//2 43//2 44//2
f 43//2 45//2 44//2
f 44//2 45//2 46//2
f 45//2 47//2 46//2
f 46//2 47//2 48//2
f 48//2 47//2 49//2
f 47//2 50//2 49//2
f 49//2 50//2 51//2
f 51//2 50//2 52//2
f 52//2 50//2 53//2
f 54//2 53//2 50//2
f 55//2 56//2 57//2
f 56//2 58//2 57//2
f 58//2 59//2 57//2
f 59//2 60//2 57//2
f 60//2 61//2 57//2
f 51//2 53//2 61//2
f 53//2 54//2 61//2
f 54//2 62//2 61//2
f 57//2 61//2 63//2
f 61//2 62//2 63//2
f 64//2 63//2 62//2
f 59//2 58//2 33//2
f 34//2 33//2 58//2
f 35//2 60//2 59//2
f 65//3 66//3 67//3
f 66//3 65//3 68//3
f 69//4 70//4 71//4
f 72//4 71//4 70//4
f 73//5 74//6 75//5
f 74//6 73//5 76//6
f 77//7 78//8 79//7
f 80//8 79//7 78//8
f 76//6 81//9 74//6
f 81//9 76//6 82//9
f 83//10 77//7 84//10
f 79//7 84//10 77//7
f 82//9 85//11 81//9
f 85//11 82//9 86//11
f 87//12 83//10 88//12
f 84//10 88//12 83//10
f 86//11 89//13 85//11
f 89//13 86//11 90//13
f 91//14 87//12 92//14
f 88//12 92//14 87//12
f 90//13 93//15 89//13
f 93//15 90//13 94//15
f 95//16 91//14 96//16
f 92//14 96//16 91//14
f 94//15 97//17 93//15
f 97//17 94//15 98//17
f 99//18 95//16 100//18
f 96//16 100//18 95//16
f 98//17 101//19 97//17
f 101//19 98//17 102//19
f 103//20 99//18 104//20
f 100//18 104//20 99//18
f 102//19 105//21 101//19
f 105//21 102//19 106//21
f 107//22 103//20 108//22
f 104//20 108//22 103//20
f 106//21 109//23 105//21
f 109//23 106//21 110//23
f 111//24 107//22 112//24
f 108//22 112//24 107//22
f 110//23 113//25 109//23
f 113//25 110//23 114//25
f 115//26 111//24 116//26
f 112//24 116//26 111//24
f 114//25 117//27 113//25
f 117//27 114//25 118//27
f 119//28 115//26 120//28
f 116//26 120//28 115//26
f 118//27 121//29 117//27
f 121//29 118//27 122//29
f 123//30 119//28 124//30
f 120//28 124//30 119//28
f 125//4 126//4 127//4
f 126//4 125//4 128//4
f 129//3 130//3 131//3
f 132//3 131//3 130//3
f 133//18 134//18 135//18
f 134//18 133//18 136//18
f 137//17 138//17 139//17
f 140//17 139//17 138//17
