# SSTK version 0.8.0
# 4
mtllib original-4.mtl
o #ID26
v -0.347613 -0.224396 -0.606790
v -0.360195 -0.227237 -0.585355
v -0.347613 -0.227237 -0.606790
v -0.360195 -0.224396 -0.585355
v -0.360195 -0.224396 -0.585355
v -0.347613 -0.224396 -0.606790
v -0.360195 -0.227237 -0.585355
v -0.347613 -0.227237 -0.606790
v -0.472732 -0.227237 -0.515379
v -0.436978 -0.227237 -0.520601
v -0.456202 -0.227237 -0.515213
v -0.485442 -0.227237 -0.521087
v -0.416372 -0.227237 -0.531175
v -0.493467 -0.227237 -0.531948
v -0.395787 -0.227237 -0.546214
v -0.496259 -0.227237 -0.547222
v -0.376626 -0.227237 -0.564694
v -0.493628 -0.227237 -0.565868
v -0.360195 -0.227237 -0.585355
v -0.485753 -0.227237 -0.586615
v -0.347613 -0.227237 -0.606790
v -0.473172 -0.227237 -0.608050
v -0.341672 -0.227237 -0.622442
v -0.456741 -0.227237 -0.628711
v -0.339739 -0.227237 -0.627537
v -0.337108 -0.227237 -0.646183
v -0.437580 -0.227237 -0.647191
v -0.339900 -0.227237 -0.661456
v -0.416995 -0.227237 -0.662230
v -0.347925 -0.227237 -0.672317
v -0.396389 -0.227237 -0.672804
v -0.360636 -0.227237 -0.678025
v -0.377166 -0.227237 -0.678191
v -0.377166 -0.227237 -0.678191
v -0.396389 -0.227237 -0.672804
v -0.360636 -0.227237 -0.678025
v -0.347925 -0.227237 -0.672317
v -0.416995 -0.227237 -0.662230
v -0.339900 -0.227237 -0.661456
v -0.437580 -0.227237 -0.647191
v -0.337108 -0.227237 -0.646183
v -0.456741 -0.227237 -0.628711
v -0.339739 -0.227237 -0.627537
v -0.341672 -0.227237 -0.622442
v -0.473172 -0.227237 -0.608050
v -0.347613 -0.227237 -0.606790
v -0.485753 -0.227237 -0.586615
v -0.360195 -0.227237 -0.585355
v -0.493628 -0.227237 -0.565868
v -0.376626 -0.227237 -0.564694
v -0.496259 -0.227237 -0.547222
v -0.395787 -0.227237 -0.546214
v -0.493467 -0.227237 -0.531948
v -0.416372 -0.227237 -0.531175
v -0.485442 -0.227237 -0.521087
v -0.436978 -0.227237 -0.520601
v -0.472732 -0.227237 -0.515379
v -0.456202 -0.227237 -0.515213
v -0.341672 -0.224396 -0.622442
v -0.347613 -0.227237 -0.606790
v -0.341672 -0.227237 -0.622442
v -0.347613 -0.224396 -0.606790
v -0.347613 -0.224396 -0.606790
v -0.341672 -0.224396 -0.622442
v -0.347613 -0.227237 -0.606790
v -0.341672 -0.227237 -0.622442
v -0.360195 -0.224396 -0.585355
v -0.376626 -0.227237 -0.564694
v -0.360195 -0.227237 -0.585355
v -0.376626 -0.224396 -0.564694
v -0.376626 -0.224396 -0.564694
v -0.360195 -0.224396 -0.585355
v -0.376626 -0.227237 -0.564694
v -0.360195 -0.227237 -0.585355
v -0.493467 -0.224396 -0.531948
v -0.496259 -0.227237 -0.547222
v -0.493467 -0.227237 -0.531948
v -0.496259 -0.224396 -0.547222
v -0.496259 -0.224396 -0.547222
v -0.493467 -0.224396 -0.531948
v -0.496259 -0.227237 -0.547222
v -0.493467 -0.227237 -0.531948
v -0.496259 -0.224396 -0.547222
v -0.493628 -0.227237 -0.565868
v -0.496259 -0.227237 -0.547222
v -0.493628 -0.224396 -0.565868
v -0.493628 -0.224396 -0.565868
v -0.496259 -0.224396 -0.547222
v -0.493628 -0.227237 -0.565868
v -0.496259 -0.227237 -0.547222
v -0.493628 -0.224396 -0.565868
v -0.485753 -0.227237 -0.586615
v -0.493628 -0.227237 -0.565868
v -0.485753 -0.224396 -0.586615
v -0.485753 -0.224396 -0.586615
v -0.493628 -0.224396 -0.565868
v -0.485753 -0.227237 -0.586615
v -0.493628 -0.227237 -0.565868
v -0.485753 -0.224396 -0.586615
v -0.473172 -0.227237 -0.608050
v -0.485753 -0.227237 -0.586615
v -0.473172 -0.224396 -0.608050
v -0.473172 -0.224396 -0.608050
v -0.485753 -0.224396 -0.586615
v -0.473172 -0.227237 -0.608050
v -0.485753 -0.227237 -0.586615
v -0.473172 -0.224396 -0.608050
v -0.456741 -0.227237 -0.628711
v -0.473172 -0.227237 -0.608050
v -0.456741 -0.224396 -0.628711
v -0.456741 -0.224396 -0.628711
v -0.473172 -0.224396 -0.608050
v -0.456741 -0.227237 -0.628711
v -0.473172 -0.227237 -0.608050
v -0.456741 -0.227237 -0.628711
v -0.437580 -0.224396 -0.647191
v -0.437580 -0.227237 -0.647191
v -0.456741 -0.224396 -0.628711
v -0.456741 -0.224396 -0.628711
v -0.456741 -0.227237 -0.628711
v -0.437580 -0.224396 -0.647191
v -0.437580 -0.227237 -0.647191
v -0.437580 -0.227237 -0.647191
v -0.416995 -0.224396 -0.662230
v -0.416995 -0.227237 -0.662230
v -0.437580 -0.224396 -0.647191
v -0.437580 -0.224396 -0.647191
v -0.437580 -0.227237 -0.647191
v -0.416995 -0.224396 -0.662230
v -0.416995 -0.227237 -0.662230
v -0.416995 -0.227237 -0.662230
v -0.396389 -0.224396 -0.672804
v -0.396389 -0.227237 -0.672804
v -0.416995 -0.224396 -0.662230
v -0.416995 -0.224396 -0.662230
v -0.416995 -0.227237 -0.662230
v -0.396389 -0.224396 -0.672804
v -0.396389 -0.227237 -0.672804
v -0.396389 -0.227237 -0.672804
v -0.377166 -0.224396 -0.678191
v -0.377166 -0.227237 -0.678191
v -0.396389 -0.224396 -0.672804
v -0.396389 -0.224396 -0.672804
v -0.396389 -0.227237 -0.672804
v -0.377166 -0.224396 -0.678191
v -0.377166 -0.227237 -0.678191
v -0.377166 -0.227237 -0.678191
v -0.360636 -0.224396 -0.678025
v -0.360636 -0.227237 -0.678025
v -0.377166 -0.224396 -0.678191
v -0.377166 -0.224396 -0.678191
v -0.377166 -0.227237 -0.678191
v -0.360636 -0.224396 -0.678025
v -0.360636 -0.227237 -0.678025
v -0.360636 -0.227237 -0.678025
v -0.347925 -0.224396 -0.672317
v -0.347925 -0.227237 -0.672317
v -0.360636 -0.224396 -0.678025
v -0.360636 -0.224396 -0.678025
v -0.360636 -0.227237 -0.678025
v -0.347925 -0.224396 -0.672317
v -0.347925 -0.227237 -0.672317
v -0.347925 -0.224396 -0.672317
v -0.339900 -0.227237 -0.661456
v -0.347925 -0.227237 -0.672317
v -0.339900 -0.224396 -0.661456
v -0.339900 -0.224396 -0.661456
v -0.347925 -0.224396 -0.672317
v -0.339900 -0.227237 -0.661456
v -0.347925 -0.227237 -0.672317
v -0.339900 -0.224396 -0.661456
v -0.337108 -0.227237 -0.646183
v -0.339900 -0.227237 -0.661456
v -0.337108 -0.224396 -0.646183
v -0.337108 -0.224396 -0.646183
v -0.339900 -0.224396 -0.661456
v -0.337108 -0.227237 -0.646183
v -0.339900 -0.227237 -0.661456
v -0.337108 -0.224396 -0.646183
v -0.339739 -0.227237 -0.627537
v -0.337108 -0.227237 -0.646183
v -0.339739 -0.224396 -0.627537
v -0.339739 -0.224396 -0.627537
v -0.337108 -0.224396 -0.646183
v -0.339739 -0.227237 -0.627537
v -0.337108 -0.227237 -0.646183
v -0.339739 -0.224396 -0.627537
v -0.341672 -0.227237 -0.622442
v -0.339739 -0.227237 -0.627537
v -0.341672 -0.224396 -0.622442
v -0.341672 -0.224396 -0.622442
v -0.339739 -0.224396 -0.627537
v -0.341672 -0.227237 -0.622442
v -0.339739 -0.227237 -0.627537
v -0.395787 -0.224396 -0.546214
v -0.376626 -0.227237 -0.564694
v -0.376626 -0.224396 -0.564694
v -0.395787 -0.227237 -0.546214
v -0.395787 -0.227237 -0.546214
v -0.395787 -0.224396 -0.546214
v -0.376626 -0.227237 -0.564694
v -0.376626 -0.224396 -0.564694
v -0.416372 -0.224396 -0.531175
v -0.395787 -0.227237 -0.546214
v -0.395787 -0.224396 -0.546214
v -0.416372 -0.227237 -0.531175
v -0.416372 -0.227237 -0.531175
v -0.416372 -0.224396 -0.531175
v -0.395787 -0.227237 -0.546214
v -0.395787 -0.224396 -0.546214
v -0.436978 -0.224396 -0.520601
v -0.416372 -0.227237 -0.531175
v -0.416372 -0.224396 -0.531175
v -0.436978 -0.227237 -0.520601
v -0.436978 -0.227237 -0.520601
v -0.436978 -0.224396 -0.520601
v -0.416372 -0.227237 -0.531175
v -0.416372 -0.224396 -0.531175
v -0.456202 -0.224396 -0.515213
v -0.436978 -0.227237 -0.520601
v -0.436978 -0.224396 -0.520601
v -0.456202 -0.227237 -0.515213
v -0.456202 -0.227237 -0.515213
v -0.456202 -0.224396 -0.515213
v -0.436978 -0.227237 -0.520601
v -0.436978 -0.224396 -0.520601
v -0.472732 -0.224396 -0.515379
v -0.456202 -0.227237 -0.515213
v -0.456202 -0.224396 -0.515213
v -0.472732 -0.227237 -0.515379
v -0.472732 -0.227237 -0.515379
v -0.472732 -0.224396 -0.515379
v -0.456202 -0.227237 -0.515213
v -0.456202 -0.224396 -0.515213
v -0.485442 -0.224396 -0.521087
v -0.472732 -0.227237 -0.515379
v -0.472732 -0.224396 -0.515379
v -0.485442 -0.227237 -0.521087
v -0.485442 -0.227237 -0.521087
v -0.485442 -0.224396 -0.521087
v -0.472732 -0.227237 -0.515379
v -0.472732 -0.224396 -0.515379
v -0.485442 -0.224396 -0.521087
v -0.493467 -0.227237 -0.531948
v -0.485442 -0.227237 -0.521087
v -0.493467 -0.224396 -0.531948
v -0.493467 -0.224396 -0.531948
v -0.485442 -0.224396 -0.521087
v -0.493467 -0.227237 -0.531948
v -0.485442 -0.227237 -0.521087
vn 0.8624102613441196 0 0.5062099773101745
vn 0 -1 0
vn 0.9349248026169056 0 0.3548459009932906
vn 0.7826753956360935 0 0.6224300965296302
vn -0.9836989656223823 0 0.1798230937156146
vn -0.9901923225267244 0 -0.13971100317845841
vn -0.9349248026169056 0 -0.3548459009932906
vn -0.8624102613441196 0 -0.5062099773101745
vn -0.7826753956360935 0 -0.6224300965296302
vn -0.6942005914130748 0 -0.7197815910967279
vn -0.5899236974919873 0 -0.807458996567245
vn -0.4565335885301393 0 -0.8897061776473139
vn -0.26986090441361776 0 -0.96289931574857
vn 0.010033619618473317 0 -0.9999496619717172
vn 0.40965741878548045 0 -0.9122394418320322
vn 0.8042785597160483 0 -0.5942524702355716
vn 0.9836989656223823 0 -0.1798230937156146
vn 0.9901923225267244 0 0.13971100317845841
vn 0.6942005914130748 0 0.7197815910967279
vn 0.5899236974919873 0 0.807458996567245
vn 0.4565335885301393 0 0.8897061776473139
vn 0.26986090441361776 0 0.96289931574857
vn -0.010033619618473317 0 0.9999496619717172
vn -0.40965741878548045 0 0.9122394418320322
vn -0.8042785597160483 0 0.5942524702355716
vn 0 1 0
usemtl material_0_0
f 5//8 6//8 7//8
f 8//8 7//8 6//8
f 34//26 35//26 36//26
f 36//26 35//26 37//26
f 35//26 38//26 37//26
f 37//26 38//26 39//26
f 38//26 40//26 39//26
f 39//26 40//26 41//26
f 40//26 42//26 41//26
f 41//26 42//26 43//26
f 43//26 42//26 44//26
f 42//26 45//26 44//26
f 44//26 45//26 46//26
f 45//26 47//26 46//26
f 46//26 47//26 48//26
f 47//26 49//26 48//26
f 48//26 49//26 50//26
f 49//26 51//26 50//26
f 50//26 51//26 52//26
f 51//26 53//26 52//26
f 52//26 53//26 54//26
f 53//26 55//26 54//26
f 54//26 55//26 56//26
f 55//26 57//26 56//26
f 58//26 56//26 57//26
f 63//7 64//7 65//7
f 66//7 65//7 64//7
f 71//9 72//9 73//9
f 74//9 73//9 72//9
f 79//17 80//17 81//17
f 82//17 81//17 80//17
f 87//18 88//18 89//18
f 90//18 89//18 88//18
f 95//3 96//3 97//3
f 98//3 97//3 96//3
f 103//1 104//1 105//1
f 106//1 105//1 104//1
f 111//4 112//4 113//4
f 114//4 113//4 112//4
f 119//19 120//19 121//19
f 122//19 121//19 120//19
f 127//20 128//20 129//20
f 130//20 129//20 128//20
f 135//21 136//21 137//21
f 138//21 137//21 136//21
f 143//22 144//22 145//22
f 146//22 145//22 144//22
f 151//23 152//23 153//23
f 154//23 153//23 152//23
f 159//24 160//24 161//24
f 162//24 161//24 160//24
f 167//25 168//25 169//25
f 170//25 169//25 168//25
f 175//5 176//5 177//5
f 178//5 177//5 176//5
f 183//6 184//6 185//6
f 186//6 185//6 184//6
f 191//7 192//7 193//7
f 194//7 193//7 192//7
f 199//10 200//10 201//10
f 202//10 201//10 200//10
f 207//11 208//11 209//11
f 210//11 209//11 208//11
f 215//12 216//12 217//12
f 218//12 217//12 216//12
f 223//13 224//13 225//13
f 226//13 225//13 224//13
f 231//14 232//14 233//14
f 234//14 233//14 232//14
f 239//15 240//15 241//15
f 242//15 241//15 240//15
f 247//16 248//16 249//16
f 250//16 249//16 248//16
usemtl material_1_0
f 1//1 2//1 3//1
f 2//1 1//1 4//1
f 9//2 10//2 11//2
f 10//2 9//2 12//2
f 10//2 12//2 13//2
f 13//2 12//2 14//2
f 13//2 14//2 15//2
f 15//2 14//2 16//2
f 15//2 16//2 17//2
f 17//2 16//2 18//2
f 17//2 18//2 19//2
f 19//2 18//2 20//2
f 19//2 20//2 21//2
f 21//2 20//2 22//2
f 21//2 22//2 23//2
f 23//2 22//2 24//2
f 23//2 24//2 25//2
f 25//2 24//2 26//2
f 26//2 24//2 27//2
f 26//2 27//2 28//2
f 28//2 27//2 29//2
f 28//2 29//2 30//2
f 30//2 29//2 31//2
f 30//2 31//2 32//2
f 32//2 31//2 33//2
f 59//3 60//3 61//3
f 60//3 59//3 62//3
f 67//4 68//4 69//4
f 68//4 67//4 70//4
f 75//5 76//5 77//5
f 76//5 75//5 78//5
f 83//6 84//6 85//6
f 84//6 83//6 86//6
f 91//7 92//7 93//7
f 92//7 91//7 94//7
f 99//8 100//8 101//8
f 100//8 99//8 102//8
f 107//9 108//9 109//9
f 108//9 107//9 110//9
f 115//10 116//10 117//10
f 116//10 115//10 118//10
f 123//11 124//11 125//11
f 124//11 123//11 126//11
f 131//12 132//12 133//12
f 132//12 131//12 134//12
f 139//13 140//13 141//13
f 140//13 139//13 142//13
f 147//14 148//14 149//14
f 148//14 147//14 150//14
f 155//15 156//15 157//15
f 156//15 155//15 158//15
f 163//16 164//16 165//16
f 164//16 163//16 166//16
f 171//17 172//17 173//17
f 172//17 171//17 174//17
f 179//18 180//18 181//18
f 180//18 179//18 182//18
f 187//3 188//3 189//3
f 188//3 187//3 190//3
f 195//19 196//19 197//19
f 196//19 195//19 198//19
f 203//20 204//20 205//20
f 204//20 203//20 206//20
f 211//21 212//21 213//21
f 212//21 211//21 214//21
f 219//22 220//22 221//22
f 220//22 219//22 222//22
f 227//23 228//23 229//23
f 228//23 227//23 230//23
f 235//24 236//24 237//24
f 236//24 235//24 238//24
f 243//25 244//25 245//25
f 244//25 243//25 246//25
