# SSTK version 0.8.0
# 60
mtllib original-60.mtl
o #ID382
v -0.032261 -0.221555 0.196795
v -0.033840 -0.225925 0.194187
v -0.032261 -0.225925 0.196795
v -0.033840 -0.221555 0.194187
v -0.033840 -0.221555 0.194187
v -0.032261 -0.221555 0.196795
v -0.033840 -0.225925 0.194187
v -0.032261 -0.225925 0.196795
v -0.034307 -0.221555 0.194187
v -0.033840 -0.225925 0.194187
v -0.033840 -0.221555 0.194187
v -0.034307 -0.225925 0.194187
v -0.034307 -0.225925 0.194187
v -0.034307 -0.221555 0.194187
v -0.033840 -0.225925 0.194187
v -0.033840 -0.221555 0.194187
v -0.034307 -0.221555 0.194187
v -0.034307 -0.225925 0.194187
v -0.034307 -0.221555 0.194187
v -0.034307 -0.225925 0.194187
vn -0.5686602844890813 0 -0.8225724775634041
vn -0.8554440801503679 0 0.517895187982753
vn 0.8554440801503679 0 -0.517895187982753
vn 0.5686602844890813 0 0.8225724775634041
vn 0 0 1
vn 0 0 -1
vn 0.7866921669939354 0 -0.6173454740988924
vn -0.7866921669939354 0 0.6173454740988924
usemtl material_0_0
f 1//1 2//2 3//1
f 2//2 1//1 4//2
f 5//3 6//4 7//3
f 8//4 7//3 6//4
f 9//5 10//5 11//5
f 10//5 9//5 12//5
f 13//6 14//6 15//6
f 16//6 15//6 14//6
f 17//7 3//1 18//7
f 3//1 17//7 1//1
f 6//4 19//8 8//4
f 20//8 8//4 19//8
