# SSTK version 0.8.0
# 17
mtllib original-17.mtl
o #ID112
v 0.085147 -0.219370 -0.434506
v 0.096484 -0.221555 -0.431995
v 0.096484 -0.219370 -0.431995
v 0.085147 -0.221555 -0.434506
v 0.085147 -0.221555 -0.434506
v 0.085147 -0.219370 -0.434506
v 0.096484 -0.221555 -0.431995
v 0.096484 -0.219370 -0.431995
v 0.118574 -0.221555 -0.422931
v 0.118574 -0.219370 -0.422931
v 0.118574 -0.221555 -0.422931
v 0.118574 -0.219370 -0.422931
v -0.138922 -0.219370 -0.422931
v 0.120615 -0.219370 -0.422093
v -0.140964 -0.219370 -0.422093
v 0.118574 -0.219370 -0.422931
v -0.116832 -0.219370 -0.431995
v 0.096484 -0.219370 -0.431995
v -0.105496 -0.219370 -0.434506
v 0.085147 -0.219370 -0.434506
v 0.085147 -0.219370 -0.434506
v -0.105496 -0.219370 -0.434506
v 0.096484 -0.219370 -0.431995
v -0.116832 -0.219370 -0.431995
v 0.118574 -0.219370 -0.422931
v -0.138922 -0.219370 -0.422931
v 0.120615 -0.219370 -0.422093
v -0.140964 -0.219370 -0.422093
v -0.105496 -0.219370 -0.434506
v 0.085147 -0.221555 -0.434506
v 0.085147 -0.219370 -0.434506
v -0.105496 -0.221555 -0.434506
v -0.105496 -0.221555 -0.434506
v -0.105496 -0.219370 -0.434506
v 0.085147 -0.221555 -0.434506
v 0.085147 -0.219370 -0.434506
v 0.118574 -0.219370 -0.422931
v 0.120615 -0.221555 -0.422093
v 0.120615 -0.219370 -0.422093
v 0.118574 -0.221555 -0.422931
v 0.118574 -0.221555 -0.422931
v 0.118574 -0.219370 -0.422931
v 0.120615 -0.221555 -0.422093
v 0.120615 -0.219370 -0.422093
v -0.140964 -0.221555 -0.422093
v 0.120615 -0.219370 -0.422093
v 0.120615 -0.221555 -0.422093
v -0.140964 -0.219370 -0.422093
v -0.140964 -0.219370 -0.422093
v -0.140964 -0.221555 -0.422093
v 0.120615 -0.219370 -0.422093
v 0.120615 -0.221555 -0.422093
v -0.140964 -0.219370 -0.422093
v -0.138922 -0.221555 -0.422931
v -0.138922 -0.219370 -0.422931
v -0.140964 -0.221555 -0.422093
v -0.140964 -0.221555 -0.422093
v -0.140964 -0.219370 -0.422093
v -0.138922 -0.221555 -0.422931
v -0.138922 -0.219370 -0.422931
v -0.138922 -0.219370 -0.422931
v -0.116832 -0.221555 -0.431995
v -0.116832 -0.219370 -0.431995
v -0.138922 -0.221555 -0.422931
v -0.138922 -0.221555 -0.422931
v -0.138922 -0.219370 -0.422931
v -0.116832 -0.221555 -0.431995
v -0.116832 -0.219370 -0.431995
v -0.105496 -0.221555 -0.434506
v -0.105496 -0.219370 -0.434506
v -0.105496 -0.221555 -0.434506
v -0.105496 -0.219370 -0.434506
vn -0.2162627023605243 0 0.9763352106565262
vn -0.2990382116642688 0 0.9542411372208998
vn -0.3796187992859033 0 0.9251429982595821
vn 0 -1 0
vn 0 0 1
vn 0 0 -1
vn 0.3796187992858037 0 0.9251429982596229
vn 0.29903821166416605 0 0.9542411372209321
vn 0.21626270236041914 0 0.9763352106565494
vn 0.2162627023605243 0 -0.9763352106565262
vn 0.2990382116642688 0 -0.9542411372208998
vn 0.3796187992859033 0 -0.9251429982595821
vn 0 1 0
vn -0.3796187992858037 0 -0.9251429982596229
vn -0.29903821166416605 0 -0.9542411372209321
vn -0.21626270236041914 0 -0.9763352106565494
usemtl material_0_0
f 5//10 6//10 7//11
f 8//11 7//11 6//10
f 7//11 8//11 11//12
f 12//12 11//12 8//11
f 21//13 22//13 23//13
f 22//13 24//13 23//13
f 23//13 24//13 25//13
f 24//13 26//13 25//13
f 25//13 26//13 27//13
f 28//13 27//13 26//13
f 33//6 34//6 35//6
f 36//6 35//6 34//6
f 41//12 42//12 43//12
f 44//12 43//12 42//12
f 49//5 50//5 51//5
f 52//5 51//5 50//5
f 57//14 58//14 59//14
f 60//14 59//14 58//14
f 65//14 66//14 67//15
f 68//15 67//15 66//14
f 67//15 68//15 71//16
f 72//16 71//16 68//15
usemtl material_1_0
f 1//1 2//2 3//2
f 2//2 1//1 4//1
f 3//2 9//3 10//3
f 9//3 3//2 2//2
f 13//4 14//4 15//4
f 14//4 13//4 16//4
f 16//4 13//4 17//4
f 16//4 17//4 18//4
f 18//4 17//4 19//4
f 18//4 19//4 20//4
f 29//5 30//5 31//5
f 30//5 29//5 32//5
f 37//3 38//3 39//3
f 38//3 37//3 40//3
f 45//6 46//6 47//6
f 46//6 45//6 48//6
f 53//7 54//7 55//7
f 54//7 53//7 56//7
f 61//7 62//8 63//8
f 62//8 61//7 64//7
f 63//8 69//9 70//9
f 69//9 63//8 62//8
