# SSTK version 0.8.0
# 16
mtllib original-16.mtl
o #ID116
v 0.019719 0.537469 0.219235
v 0.040088 0.544555 0.213362
v 0.040798 0.537469 0.217390
v 0.019363 0.544555 0.215175
v 0.019363 0.544555 0.215175
v 0.019719 0.537469 0.219235
v 0.040088 0.544555 0.213362
v 0.040798 0.537469 0.217390
v 0.021339 0.516125 0.237753
v 0.044025 0.516212 0.235693
v 0.021339 0.516125 0.237753
v 0.044025 0.516212 0.235693
vn -0.07097349791271451 -0.5804027829307229 -0.8112307761422183
vn -0.15038670344449168 -0.49997081145144656 -0.852885119534677
vn -0.14090810136828177 -0.5844112056748988 -0.799129807759914
vn -0.07555232490409279 -0.4985418323602934 -0.8635669560540327
vn -0.08305030240698259 -0.3496585101338818 -0.933188927045892
vn -0.1636369959763062 -0.34575749149811896 -0.9239451772809782
vn 0.07555232490409279 0.4985418323602934 0.8635669560540327
vn 0.07097349791271451 0.5804027829307229 0.8112307761422183
vn 0.15038670344449168 0.49997081145144656 0.852885119534677
vn 0.14090810136828177 0.5844112056748988 0.799129807759914
vn 0.08305030240698259 0.3496585101338818 0.933188927045892
vn 0.1636369959763062 0.34575749149811896 0.9239451772809782
usemtl material_0_0
f 1//1 2//2 3//3
f 2//2 1//1 4//4
f 9//5 3//3 10//6
f 3//3 9//5 1//1
usemtl material_1_0
f 5//7 6//8 7//9
f 8//10 7//9 6//8
f 6//8 11//11 8//10
f 12//12 8//10 11//11
