# SSTK version 0.8.0
# 32
mtllib original-32.mtl
o #ID222
v 0.280163 0.323341 0.016245
v 0.279728 0.204768 0.017865
v 0.279728 0.323356 0.017865
v 0.280190 0.205168 0.016142
v 0.280589 0.323019 0.014655
v 0.280629 0.205845 0.014502
v 0.280992 0.322402 0.013148
v 0.281036 0.206782 0.012987
v 0.281360 0.321510 0.011776
v 0.281398 0.207955 0.011633
v 0.281679 0.320374 0.010584
v 0.281708 0.209335 0.010476
v 0.281940 0.319032 0.009612
v 0.281958 0.210888 0.009544
v 0.282132 0.317528 0.008894
v 0.282141 0.212573 0.008862
v 0.282250 0.315914 0.008453
v 0.282253 0.214349 0.008445
v 0.282290 0.314244 0.008305
v 0.282290 0.216171 0.008305
v 0.282290 0.216171 0.008305
v 0.282290 0.314244 0.008305
v 0.282253 0.214349 0.008445
v 0.282250 0.315914 0.008453
v 0.282141 0.212573 0.008862
v 0.282132 0.317528 0.008894
v 0.281958 0.210888 0.009544
v 0.281940 0.319032 0.009612
v 0.281708 0.209335 0.010476
v 0.281679 0.320374 0.010584
v 0.281398 0.207955 0.011633
v 0.281360 0.321510 0.011776
v 0.281036 0.206782 0.012987
v 0.280992 0.322402 0.013148
v 0.280629 0.205845 0.014502
v 0.280589 0.323019 0.014655
v 0.280190 0.205168 0.016142
v 0.280163 0.323341 0.016245
v 0.279728 0.204768 0.017865
v 0.279728 0.323356 0.017865
vn -0.9659258302448253 0 -0.2588190303394341
vn 0.9659258302448253 0 0.2588190303394341
usemtl material_0_0
f 21//2 22//2 23//2
f 22//2 24//2 23//2
f 23//2 24//2 25//2
f 24//2 26//2 25//2
f 25//2 26//2 27//2
f 26//2 28//2 27//2
f 27//2 28//2 29//2
f 28//2 30//2 29//2
f 29//2 30//2 31//2
f 30//2 32//2 31//2
f 31//2 32//2 33//2
f 32//2 34//2 33//2
f 33//2 34//2 35//2
f 34//2 36//2 35//2
f 35//2 36//2 37//2
f 36//2 38//2 37//2
f 37//2 38//2 39//2
f 40//2 39//2 38//2
usemtl material_1_0
f 1//1 2//1 3//1
f 2//1 1//1 4//1
f 4//1 1//1 5//1
f 4//1 5//1 6//1
f 6//1 5//1 7//1
f 6//1 7//1 8//1
f 8//1 7//1 9//1
f 8//1 9//1 10//1
f 10//1 9//1 11//1
f 10//1 11//1 12//1
f 12//1 11//1 13//1
f 12//1 13//1 14//1
f 14//1 13//1 15//1
f 14//1 15//1 16//1
f 16//1 15//1 17//1
f 16//1 17//1 18//1
f 18//1 17//1 19//1
f 18//1 19//1 20//1
