# SSTK version 0.8.0
# 15
mtllib original-15.mtl
o #ID108
v -0.005958 0.516212 0.240066
v 0.012016 0.537469 0.219909
v 0.013638 0.516096 0.238453
v -0.005958 0.537469 0.221481
v -0.005958 0.537469 0.221481
v -0.005958 0.516212 0.240066
v 0.012016 0.537469 0.219909
v 0.013638 0.516096 0.238453
v 0.011661 0.544555 0.215849
v -0.005958 0.544555 0.217390
v -0.005958 0.544555 0.217390
v 0.011661 0.544555 0.215849
vn 0.0010422800541133848 -0.34602571796505915 -0.938224448710997
vn -0.07097349791271451 -0.5804027829307229 -0.8112307761422183
vn -0.07961508912920646 -0.3491106961815864 -0.9336932897876885
vn 0 -0.5844111855139867 -0.8114576798861024
vn -0.07555232490409279 -0.4985418323602934 -0.8635669560540327
vn 0 -0.49997082674007043 -0.8660422463187638
vn 0 0.5844111855139867 0.8114576798861024
vn -0.0010422800541133848 0.34602571796505915 0.938224448710997
vn 0.07097349791271451 0.5804027829307229 0.8112307761422183
vn 0.07961508912920646 0.3491106961815864 0.9336932897876885
vn 0 0.49997082674007043 0.8660422463187638
vn 0.07555232490409279 0.4985418323602934 0.8635669560540327
usemtl material_0_0
f 1//1 2//2 3//3
f 2//2 1//1 4//4
f 4//4 9//5 2//2
f 9//5 4//4 10//6
usemtl material_1_0
f 5//7 6//8 7//9
f 8//10 7//9 6//8
f 11//11 5//7 12//12
f 7//9 12//12 5//7
