# SSTK version 0.8.0
# 33
mtllib original-33.mtl
o #ID228
v 0.183061 0.361133 0.177484
v 0.183061 0.301234 0.177484
v 0.175134 0.361133 0.183034
v 0.175134 0.361133 0.183034
v 0.183061 0.301234 0.177484
v 0.183061 0.361133 0.177484
v 0.198336 0.167515 0.162209
v 0.207801 0.361133 0.152744
v 0.219306 0.167515 0.141239
v 0.214686 0.306115 0.145859
v 0.219306 0.343034 0.141239
v 0.219306 0.343034 0.141239
v 0.214686 0.306115 0.145859
v 0.219306 0.167515 0.141239
v 0.207801 0.361133 0.152744
v 0.198336 0.167515 0.162209
v 0.224866 0.167515 0.133298
v 0.221143 0.361133 0.138615
v 0.241169 0.361133 0.110016
v 0.231156 0.227831 0.124315
v 0.237445 0.167515 0.115333
v 0.248706 0.167515 0.099251
v 0.246753 0.306115 0.102040
v 0.248706 0.325353 0.099251
v 0.248706 0.325353 0.099251
v 0.246753 0.306115 0.102040
v 0.248706 0.167515 0.099251
v 0.241169 0.361133 0.110016
v 0.237445 0.167515 0.115333
v 0.231156 0.227831 0.124315
v 0.224866 0.167515 0.133298
v 0.221143 0.361133 0.138615
v 0.257039 0.167515 0.081381
v 0.251382 0.361133 0.093512
v 0.266132 0.300692 0.061882
v 0.270369 0.361133 0.052795
v 0.270369 0.167515 0.052795
v 0.266132 0.167515 0.061882
v 0.266132 0.300692 0.061882
v 0.266132 0.167515 0.061882
v 0.270369 0.167515 0.052795
v 0.270369 0.361133 0.052795
v 0.251382 0.361133 0.093512
v 0.257039 0.167515 0.081381
v 0.283636 0.361133 0.003283
v 0.279728 0.323356 0.017865
v 0.280163 0.323341 0.016245
v 0.280589 0.323019 0.014655
v 0.280992 0.322402 0.013148
v 0.281360 0.321510 0.011776
v 0.281679 0.320374 0.010584
v 0.281940 0.319032 0.009612
v 0.282132 0.317528 0.008894
v 0.282250 0.315914 0.008453
v 0.282290 0.314244 0.008305
v 0.282290 0.216171 0.008305
v 0.283636 0.167515 0.003283
v 0.279728 0.204768 0.017865
v 0.280190 0.205168 0.016142
v 0.280629 0.205845 0.014502
v 0.281036 0.206782 0.012987
v 0.281398 0.207955 0.011633
v 0.281708 0.209335 0.010476
v 0.281958 0.210888 0.009544
v 0.282141 0.212573 0.008862
v 0.282253 0.214349 0.008445
v 0.282290 0.216171 0.008305
v 0.282253 0.214349 0.008445
v 0.283636 0.167515 0.003283
v 0.282141 0.212573 0.008862
v 0.281958 0.210888 0.009544
v 0.281708 0.209335 0.010476
v 0.281398 0.207955 0.011633
v 0.281036 0.206782 0.012987
v 0.280629 0.205845 0.014502
v 0.280190 0.205168 0.016142
v 0.279728 0.204768 0.017865
v 0.279728 0.323356 0.017865
v 0.283636 0.361133 0.003283
v 0.282290 0.314244 0.008305
v 0.282250 0.315914 0.008453
v 0.282132 0.317528 0.008894
v 0.281940 0.319032 0.009612
v 0.281679 0.320374 0.010584
v 0.281360 0.321510 0.011776
v 0.280992 0.322402 0.013148
v 0.280589 0.323019 0.014655
v 0.280163 0.323341 0.016245
v 0.285115 0.167515 -0.013625
v 0.285115 0.361133 -0.013625
v 0.285515 0.360732 -0.018195
v 0.285515 0.167916 -0.018195
v 0.285902 0.169108 -0.022627
v 0.285902 0.359540 -0.022627
v 0.286266 0.357594 -0.026784
v 0.286266 0.171054 -0.026784
v 0.286595 0.173696 -0.030542
v 0.286595 0.354952 -0.030542
v 0.286879 0.351696 -0.033786
v 0.286879 0.176952 -0.033786
v 0.287109 0.347924 -0.036418
v 0.287109 0.180725 -0.036418
v 0.287279 0.343750 -0.038357
v 0.287279 0.184898 -0.038357
v 0.287382 0.339302 -0.039544
v 0.287382 0.189347 -0.039544
v 0.287417 0.193934 -0.039944
v 0.287417 0.334714 -0.039944
v 0.287417 0.334714 -0.039944
v 0.287382 0.339302 -0.039544
v 0.287417 0.193934 -0.039944
v 0.287382 0.189347 -0.039544
v 0.287279 0.184898 -0.038357
v 0.287279 0.343750 -0.038357
v 0.287109 0.180725 -0.036418
v 0.287109 0.347924 -0.036418
v 0.286879 0.176952 -0.033786
v 0.286879 0.351696 -0.033786
v 0.286595 0.173696 -0.030542
v 0.286595 0.354952 -0.030542
v 0.286266 0.357594 -0.026784
v 0.286266 0.171054 -0.026784
v 0.285902 0.169108 -0.022627
v 0.285902 0.359540 -0.022627
v 0.285515 0.360732 -0.018195
v 0.285515 0.167916 -0.018195
v 0.285115 0.167515 -0.013625
v 0.285115 0.361133 -0.013625
vt 0.09517151 0.9014665
vt 0.09517151 0.7608536
vt 0.07989489 0.9014665
vt 0.1292751 0.4469493
vt 0.150406 0.9014665
vt 0.1760923 0.4469493
vt 0.1657775 0.7723109
vt 0.1760923 0.8589784
vt 0.1913963 0.4469493
vt 0.181149 0.9014665
vt 0.2362664 0.9014665
vt 0.2087077 0.5885408
vt 0.2260192 0.4469493
vt 0.257013 0.4469493
vt 0.251638 0.7723109
vt 0.257013 0.8174735
vt 0.2881404 0.4469493
vt 0.2670095 0.9014665
vt 0.3221057 0.7595816
vt 0.3379338 0.9014665
vt 0.3379338 0.4469493
vt 0.3221057 0.4469493
vt 0.4188545 0.9014665
vt 0.3950224 0.8127853
vt 0.3976703 0.8127487
vt 0.4002691 0.8119934
vt 0.4027315 0.810545
vt 0.4049744 0.808452
vt 0.4069225 0.805785
vt 0.4085102 0.8026337
vt 0.409684 0.7991042
vt 0.4104045 0.7953152
vt 0.4106474 0.7913943
vt 0.4106474 0.5611696
vt 0.4188545 0.4469493
vt 0.3950224 0.5344001
vt 0.3978378 0.5353389
vt 0.400518 0.5369281
vt 0.4029953 0.5391276
vt 0.4052074 0.5418822
vt 0.4070987 0.5451225
vt 0.4086215 0.5487668
vt 0.4097375 0.5527233
vt 0.4104185 0.5568926
vt 0.4456491 0.4469493
vt 0.4456491 0.9014665
vt 0.4528916 0.9005243
vt 0.4528916 0.4478916
vt 0.459914 0.4506896
vt 0.459914 0.8977263
vt 0.4665031 0.8931575
vt 0.4665031 0.4552584
vt 0.4724584 0.4614591
vt 0.4724584 0.8869567
vt 0.4775992 0.8793124
vt 0.4775992 0.4691034
vt 0.4817692 0.8704568
vt 0.4817692 0.477959
vt 0.4848417 0.860659
vt 0.4848417 0.4877568
vt 0.4867234 0.8502167
vt 0.4867234 0.4981991
vt 0.487357 0.5089686
vt 0.487357 0.8394472
vn -0.6366434568631595 0 -0.7711582903874707
vn -0.5735764391196354 0 -0.8191520423504048
vn -0.7071067138243232 0 -0.7071068485487654
vn -0.7622743994209661 0 -0.6472539995916639
vn -0.8191521082409186 0 -0.5735763450182185
vn -0.8639668869442387 0 -0.5035486255207942
vn -0.9063077530186316 0 -0.42261833469256765
vn -0.9387951100459481 0 -0.3444760388674607
vn -0.9845857635831297 0 -0.17490247039257467
vn -0.9659258302448253 0 -0.2588190303394341
vn -0.9961946968573162 0 -0.08715575685725005
vn 0.5735764391196354 0 0.8191520423504048
vn 0.6366434568631595 0 0.7711582903874707
vn 0.7622743994209661 0 0.6472539995916639
vn 0.7071067138243232 0 0.7071068485487654
vn 0.8639668869442387 0 0.5035486255207942
vn 0.8191521082409186 0 0.5735763450182185
vn 0.9063077530186316 0 0.42261833469256765
vn 0.9387951100459481 0 0.3444760388674607
vn 0.9659258302448253 0 0.2588190303394341
vn 0.9845857635831297 0 0.17490247039257467
vn 0.9961946968573162 0 0.08715575685725005
usemtl material_0_0
f 4//12 5//13 6//13
f 12//14 13//15 14//14
f 13//15 15//15 14//14
f 14//14 15//15 16//15
f 15//15 6//13 16//15
f 5//13 16//15 6//13
f 25//16 26//17 27//16
f 26//17 28//17 27//16
f 27//16 28//17 29//17
f 29//17 28//17 30//17
f 30//17 28//17 31//17
f 28//17 32//17 31//17
f 32//17 12//14 31//17
f 14//14 31//17 12//14
f 39//18 40//18 41//19
f 41//19 42//19 39//18
f 42//19 43//18 39//18
f 39//18 43//18 44//18
f 43//18 25//16 44//18
f 27//16 44//18 25//16
f 67//20 68//20 69//21
f 68//20 70//20 69//21
f 70//20 71//20 69//21
f 71//20 72//20 69//21
f 72//20 73//20 69//21
f 73//20 74//20 69//21
f 74//20 75//20 69//21
f 75//20 76//20 69//21
f 76//20 77//20 69//21
f 78//20 42//19 77//20
f 42//19 41//19 77//20
f 69//21 77//20 41//19
f 69//21 79//21 67//20
f 67//20 79//21 80//20
f 80//20 79//21 81//20
f 81//20 79//21 82//20
f 82//20 79//21 83//20
f 83//20 79//21 84//20
f 84//20 79//21 85//20
f 85//20 79//21 86//20
f 86//20 79//21 87//20
f 87//20 79//21 88//20
f 88//20 79//21 78//20
f 42//19 78//20 79//21
f 109//22 110//22 111//22
f 111//22 110//22 112//22
f 112//22 110//22 113//22
f 110//22 114//22 113//22
f 113//22 114//22 115//22
f 114//22 116//22 115//22
f 115//22 116//22 117//22
f 116//22 118//22 117//22
f 117//22 118//22 119//22
f 118//22 120//22 119//22
f 120//22 121//22 119//22
f 119//22 121//22 122//22
f 122//22 121//22 123//22
f 121//22 124//22 123//22
f 124//22 125//22 123//22
f 123//22 125//22 126//22
f 126//22 125//22 127//22
f 125//22 128//22 127//22
f 128//22 79//21 127//22
f 69//21 127//22 79//21
usemtl material_1_0
f 1/1/1 2/2/1 3/3/2
f 1/1/1 7/4/3 2/2/1
f 7/4/3 1/1/1 8/5/3
f 7/4/3 8/5/3 9/6/4
f 9/6/4 8/5/3 10/7/3
f 9/6/4 10/7/3 11/8/4
f 11/8/4 17/9/5 9/6/4
f 17/9/5 11/8/4 18/10/5
f 17/9/5 18/10/5 19/11/5
f 17/9/5 19/11/5 20/12/5
f 20/12/5 19/11/5 21/13/5
f 21/13/5 19/11/5 22/14/6
f 22/14/6 19/11/5 23/15/5
f 22/14/6 23/15/5 24/16/6
f 24/16/6 33/17/7 22/14/6
f 33/17/7 24/16/6 34/18/7
f 33/17/7 34/18/7 35/19/7
f 35/19/7 34/18/7 36/20/8
f 35/19/7 36/20/8 37/21/8
f 37/21/8 38/22/7 35/19/7
f 45/23/9 46/24/10 36/20/8
f 46/24/10 45/23/9 47/25/10
f 47/25/10 45/23/9 48/26/10
f 48/26/10 45/23/9 49/27/10
f 49/27/10 45/23/9 50/28/10
f 50/28/10 45/23/9 51/29/10
f 51/29/10 45/23/9 52/30/10
f 52/30/10 45/23/9 53/31/10
f 53/31/10 45/23/9 54/32/10
f 54/32/10 45/23/9 55/33/10
f 55/33/10 45/23/9 56/34/10
f 56/34/10 45/23/9 57/35/9
f 37/21/8 58/36/10 57/35/9
f 58/36/10 37/21/8 36/20/8
f 58/36/10 36/20/8 46/24/10
f 57/35/9 58/36/10 59/37/10
f 57/35/9 59/37/10 60/38/10
f 57/35/9 60/38/10 61/39/10
f 57/35/9 61/39/10 62/40/10
f 57/35/9 62/40/10 63/41/10
f 57/35/9 63/41/10 64/42/10
f 57/35/9 64/42/10 65/43/10
f 57/35/9 65/43/10 66/44/10
f 57/35/9 66/44/10 56/34/10
f 45/23/9 89/45/11 57/35/9
f 89/45/11 45/23/9 90/46/11
f 89/45/11 90/46/11 91/47/11
f 89/45/11 91/47/11 92/48/11
f 92/48/11 91/47/11 93/49/11
f 93/49/11 91/47/11 94/50/11
f 93/49/11 94/50/11 95/51/11
f 93/49/11 95/51/11 96/52/11
f 96/52/11 95/51/11 97/53/11
f 97/53/11 95/51/11 98/54/11
f 97/53/11 98/54/11 99/55/11
f 97/53/11 99/55/11 100/56/11
f 100/56/11 99/55/11 101/57/11
f 100/56/11 101/57/11 102/58/11
f 102/58/11 101/57/11 103/59/11
f 102/58/11 103/59/11 104/60/11
f 104/60/11 103/59/11 105/61/11
f 104/60/11 105/61/11 106/62/11
f 106/62/11 105/61/11 107/63/11
f 107/63/11 105/61/11 108/64/11
