# SSTK version 0.8.0
# 22
mtllib original-22.mtl
o #ID154
v -0.055942 -0.886780 0.235693
v -0.102912 -0.900952 0.218597
v -0.055183 -0.900952 0.231386
v -0.104408 -0.886780 0.222707
v -0.147695 -0.900952 0.197715
v -0.149882 -0.886780 0.201502
v -0.005958 -0.900952 0.235693
v -0.005958 -0.886780 0.240066
v -0.188171 -0.900952 0.169373
v -0.190982 -0.886780 0.172723
v -0.223111 -0.900952 0.134433
v -0.226461 -0.886780 0.137244
v -0.251453 -0.900952 0.093956
v -0.255240 -0.886780 0.096143
v -0.272336 -0.900952 0.049173
v -0.276445 -0.886780 0.050669
v -0.285125 -0.900952 0.001445
v -0.289431 -0.886780 0.002204
v -0.289431 -0.900952 -0.047780
v -0.293804 -0.886780 -0.047780
v -0.285125 -0.900952 -0.097005
v -0.289431 -0.886780 -0.097764
v -0.272336 -0.900952 -0.144734
v -0.276445 -0.886780 -0.146229
v -0.251453 -0.900952 -0.189517
v -0.255240 -0.886780 -0.191703
v -0.223111 -0.900952 -0.229993
v -0.226461 -0.886780 -0.232804
v -0.190982 -0.886780 -0.268283
v -0.188171 -0.900952 -0.264933
v -0.149882 -0.886780 -0.297062
v -0.147695 -0.900952 -0.293275
v -0.104408 -0.886780 -0.318267
v -0.102912 -0.900952 -0.314157
v -0.055942 -0.886780 -0.331253
v -0.055183 -0.900952 -0.326946
v -0.005958 -0.886780 -0.335626
v -0.005958 -0.900952 -0.331253
v 0.043266 -0.900952 -0.326946
v 0.044025 -0.886780 -0.331253
v 0.090995 -0.900952 -0.314157
v 0.092491 -0.886780 -0.318267
v 0.135778 -0.900952 -0.293275
v 0.137965 -0.886780 -0.297062
v 0.176254 -0.900952 -0.264933
v 0.179065 -0.886780 -0.268283
v 0.211194 -0.900952 -0.229993
v 0.214544 -0.886780 -0.232804
v 0.239536 -0.900952 -0.189517
v 0.243324 -0.886780 -0.191703
v 0.260419 -0.900952 -0.144734
v 0.264528 -0.886780 -0.146229
v 0.249133 -0.886780 -0.179245
v 0.273208 -0.900952 -0.097005
v 0.277515 -0.886780 -0.097764
v 0.277515 -0.900952 -0.047780
v 0.281888 -0.886780 -0.047780
v 0.273208 -0.900952 0.001445
v 0.277515 -0.886780 0.002204
v 0.260419 -0.900952 0.049173
v 0.264528 -0.886780 0.050669
v 0.239536 -0.900952 0.093956
v 0.243324 -0.886780 0.096143
v 0.211194 -0.900952 0.134433
v 0.214544 -0.886780 0.137244
v 0.179065 -0.886780 0.172723
v 0.176254 -0.900952 0.169373
v 0.137965 -0.886780 0.201502
v 0.135778 -0.900952 0.197715
v 0.092491 -0.886780 0.222707
v 0.090995 -0.900952 0.218597
v 0.044025 -0.886780 0.235693
v 0.043266 -0.900952 0.231386
vn -0.16926249996914602 -0.22332539995929118 0.9599353998250183
vn -0.3268143889113824 -0.2948570899956745 0.8979151695342731
vn -0.16592800662014098 -0.294857111764112 0.9410245375446874
vn -0.3333820948476365 -0.223325396548544 0.9159596858439989
vn -0.47777069230012575 -0.2948570952480079 0.827523086663427
vn -0.4873720029051855 -0.22332540133122486 0.8441530050319285
vn -0.0006340656357939683 -0.29563631668911916 0.955300353928156
vn -0.0009686194688287046 -0.22391729279408237 0.9746076686359972
vn -0.614210139638412 -0.29485711902877726 0.7319871472392203
vn -0.6265533061045433 -0.22332540217587166 0.7466972072751119
vn -0.7319871472392203 -0.29485711902877726 0.614210139638412
vn -0.7466972072751119 -0.22332540217587166 0.6265533061045433
vn -0.827523086663427 -0.2948570952480079 0.47777069230012575
vn -0.8441530050319285 -0.22332540133122486 0.4873720029051855
vn -0.8979151695342731 -0.2948570899956745 0.3268143889113824
vn -0.9159596858439989 -0.223325396548544 0.3333820948476365
vn -0.9410245375446874 -0.294857111764112 0.16592800662014098
vn -0.9599353998250181 -0.22332539995929113 0.169262499969146
vn -0.9555413634341225 -0.2948570887166494 0
vn -0.9747439463625419 -0.2233254106222088 0
vn -0.9410245375446874 -0.294857111764112 -0.16592800662014098
vn -0.9599353998250181 -0.22332539995929113 -0.169262499969146
vn -0.8979151695342731 -0.2948570899956745 -0.3268143889113824
vn -0.9159596858439989 -0.223325396548544 -0.3333820948476365
vn -0.827523086663427 -0.2948570952480079 -0.47777069230012575
vn -0.8441530050319285 -0.22332540133122486 -0.4873720029051855
vn -0.7319871472392203 -0.29485711902877726 -0.614210139638412
vn -0.7466972072751119 -0.22332540217587166 -0.6265533061045433
vn -0.6265533061045433 -0.22332540217587166 -0.7466972072751119
vn -0.614210139638412 -0.29485711902877726 -0.7319871472392203
vn -0.4873720029051855 -0.22332540133122486 -0.8441530050319285
vn -0.47777069230012575 -0.2948570952480079 -0.827523086663427
vn -0.3333820948476365 -0.223325396548544 -0.9159596858439989
vn -0.3268143889113824 -0.2948570899956745 -0.8979151695342731
vn -0.16926249996914602 -0.22332539995929118 -0.9599353998250183
vn -0.16592800662014098 -0.294857111764112 -0.9410245375446874
vn 0 -0.2233254106222088 -0.9747439463625419
vn 0 -0.2948570887166494 -0.9555413634341225
vn 0.16592800662014098 -0.294857111764112 -0.9410245375446874
vn 0.16926249996914602 -0.22332539995929118 -0.9599353998250183
vn 0.3268143889113824 -0.2948570899956745 -0.8979151695342731
vn 0.3333820948476365 -0.223325396548544 -0.9159596858439989
vn 0.47777069230012575 -0.2948570952480079 -0.827523086663427
vn 0.4873720029051855 -0.22332540133122486 -0.8441530050319285
vn 0.614210139638412 -0.29485711902877726 -0.7319871472392203
vn 0.6265533061045433 -0.22332540217587166 -0.7466972072751119
vn 0.7319871472392203 -0.29485711902877726 -0.614210139638412
vn 0.7466972072751119 -0.22332540217587166 -0.6265533061045433
vn 0.827523086663427 -0.2948570952480079 -0.47777069230012575
vn 0.8441530050319285 -0.22332540133122486 -0.4873720029051855
vn 0.8979151695342731 -0.2948570899956745 -0.3268143889113824
vn 0.9159596858439989 -0.223325396548544 -0.3333820948476365
vn 0.8962502201535217 -0.14856470334069874 -0.4179283093977408
vn 0.9410245375446874 -0.294857111764112 -0.16592800662014098
vn 0.9599353998250181 -0.22332539995929113 -0.169262499969146
vn 0.9555413634341225 -0.2948570887166494 0
vn 0.9747439463625419 -0.2233254106222088 0
vn 0.9410245375446874 -0.294857111764112 0.16592800662014098
vn 0.9599353998250181 -0.22332539995929113 0.169262499969146
vn 0.8979151695342731 -0.2948570899956745 0.3268143889113824
vn 0.9159596858439989 -0.223325396548544 0.3333820948476365
vn 0.827523086663427 -0.2948570952480079 0.47777069230012575
vn 0.8441530050319285 -0.22332540133122486 0.4873720029051855
vn 0.7319871472392203 -0.29485711902877726 0.614210139638412
vn 0.7466972072751119 -0.22332540217587166 0.6265533061045433
vn 0.6265533061045433 -0.22332540217587166 0.7466972072751119
vn 0.614210139638412 -0.29485711902877726 0.7319871472392203
vn 0.4873720029051855 -0.22332540133122486 0.8441530050319285
vn 0.47777069230012575 -0.2948570952480079 0.827523086663427
vn 0.3333820948476365 -0.223325396548544 0.9159596858439989
vn 0.3268143889113824 -0.2948570899956745 0.8979151695342731
vn 0.16991189611247196 -0.22387219487787813 0.9596932780425348
vn 0.16634350246618052 -0.2955747043821404 0.940726013947044
usemtl material_0_0
f 1//1 2//2 3//3
f 2//2 1//1 4//4
f 4//4 5//5 2//2
f 5//5 4//4 6//6
f 1//1 7//7 8//8
f 7//7 1//1 3//3
f 6//6 9//9 5//5
f 9//9 6//6 10//10
f 10//10 11//11 9//9
f 11//11 10//10 12//12
f 12//12 13//13 11//11
f 13//13 12//12 14//14
f 14//14 15//15 13//13
f 15//15 14//14 16//16
f 16//16 17//17 15//15
f 17//17 16//16 18//18
f 18//18 19//19 17//17
f 19//19 18//18 20//20
f 20//20 21//21 19//19
f 21//21 20//20 22//22
f 22//22 23//23 21//21
f 23//23 22//22 24//24
f 24//24 25//25 23//23
f 25//25 24//24 26//26
f 26//26 27//27 25//25
f 27//27 26//26 28//28
f 27//27 29//29 30//30
f 29//29 27//27 28//28
f 30//30 31//31 32//32
f 31//31 30//30 29//29
f 32//32 33//33 34//34
f 33//33 32//32 31//31
f 34//34 35//35 36//36
f 35//35 34//34 33//33
f 36//36 37//37 38//38
f 37//37 36//36 35//35
f 39//39 37//37 40//40
f 37//37 39//39 38//38
f 41//41 40//40 42//42
f 40//40 41//41 39//39
f 43//43 42//42 44//44
f 42//42 43//43 41//41
f 45//45 44//44 46//46
f 44//44 45//45 43//43
f 47//47 46//46 48//48
f 46//46 47//47 45//45
f 48//48 49//49 47//47
f 49//49 48//48 50//50
f 50//50 51//51 49//49
f 51//51 50//50 52//52
f 52//52 50//50 53//53
f 52//52 54//54 51//51
f 54//54 52//52 55//55
f 55//55 56//56 54//54
f 56//56 55//55 57//57
f 57//57 58//58 56//56
f 58//58 57//57 59//59
f 59//59 60//60 58//58
f 60//60 59//59 61//61
f 61//61 62//62 60//60
f 62//62 61//61 63//63
f 63//63 64//64 62//62
f 64//64 63//63 65//65
f 66//66 64//64 65//65
f 64//64 66//66 67//67
f 68//68 67//67 66//66
f 67//67 68//68 69//69
f 70//70 69//69 68//68
f 69//69 70//70 71//71
f 72//72 71//71 70//70
f 71//71 72//72 73//73
