# SSTK version 0.8.0
# 36
mtllib original-36.mtl
o #ID252
v 0.179429 0.175120 -0.275587
v 0.179429 0.168289 -0.275587
v 0.179797 0.171704 -0.275329
v 0.178349 0.178303 -0.276343
v 0.178446 0.171704 -0.276275
v 0.178124 0.174693 -0.276501
v 0.176631 0.181036 -0.277546
v 0.177179 0.177478 -0.277163
v 0.175676 0.179869 -0.278215
v 0.174392 0.183133 -0.279114
v 0.173717 0.181704 -0.279587
v 0.171785 0.184451 -0.280940
v 0.171435 0.182858 -0.281184
v 0.168987 0.184901 -0.282898
v 0.168987 0.183251 -0.282898
v 0.166189 0.184451 -0.284857
v 0.166539 0.182858 -0.284613
v 0.164258 0.181704 -0.286210
v 0.163582 0.183133 -0.286683
v 0.162299 0.179869 -0.287582
v 0.161343 0.181036 -0.288251
v 0.160796 0.177478 -0.288634
v 0.159626 0.178303 -0.289453
v 0.159851 0.174693 -0.289296
v 0.159528 0.171704 -0.289522
v 0.158546 0.175120 -0.290210
v 0.178349 0.165106 -0.276343
v 0.178124 0.168716 -0.276501
v 0.176631 0.162373 -0.277546
v 0.177179 0.165931 -0.277163
v 0.175676 0.163539 -0.278215
v 0.174392 0.160276 -0.279114
v 0.173717 0.161704 -0.279587
v 0.171785 0.158957 -0.280940
v 0.171435 0.160551 -0.281184
v 0.168987 0.158508 -0.282898
v 0.168987 0.160157 -0.282898
v 0.166539 0.160551 -0.284613
v 0.166189 0.158957 -0.284857
v 0.164258 0.161704 -0.286210
v 0.163582 0.160276 -0.286683
v 0.162299 0.163539 -0.287582
v 0.161343 0.162373 -0.288251
v 0.160796 0.165931 -0.288634
v 0.159626 0.165106 -0.289453
v 0.159851 0.168716 -0.289296
v 0.158546 0.168289 -0.290210
v 0.158177 0.171704 -0.290468
v 0.158177 0.171704 -0.290468
v 0.158546 0.175120 -0.290210
v 0.158546 0.168289 -0.290210
v 0.159528 0.171704 -0.289522
v 0.159626 0.165106 -0.289453
v 0.159851 0.168716 -0.289296
v 0.160796 0.165931 -0.288634
v 0.161343 0.162373 -0.288251
v 0.162299 0.163539 -0.287582
v 0.163582 0.160276 -0.286683
v 0.164258 0.161704 -0.286210
v 0.166189 0.158957 -0.284857
v 0.166539 0.160551 -0.284613
v 0.168987 0.158508 -0.282898
v 0.168987 0.160157 -0.282898
v 0.171435 0.160551 -0.281184
v 0.171785 0.158957 -0.280940
v 0.173717 0.161704 -0.279587
v 0.174392 0.160276 -0.279114
v 0.175676 0.163539 -0.278215
v 0.176631 0.162373 -0.277546
v 0.177179 0.165931 -0.277163
v 0.178124 0.168716 -0.276501
v 0.178349 0.165106 -0.276343
v 0.178446 0.171704 -0.276275
v 0.179429 0.168289 -0.275587
v 0.159626 0.178303 -0.289453
v 0.159851 0.174693 -0.289296
v 0.160796 0.177478 -0.288634
v 0.161343 0.181036 -0.288251
v 0.162299 0.179869 -0.287582
v 0.163582 0.183133 -0.286683
v 0.164258 0.181704 -0.286210
v 0.166189 0.184451 -0.284857
v 0.166539 0.182858 -0.284613
v 0.168987 0.183251 -0.282898
v 0.168987 0.184901 -0.282898
v 0.171435 0.182858 -0.281184
v 0.171785 0.184451 -0.280940
v 0.173717 0.181704 -0.279587
v 0.174392 0.183133 -0.279114
v 0.175676 0.179869 -0.278215
v 0.176631 0.181036 -0.277546
v 0.177179 0.177478 -0.277163
v 0.178124 0.174693 -0.276501
v 0.178349 0.178303 -0.276343
v 0.179429 0.175120 -0.275587
v 0.179797 0.171704 -0.275329
vt 0.9113781 0.4648021
vt 0.9113781 0.4487662
vt 0.9106682 0.4567841
vt 0.9134593 0.4722736
vt 0.9132723 0.4567841
vt 0.9138935 0.4637998
vt 0.9167701 0.4786896
vt 0.9157146 0.4703374
vt 0.9186115 0.4759514
vt 0.9210848 0.4836127
vt 0.9223869 0.4802591
vt 0.9261094 0.4867075
vt 0.9267835 0.4829671
vt 0.9315015 0.4877631
vt 0.9315015 0.4838907
vt 0.9368936 0.4867075
vt 0.9362196 0.4829671
vt 0.9406161 0.4802591
vt 0.9419182 0.4836127
vt 0.9443915 0.4759514
vt 0.9462329 0.4786896
vt 0.9472884 0.4703374
vt 0.9495437 0.4722736
vt 0.9491095 0.4637998
vt 0.9497307 0.4567841
vt 0.951625 0.4648021
vt 0.9134593 0.4412947
vt 0.9138935 0.4497685
vt 0.9167701 0.4348787
vt 0.9157146 0.4432309
vt 0.9186115 0.4376169
vt 0.9210848 0.4299556
vt 0.9223869 0.4333092
vt 0.9261094 0.4268608
vt 0.9267835 0.4306012
vt 0.9315015 0.4258052
vt 0.9315015 0.4296776
vt 0.9362196 0.4306012
vt 0.9368936 0.4268608
vt 0.9406161 0.4333092
vt 0.9419182 0.4299556
vt 0.9443915 0.4376169
vt 0.9462329 0.4348787
vt 0.9472884 0.4432309
vt 0.9495437 0.4412947
vt 0.9491095 0.4497685
vt 0.951625 0.4487662
vt 0.9523348 0.4567841
vn -0.5735764391196354 0 0.8191520423504048
vn 0.5735764391196354 0 -0.8191520423504048
usemtl material_0_0
f 49//2 50//2 51//2
f 50//2 52//2 51//2
f 51//2 52//2 53//2
f 52//2 54//2 53//2
f 54//2 55//2 53//2
f 53//2 55//2 56//2
f 55//2 57//2 56//2
f 56//2 57//2 58//2
f 57//2 59//2 58//2
f 58//2 59//2 60//2
f 59//2 61//2 60//2
f 60//2 61//2 62//2
f 61//2 63//2 62//2
f 63//2 64//2 62//2
f 62//2 64//2 65//2
f 64//2 66//2 65//2
f 65//2 66//2 67//2
f 66//2 68//2 67//2
f 67//2 68//2 69//2
f 68//2 70//2 69//2
f 70//2 71//2 69//2
f 69//2 71//2 72//2
f 71//2 73//2 72//2
f 74//2 72//2 73//2
f 50//2 75//2 52//2
f 52//2 75//2 76//2
f 76//2 75//2 77//2
f 75//2 78//2 77//2
f 77//2 78//2 79//2
f 78//2 80//2 79//2
f 79//2 80//2 81//2
f 80//2 82//2 81//2
f 81//2 82//2 83//2
f 83//2 82//2 84//2
f 82//2 85//2 84//2
f 84//2 85//2 86//2
f 85//2 87//2 86//2
f 86//2 87//2 88//2
f 87//2 89//2 88//2
f 88//2 89//2 90//2
f 89//2 91//2 90//2
f 90//2 91//2 92//2
f 92//2 91//2 93//2
f 91//2 94//2 93//2
f 93//2 94//2 73//2
f 73//2 94//2 74//2
f 94//2 95//2 74//2
f 96//2 74//2 95//2
usemtl material_1_0
f 1/1/1 2/2/1 3/3/1
f 2/2/1 1/1/1 4/4/1
f 2/2/1 4/4/1 5/5/1
f 5/5/1 4/4/1 6/6/1
f 6/6/1 4/4/1 7/7/1
f 6/6/1 7/7/1 8/8/1
f 8/8/1 7/7/1 9/9/1
f 9/9/1 7/7/1 10/10/1
f 9/9/1 10/10/1 11/11/1
f 11/11/1 10/10/1 12/12/1
f 11/11/1 12/12/1 13/13/1
f 13/13/1 12/12/1 14/14/1
f 13/13/1 14/14/1 15/15/1
f 15/15/1 14/14/1 16/16/1
f 15/15/1 16/16/1 17/17/1
f 17/17/1 16/16/1 18/18/1
f 18/18/1 16/16/1 19/19/1
f 18/18/1 19/19/1 20/20/1
f 20/20/1 19/19/1 21/21/1
f 20/20/1 21/21/1 22/22/1
f 22/22/1 21/21/1 23/23/1
f 22/22/1 23/23/1 24/24/1
f 24/24/1 23/23/1 25/25/1
f 25/25/1 23/23/1 26/26/1
f 5/5/1 27/27/1 2/2/1
f 27/27/1 5/5/1 28/28/1
f 27/27/1 28/28/1 29/29/1
f 29/29/1 28/28/1 30/30/1
f 29/29/1 30/30/1 31/31/1
f 29/29/1 31/31/1 32/32/1
f 32/32/1 31/31/1 33/33/1
f 32/32/1 33/33/1 34/34/1
f 34/34/1 33/33/1 35/35/1
f 34/34/1 35/35/1 36/36/1
f 36/36/1 35/35/1 37/37/1
f 36/36/1 37/37/1 38/38/1
f 36/36/1 38/38/1 39/39/1
f 39/39/1 38/38/1 40/40/1
f 39/39/1 40/40/1 41/41/1
f 41/41/1 40/40/1 42/42/1
f 41/41/1 42/42/1 43/43/1
f 43/43/1 42/42/1 44/44/1
f 43/43/1 44/44/1 45/45/1
f 45/45/1 44/44/1 46/46/1
f 45/45/1 46/46/1 25/25/1
f 45/45/1 25/25/1 47/47/1
f 47/47/1 25/25/1 26/26/1
f 47/47/1 26/26/1 48/48/1
