# SSTK version 0.8.0
# 40
mtllib original-40.mtl
o #ID284
v 0.284331 0.240854 -0.090890
v 0.283636 0.201197 -0.098843
v 0.284344 0.201197 -0.090741
v 0.283636 0.258222 -0.098843
v 0.283636 0.258222 -0.098843
v 0.284331 0.240854 -0.090890
v 0.283636 0.201197 -0.098843
v 0.284344 0.201197 -0.090741
v 0.271392 0.361133 -0.144536
v 0.274842 0.240854 -0.131663
v 0.270369 0.278448 -0.148355
v 0.270308 0.278760 -0.148485
v 0.270308 0.201197 -0.148485
v 0.274842 0.240854 -0.131663
v 0.270308 0.201197 -0.148485
v 0.270308 0.278760 -0.148485
v 0.271392 0.361133 -0.144536
v 0.270369 0.278448 -0.148355
v 0.270369 0.361133 -0.148355
v 0.270369 0.361133 -0.148355
v 0.250793 0.361133 -0.190335
v 0.270308 0.240854 -0.148485
v 0.270308 0.167515 -0.148485
v 0.250793 0.167515 -0.190335
v 0.250793 0.243204 -0.190335
v 0.250793 0.201197 -0.190335
v 0.248706 0.243204 -0.194811
v 0.248706 0.201197 -0.194811
v 0.270308 0.240854 -0.148485
v 0.248706 0.201197 -0.194811
v 0.248706 0.243204 -0.194811
v 0.250793 0.201197 -0.190335
v 0.250793 0.243204 -0.190335
v 0.250793 0.167515 -0.190335
v 0.250793 0.361133 -0.190335
v 0.270308 0.167515 -0.148485
v 0.245067 0.324967 -0.200009
v 0.245067 0.243204 -0.200009
v 0.245067 0.285444 -0.200009
v 0.244842 0.201197 -0.200330
v 0.244842 0.327451 -0.200330
v 0.244367 0.332682 -0.201008
v 0.244367 0.195966 -0.201008
v 0.243289 0.337714 -0.202547
v 0.243289 0.190934 -0.202547
v 0.241850 0.342464 -0.204602
v 0.241850 0.186185 -0.204602
v 0.240074 0.346853 -0.207139
v 0.240074 0.181795 -0.207139
v 0.237990 0.350809 -0.210115
v 0.237990 0.177839 -0.210115
v 0.235633 0.174380 -0.213481
v 0.235633 0.354268 -0.213481
v 0.233041 0.357172 -0.217183
v 0.233041 0.171476 -0.217183
v 0.230257 0.359473 -0.221159
v 0.230257 0.169175 -0.221159
v 0.227327 0.361133 -0.225343
v 0.227327 0.167515 -0.225343
v 0.223155 0.362324 -0.231302
v 0.223155 0.166324 -0.231302
v 0.219306 0.362959 -0.236799
v 0.219306 0.165690 -0.236799
v 0.219306 0.165690 -0.236799
v 0.219306 0.362959 -0.236799
v 0.223155 0.166324 -0.231302
v 0.223155 0.362324 -0.231302
v 0.227327 0.167515 -0.225343
v 0.227327 0.361133 -0.225343
v 0.230257 0.169175 -0.221159
v 0.230257 0.359473 -0.221159
v 0.233041 0.171476 -0.217183
v 0.233041 0.357172 -0.217183
v 0.235633 0.174380 -0.213481
v 0.235633 0.354268 -0.213481
v 0.237990 0.350809 -0.210115
v 0.237990 0.177839 -0.210115
v 0.240074 0.181795 -0.207139
v 0.240074 0.346853 -0.207139
v 0.241850 0.186185 -0.204602
v 0.241850 0.342464 -0.204602
v 0.243289 0.190934 -0.202547
v 0.243289 0.337714 -0.202547
v 0.244367 0.195966 -0.201008
v 0.244367 0.332682 -0.201008
v 0.244842 0.201197 -0.200330
v 0.244842 0.327451 -0.200330
v 0.245067 0.324967 -0.200009
v 0.245067 0.243204 -0.200009
v 0.245067 0.285444 -0.200009
v 0.218862 0.363018 -0.237243
v 0.218862 0.165630 -0.237243
v 0.217378 0.327451 -0.238727
v 0.217322 0.328366 -0.238783
v 0.213652 0.363211 -0.242453
v 0.217153 0.329254 -0.238951
v 0.216879 0.330086 -0.239226
v 0.216506 0.330839 -0.239599
v 0.216047 0.331488 -0.240058
v 0.215515 0.332015 -0.240590
v 0.214926 0.332403 -0.241179
v 0.214299 0.332641 -0.241806
v 0.213652 0.332721 -0.242453
v 0.208441 0.363018 -0.247664
v 0.213005 0.332641 -0.243100
v 0.212377 0.332403 -0.243728
v 0.211788 0.332015 -0.244317
v 0.211256 0.331488 -0.244849
v 0.210797 0.330839 -0.245308
v 0.210424 0.330086 -0.245681
v 0.210150 0.329254 -0.245955
v 0.209982 0.328366 -0.246123
v 0.209925 0.327451 -0.246180
v 0.209925 0.201197 -0.246180
v 0.217322 0.200282 -0.238783
v 0.213652 0.165437 -0.242453
v 0.217378 0.201197 -0.238727
v 0.217153 0.199395 -0.238951
v 0.216879 0.198562 -0.239226
v 0.216506 0.197810 -0.239599
v 0.216047 0.197160 -0.240058
v 0.215515 0.196633 -0.240590
v 0.214926 0.196245 -0.241179
v 0.214299 0.196007 -0.241806
v 0.213652 0.195927 -0.242453
v 0.213005 0.196007 -0.243100
v 0.208441 0.165630 -0.247664
v 0.212377 0.196245 -0.243728
v 0.211788 0.196633 -0.244317
v 0.211256 0.197160 -0.244849
v 0.210797 0.197810 -0.245308
v 0.210424 0.198562 -0.245681
v 0.210150 0.199395 -0.245955
v 0.209982 0.200282 -0.246123
v 0.203252 0.362324 -0.252853
v 0.203252 0.166324 -0.252853
v 0.198108 0.361133 -0.257996
v 0.198108 0.167515 -0.257996
v 0.194496 0.359473 -0.261609
v 0.194496 0.169175 -0.261609
v 0.191064 0.357172 -0.265041
v 0.191064 0.171476 -0.265041
v 0.187869 0.354268 -0.268236
v 0.187869 0.174380 -0.268236
v 0.184963 0.350809 -0.271142
v 0.184963 0.177839 -0.271142
v 0.183061 0.347880 -0.273044
v 0.183061 0.180769 -0.273044
v 0.183061 0.180769 -0.273044
v 0.183061 0.347880 -0.273044
v 0.184963 0.177839 -0.271142
v 0.184963 0.350809 -0.271142
v 0.187869 0.174380 -0.268236
v 0.187869 0.354268 -0.268236
v 0.191064 0.171476 -0.265041
v 0.191064 0.357172 -0.265041
v 0.194496 0.169175 -0.261609
v 0.194496 0.359473 -0.261609
v 0.198108 0.167515 -0.257996
v 0.198108 0.361133 -0.257996
v 0.203252 0.166324 -0.252853
v 0.203252 0.362324 -0.252853
v 0.208441 0.165630 -0.247664
v 0.208441 0.363018 -0.247664
v 0.209925 0.201197 -0.246180
v 0.209982 0.200282 -0.246123
v 0.210150 0.199395 -0.245955
v 0.210424 0.198562 -0.245681
v 0.210797 0.197810 -0.245308
v 0.211256 0.197160 -0.244849
v 0.211788 0.196633 -0.244317
v 0.212377 0.196245 -0.243728
v 0.213005 0.196007 -0.243100
v 0.213652 0.165437 -0.242453
v 0.213652 0.195927 -0.242453
v 0.214299 0.196007 -0.241806
v 0.214926 0.196245 -0.241179
v 0.215515 0.196633 -0.240590
v 0.216047 0.197160 -0.240058
v 0.216506 0.197810 -0.239599
v 0.216879 0.198562 -0.239226
v 0.217153 0.199395 -0.238951
v 0.217322 0.200282 -0.238783
v 0.217378 0.327451 -0.238727
v 0.218862 0.165630 -0.237243
v 0.217378 0.201197 -0.238727
v 0.209925 0.327451 -0.246180
v 0.209982 0.328366 -0.246123
v 0.210150 0.329254 -0.245955
v 0.210424 0.330086 -0.245681
v 0.210797 0.330839 -0.245308
v 0.211256 0.331488 -0.244849
v 0.211788 0.332015 -0.244317
v 0.212377 0.332403 -0.243728
v 0.213005 0.332641 -0.243100
v 0.213652 0.332721 -0.242453
v 0.213652 0.363211 -0.242453
v 0.214299 0.332641 -0.241806
v 0.214926 0.332403 -0.241179
v 0.215515 0.332015 -0.240590
v 0.216047 0.331488 -0.240058
v 0.216506 0.330839 -0.239599
v 0.216879 0.330086 -0.239226
v 0.217153 0.329254 -0.238951
v 0.217322 0.328366 -0.238783
v 0.218862 0.363018 -0.237243
v 0.182288 0.346853 -0.273585
v 0.182288 0.181795 -0.273585
v 0.179752 0.342464 -0.275361
v 0.179752 0.186185 -0.275361
v 0.177697 0.337714 -0.276800
v 0.177697 0.190934 -0.276800
v 0.176157 0.332682 -0.277878
v 0.176157 0.195966 -0.277878
v 0.175158 0.324967 -0.278577
v 0.175158 0.206374 -0.278577
v 0.175158 0.243204 -0.278577
v 0.175158 0.243204 -0.278577
v 0.175158 0.324967 -0.278577
v 0.175158 0.206374 -0.278577
v 0.176157 0.195966 -0.277878
v 0.176157 0.332682 -0.277878
v 0.177697 0.190934 -0.276800
v 0.177697 0.337714 -0.276800
v 0.179752 0.186185 -0.275361
v 0.179752 0.342464 -0.275361
v 0.182288 0.181795 -0.273585
v 0.182288 0.346853 -0.273585
vt 0.5680928 0.619112
vt 0.580696 0.5260183
vt 0.5678565 0.5260183
vt 0.580696 0.6598829
vt 0.6545895 0.9018367
vt 0.579911 0.5263885
vt 0.5799084 0.6602531
vt 0.6335542 0.6194822
vt 0.6608356 0.7077342
vt 0.6610483 0.7084653
vt 0.6610519 0.5263885
vt 0.6618393 0.7090645
vt 0.655375 0.9024359
vt 0.6616168 0.9024359
vt 0.7347416 0.9014665
vt 0.6618428 0.7080951
vt 0.6616168 0.9014665
vt 0.6618428 0.619112
vt 0.6618428 0.5260183
vt 0.6618428 0.4469493
vt 0.7347416 0.4469493
vt 0.7347416 0.6246285
vt 0.7347416 0.5260183
vt 0.7425375 0.6246285
vt 0.7425375 0.5260183
vt 0.6616168 0.7073639
vt 0.6587444 0.5260183
vt 0.6312411 0.619112
vt 0.6587444 0.619112
vt 0.7525547 0.8165663
vt 0.7525547 0.6246285
vt 0.7525547 0.7237873
vt 0.7531746 0.5260183
vt 0.7531746 0.8223976
vt 0.7544802 0.8346776
vt 0.7544802 0.5137382
vt 0.7574475 0.8464898
vt 0.7574475 0.5019261
vt 0.7614079 0.8576395
vt 0.7614079 0.4907763
vt 0.7662959 0.8679432
vt 0.7662959 0.4804727
vt 0.7720312 0.877231
vt 0.7720312 0.4711848
vt 0.7785193 0.4630657
vt 0.7785193 0.8853501
vt 0.7856532 0.8921667
vt 0.7856532 0.4562491
vt 0.7933155 0.8975685
vt 0.7933155 0.4508473
vt 0.8013799 0.9014665
vt 0.8013799 0.4469493
vt 0.8128638 0.9042623
vt 0.8128638 0.4441535
vt 0.8234583 0.9057513
vt 0.8234583 0.4426645
vt 0.8244489 0.9058906
vt 0.8244489 0.4425253
vt 0.8277617 0.8223976
vt 0.8278881 0.8245459
vt 0.8360816 0.9063436
vt 0.8282634 0.826629
vt 0.8288763 0.8285834
vt 0.8297082 0.83035
vt 0.8307337 0.8318749
vt 0.8319216 0.8331118
vt 0.833236 0.8340232
vt 0.8346369 0.8345814
vt 0.8360816 0.8347693
vt 0.8477144 0.9058906
vt 0.8375264 0.8345814
vt 0.8389272 0.8340232
vt 0.8402416 0.8331118
vt 0.8414296 0.8318749
vt 0.8424551 0.83035
vt 0.843287 0.8285834
vt 0.8438999 0.826629
vt 0.8442752 0.8245459
vt 0.8444016 0.8223976
vt 0.8444016 0.5260183
vt 0.8278881 0.5238699
vt 0.8360816 0.4420722
vt 0.8277617 0.5260183
vt 0.8282634 0.5217869
vt 0.8288763 0.5198324
vt 0.8297082 0.5180659
vt 0.8307337 0.516541
vt 0.8319216 0.515304
vt 0.833236 0.5143926
vt 0.8346369 0.5138345
vt 0.8360816 0.5136465
vt 0.8375264 0.5138345
vt 0.8477144 0.4425253
vt 0.8389272 0.5143926
vt 0.8402416 0.515304
vt 0.8414296 0.516541
vt 0.8424551 0.5180659
vt 0.843287 0.5198324
vt 0.8438999 0.5217869
vt 0.8442752 0.5238699
vt 0.8592995 0.9042623
vt 0.8592995 0.4441535
vt 0.8707834 0.9014665
vt 0.8707834 0.4469493
vt 0.8788478 0.8975685
vt 0.8788478 0.4508473
vt 0.8865101 0.8921667
vt 0.8865101 0.4562491
vt 0.893644 0.8853501
vt 0.893644 0.4630657
vt 0.9001321 0.877231
vt 0.9001321 0.4711848
vt 0.904379 0.8703534
vt 0.904379 0.4780624
vt 0.9058674 0.8679432
vt 0.9058674 0.4804727
vt 0.9107554 0.8576395
vt 0.9107554 0.4907763
vt 0.9147158 0.8464898
vt 0.9147158 0.5019261
vt 0.9176831 0.8346776
vt 0.9176831 0.5137382
vt 0.9196086 0.8165663
vt 0.9196086 0.5381705
vt 0.9196086 0.6246285
vn -0.9961946968573162 0 0.08715575685725005
vn -0.9845567387947735 0.000011155582340288722 0.1750657818345813
vn -0.984557192942215 0.00005077033775252646 0.1750632207178847
vn -0.9659188374247267 0.00008168694296369377 0.25884511360137313
vn -0.965729778468072 0.00019283075855537385 0.25954952859966296
vn -0.9424978113617508 0.00009890685059661686 0.3342123064696218
vn -0.9348841958489038 0.00005005745864595919 0.3549528670770241
vn -0.9387206208318071 0.000003501918862121408 0.34467897529858593
vn -0.9388102725447404 0.00007355063981594994 0.34443470608342275
vn -0.9063077530186316 0 0.42261833469256765
vn -0.9385288380413923 0.00015935285139033839 0.34520080354967686
vn -0.9387428900414624 -0.000034665595263065776 0.34461831813602073
vn -0.8639668869442387 0 0.5035486255207942
vn -0.8191521082409186 0 0.5735763450182185
vn -0.7622743994209661 0 0.6472539995916639
vn -0.7071067138243232 0 0.7071068485487654
vn -0.6366434568631595 0 0.7711582903874707
vn -0.5735764391196354 0 0.8191520423504048
vn 0.984557192942215 -0.00005077033775252646 -0.1750632207178847
vn 0.9961946968573162 0 -0.08715575685725005
vn 0.9845567387947735 -0.000011155582340288722 -0.1750657818345813
vn 0.965729778468072 -0.00019283075855537385 -0.25954952859966296
vn 0.9387206208318071 -0.000003501918862121408 -0.34467897529858593
vn 0.9348841958489038 -0.00005005745864595919 -0.3549528670770241
vn 0.9659188374247267 -0.00008168694296369377 -0.25884511360137313
vn 0.9424978113617508 -0.00009890685059661686 -0.3342123064696218
vn 0.9388102725447404 -0.00007355063981594994 -0.34443470608342275
vn 0.9385288380413923 -0.00015935285139033839 -0.34520080354967686
vn 0.8639668869442387 0 -0.5035486255207942
vn 0.9063077530186316 0 -0.42261833469256765
vn 0.9387428900414624 0.000034665595263065776 -0.34461831813602073
vn 0.7622743994209661 0 -0.6472539995916639
vn 0.8191521082409186 0 -0.5735763450182185
vn 0.6366434568631595 0 -0.7711582903874707
vn 0.7071067138243232 0 -0.7071068485487654
vn 0.5735764391196354 0 -0.8191520423504048
usemtl material_0_0
f 5//19 6//20 7//21
f 8//20 7//21 6//20
f 14//22 7//21 15//23
f 16//24 17//25 18//26
f 18//26 17//25 14//22
f 14//22 17//25 7//21
f 5//19 7//21 17//25
f 20//27 17//25 16//24
f 16//24 18//26 29//28
f 30//29 31//29 32//30
f 31//29 33//30 32//30
f 32//30 33//30 34//30
f 33//30 35//30 34//30
f 34//30 35//30 36//31
f 36//31 35//30 15//23
f 15//23 35//30 29//28
f 29//28 35//30 16//24
f 20//27 16//24 35//30
f 29//28 14//22 15//23
f 64//32 65//32 66//33
f 65//32 67//33 66//33
f 66//33 67//33 68//33
f 67//33 69//33 68//33
f 68//33 69//33 70//33
f 69//33 71//33 70//33
f 70//33 71//33 72//33
f 71//33 73//33 72//33
f 72//33 73//33 74//33
f 73//33 75//33 74//33
f 75//33 76//33 74//33
f 74//33 76//33 77//33
f 77//33 76//33 78//33
f 76//33 79//33 78//33
f 78//33 79//33 80//33
f 79//33 81//33 80//33
f 80//33 81//33 82//33
f 81//33 83//33 82//33
f 82//33 83//33 84//33
f 83//33 85//33 84//33
f 84//33 85//33 86//33
f 85//33 87//33 86//33
f 87//33 88//33 86//33
f 88//33 89//33 86//33
f 86//33 89//33 30//29
f 31//29 30//29 89//33
f 90//33 89//33 88//33
f 149//34 150//34 151//35
f 150//34 152//35 151//35
f 151//35 152//35 153//35
f 152//35 154//35 153//35
f 153//35 154//35 155//35
f 154//35 156//35 155//35
f 155//35 156//35 157//35
f 156//35 158//35 157//35
f 157//35 158//35 159//35
f 158//35 160//35 159//35
f 159//35 160//35 161//35
f 160//35 162//35 161//35
f 161//35 162//35 163//35
f 162//35 164//35 163//35
f 164//35 165//35 163//35
f 165//35 166//35 163//35
f 166//35 167//35 163//35
f 167//35 168//35 163//35
f 168//35 169//35 163//35
f 169//35 170//35 163//35
f 170//35 171//35 163//35
f 171//35 172//35 163//35
f 172//35 173//35 163//35
f 163//35 173//35 174//35
f 173//35 175//35 174//35
f 175//35 176//35 174//35
f 176//35 177//35 174//35
f 177//35 178//35 174//35
f 178//35 179//35 174//35
f 179//35 180//35 174//35
f 180//35 181//35 174//35
f 181//35 182//35 174//35
f 182//35 183//35 174//35
f 184//35 185//35 186//35
f 186//35 185//35 183//35
f 174//35 183//35 185//35
f 165//35 164//35 187//35
f 187//35 164//35 188//35
f 188//35 164//35 189//35
f 189//35 164//35 190//35
f 190//35 164//35 191//35
f 191//35 164//35 192//35
f 192//35 164//35 193//35
f 193//35 164//35 194//35
f 194//35 164//35 195//35
f 195//35 164//35 196//35
f 164//35 197//35 196//35
f 196//35 197//35 198//35
f 198//35 197//35 199//35
f 199//35 197//35 200//35
f 200//35 197//35 201//35
f 201//35 197//35 202//35
f 202//35 197//35 203//35
f 203//35 197//35 204//35
f 204//35 197//35 205//35
f 197//35 206//35 205//35
f 205//35 206//35 184//35
f 184//35 206//35 185//35
f 185//35 206//35 64//32
f 65//32 64//32 206//35
f 218//36 219//36 220//36
f 220//36 219//36 221//36
f 219//36 222//36 221//36
f 221//36 222//36 223//36
f 222//36 224//36 223//36
f 223//36 224//36 225//36
f 224//36 226//36 225//36
f 225//36 226//36 227//36
f 226//36 228//36 227//36
f 227//36 228//36 149//34
f 150//34 149//34 228//36
usemtl material_1_0
f 1/1/1 2/2/2 3/3/1
f 2/2/2 1/1/1 4/4/3
f 9/5/4 2/6/2 4/7/3
f 2/6/2 9/5/4 10/8/5
f 10/8/5 9/5/4 11/9/6
f 11/9/6 9/5/4 12/10/7
f 13/11/8 2/6/2 10/8/5
f 12/12/7 9/13/4 19/14/9
f 21/15/10 12/16/7 19/17/9
f 12/16/7 21/15/10 22/18/11
f 22/18/11 21/15/10 13/19/8
f 13/19/8 21/15/10 23/20/12
f 23/20/12 21/15/10 24/21/10
f 24/21/10 21/15/10 25/22/10
f 24/21/10 25/22/10 26/23/10
f 26/23/10 25/22/10 27/24/13
f 26/23/10 27/24/13 28/25/13
f 22/18/11 11/26/6 12/16/7
f 13/27/8 10/28/5 22/29/11
f 37/30/14 38/31/14 39/32/14
f 38/31/14 28/25/13 27/24/13
f 28/25/13 38/31/14 40/33/14
f 40/33/14 38/31/14 37/30/14
f 40/33/14 37/30/14 41/34/14
f 40/33/14 41/34/14 42/35/14
f 40/33/14 42/35/14 43/36/14
f 43/36/14 42/35/14 44/37/14
f 43/36/14 44/37/14 45/38/14
f 45/38/14 44/37/14 46/39/14
f 45/38/14 46/39/14 47/40/14
f 47/40/14 46/39/14 48/41/14
f 47/40/14 48/41/14 49/42/14
f 49/42/14 48/41/14 50/43/14
f 49/42/14 50/43/14 51/44/14
f 51/44/14 50/43/14 52/45/14
f 52/45/14 50/43/14 53/46/14
f 52/45/14 53/46/14 54/47/14
f 52/45/14 54/47/14 55/48/14
f 55/48/14 54/47/14 56/49/14
f 55/48/14 56/49/14 57/50/14
f 57/50/14 56/49/14 58/51/14
f 57/50/14 58/51/14 59/52/14
f 59/52/14 58/51/14 60/53/14
f 59/52/14 60/53/14 61/54/14
f 61/54/14 60/53/14 62/55/15
f 61/54/14 62/55/15 63/56/15
f 91/57/16 63/56/15 62/55/15
f 63/56/15 91/57/16 92/58/16
f 92/58/16 91/57/16 93/59/16
f 93/59/16 91/57/16 94/60/16
f 94/60/16 91/57/16 95/61/16
f 94/60/16 95/61/16 96/62/16
f 96/62/16 95/61/16 97/63/16
f 97/63/16 95/61/16 98/64/16
f 98/64/16 95/61/16 99/65/16
f 99/65/16 95/61/16 100/66/16
f 100/66/16 95/61/16 101/67/16
f 101/67/16 95/61/16 102/68/16
f 102/68/16 95/61/16 103/69/16
f 103/69/16 95/61/16 104/70/16
f 103/69/16 104/70/16 105/71/16
f 105/71/16 104/70/16 106/72/16
f 106/72/16 104/70/16 107/73/16
f 107/73/16 104/70/16 108/74/16
f 108/74/16 104/70/16 109/75/16
f 109/75/16 104/70/16 110/76/16
f 110/76/16 104/70/16 111/77/16
f 111/77/16 104/70/16 112/78/16
f 112/78/16 104/70/16 113/79/16
f 113/79/16 104/70/16 114/80/16
f 92/58/16 115/81/16 116/82/16
f 115/81/16 92/58/16 117/83/16
f 117/83/16 92/58/16 93/59/16
f 116/82/16 115/81/16 118/84/16
f 116/82/16 118/84/16 119/85/16
f 116/82/16 119/85/16 120/86/16
f 116/82/16 120/86/16 121/87/16
f 116/82/16 121/87/16 122/88/16
f 116/82/16 122/88/16 123/89/16
f 116/82/16 123/89/16 124/90/16
f 116/82/16 124/90/16 125/91/16
f 116/82/16 125/91/16 126/92/16
f 116/82/16 126/92/16 127/93/16
f 127/93/16 126/92/16 128/94/16
f 127/93/16 128/94/16 129/95/16
f 127/93/16 129/95/16 130/96/16
f 127/93/16 130/96/16 131/97/16
f 127/93/16 131/97/16 132/98/16
f 127/93/16 132/98/16 133/99/16
f 127/93/16 133/99/16 134/100/16
f 127/93/16 134/100/16 114/80/16
f 127/93/16 114/80/16 104/70/16
f 127/93/16 104/70/16 135/101/16
f 127/93/16 135/101/16 136/102/16
f 136/102/16 135/101/16 137/103/16
f 136/102/16 137/103/16 138/104/16
f 138/104/16 137/103/16 139/105/16
f 138/104/16 139/105/16 140/106/16
f 140/106/16 139/105/16 141/107/16
f 140/106/16 141/107/16 142/108/16
f 142/108/16 141/107/16 143/109/16
f 142/108/16 143/109/16 144/110/16
f 144/110/16 143/109/16 145/111/16
f 144/110/16 145/111/16 146/112/16
f 146/112/16 145/111/16 147/113/17
f 146/112/16 147/113/17 148/114/17
f 207/115/18 148/114/17 147/113/17
f 148/114/17 207/115/18 208/116/18
f 208/116/18 207/115/18 209/117/18
f 208/116/18 209/117/18 210/118/18
f 210/118/18 209/117/18 211/119/18
f 210/118/18 211/119/18 212/120/18
f 212/120/18 211/119/18 213/121/18
f 212/120/18 213/121/18 214/122/18
f 214/122/18 213/121/18 215/123/18
f 214/122/18 215/123/18 216/124/18
f 216/124/18 215/123/18 217/125/18
