# SSTK version 0.8.0
# 35
mtllib original-35.mtl
o #ID244
v 0.165544 0.171266 -0.285310
v 0.165145 0.165791 -0.285589
v 0.167087 0.170507 -0.284229
v 0.164938 0.172128 -0.285734
v 0.178124 0.174693 -0.276501
v 0.178124 0.168716 -0.276501
v 0.178446 0.171704 -0.276275
v 0.177179 0.177478 -0.277163
v 0.177179 0.165931 -0.277163
v 0.175676 0.163539 -0.278215
v 0.175676 0.179869 -0.278215
v 0.173717 0.161704 -0.279587
v 0.173717 0.181704 -0.279587
v 0.172315 0.178988 -0.280568
v 0.171435 0.182858 -0.281184
v 0.167155 0.178988 -0.284182
v 0.168987 0.183251 -0.282898
v 0.166539 0.182858 -0.284613
v 0.165600 0.178267 -0.285270
v 0.164258 0.181704 -0.286210
v 0.164493 0.176752 -0.286046
v 0.164082 0.174784 -0.286333
v 0.162299 0.179869 -0.287582
v 0.168434 0.170507 -0.283286
v 0.170987 0.165791 -0.281499
v 0.170987 0.170507 -0.281499
v 0.168987 0.160157 -0.282898
v 0.166539 0.160551 -0.284613
v 0.166493 0.165791 -0.284645
v 0.164258 0.161704 -0.286210
v 0.164461 0.172807 -0.286068
v 0.162299 0.163539 -0.287582
v 0.160796 0.177478 -0.288634
v 0.160796 0.165931 -0.288634
v 0.159851 0.174693 -0.289296
v 0.159851 0.168716 -0.289296
v 0.159528 0.171704 -0.289522
v 0.172315 0.165791 -0.280568
v 0.171435 0.160551 -0.281184
v 0.168987 0.160157 -0.282898
v 0.170987 0.165791 -0.281499
v 0.171435 0.160551 -0.281184
v 0.172315 0.165791 -0.280568
v 0.172315 0.178988 -0.280568
v 0.173717 0.161704 -0.279587
v 0.159528 0.171704 -0.289522
v 0.159851 0.174693 -0.289296
v 0.159851 0.168716 -0.289296
v 0.160796 0.165931 -0.288634
v 0.160796 0.177478 -0.288634
v 0.162299 0.163539 -0.287582
v 0.162299 0.179869 -0.287582
v 0.164082 0.174784 -0.286333
v 0.164258 0.161704 -0.286210
v 0.164461 0.172807 -0.286068
v 0.164938 0.172128 -0.285734
v 0.165145 0.165791 -0.285589
v 0.166493 0.165791 -0.284645
v 0.166539 0.160551 -0.284613
v 0.168434 0.170507 -0.283286
v 0.170987 0.170507 -0.281499
v 0.164258 0.181704 -0.286210
v 0.164493 0.176752 -0.286046
v 0.165600 0.178267 -0.285270
v 0.166539 0.182858 -0.284613
v 0.167155 0.178988 -0.284182
v 0.168987 0.183251 -0.282898
v 0.171435 0.182858 -0.281184
v 0.173717 0.181704 -0.279587
v 0.175676 0.179869 -0.278215
v 0.175676 0.163539 -0.278215
v 0.177179 0.177478 -0.277163
v 0.177179 0.165931 -0.277163
v 0.178124 0.168716 -0.276501
v 0.178124 0.174693 -0.276501
v 0.178446 0.171704 -0.276275
v 0.165544 0.171266 -0.285310
v 0.167087 0.170507 -0.284229
vt 0.9381375 0.4557543
vt 0.9389061 0.4429029
vt 0.9351642 0.4539741
vt 0.9393055 0.4577794
vt 0.9138935 0.4637998
vt 0.9138935 0.4497685
vt 0.9132723 0.4567841
vt 0.9157146 0.4703374
vt 0.9157146 0.4432309
vt 0.9186115 0.4376169
vt 0.9186115 0.4759514
vt 0.9223869 0.4333092
vt 0.9223869 0.4802591
vt 0.9250886 0.4738819
vt 0.9267835 0.4829671
vt 0.935033 0.4738819
vt 0.9315015 0.4838907
vt 0.9362196 0.4829671
vt 0.9380293 0.4721887
vt 0.9406161 0.4802591
vt 0.9401632 0.4686322
vt 0.9409542 0.4640133
vt 0.9443915 0.4759514
vt 0.9325675 0.4539741
vt 0.9276477 0.4429029
vt 0.9276477 0.4539741
vt 0.9315015 0.4296776
vt 0.9362196 0.4306012
vt 0.9363094 0.4429029
vt 0.9406161 0.4333092
vt 0.9402242 0.4593723
vt 0.9443915 0.4376169
vt 0.9472884 0.4703374
vt 0.9472884 0.4432309
vt 0.9491095 0.4637998
vt 0.9491095 0.4497685
vt 0.9497307 0.4567841
vt 0.9250886 0.4429029
vt 0.9267835 0.4306012
vn -0.5735764391196354 0 0.8191520423504048
vn 0.5735764391196354 0 -0.8191520423504048
usemtl material_0_0
f 40//2 41//2 42//2
f 41//2 43//2 42//2
f 44//2 45//2 43//2
f 42//2 43//2 45//2
f 46//2 47//2 48//2
f 48//2 47//2 49//2
f 47//2 50//2 49//2
f 49//2 50//2 51//2
f 50//2 52//2 51//2
f 52//2 53//2 51//2
f 51//2 53//2 54//2
f 53//2 55//2 54//2
f 55//2 56//2 54//2
f 56//2 57//2 54//2
f 57//2 58//2 54//2
f 54//2 58//2 59//2
f 58//2 60//2 59//2
f 59//2 60//2 40//2
f 40//2 60//2 41//2
f 61//2 41//2 60//2
f 52//2 62//2 53//2
f 53//2 62//2 63//2
f 63//2 62//2 64//2
f 62//2 65//2 64//2
f 64//2 65//2 66//2
f 65//2 67//2 66//2
f 67//2 68//2 66//2
f 66//2 68//2 44//2
f 68//2 69//2 44//2
f 44//2 69//2 45//2
f 69//2 70//2 45//2
f 45//2 70//2 71//2
f 70//2 72//2 71//2
f 71//2 72//2 73//2
f 73//2 72//2 74//2
f 72//2 75//2 74//2
f 76//2 74//2 75//2
f 56//2 77//2 57//2
f 78//2 57//2 77//2
usemtl material_1_0
f 1/1/1 2/2/1 3/3/1
f 2/2/1 1/1/1 4/4/1
f 5/5/1 6/6/1 7/7/1
f 6/6/1 5/5/1 8/8/1
f 6/6/1 8/8/1 9/9/1
f 9/9/1 8/8/1 10/10/1
f 10/10/1 8/8/1 11/11/1
f 10/10/1 11/11/1 12/12/1
f 12/12/1 11/11/1 13/13/1
f 12/12/1 13/13/1 14/14/1
f 14/14/1 13/13/1 15/15/1
f 14/14/1 15/15/1 16/16/1
f 16/16/1 15/15/1 17/17/1
f 16/16/1 17/17/1 18/18/1
f 16/16/1 18/18/1 19/19/1
f 19/19/1 18/18/1 20/20/1
f 19/19/1 20/20/1 21/21/1
f 21/21/1 20/20/1 22/22/1
f 22/22/1 20/20/1 23/23/1
f 24/24/1 25/25/1 26/26/1
f 25/25/1 24/24/1 27/27/1
f 27/27/1 24/24/1 28/28/1
f 28/28/1 24/24/1 29/29/1
f 28/28/1 29/29/1 30/30/1
f 30/30/1 29/29/1 2/2/1
f 30/30/1 2/2/1 4/4/1
f 30/30/1 4/4/1 31/31/1
f 30/30/1 31/31/1 22/22/1
f 30/30/1 22/22/1 32/32/1
f 32/32/1 22/22/1 23/23/1
f 32/32/1 23/23/1 33/33/1
f 32/32/1 33/33/1 34/34/1
f 34/34/1 33/33/1 35/35/1
f 34/34/1 35/35/1 36/36/1
f 36/36/1 35/35/1 37/37/1
f 12/12/1 38/38/1 39/39/1
f 38/38/1 12/12/1 14/14/1
f 39/39/1 38/38/1 25/25/1
f 39/39/1 25/25/1 27/27/1
