# SSTK version 0.8.0
# 39
mtllib original-39.mtl
o #ID276
v 0.285084 0.284149 -0.082289
v 0.288103 0.241372 -0.047780
v 0.288103 0.284149 -0.047780
v 0.285084 0.241372 -0.082289
v 0.285084 0.241372 -0.082289
v 0.285084 0.284149 -0.082289
v 0.288103 0.241372 -0.047780
v 0.288103 0.284149 -0.047780
vt 0.5544628 0.7207458
vt 0.4997753 0.6203286
vt 0.4997753 0.7207458
vt 0.5544628 0.6203286
vn -0.9961946968573162 0 0.08715575685725005
vn -1 0 0
vn 0.9961946968573162 0 -0.08715575685725005
vn 1 0 0
usemtl material_0_0
f 5//3 6//3 7//4
f 8//4 7//4 6//3
usemtl material_1_0
f 1/1/1 2/2/2 3/3/2
f 2/2/2 1/1/1 4/4/1
