# SSTK version 0.8.0
# 23
mtllib original-23.mtl
o #ID160
v -0.055942 -0.929295 0.235693
v 0.044025 -0.929295 0.235693
v -0.005958 -0.929295 0.240066
v -0.005958 -0.929295 0.231386
v -0.054435 -0.929295 0.227145
v -0.104408 -0.929295 0.222707
v -0.101439 -0.929295 0.214551
v -0.149882 -0.929295 0.201502
v -0.145542 -0.929295 0.193985
v -0.190982 -0.929295 0.172723
v -0.185403 -0.929295 0.166074
v -0.226461 -0.929295 0.137244
v -0.219812 -0.929295 0.131665
v -0.255240 -0.929295 0.096143
v -0.247724 -0.929295 0.091803
v -0.276445 -0.929295 0.050669
v -0.268289 -0.929295 0.047700
v -0.289431 -0.929295 0.002204
v -0.280884 -0.929295 0.000697
v -0.293804 -0.929295 -0.047780
v -0.285125 -0.929295 -0.047780
v -0.289431 -0.929295 -0.097764
v -0.280884 -0.929295 -0.096257
v -0.268289 -0.929295 -0.143261
v -0.276445 -0.929295 -0.146229
v -0.247724 -0.929295 -0.187363
v -0.255240 -0.929295 -0.191703
v -0.219812 -0.929295 -0.227225
v -0.226461 -0.929295 -0.232804
v -0.185403 -0.929295 -0.261634
v -0.190982 -0.929295 -0.268283
v -0.145542 -0.929295 -0.289545
v -0.149882 -0.929295 -0.297062
v -0.101439 -0.929295 -0.310111
v -0.104408 -0.929295 -0.318267
v -0.054435 -0.929295 -0.322705
v -0.055942 -0.929295 -0.331253
v -0.005958 -0.929295 -0.326946
v 0.042518 -0.929295 0.227145
v 0.092491 -0.929295 0.222707
v 0.089522 -0.929295 0.214551
v 0.137965 -0.929295 0.201502
v 0.133625 -0.929295 0.193985
v 0.179065 -0.929295 0.172723
v 0.173486 -0.929295 0.166074
v 0.214544 -0.929295 0.137244
v 0.207895 -0.929295 0.131665
v 0.243324 -0.929295 0.096143
v 0.235807 -0.929295 0.091803
v 0.264528 -0.929295 0.050669
v 0.256372 -0.929295 0.047700
v 0.277515 -0.929295 0.002204
v 0.268967 -0.929295 0.000697
v 0.281888 -0.929295 -0.047780
v 0.273208 -0.929295 -0.047780
v 0.268967 -0.929295 -0.096257
v 0.277515 -0.929295 -0.097764
v 0.256372 -0.929295 -0.143261
v 0.264528 -0.929295 -0.146229
v 0.235807 -0.929295 -0.187363
v 0.243324 -0.929295 -0.191703
v 0.207895 -0.929295 -0.227225
v 0.214544 -0.929295 -0.232804
v 0.173486 -0.929295 -0.261634
v 0.179065 -0.929295 -0.268283
v 0.133625 -0.929295 -0.289545
v 0.137965 -0.929295 -0.297062
v 0.089522 -0.929295 -0.310111
v 0.092491 -0.929295 -0.318267
v 0.042518 -0.929295 -0.322705
v 0.044025 -0.929295 -0.331253
v -0.005958 -0.929295 -0.335626
v 0.277515 -0.900952 0.002204
v 0.264528 -0.929295 0.050669
v 0.277515 -0.929295 0.002204
v 0.264528 -0.900952 0.050669
v 0.243324 -0.929295 0.096143
v 0.243324 -0.900952 0.096143
v 0.214544 -0.929295 0.137244
v 0.214544 -0.900952 0.137244
v 0.179065 -0.900952 0.172723
v 0.179065 -0.929295 0.172723
v 0.137965 -0.900952 0.201502
v 0.137965 -0.929295 0.201502
v 0.092491 -0.900952 0.222707
v 0.092491 -0.929295 0.222707
v 0.044025 -0.900952 0.235693
v 0.044025 -0.929295 0.235693
v -0.005958 -0.900952 0.240066
v -0.005958 -0.929295 0.240066
v -0.055942 -0.900952 0.235693
v -0.055942 -0.929295 0.235693
v -0.104408 -0.900952 0.222707
v -0.104408 -0.929295 0.222707
v -0.149882 -0.900952 0.201502
v -0.149882 -0.929295 0.201502
v -0.190982 -0.900952 0.172723
v -0.190982 -0.929295 0.172723
v -0.226461 -0.900952 0.137244
v -0.226461 -0.929295 0.137244
v -0.255240 -0.929295 0.096143
v -0.255240 -0.900952 0.096143
v -0.276445 -0.929295 0.050669
v -0.276445 -0.900952 0.050669
v -0.289431 -0.929295 0.002204
v -0.289431 -0.900952 0.002204
v -0.293804 -0.929295 -0.047780
v -0.293804 -0.900952 -0.047780
v -0.289431 -0.929295 -0.097764
v -0.289431 -0.900952 -0.097764
v -0.276445 -0.929295 -0.146229
v -0.276445 -0.900952 -0.146229
v -0.255240 -0.929295 -0.191703
v -0.255240 -0.900952 -0.191703
v -0.226461 -0.929295 -0.232804
v -0.226461 -0.900952 -0.232804
v -0.190982 -0.900952 -0.268283
v -0.190982 -0.929295 -0.268283
v -0.149882 -0.900952 -0.297062
v -0.149882 -0.929295 -0.297062
v -0.104408 -0.900952 -0.318267
v -0.104408 -0.929295 -0.318267
v -0.055942 -0.900952 -0.331253
v -0.055942 -0.929295 -0.331253
v -0.005958 -0.900952 -0.335626
v -0.005958 -0.929295 -0.335626
v 0.044025 -0.900952 -0.331253
v 0.044025 -0.929295 -0.331253
v 0.092491 -0.900952 -0.318267
v 0.092491 -0.929295 -0.318267
v 0.137965 -0.900952 -0.297062
v 0.137965 -0.929295 -0.297062
v 0.179065 -0.900952 -0.268283
v 0.179065 -0.929295 -0.268283
v 0.214544 -0.900952 -0.232804
v 0.214544 -0.929295 -0.232804
v 0.243324 -0.929295 -0.191703
v 0.243324 -0.900952 -0.191703
v 0.264528 -0.929295 -0.146229
v 0.264528 -0.900952 -0.146229
v 0.277515 -0.929295 -0.097764
v 0.277515 -0.900952 -0.097764
v 0.281888 -0.929295 -0.047780
v 0.281888 -0.900952 -0.047780
v 0.044025 -0.900952 0.235693
v 0.043266 -0.900952 0.231386
v -0.005958 -0.900952 0.235693
v 0.092491 -0.900952 0.222707
v 0.013634 -0.900952 0.233979
v 0.021336 -0.900951 0.233302
v 0.090995 -0.900952 0.218597
v 0.137965 -0.900952 0.201502
v 0.135778 -0.900952 0.197715
v 0.179065 -0.900952 0.172723
v 0.176254 -0.900952 0.169373
v 0.214544 -0.900952 0.137244
v 0.211194 -0.900952 0.134433
v 0.243324 -0.900952 0.096143
v 0.239536 -0.900952 0.093956
v 0.264528 -0.900952 0.050669
v 0.260419 -0.900952 0.049173
v 0.277515 -0.900952 0.002204
v 0.273208 -0.900952 0.001445
v 0.281888 -0.900952 -0.047780
v 0.277515 -0.900952 -0.047780
v 0.277515 -0.900952 -0.097764
v 0.273208 -0.900952 -0.097005
v 0.260419 -0.900952 -0.144734
v 0.264528 -0.900952 -0.146229
v 0.239536 -0.900952 -0.189517
v 0.243324 -0.900952 -0.191703
v 0.211194 -0.900952 -0.229993
v 0.214544 -0.900952 -0.232804
v 0.176254 -0.900952 -0.264933
v 0.179065 -0.900952 -0.268283
v 0.135778 -0.900952 -0.293275
v 0.137965 -0.900952 -0.297062
v 0.090995 -0.900952 -0.314157
v 0.092491 -0.900952 -0.318267
v 0.043266 -0.900952 -0.326946
v 0.044025 -0.900952 -0.331253
v -0.005958 -0.900952 -0.331253
v -0.005958 -0.900952 -0.335626
v -0.055942 -0.900952 -0.331253
v -0.055942 -0.900952 0.235693
v -0.005958 -0.900952 0.240066
v -0.055183 -0.900952 0.231386
v -0.104408 -0.900952 0.222707
v -0.102912 -0.900952 0.218597
v -0.149882 -0.900952 0.201502
v -0.147695 -0.900952 0.197715
v -0.190982 -0.900952 0.172723
v -0.188171 -0.900952 0.169373
v -0.226461 -0.900952 0.137244
v -0.223111 -0.900952 0.134433
v -0.255240 -0.900952 0.096143
v -0.251453 -0.900952 0.093956
v -0.276445 -0.900952 0.050669
v -0.272336 -0.900952 0.049173
v -0.289431 -0.900952 0.002204
v -0.285125 -0.900952 0.001445
v -0.293804 -0.900952 -0.047780
v -0.289431 -0.900952 -0.047780
v -0.285125 -0.900952 -0.097005
v -0.289431 -0.900952 -0.097764
v -0.272336 -0.900952 -0.144734
v -0.276445 -0.900952 -0.146229
v -0.251453 -0.900952 -0.189517
v -0.255240 -0.900952 -0.191703
v -0.223111 -0.900952 -0.229993
v -0.226461 -0.900952 -0.232804
v -0.188171 -0.900952 -0.264933
v -0.190982 -0.900952 -0.268283
v -0.147695 -0.900952 -0.293275
v -0.149882 -0.900952 -0.297062
v -0.102912 -0.900952 -0.314157
v -0.104408 -0.900952 -0.318267
v -0.055183 -0.900952 -0.326946
vn 0 -1 0
vn 0.9848077506098836 0 0.1736481912911892
vn 0.9396926322790204 0 0.34202011174860136
vn 0.866025402838329 0 0.5000000016387101
vn 0.7660444300729436 0 0.6427876252341971
vn 0.6427876252341971 0 0.7660444300729436
vn 0.5000000016387101 0 0.866025402838329
vn 0.34202011174860136 0 0.9396926322790204
vn 0.1736481912911892 0 0.9848077506098836
vn 0 0 1
vn -0.1736481912911892 0 0.9848077506098836
vn -0.34202011174860136 0 0.9396926322790204
vn -0.5000000016387101 0 0.866025402838329
vn -0.6427876252341971 0 0.7660444300729436
vn -0.7660444300729436 0 0.6427876252341971
vn -0.866025402838329 0 0.5000000016387101
vn -0.9396926322790204 0 0.34202011174860136
vn -0.9848077506098836 0 0.1736481912911892
vn -1 0 0
vn -0.9848077506098836 0 -0.1736481912911892
vn -0.9396926322790204 0 -0.34202011174860136
vn -0.866025402838329 0 -0.5000000016387101
vn -0.7660444300729436 0 -0.6427876252341971
vn -0.6427876252341971 0 -0.7660444300729436
vn -0.5000000016387101 0 -0.866025402838329
vn -0.34202011174860136 0 -0.9396926322790204
vn -0.1736481912911892 0 -0.9848077506098836
vn 0 0 -1
vn 0.1736481912911892 0 -0.9848077506098836
vn 0.34202011174860136 0 -0.9396926322790204
vn 0.5000000016387101 0 -0.866025402838329
vn 0.6427876252341971 0 -0.7660444300729436
vn 0.7660444300729436 0 -0.6427876252341971
vn 0.866025402838329 0 -0.5000000016387101
vn 0.9396926322790204 0 -0.34202011174860136
vn 0.9848077506098836 0 -0.1736481912911892
vn 1 0 0
vn 0 1 0
usemtl material_0_0
f 1//1 2//1 3//1
f 2//1 1//1 4//1
f 4//1 1//1 5//1
f 5//1 1//1 6//1
f 5//1 6//1 7//1
f 7//1 6//1 8//1
f 7//1 8//1 9//1
f 9//1 8//1 10//1
f 9//1 10//1 11//1
f 11//1 10//1 12//1
f 11//1 12//1 13//1
f 13//1 12//1 14//1
f 13//1 14//1 15//1
f 15//1 14//1 16//1
f 15//1 16//1 17//1
f 17//1 16//1 18//1
f 17//1 18//1 19//1
f 19//1 18//1 20//1
f 19//1 20//1 21//1
f 21//1 20//1 22//1
f 21//1 22//1 23//1
f 23//1 22//1 24//1
f 24//1 22//1 25//1
f 24//1 25//1 26//1
f 26//1 25//1 27//1
f 26//1 27//1 28//1
f 28//1 27//1 29//1
f 28//1 29//1 30//1
f 30//1 29//1 31//1
f 30//1 31//1 32//1
f 32//1 31//1 33//1
f 32//1 33//1 34//1
f 34//1 33//1 35//1
f 34//1 35//1 36//1
f 36//1 35//1 37//1
f 36//1 37//1 38//1
f 2//1 39//1 40//1
f 39//1 2//1 4//1
f 40//1 39//1 41//1
f 40//1 41//1 42//1
f 42//1 41//1 43//1
f 42//1 43//1 44//1
f 44//1 43//1 45//1
f 44//1 45//1 46//1
f 46//1 45//1 47//1
f 46//1 47//1 48//1
f 48//1 47//1 49//1
f 48//1 49//1 50//1
f 50//1 49//1 51//1
f 50//1 51//1 52//1
f 52//1 51//1 53//1
f 52//1 53//1 54//1
f 54//1 53//1 55//1
f 54//1 55//1 56//1
f 54//1 56//1 57//1
f 57//1 56//1 58//1
f 57//1 58//1 59//1
f 59//1 58//1 60//1
f 59//1 60//1 61//1
f 61//1 60//1 62//1
f 61//1 62//1 63//1
f 63//1 62//1 64//1
f 63//1 64//1 65//1
f 65//1 64//1 66//1
f 65//1 66//1 67//1
f 67//1 66//1 68//1
f 67//1 68//1 69//1
f 69//1 68//1 70//1
f 69//1 70//1 71//1
f 71//1 70//1 38//1
f 71//1 38//1 37//1
f 71//1 37//1 72//1
f 73//2 74//3 75//2
f 74//3 73//2 76//3
f 76//3 77//4 74//3
f 77//4 76//3 78//4
f 78//4 79//5 77//4
f 79//5 78//4 80//5
f 81//6 79//5 80//5
f 79//5 81//6 82//6
f 83//7 82//6 81//6
f 82//6 83//7 84//7
f 85//8 84//7 83//7
f 84//7 85//8 86//8
f 87//9 86//8 85//8
f 86//8 87//9 88//9
f 89//10 88//9 87//9
f 88//9 89//10 90//10
f 91//11 90//10 89//10
f 90//10 91//11 92//11
f 93//12 92//11 91//11
f 92//11 93//12 94//12
f 95//13 94//12 93//12
f 94//12 95//13 96//13
f 97//14 96//13 95//13
f 96//13 97//14 98//14
f 99//15 98//14 97//14
f 98//14 99//15 100//15
f 99//15 101//16 100//15
f 101//16 99//15 102//16
f 102//16 103//17 101//16
f 103//17 102//16 104//17
f 104//17 105//18 103//17
f 105//18 104//17 106//18
f 106//18 107//19 105//18
f 107//19 106//18 108//19
f 108//19 109//20 107//19
f 109//20 108//19 110//20
f 110//20 111//21 109//20
f 111//21 110//20 112//21
f 112//21 113//22 111//21
f 113//22 112//21 114//22
f 114//22 115//23 113//22
f 115//23 114//22 116//23
f 115//23 117//24 118//24
f 117//24 115//23 116//23
f 118//24 119//25 120//25
f 119//25 118//24 117//24
f 120//25 121//26 122//26
f 121//26 120//25 119//25
f 122//26 123//27 124//27
f 123//27 122//26 121//26
f 124//27 125//28 126//28
f 125//28 124//27 123//27
f 126//28 127//29 128//29
f 127//29 126//28 125//28
f 128//29 129//30 130//30
f 129//30 128//29 127//29
f 130//30 131//31 132//31
f 131//31 130//30 129//30
f 132//31 133//32 134//32
f 133//32 132//31 131//31
f 134//32 135//33 136//33
f 135//33 134//32 133//32
f 135//33 137//34 136//33
f 137//34 135//33 138//34
f 138//34 139//35 137//34
f 139//35 138//34 140//35
f 140//35 141//36 139//35
f 141//36 140//35 142//36
f 142//36 143//37 141//36
f 143//37 142//36 144//37
f 144//37 75//2 143//37
f 75//2 144//37 73//2
f 145//38 146//38 147//38
f 146//38 145//38 148//38
f 147//38 146//38 149//38
f 149//38 146//38 150//38
f 146//38 148//38 151//38
f 151//38 148//38 152//38
f 151//38 152//38 153//38
f 153//38 152//38 154//38
f 153//38 154//38 155//38
f 155//38 154//38 156//38
f 155//38 156//38 157//38
f 157//38 156//38 158//38
f 157//38 158//38 159//38
f 159//38 158//38 160//38
f 159//38 160//38 161//38
f 161//38 160//38 162//38
f 161//38 162//38 163//38
f 163//38 162//38 164//38
f 163//38 164//38 165//38
f 165//38 164//38 166//38
f 165//38 166//38 167//38
f 167//38 166//38 168//38
f 168//38 166//38 169//38
f 168//38 169//38 170//38
f 170//38 169//38 171//38
f 170//38 171//38 172//38
f 172//38 171//38 173//38
f 172//38 173//38 174//38
f 174//38 173//38 175//38
f 174//38 175//38 176//38
f 176//38 175//38 177//38
f 176//38 177//38 178//38
f 178//38 177//38 179//38
f 178//38 179//38 180//38
f 180//38 179//38 181//38
f 180//38 181//38 182//38
f 182//38 181//38 183//38
f 182//38 183//38 184//38
f 145//38 185//38 186//38
f 185//38 145//38 147//38
f 185//38 147//38 187//38
f 185//38 187//38 188//38
f 188//38 187//38 189//38
f 188//38 189//38 190//38
f 190//38 189//38 191//38
f 190//38 191//38 192//38
f 192//38 191//38 193//38
f 192//38 193//38 194//38
f 194//38 193//38 195//38
f 194//38 195//38 196//38
f 196//38 195//38 197//38
f 196//38 197//38 198//38
f 198//38 197//38 199//38
f 198//38 199//38 200//38
f 200//38 199//38 201//38
f 200//38 201//38 202//38
f 202//38 201//38 203//38
f 202//38 203//38 204//38
f 202//38 204//38 205//38
f 205//38 204//38 206//38
f 205//38 206//38 207//38
f 207//38 206//38 208//38
f 207//38 208//38 209//38
f 209//38 208//38 210//38
f 209//38 210//38 211//38
f 211//38 210//38 212//38
f 211//38 212//38 213//38
f 213//38 212//38 214//38
f 213//38 214//38 215//38
f 215//38 214//38 216//38
f 215//38 216//38 217//38
f 217//38 216//38 218//38
f 217//38 218//38 184//38
f 184//38 218//38 182//38
