# SSTK version 0.8.0
# 44
mtllib original-44.mtl
o group_7/ID308#ID308
v 0.158915 -0.593654 0.190612
v 0.181063 0.009212 0.175103
v 0.181063 -0.593654 0.175103
v 0.158915 0.020204 0.190612
v 0.158915 0.020204 0.190612
v 0.158915 -0.593654 0.190612
v 0.181063 0.009212 0.175103
v 0.181063 -0.593654 0.175103
v 0.216925 -0.005257 0.139241
v 0.216925 -0.593654 0.139241
v 0.216925 -0.005257 0.139241
v 0.216925 -0.593654 0.139241
v 0.246015 -0.593654 0.097697
v 0.246015 -0.020080 0.097697
v 0.246015 -0.020080 0.097697
v 0.246015 -0.593654 0.097697
v 0.267449 -0.593654 0.051732
v 0.267449 -0.030478 0.051732
v 0.267449 -0.030478 0.051732
v 0.267449 -0.593654 0.051732
v 0.280575 -0.593654 0.002744
v 0.280575 -0.038936 0.002744
v 0.280575 -0.038936 0.002744
v 0.280575 -0.593654 0.002744
v 0.284995 -0.593654 -0.047780
v 0.284995 -0.047526 -0.047780
v 0.284995 -0.047526 -0.047780
v 0.284995 -0.593654 -0.047780
v 0.280575 -0.593654 -0.098304
v 0.280575 -0.047526 -0.098304
v 0.280575 -0.047526 -0.098304
v 0.280575 -0.593654 -0.098304
v 0.267449 -0.593654 -0.147292
v 0.267449 -0.038936 -0.147292
v 0.267449 -0.038936 -0.147292
v 0.267449 -0.593654 -0.147292
v 0.246015 -0.593654 -0.193257
v 0.246015 -0.030478 -0.193257
v 0.246015 -0.030478 -0.193257
v 0.246015 -0.593654 -0.193257
v 0.216925 -0.593654 -0.234801
v 0.216925 -0.019201 -0.234801
v 0.216925 -0.019201 -0.234801
v 0.216925 -0.593654 -0.234801
v 0.181063 -0.000243 -0.270664
v 0.181063 -0.593654 -0.270664
v 0.181063 -0.593654 -0.270664
v 0.181063 -0.000243 -0.270664
v 0.158915 0.020204 -0.286172
v 0.158915 -0.593654 -0.286172
v 0.158915 -0.593654 -0.286172
v 0.158915 0.020204 -0.286172
vt -2 1.006667
vt -1.999999 -3.303107e-16
vt -1.951824 0.9886395
vt -1.951823 -3.303107e-16
vt -1.951823 -7.163835e-17
vt -1.861459 0.9649122
vt -1.861458 -7.163835e-17
vt -1.771094 0.9406037
vt -1.771093 -8.242062e-17
vt -1.861458 -8.242062e-17
vt -1.680729 0.9235533
vt -1.680729 -7.794518e-16
vt -1.771093 -7.794518e-16
vt -1.590364 0.9096826
vt -1.590364 -5.962512e-16
vt -1.680728 -5.962512e-16
vt -1.499999 0.8955954
vt -1.499999 2.338434e-18
vt -1.590364 2.338434e-18
vt -1.409635 0.8955954
vt -1.409634 7.628088e-17
vt -1.499999 7.628088e-17
vt -1.31927 0.9096826
vt -1.319269 4.618596e-17
vt -1.409634 4.618596e-17
vt -1.228905 0.9235533
vt -1.228904 -2.425847e-16
vt -1.319269 -2.425847e-16
vt -1.13854 0.9420453
vt -1.138539 3.346281e-17
vt -1.228904 3.346281e-17
vt -1.048175 4.128263e-16
vt -1.048175 0.9731356
vt -1.138539 4.128263e-16
vt -0.9999989 4.954865e-16
vt -0.9999997 1.006667
vt -1.048175 4.954865e-16
vt -1.048175 0.9731357
vn -0.5735764327681472 0 -0.8191520467977645
vn -0.6289924843046847 0 -0.7774113806011724
vn -0.6427876252341971 0 -0.7660444300729436
vn -0.7558658816381055 0 -0.6547264840950373
vn -0.7660444300729436 0 -0.6427876252341971
vn -0.866025402838329 0 -0.5000000016387101
vn -0.8593481640258648 0 -0.51139097859209
vn -0.9396926322790204 0 -0.34202011174860136
vn -0.9361854814395566 0 -0.35150639303117315
vn -0.9848077506098836 0 -0.1736481912911892
vn -0.9831535796590836 0 -0.18278139621835168
vn -1 0 0
vn -0.999990162532294 0 -0.004435632833805377
vn -0.9848077506098836 0 0.1736481912911892
vn -0.9840278272630177 0 0.1780147049319927
vn -0.9396926322790204 0 0.34202011174860136
vn -0.9364775979338869 0 0.35072739922620416
vn -0.866025402838329 0 0.5000000016387101
vn -0.8607200260893022 0 0.5090786154306923
vn -0.7660444300729436 0 0.6427876252341971
vn -0.7560722092421965 0 0.6544882080004377
vn -0.6229494773724009 0 0.782262071585637
vn -0.6427876252341971 0 0.7660444300729436
vn -0.5735764327681472 0 0.8191520467977645
vn 0.5735764327681472 0 0.8191520467977645
vn 0.6289924843046847 0 0.7774113806011724
vn 0.6427876252341971 0 0.7660444300729436
vn 0.7558658816381055 0 0.6547264840950373
vn 0.7660444300729436 0 0.6427876252341971
vn 0.8593481640258648 0 0.51139097859209
vn 0.866025402838329 0 0.5000000016387101
vn 0.9361854814395566 0 0.35150639303117315
vn 0.9396926322790204 0 0.34202011174860136
vn 0.9831535796590836 0 0.18278139621835168
vn 0.9848077506098836 0 0.1736481912911892
vn 0.999990162532294 0 0.004435632833805377
vn 1 0 0
vn 0.9840278272630177 0 -0.1780147049319927
vn 0.9848077506098836 0 -0.1736481912911892
vn 0.9364775979338869 0 -0.35072739922620416
vn 0.9396926322790204 0 -0.34202011174860136
vn 0.8607200260893022 0 -0.5090786154306923
vn 0.866025402838329 0 -0.5000000016387101
vn 0.7560722092421965 0 -0.6544882080004377
vn 0.7660444300729436 0 -0.6427876252341971
vn 0.6427876252341971 0 -0.7660444300729436
vn 0.6229494773724009 0 -0.782262071585637
vn 0.5735764327681472 0 -0.8191520467977645
usemtl material_0_0
f 1//1 2//2 3//3
f 2//2 1//1 4//1
f 3//3 9//4 10//5
f 9//4 3//3 2//2
f 9//4 13//6 10//5
f 13//6 9//4 14//7
f 14//7 17//8 13//6
f 17//8 14//7 18//9
f 18//9 21//10 17//8
f 21//10 18//9 22//11
f 22//11 25//12 21//10
f 25//12 22//11 26//13
f 26//13 29//14 25//12
f 29//14 26//13 30//15
f 30//15 33//16 29//14
f 33//16 30//15 34//17
f 34//17 37//18 33//16
f 37//18 34//17 38//19
f 38//19 41//20 37//18
f 41//20 38//19 42//21
f 45//22 41//20 42//21
f 41//20 45//22 46//23
f 49//24 46//23 45//22
f 46//23 49//24 50//24
usemtl material_1_0
f 5/1/25 6/2/25 7/3/26
f 8/4/27 7/3/26 6/2/25
f 7/3/26 8/5/27 11/6/28
f 12/7/29 11/6/28 8/5/27
f 15/8/30 11/6/28 16/9/31
f 12/10/29 16/9/31 11/6/28
f 19/11/32 15/8/30 20/12/33
f 16/13/31 20/12/33 15/8/30
f 23/14/34 19/11/32 24/15/35
f 20/16/33 24/15/35 19/11/32
f 27/17/36 23/14/34 28/18/37
f 24/19/35 28/18/37 23/14/34
f 31/20/38 27/17/36 32/21/39
f 28/22/37 32/21/39 27/17/36
f 35/23/40 31/20/38 36/24/41
f 32/25/39 36/24/41 31/20/38
f 39/26/42 35/23/40 40/27/43
f 36/28/41 40/27/43 35/23/40
f 43/29/44 39/26/42 44/30/45
f 40/31/43 44/30/45 39/26/42
f 47/32/46 48/33/47 44/34/45
f 43/29/44 44/34/45 48/33/47
f 51/35/48 52/36/48 47/37/46
f 48/38/47 47/37/46 52/36/48
