# SSTK version 0.8.0
# 28
mtllib original-28.mtl
o #ID194
v 0.021336 -0.886780 0.237722
v 0.013638 0.516096 0.238453
v 0.021339 0.516125 0.237753
v 0.013634 -0.886780 0.238402
v 0.013634 -0.886780 0.238402
v 0.021336 -0.886780 0.237722
v 0.013638 0.516096 0.238453
v 0.021339 0.516125 0.237753
v 0.013634 -0.900952 0.233979
v 0.021336 -0.900951 0.233302
vn -0.08591851716035996 0.2242202925894331 -0.9707436679165484
vn -0.08276308763174883 -0.34964988999483004 -0.9332176732961409
vn -0.08269250618084048 -0.3516222837602988 -0.9324825569332241
vn -0.08590306271384945 0.22483420710296198 -0.9706030306632897
vn 0.08590306271384945 -0.22483420710296198 0.9706030306632897
vn 0.08591851716035996 -0.2242202925894331 0.9707436679165484
vn 0.08276308763174883 0.34964988999483004 0.9332176732961409
vn 0.08269250618084048 0.3516222837602988 0.9324825569332241
vn 0.08383372347480696 -0.29682161230289866 0.9512459394279995
usemtl material_0_0
f 5//5 6//6 7//7
f 8//8 7//7 6//6
f 6//6 9//9 10//9
f 9//9 6//6 5//5
usemtl material_1_0
f 1//1 2//2 3//3
f 2//2 1//1 4//4
