# SSTK version 0.8.0
# 6
mtllib original-6.mtl
o #ID55
v -0.009470 0.862222 0.374913
v -0.005802 0.890082 0.374913
v -0.005802 0.861739 0.374913
v -0.012888 0.863638 0.374913
v -0.015823 0.865890 0.374913
v -0.018075 0.868825 0.374913
v -0.019490 0.872243 0.374913
v -0.019973 0.875910 0.374913
v -0.019490 0.879579 0.374913
v -0.018075 0.882996 0.374913
v -0.015823 0.885932 0.374913
v -0.012888 0.888184 0.374913
v -0.009470 0.889599 0.374913
v -0.009470 0.889599 0.374913
v -0.012888 0.888184 0.374913
v -0.005802 0.890082 0.374913
v -0.015823 0.885932 0.374913
v -0.018075 0.882996 0.374913
v -0.019490 0.879579 0.374913
v -0.019973 0.875910 0.374913
v -0.019490 0.872243 0.374913
v -0.018075 0.868825 0.374913
v -0.015823 0.865890 0.374913
v -0.012888 0.863638 0.374913
v -0.009470 0.862222 0.374913
v -0.005802 0.861739 0.374913
v -0.005802 0.890082 0.403256
v -0.005802 0.890082 0.406799
v -0.009470 0.889599 0.406799
v -0.009470 0.889599 0.406799
v -0.005802 0.890082 0.406799
v -0.005802 0.890082 0.403256
v -0.005802 0.861739 0.403256
v -0.005802 0.861739 0.406799
v -0.009470 0.862222 0.406799
v -0.009470 0.862222 0.406799
v -0.005802 0.861739 0.406799
v -0.005802 0.861739 0.403256
v -0.012888 0.863638 0.406799
v -0.012888 0.863638 0.406799
v -0.015823 0.865890 0.406799
v -0.015823 0.865890 0.406799
v -0.018075 0.868825 0.406799
v -0.018075 0.868825 0.406799
v -0.019490 0.872243 0.406799
v -0.019490 0.872243 0.406799
v -0.019973 0.875910 0.406799
v -0.019973 0.875910 0.406799
v -0.019490 0.879579 0.406799
v -0.019490 0.879579 0.406799
v -0.018075 0.882996 0.406799
v -0.018075 0.882996 0.406799
v -0.015823 0.885932 0.406799
v -0.015823 0.885932 0.406799
v -0.012888 0.888184 0.406799
v -0.012888 0.888184 0.406799
v -0.010989 0.856552 0.406799
v -0.005802 0.861739 0.406799
v -0.005802 0.855869 0.406799
v -0.015823 0.858554 0.406799
v -0.019973 0.861739 0.406799
v -0.009470 0.862222 0.406799
v -0.023158 0.865890 0.406799
v -0.012888 0.863638 0.406799
v -0.015823 0.865890 0.406799
v -0.025161 0.870723 0.406799
v -0.018075 0.868825 0.406799
v -0.019490 0.872243 0.406799
v -0.025843 0.875910 0.406799
v -0.019973 0.875910 0.406799
v -0.025161 0.881098 0.406799
v -0.019490 0.879579 0.406799
v -0.018075 0.882996 0.406799
v -0.023158 0.885932 0.406799
v -0.015823 0.885932 0.406799
v -0.019973 0.890082 0.406799
v -0.012888 0.888184 0.406799
v -0.009470 0.889599 0.406799
v -0.005802 0.890082 0.406799
v -0.015823 0.893267 0.406799
v -0.005802 0.895952 0.406799
v -0.010989 0.895269 0.406799
v -0.010989 0.895269 0.406799
v -0.015823 0.893267 0.406799
v -0.005802 0.895952 0.406799
v -0.005802 0.890082 0.406799
v -0.019973 0.890082 0.406799
v -0.009470 0.889599 0.406799
v -0.012888 0.888184 0.406799
v -0.015823 0.885932 0.406799
v -0.023158 0.885932 0.406799
v -0.018075 0.882996 0.406799
v -0.025161 0.881098 0.406799
v -0.019490 0.879579 0.406799
v -0.019973 0.875910 0.406799
v -0.025843 0.875910 0.406799
v -0.019490 0.872243 0.406799
v -0.025161 0.870723 0.406799
v -0.018075 0.868825 0.406799
v -0.015823 0.865890 0.406799
v -0.023158 0.865890 0.406799
v -0.012888 0.863638 0.406799
v -0.009470 0.862222 0.406799
v -0.019973 0.861739 0.406799
v -0.005802 0.861739 0.406799
v -0.015823 0.858554 0.406799
v -0.010989 0.856552 0.406799
v -0.005802 0.855869 0.406799
v -0.005802 0.890082 0.403256
v -0.005802 0.895952 0.406799
v -0.005802 0.895952 0.403256
v -0.005802 0.890082 0.406799
v -0.005802 0.890082 0.406799
v -0.005802 0.890082 0.403256
v -0.005802 0.895952 0.406799
v -0.005802 0.895952 0.403256
v -0.005802 0.855869 0.406799
v -0.005802 0.861739 0.403256
v -0.005802 0.855869 0.403256
v -0.005802 0.861739 0.406799
v -0.005802 0.861739 0.406799
v -0.005802 0.855869 0.406799
v -0.005802 0.861739 0.403256
v -0.005802 0.855869 0.403256
v -0.005802 0.895952 0.406799
v -0.010989 0.895269 0.403256
v -0.005802 0.895952 0.403256
v -0.010989 0.895269 0.406799
v -0.010989 0.895269 0.406799
v -0.005802 0.895952 0.406799
v -0.010989 0.895269 0.403256
v -0.005802 0.895952 0.403256
v -0.010989 0.856552 0.403256
v -0.005802 0.855869 0.406799
v -0.005802 0.855869 0.403256
v -0.010989 0.856552 0.406799
v -0.010989 0.856552 0.406799
v -0.010989 0.856552 0.403256
v -0.005802 0.855869 0.406799
v -0.005802 0.855869 0.403256
v -0.015823 0.858554 0.403256
v -0.015823 0.858554 0.406799
v -0.015823 0.858554 0.406799
v -0.015823 0.858554 0.403256
v -0.019973 0.861739 0.403256
v -0.019973 0.861739 0.406799
v -0.019973 0.861739 0.406799
v -0.019973 0.861739 0.403256
v -0.023158 0.865890 0.406799
v -0.023158 0.865890 0.403256
v -0.023158 0.865890 0.406799
v -0.023158 0.865890 0.403256
v -0.025161 0.870723 0.403256
v -0.025161 0.870723 0.406799
v -0.025161 0.870723 0.406799
v -0.025161 0.870723 0.403256
v -0.025843 0.875910 0.406799
v -0.025843 0.875910 0.403256
v -0.025843 0.875910 0.406799
v -0.025843 0.875910 0.403256
v -0.025161 0.881098 0.406799
v -0.025161 0.881098 0.403256
v -0.025161 0.881098 0.406799
v -0.025161 0.881098 0.403256
v -0.023158 0.885932 0.406799
v -0.023158 0.885932 0.403256
v -0.023158 0.885932 0.406799
v -0.023158 0.885932 0.403256
v -0.019973 0.890082 0.406799
v -0.019973 0.890082 0.403256
v -0.019973 0.890082 0.406799
v -0.019973 0.890082 0.403256
v -0.015823 0.893267 0.406799
v -0.015823 0.893267 0.403256
v -0.015823 0.893267 0.406799
v -0.015823 0.893267 0.403256
vn -0.1900390015903936 -0.7092353059354263 -0.6788744056813517
vn -0.09621792078082879 0.7308477059309882 -0.6757246054836437
vn -0.09621792078082879 -0.7308477059309796 -0.675724605483653
vn -0.36712719602691274 -0.6358829931184065 -0.6788743926531576
vn -0.5191962878397117 -0.5191962878397075 -0.6788743840998352
vn -0.6358829931184107 -0.36712719602690846 -0.6788743926531559
vn -0.7092353059354307 -0.19003900159038933 -0.6788744056813485
vn -0.7342544092168312 0 -0.6788744085216663
vn -0.7092353059354307 0.19003900159039805 -0.678874405681346
vn -0.6358829931184107 0.36712719602691724 -0.6788743926531512
vn -0.5191962878397117 0.5191962878397162 -0.6788743840998286
vn -0.36712719602691274 0.6358829931184151 -0.6788743926531494
vn -0.1900390015903936 0.7092353059354349 -0.6788744056813426
vn -0.13052619486885547 0.9914448610250888 0
vn -0.2588190095935616 0.9659258358036645 0
vn -0.13052619486885547 -0.9914448610250888 0
vn -0.2588190095935616 -0.9659258358036645 0
vn -0.50000000163871 -0.8660254028383291 0
vn -0.7071067811865475 -0.7071067811865476 0
vn -0.8660254028383289 -0.5000000016387101 0
vn -0.9659258358036644 -0.25881900959356163 0
vn -1 0 0
vn -0.9659258358036644 0.25881900959356163 0
vn -0.8660254028383289 0.5000000016387101 0
vn -0.7071067811865475 0.7071067811865476 0
vn -0.50000000163871 0.8660254028383291 0
vn 0 0 -1
vn 0.13052619486885547 -0.9914448610250888 0
vn 0.2588190095935616 -0.9659258358036645 0
vn 0.2588190095935616 0.9659258358036645 0
vn 0.13052619486885547 0.9914448610250888 0
vn 0.50000000163871 0.8660254028383291 0
vn 0.7071067811865475 0.7071067811865476 0
vn 0.8660254028383289 0.5000000016387101 0
vn 0.9659258358036644 0.25881900959356163 0
vn 1 0 0
vn 0.9659258358036644 -0.25881900959356163 0
vn 0.8660254028383289 -0.5000000016387101 0
vn 0.7071067811865475 -0.7071067811865476 0
vn 0.50000000163871 -0.8660254028383291 0
vn 0.1900390015903936 -0.7092353059354349 0.6788744056813426
vn 0.36712719602691274 -0.6358829931184151 0.6788743926531494
vn 0.09621792078082879 -0.7308477059309882 0.6757246054836437
vn 0.5191962878397117 -0.5191962878397162 0.6788743840998286
vn 0.6358829931184107 -0.36712719602691724 0.6788743926531512
vn 0.7092353059354307 -0.19003900159039805 0.678874405681346
vn 0.7342544092168312 0 0.6788744085216663
vn 0.7092353059354307 0.19003900159038933 0.6788744056813485
vn 0.6358829931184107 0.36712719602690846 0.6788743926531559
vn 0.5191962878397117 0.5191962878397075 0.6788743840998352
vn 0.36712719602691274 0.6358829931184065 0.6788743926531576
vn 0.1900390015903936 0.7092353059354263 0.6788744056813517
vn 0.09621792078082879 0.7308477059309796 0.675724605483653
vn 0 0 1
usemtl material_0_0
f 1//1 2//2 3//3
f 2//2 1//1 4//4
f 2//2 4//4 5//5
f 2//2 5//5 6//6
f 2//2 6//6 7//7
f 2//2 7//7 8//8
f 2//2 8//8 9//9
f 2//2 9//9 10//10
f 2//2 10//10 11//11
f 2//2 11//11 12//12
f 2//2 12//12 13//13
f 13//13 27//14 2//2
f 27//14 13//13 28//14
f 28//14 13//13 29//15
f 33//16 1//1 3//3
f 1//1 33//16 34//16
f 1//1 34//16 35//17
f 35//17 4//4 1//1
f 4//4 35//17 39//18
f 39//18 5//5 4//4
f 5//5 39//18 41//19
f 41//19 6//6 5//5
f 6//6 41//19 43//20
f 43//20 7//7 6//6
f 7//7 43//20 45//21
f 45//21 8//8 7//7
f 8//8 45//21 47//22
f 47//22 9//9 8//8
f 9//9 47//22 49//23
f 49//23 10//10 9//9
f 10//10 49//23 51//24
f 51//24 11//11 10//10
f 11//11 51//24 53//25
f 11//11 55//26 12//12
f 55//26 11//11 53//25
f 12//12 29//15 13//13
f 29//15 12//12 55//26
f 57//27 58//27 59//27
f 58//27 57//27 60//27
f 58//27 60//27 61//27
f 58//27 61//27 62//27
f 62//27 61//27 63//27
f 62//27 63//27 64//27
f 64//27 63//27 65//27
f 65//27 63//27 66//27
f 65//27 66//27 67//27
f 67//27 66//27 68//27
f 68//27 66//27 69//27
f 68//27 69//27 70//27
f 70//27 69//27 71//27
f 70//27 71//27 72//27
f 72//27 71//27 73//27
f 73//27 71//27 74//27
f 73//27 74//27 75//27
f 75//27 74//27 76//27
f 75//27 76//27 77//27
f 77//27 76//27 78//27
f 78//27 76//27 79//27
f 79//27 76//27 80//27
f 79//27 80//27 81//27
f 81//27 80//27 82//27
f 109//22 110//22 111//22
f 110//22 109//22 112//22
f 117//22 118//22 119//22
f 118//22 117//22 120//22
f 125//28 126//29 127//28
f 126//29 125//28 128//29
f 133//30 134//31 135//31
f 134//31 133//30 136//30
f 141//32 136//30 133//30
f 136//30 141//32 142//32
f 145//33 142//32 141//32
f 142//32 145//33 146//33
f 149//34 145//33 150//34
f 145//33 149//34 146//33
f 153//35 149//34 150//34
f 149//34 153//35 154//35
f 157//36 153//35 158//36
f 153//35 157//36 154//35
f 161//37 158//36 162//37
f 158//36 161//37 157//36
f 165//38 162//37 166//38
f 162//37 165//38 161//37
f 169//39 166//38 170//39
f 166//38 169//39 165//38
f 173//40 170//39 174//40
f 170//39 173//40 169//39
f 128//29 174//40 126//29
f 174//40 128//29 173//40
usemtl material_1_0
f 14//41 15//42 16//43
f 15//42 17//44 16//43
f 17//44 18//45 16//43
f 18//45 19//46 16//43
f 19//46 20//47 16//43
f 20//47 21//48 16//43
f 21//48 22//49 16//43
f 22//49 23//50 16//43
f 23//50 24//51 16//43
f 24//51 25//52 16//43
f 26//53 16//43 25//52
f 30//29 14//41 31//28
f 31//28 14//41 32//28
f 16//43 32//28 14//41
f 36//30 37//31 25//52
f 37//31 38//31 25//52
f 26//53 25//52 38//31
f 40//32 36//30 24//51
f 25//52 24//51 36//30
f 42//33 40//32 23//50
f 24//51 23//50 40//32
f 44//34 42//33 22//49
f 23//50 22//49 42//33
f 46//35 44//34 21//48
f 22//49 21//48 44//34
f 48//36 46//35 20//47
f 21//48 20//47 46//35
f 50//37 48//36 19//46
f 20//47 19//46 48//36
f 52//38 50//37 18//45
f 19//46 18//45 50//37
f 54//39 52//38 17//44
f 18//45 17//44 52//38
f 54//39 17//44 56//40
f 15//42 56//40 17//44
f 56//40 15//42 30//29
f 14//41 30//29 15//42
f 83//54 84//54 85//54
f 85//54 84//54 86//54
f 84//54 87//54 86//54
f 86//54 87//54 88//54
f 88//54 87//54 89//54
f 89//54 87//54 90//54
f 87//54 91//54 90//54
f 90//54 91//54 92//54
f 91//54 93//54 92//54
f 92//54 93//54 94//54
f 94//54 93//54 95//54
f 93//54 96//54 95//54
f 95//54 96//54 97//54
f 96//54 98//54 97//54
f 97//54 98//54 99//54
f 99//54 98//54 100//54
f 98//54 101//54 100//54
f 100//54 101//54 102//54
f 102//54 101//54 103//54
f 101//54 104//54 103//54
f 103//54 104//54 105//54
f 104//54 106//54 105//54
f 106//54 107//54 105//54
f 108//54 105//54 107//54
f 113//36 114//36 115//36
f 116//36 115//36 114//36
f 121//36 122//36 123//36
f 124//36 123//36 122//36
f 129//15 130//14 131//15
f 132//14 131//15 130//14
f 137//17 138//17 139//16
f 140//16 139//16 138//17
f 143//18 144//18 137//17
f 138//17 137//17 144//18
f 147//19 148//19 143//18
f 144//18 143//18 148//19
f 147//19 151//20 148//19
f 152//20 148//19 151//20
f 155//21 156//21 151//20
f 152//20 151//20 156//21
f 155//21 159//22 156//21
f 160//22 156//21 159//22
f 159//22 163//23 160//22
f 164//23 160//22 163//23
f 163//23 167//24 164//23
f 168//24 164//23 167//24
f 167//24 171//25 168//24
f 172//25 168//24 171//25
f 171//25 175//26 172//25
f 176//26 172//25 175//26
f 175//26 129//15 176//26
f 131//15 176//26 129//15
