# SSTK version 0.8.0
# 21
mtllib original-21.mtl
o #ID148
v 0.027053 0.757130 0.075419
v -0.038970 0.757130 0.075419
v -0.005958 0.757130 0.079765
v 0.057814 0.757130 0.062677
v -0.069731 0.757130 0.062677
v 0.084229 0.757130 0.042408
v -0.096146 0.757130 0.042408
v 0.104499 0.757130 0.015992
v -0.116415 0.757130 0.015992
v 0.117240 0.757130 -0.014769
v -0.129157 0.757130 -0.014769
v 0.121586 0.757130 -0.047780
v -0.133503 0.757130 -0.047780
v 0.117240 0.757130 -0.080791
v -0.129157 0.757130 -0.080791
v 0.104499 0.757130 -0.111552
v -0.116415 0.757130 -0.111552
v 0.084229 0.757130 -0.137968
v -0.096146 0.757130 -0.137968
v 0.057814 0.757130 -0.158237
v -0.069731 0.757130 -0.158237
v 0.027053 0.757130 -0.170979
v -0.038970 0.757130 -0.170979
v -0.005958 0.757130 -0.175325
v -0.005958 0.757130 -0.175325
v 0.027053 0.757130 -0.170979
v -0.038970 0.757130 -0.170979
v -0.069731 0.757130 -0.158237
v 0.057814 0.757130 -0.158237
v -0.096146 0.757130 -0.137968
v 0.084229 0.757130 -0.137968
v -0.116415 0.757130 -0.111552
v 0.104499 0.757130 -0.111552
v -0.129157 0.757130 -0.080791
v 0.117240 0.757130 -0.080791
v -0.133503 0.757130 -0.047780
v 0.121586 0.757130 -0.047780
v -0.129157 0.757130 -0.014769
v 0.117240 0.757130 -0.014769
v -0.116415 0.757130 0.015992
v 0.104499 0.757130 0.015992
v -0.096146 0.757130 0.042408
v 0.084229 0.757130 0.042408
v -0.069731 0.757130 0.062677
v 0.057814 0.757130 0.062677
v -0.038970 0.757130 0.075419
v 0.027053 0.757130 0.075419
v -0.005958 0.757130 0.079765
v -0.069731 0.757130 0.062677
v -0.038970 0.714615 0.075419
v -0.038970 0.757130 0.075419
v -0.069731 0.714615 0.062677
v -0.069731 0.714615 0.062677
v -0.069731 0.757130 0.062677
v -0.038970 0.714615 0.075419
v -0.038970 0.757130 0.075419
v -0.005958 0.714615 0.079765
v -0.005958 0.757130 0.079765
v -0.005958 0.714615 0.079765
v -0.005958 0.757130 0.079765
v 0.027053 0.714615 0.075419
v 0.027053 0.757130 0.075419
v 0.027053 0.714615 0.075419
v 0.027053 0.757130 0.075419
v 0.057814 0.714615 0.062677
v 0.057814 0.757130 0.062677
v 0.057814 0.714615 0.062677
v 0.057814 0.757130 0.062677
v 0.084229 0.714615 0.042408
v 0.084229 0.757130 0.042408
v 0.084229 0.714615 0.042408
v 0.084229 0.757130 0.042408
v 0.104499 0.757130 0.015992
v 0.104499 0.714615 0.015992
v 0.104499 0.757130 0.015992
v 0.104499 0.714615 0.015992
v 0.117240 0.757130 -0.014769
v 0.117240 0.714615 -0.014769
v 0.117240 0.757130 -0.014769
v 0.117240 0.714615 -0.014769
v 0.121586 0.757130 -0.047780
v 0.121586 0.714615 -0.047780
v 0.121586 0.757130 -0.047780
v 0.121586 0.714615 -0.047780
v 0.117240 0.757130 -0.080791
v 0.117240 0.714615 -0.080791
v 0.117240 0.757130 -0.080791
v 0.117240 0.714615 -0.080791
v 0.104499 0.757130 -0.111552
v 0.104499 0.714615 -0.111552
v 0.104499 0.757130 -0.111552
v 0.104499 0.714615 -0.111552
v 0.084229 0.757130 -0.137968
v 0.084229 0.714615 -0.137968
v 0.084229 0.757130 -0.137968
v 0.084229 0.714615 -0.137968
v 0.057814 0.714615 -0.158237
v 0.057814 0.757130 -0.158237
v 0.057814 0.757130 -0.158237
v 0.057814 0.714615 -0.158237
v 0.027053 0.714615 -0.170979
v 0.027053 0.757130 -0.170979
v 0.027053 0.757130 -0.170979
v 0.027053 0.714615 -0.170979
v -0.005958 0.714615 -0.175325
v -0.005958 0.757130 -0.175325
v -0.005958 0.757130 -0.175325
v -0.005958 0.714615 -0.175325
v -0.038970 0.714615 -0.170979
v -0.038970 0.757130 -0.170979
v -0.038970 0.757130 -0.170979
v -0.038970 0.714615 -0.170979
v -0.069731 0.714615 -0.158237
v -0.069731 0.757130 -0.158237
v -0.069731 0.757130 -0.158237
v -0.069731 0.714615 -0.158237
v -0.096146 0.714615 -0.137968
v -0.096146 0.757130 -0.137968
v -0.096146 0.757130 -0.137968
v -0.096146 0.714615 -0.137968
v -0.116415 0.757130 -0.111552
v -0.116415 0.714615 -0.111552
v -0.116415 0.757130 -0.111552
v -0.116415 0.714615 -0.111552
v -0.129157 0.757130 -0.080791
v -0.129157 0.714615 -0.080791
v -0.129157 0.757130 -0.080791
v -0.129157 0.714615 -0.080791
v -0.133503 0.757130 -0.047780
v -0.133503 0.714615 -0.047780
v -0.133503 0.757130 -0.047780
v -0.133503 0.714615 -0.047780
v -0.129157 0.757130 -0.014769
v -0.129157 0.714615 -0.014769
v -0.129157 0.757130 -0.014769
v -0.129157 0.714615 -0.014769
v -0.116415 0.757130 0.015992
v -0.116415 0.714615 0.015992
v -0.116415 0.757130 0.015992
v -0.116415 0.714615 0.015992
v -0.096146 0.757130 0.042408
v -0.096146 0.714615 0.042408
v -0.096146 0.757130 0.042408
v -0.096146 0.714615 0.042408
vn 0 1 0
vn 0 -1 0
vn -0.5000000016387101 0 0.866025402838329
vn -0.25881900959356163 0 0.9659258358036645
vn 0.5000000016387101 0 -0.866025402838329
vn 0.25881900959356163 0 -0.9659258358036645
vn 0 0 1
vn 0 0 -1
vn 0.25881900959356163 0 0.9659258358036645
vn -0.25881900959356163 0 -0.9659258358036645
vn 0.5000000016387101 0 0.866025402838329
vn -0.5000000016387101 0 -0.866025402838329
vn 0.7071067811865476 0 0.7071067811865476
vn -0.7071067811865476 0 -0.7071067811865476
vn 0.866025402838329 0 0.5000000016387101
vn -0.866025402838329 0 -0.5000000016387101
vn 0.9659258358036645 0 0.25881900959356163
vn -0.9659258358036645 0 -0.25881900959356163
vn 1 0 0
vn -1 0 0
vn 0.9659258358036645 0 -0.25881900959356163
vn -0.9659258358036645 0 0.25881900959356163
vn 0.866025402838329 0 -0.5000000016387101
vn -0.866025402838329 0 0.5000000016387101
vn 0.7071067811865476 0 -0.7071067811865476
vn -0.7071067811865476 0 0.7071067811865476
usemtl material_0_0
f 1//1 2//1 3//1
f 2//1 1//1 4//1
f 2//1 4//1 5//1
f 5//1 4//1 6//1
f 5//1 6//1 7//1
f 7//1 6//1 8//1
f 7//1 8//1 9//1
f 9//1 8//1 10//1
f 9//1 10//1 11//1
f 11//1 10//1 12//1
f 11//1 12//1 13//1
f 13//1 12//1 14//1
f 13//1 14//1 15//1
f 15//1 14//1 16//1
f 15//1 16//1 17//1
f 17//1 16//1 18//1
f 17//1 18//1 19//1
f 19//1 18//1 20//1
f 19//1 20//1 21//1
f 21//1 20//1 22//1
f 21//1 22//1 23//1
f 23//1 22//1 24//1
f 25//2 26//2 27//2
f 27//2 26//2 28//2
f 26//2 29//2 28//2
f 28//2 29//2 30//2
f 29//2 31//2 30//2
f 30//2 31//2 32//2
f 31//2 33//2 32//2
f 32//2 33//2 34//2
f 33//2 35//2 34//2
f 34//2 35//2 36//2
f 35//2 37//2 36//2
f 36//2 37//2 38//2
f 37//2 39//2 38//2
f 38//2 39//2 40//2
f 39//2 41//2 40//2
f 40//2 41//2 42//2
f 41//2 43//2 42//2
f 42//2 43//2 44//2
f 43//2 45//2 44//2
f 44//2 45//2 46//2
f 45//2 47//2 46//2
f 48//2 46//2 47//2
f 49//3 50//4 51//4
f 50//4 49//3 52//3
f 53//5 54//5 55//6
f 56//6 55//6 54//5
f 51//4 57//7 58//7
f 57//7 51//4 50//4
f 55//6 56//6 59//8
f 60//8 59//8 56//6
f 58//7 61//9 62//9
f 61//9 58//7 57//7
f 59//8 60//8 63//10
f 64//10 63//10 60//8
f 62//9 65//11 66//11
f 65//11 62//9 61//9
f 63//10 64//10 67//12
f 68//12 67//12 64//10
f 66//11 69//13 70//13
f 69//13 66//11 65//11
f 67//12 68//12 71//14
f 72//14 71//14 68//12
f 73//15 69//13 74//15
f 69//13 73//15 70//13
f 72//14 75//16 71//14
f 76//16 71//14 75//16
f 77//17 74//15 78//17
f 74//15 77//17 73//15
f 75//16 79//18 76//16
f 80//18 76//16 79//18
f 81//19 78//17 82//19
f 78//17 81//19 77//17
f 79//18 83//20 80//18
f 84//20 80//18 83//20
f 85//21 82//19 86//21
f 82//19 85//21 81//19
f 83//20 87//22 84//20
f 88//22 84//20 87//22
f 89//23 86//21 90//23
f 86//21 89//23 85//21
f 87//22 91//24 88//22
f 92//24 88//22 91//24
f 93//25 90//23 94//25
f 90//23 93//25 89//23
f 91//24 95//26 92//24
f 96//26 92//24 95//26
f 97//5 93//25 94//25
f 93//25 97//5 98//5
f 99//3 100//3 95//26
f 96//26 95//26 100//3
f 101//6 98//5 97//5
f 98//5 101//6 102//6
f 103//4 104//4 99//3
f 100//3 99//3 104//4
f 105//8 102//6 101//6
f 102//6 105//8 106//8
f 107//7 108//7 103//4
f 104//4 103//4 108//7
f 109//10 106//8 105//8
f 106//8 109//10 110//10
f 111//9 112//9 107//7
f 108//7 107//7 112//9
f 113//12 110//10 109//10
f 110//10 113//12 114//12
f 115//11 116//11 111//9
f 112//9 111//9 116//11
f 117//14 114//12 113//12
f 114//12 117//14 118//14
f 119//13 120//13 115//11
f 116//11 115//11 120//13
f 121//16 117//14 122//16
f 117//14 121//16 118//14
f 119//13 123//15 120//13
f 124//15 120//13 123//15
f 125//18 122//16 126//18
f 122//16 125//18 121//16
f 123//15 127//17 124//15
f 128//17 124//15 127//17
f 129//20 126//18 130//20
f 126//18 129//20 125//18
f 127//17 131//19 128//17
f 132//19 128//17 131//19
f 133//22 130//20 134//22
f 130//20 133//22 129//20
f 131//19 135//21 132//19
f 136//21 132//19 135//21
f 137//24 134//22 138//24
f 134//22 137//24 133//22
f 135//21 139//23 136//21
f 140//23 136//21 139//23
f 141//26 138//24 142//26
f 138//24 141//26 137//24
f 139//23 143//25 140//23
f 144//25 140//23 143//25
f 141//26 52//3 49//3
f 52//3 141//26 142//26
f 144//25 143//25 53//5
f 54//5 53//5 143//25
