# SSTK version 0.8.0
# 31
mtllib original-31.mtl
o #ID214
v 0.167489 0.177343 -0.283947
v 0.170987 0.172128 -0.281499
v 0.170987 0.177343 -0.281499
v 0.167364 0.172128 -0.284035
v 0.166439 0.177006 -0.284683
v 0.166331 0.172540 -0.284758
v 0.165659 0.176082 -0.285229
v 0.165598 0.173518 -0.285272
v 0.165353 0.174810 -0.285444
v 0.165353 0.174810 -0.285444
v 0.165659 0.176082 -0.285229
v 0.165598 0.173518 -0.285272
v 0.166331 0.172540 -0.284758
v 0.166439 0.177006 -0.284683
v 0.167364 0.172128 -0.284035
v 0.167489 0.177343 -0.283947
v 0.170987 0.172128 -0.281499
v 0.170987 0.177343 -0.281499
vt 0.9343884 0.4700209
vt 0.9276477 0.4577794
vt 0.9276477 0.4700209
vt 0.9346298 0.4577794
vt 0.9364133 0.4692298
vt 0.9366201 0.4587455
vt 0.9379153 0.467061
vt 0.938034 0.4610415
vt 0.9385064 0.4640744
vn -0.5735764391196354 0 0.8191520423504048
vn 0.5735764391196354 0 -0.8191520423504048
usemtl material_0_0
f 10//2 11//2 12//2
f 12//2 11//2 13//2
f 11//2 14//2 13//2
f 13//2 14//2 15//2
f 14//2 16//2 15//2
f 15//2 16//2 17//2
f 18//2 17//2 16//2
usemtl material_1_0
f 1/1/1 2/2/1 3/3/1
f 2/2/1 1/1/1 4/4/1
f 4/4/1 1/1/1 5/5/1
f 4/4/1 5/5/1 6/6/1
f 6/6/1 5/5/1 7/7/1
f 6/6/1 7/7/1 8/8/1
f 8/8/1 7/7/1 9/9/1
