# SSTK version 0.8.0
# 5
mtllib original-5.mtl
o mesh6/mesh6-geometry#mesh6-geometry
v -0.843324 -0.465830 -0.154326
v -0.732963 -0.355469 -0.154326
v 0.844636 -0.465830 -0.154326
v -0.843324 0.577387 -0.154326
v 0.734275 -0.355469 -0.154326
v -0.843324 -0.465830 -0.109756
v -0.732963 0.467026 -0.154326
v 0.844636 0.577387 -0.154326
v 0.734275 -0.355469 -0.109756
v -0.599124 -0.221630 -0.154326
v 0.844636 -0.465830 -0.109756
v -0.843324 0.577387 -0.109756
v 0.734275 0.467026 -0.154326
v -0.732963 0.467026 -0.109756
v 0.844636 0.577387 -0.109756
v -0.732963 -0.355469 -0.109756
v 0.600436 -0.221630 -0.154326
v 0.600436 0.333187 -0.154326
v -0.599124 0.333187 -0.154326
v 0.734275 0.467026 -0.109756
v -0.499992 -0.221630 -0.154326
v 0.501304 0.333187 -0.154326
v -0.499992 0.333187 -0.154326
v -0.599124 0.333187 -0.279679
v -0.499992 -0.221630 -0.279679
v -0.232315 -0.221630 -0.154326
v 0.600436 -0.221630 -0.279679
v 0.233627 0.333187 -0.154326
v 0.501304 0.333187 -0.279679
v -0.232315 0.333187 -0.154326
v -0.599124 -0.221630 -0.279679
v -0.133183 -0.221630 -0.154326
v 0.600436 0.333187 -0.279679
v 0.501304 -0.221630 -0.154326
v 0.134495 0.333187 -0.154326
v -0.133183 0.333187 -0.154326
v -0.499992 0.333187 -0.279679
v -0.133183 -0.221630 -0.279679
v 0.134495 -0.221630 -0.154326
v 0.501304 -0.221630 -0.279679
v 0.233627 -0.221630 -0.154326
v 0.134495 0.333187 -0.279679
v -0.232315 0.333187 -0.279679
v -0.232315 -0.221630 -0.279679
v 0.233627 0.333187 -0.279679
v 0.233627 -0.221630 -0.279679
v -0.133183 0.333187 -0.279679
v 0.134495 -0.221630 -0.279679
vt -0.275125 0.275125
vt -0.608779 3.599233
vt -0.275125 3.932887
vt -2.325569 3.932887
vt -0.608779 0.608779
vt -1.991915 0.608779
vt -2.325569 0.275125
vt -1.991915 3.599233
vt -0.608779 3.352101
vt -1.991915 0.855911
vt -1.991915 3.352101
vt -1.991915 0
vt -0.608779 0
vt -1.991915 -0.3125
vt -3.352101 0
vt -3.352101 -0.3125
vt -3.599233 0
vt -0.608779 2.684792
vt 0.608779 0
vt 1.991915 0
vt 0.608779 -0.3125
vt -1.991915 1.52322
vt 0.855911 0
vt 0.855911 -0.3125
vt -1.991915 2.684792
vt 3.599233 0
vt 3.599233 -0.3125
vt 3.352101 0
vt -0.608779 -0.3125
vt -3.599233 -0.3125
vt -0.608779 2.43766
vt 1.991915 -0.3125
vt -0.855911 0
vt -1.991915 1.770352
vt -0.608779 0.855911
vt -1.991915 2.43766
vt 3.352101 -0.3125
vt -2.43766 0
vt -2.43766 -0.3125
vt -2.684792 0
vt -0.608779 1.770352
vt -0.855911 -0.3125
vt -0.608779 1.52322
vt 1.770352 0
vt 1.770352 -0.3125
vt 1.52322 0
vt 2.684792 0
vt 2.684792 -0.3125
vt 2.43766 0
vt -2.684792 -0.3125
vt 1.52322 -0.3125
vt 2.43766 -0.3125
vt -1.52322 0
vt -1.52322 -0.3125
vt -1.770352 0
vt -1.770352 -0.3125
vn 0 0 -1
vn 0 0 1
vn 0.7071067811865478 0.7071067811865476 0
vn 0.577350269189626 0.5773502691896257 -0.5773502691896258
vn -0.7071067811865476 0.7071067811865478 0
vn 0.7071067811865476 -0.7071067811865478 0
vn 0.5773502691896257 -0.577350269189626 -0.5773502691896258
vn -0.7071067811865478 -0.7071067811865476 0
vn -0.5773502691896257 0.577350269189626 -0.5773502691896258
vn -0.577350269189626 -0.5773502691896257 -0.5773502691896258
vn -1 0 0
vn 0 -1 0
vn 1 0 0
vn 0 1 0
vn -0.577350269189626 -0.5773502691896257 0.5773502691896258
vn -0.5773502691896257 0.577350269189626 0.5773502691896258
vn 0.5773502691896257 -0.577350269189626 0.5773502691896258
vn 0.577350269189626 0.5773502691896257 0.5773502691896258
usemtl material_0_0
f 1//1 2//1 3//1
f 2//1 1//1 4//1
f 3//2 2//2 1//2
f 4//2 1//2 2//2
f 5//1 3//1 2//1
f 2//2 3//2 5//2
f 1//3 6//4 3//5
f 1//3 4//6 6//4
f 2//1 4//1 7//1
f 7//2 4//2 2//2
f 3//1 5//1 8//1
f 8//2 5//2 3//2
f 5//6 9//7 2//8
f 2//1 10//1 5//1
f 11//9 3//5 6//4
f 12//7 6//4 4//6
f 7//1 4//1 13//1
f 13//2 4//2 7//2
f 7//5 2//8 14//9
f 10//1 2//1 7//1
f 8//1 5//1 13//1
f 13//2 5//2 8//2
f 8//8 3//5 15//10
f 16//10 2//8 9//7
f 5//6 13//3 9//7
f 17//1 5//1 10//1
f 11//9 15//10 3//5
f 6//4 9//7 11//9
f 12//7 16//10 6//4
f 12//7 4//6 15//10
f 8//1 13//1 4//1
f 4//2 13//2 8//2
f 7//5 14//9 13//3
f 13//1 18//1 7//1
f 16//10 14//9 2//8
f 10//1 7//1 19//1
f 5//1 17//1 13//1
f 8//8 15//10 4//6
f 9//7 6//4 16//10
f 20//4 9//7 13//3
f 17//1 10//1 21//1
f 15//10 11//9 9//7
f 14//9 16//10 12//7
f 15//10 14//9 12//7
f 20//4 13//3 14//9
f 13//1 17//1 18//1
f 22//1 7//1 18//1
f 19//1 7//1 23//1
f 24//11 10//11 19//11
f 20//4 15//10 9//7
f 10//12 25//12 21//12
f 17//1 21//1 26//1
f 14//9 15//10 20//4
f 27//13 18//13 17//13
f 28//1 7//1 22//1
f 18//14 29//14 22//14
f 23//1 7//1 30//1
f 23//14 24//14 19//14
f 10//11 24//11 31//11
f 25//12 10//12 31//12
f 25//13 23//13 21//13
f 23//1 26//1 21//1
f 17//1 26//1 32//1
f 18//13 27//13 33//13
f 34//12 27//12 17//12
f 35//1 7//1 28//1
f 34//1 28//1 22//1
f 29//14 18//14 33//14
f 29//11 34//11 22//11
f 30//1 7//1 36//1
f 26//1 23//1 30//1
f 24//14 23//14 37//14
f 23//13 25//13 37//13
f 26//12 38//12 32//12
f 17//1 32//1 39//1
f 27//12 34//12 40//12
f 17//1 41//1 34//1
f 36//1 7//1 35//1
f 28//14 42//14 35//14
f 28//1 34//1 41//1
f 34//11 29//11 40//11
f 36//14 43//14 30//14
f 43//11 26//11 30//11
f 38//12 26//12 44//12
f 38//13 36//13 32//13
f 36//1 39//1 32//1
f 17//1 39//1 41//1
f 39//1 36//1 35//1
f 42//14 28//14 45//14
f 42//11 39//11 35//11
f 46//13 28//13 41//13
f 43//14 36//14 47//14
f 26//11 43//11 44//11
f 36//13 38//13 47//13
f 39//12 46//12 41//12
f 28//13 46//13 45//13
f 39//11 42//11 48//11
f 46//12 39//12 48//12
usemtl material_1_0
f 3//6 6//15 1//8
f 6//15 4//5 1//8
f 2//3 9//16 5//5
f 6//15 3//6 11//17
f 4//5 6//15 12//16
f 14//17 2//3 7//6
f 15//18 3//6 8//3
f 9//16 2//3 16//18
f 9//16 13//8 5//5
f 3//6 15//18 11//17
f 11//17 9//16 6//15
f 6//15 16//18 12//16
f 15//18 4//5 12//16
f 13//8 14//17 7//6
f 2//3 14//17 16//18
f 4//5 15//18 8//3
f 16//18 6//15 9//16
f 13//8 9//16 20//15
f 9//16 11//17 15//18
f 12//16 16//18 14//17
f 12//16 14//17 15//18
f 14//17 13//8 20//15
f 9//16 15//18 20//15
f 20//15 15//18 14//17
usemtl material_2_0
f 5/1/2 10/2/2 2/3/2
f 7/4/2 2/3/2 10/2/2
f 10/2/2 5/1/2 17/5/2
f 7/4/2 18/6/2 13/7/2
f 19/8/2 7/4/2 10/2/2
f 13/7/2 17/5/2 5/1/2
f 21/9/2 10/2/2 17/5/2
f 18/6/2 17/5/2 13/7/2
f 18/6/2 7/4/2 22/10/2
f 23/11/2 7/4/2 19/8/2
f 19/12/13 10/13/13 24/14/13
f 21/15/14 25/16/14 10/17/14
f 26/18/2 21/9/2 17/5/2
f 17/19/11 18/20/11 27/21/11
f 22/10/2 7/4/2 28/22/2
f 22/23/12 29/24/12 18/19/12
f 30/25/2 7/4/2 23/11/2
f 19/26/12 24/27/12 23/28/12
f 31/29/13 24/14/13 10/13/13
f 31/30/14 10/17/14 25/16/14
f 21/19/11 23/20/11 25/21/11
f 21/9/2 26/18/2 23/11/2
f 32/31/2 26/18/2 17/5/2
f 33/32/11 27/21/11 18/20/11
f 17/13/14 27/29/14 34/33/14
f 28/22/2 7/4/2 35/34/2
f 22/10/2 28/22/2 34/35/2
f 33/21/12 18/19/12 29/24/12
f 22/12/13 34/13/13 29/14/13
f 36/36/2 7/4/2 30/25/2
f 30/25/2 23/11/2 26/18/2
f 37/37/12 23/28/12 24/27/12
f 37/32/11 25/21/11 23/20/11
f 32/38/14 38/39/14 26/40/14
f 39/41/2 32/31/2 17/5/2
f 40/42/14 34/33/14 27/29/14
f 34/35/2 41/43/2 17/5/2
f 35/34/2 7/4/2 36/36/2
f 35/44/12 42/45/12 28/46/12
f 41/43/2 34/35/2 28/22/2
f 40/29/13 29/14/13 34/13/13
f 30/47/12 43/48/12 36/49/12
f 30/12/13 26/13/13 43/14/13
f 44/50/14 26/40/14 38/39/14
f 32/19/11 36/20/11 38/21/11
f 32/31/2 39/41/2 36/36/2
f 41/43/2 39/41/2 17/5/2
f 35/34/2 36/36/2 39/41/2
f 45/51/12 28/46/12 42/45/12
f 35/12/13 39/13/13 42/14/13
f 41/19/11 28/20/11 46/21/11
f 47/52/12 36/49/12 43/48/12
f 44/29/13 43/14/13 26/13/13
f 47/32/11 38/21/11 36/20/11
f 41/53/14 46/54/14 39/55/14
f 45/32/11 46/21/11 28/20/11
f 48/29/13 42/14/13 39/13/13
f 48/56/14 39/55/14 46/54/14
