# SSTK version 0.8.0
# 4
mtllib original-4.mtl
o Component_1_4/Component_1/mesh1/mesh1-geometry#mesh1-geometry
v -0.477210 -0.203054 0.616089
v -0.489805 -0.080122 0.093880
v -0.477210 -0.064267 0.098128
v -0.489805 -0.218909 0.611841
v -0.545849 -0.067694 0.097210
v -0.469292 -0.184590 0.621037
v -0.614487 -0.203054 0.616089
v -0.506220 -0.231075 0.608581
v -0.534673 -0.066273 0.097590
v -0.614487 -0.064267 0.098128
v -0.469292 -0.045803 0.103076
v -0.601892 -0.218909 0.611841
v -0.506220 -0.092288 0.090620
v -0.585477 -0.231075 0.608581
v -0.534673 0.038268 -0.292562
v -0.557024 -0.066273 0.097590
v -0.524260 -0.062107 0.098707
v -0.601892 -0.080122 0.093880
v -0.466592 -0.164776 0.626346
v -0.622405 -0.184590 0.621037
v -0.525335 -0.238723 0.606532
v -0.585477 -0.092288 0.090620
v -0.566362 -0.238723 0.606532
v -0.545849 0.036847 -0.292943
v -0.524260 0.042434 -0.291446
v -0.567437 -0.062107 0.098707
v -0.515318 -0.055479 0.100483
v -0.466592 -0.025988 0.108385
v -0.622405 -0.045803 0.103076
v -0.525335 -0.099936 0.088571
v -0.566362 -0.099936 0.088571
v -0.557024 0.038268 -0.292562
v -0.567437 0.042434 -0.291446
v -0.515318 0.049062 -0.289670
v -0.508456 -0.046841 0.102797
v -0.504143 -0.036783 0.105492
v -0.469292 -0.144961 0.631655
v -0.625106 -0.164776 0.626346
v -0.625106 -0.025988 0.108385
v -0.545849 -0.241332 0.605833
v -0.545849 -0.102545 0.087872
v -0.576379 0.049062 -0.289670
v -0.576379 -0.055479 0.100483
v -0.502671 -0.025988 0.108385
v -0.469292 -0.006174 0.113694
v -0.622405 -0.144961 0.631655
v -0.587555 -0.036783 0.105492
v -0.583241 0.057700 -0.287355
v -0.583241 -0.046841 0.102797
v -0.508456 0.057700 -0.287355
v -0.504143 0.067758 -0.284660
v -0.504143 -0.015194 0.111277
v -0.477210 -0.126498 0.636603
v -0.622405 -0.006174 0.113694
v -0.589026 -0.025988 0.108385
v -0.502671 0.078553 -0.281768
v -0.508456 -0.005135 0.113972
v -0.477210 0.012290 0.118641
v -0.614487 -0.126498 0.636603
v -0.614487 0.012290 0.118641
v -0.587555 0.067758 -0.284660
v -0.589026 0.078553 -0.281768
v -0.504143 0.089347 -0.278876
v -0.587555 -0.015194 0.111277
v -0.489805 -0.110642 0.640851
v -0.601892 -0.110642 0.640851
v -0.583241 -0.005135 0.113972
v -0.587555 0.089347 -0.278876
v -0.508456 0.099406 -0.276180
v -0.515318 0.003502 0.116287
v -0.489805 0.028145 0.122890
v -0.601892 0.028145 0.122890
v -0.576379 0.003502 0.116287
v -0.583241 0.099406 -0.276180
v -0.524260 0.010130 0.118063
v -0.534673 0.014296 0.119179
v -0.506220 0.040311 0.126150
v -0.585477 -0.098476 0.644111
v -0.557024 0.014296 0.119179
v -0.567437 0.010130 0.118063
v -0.576379 0.108043 -0.273866
v -0.515318 0.108043 -0.273866
v -0.524260 0.114671 -0.272090
v -0.545849 0.015718 0.119560
v -0.506220 -0.098476 0.644111
v -0.585477 0.040311 0.126150
v -0.534673 0.118838 -0.270974
v -0.545849 0.120259 -0.270593
v -0.525335 0.047959 0.128199
v -0.566362 0.047959 0.128199
v -0.525335 -0.090828 0.646160
v -0.566362 -0.090828 0.646160
v -0.567437 0.114671 -0.272090
v -0.557024 0.118838 -0.270974
v -0.545849 0.050568 0.128898
v -0.545849 -0.088219 0.646859
vn 0.8660253366389338 -0.48296303693716275 -0.1294095098972794
vn 0.7071068363827617 -0.6830126647780302 -0.18301262714243635
vn -0.8660253366389338 0.48296303693716275 0.1294095098972794
vn -0.7071068363827617 0.6830126647780302 0.18301262714243635
vn 0 0.2588189595935754 -0.9659258492011171
vn 0 -0.2588189595935754 0.9659258492011171
vn 0.9659258593027178 -0.24999988691965566 -0.06698724408770268
vn -0.9659258593027178 0.24999988691965566 0.06698724408770268
vn 0.5000002333882778 -0.8365161934247809 -0.22414375911406084
vn -0.5000002333882778 0.8365161934247809 0.22414375911406084
vn 0 -0.9659258492011171 -0.2588189595935754
vn 0.25881899729328384 -0.9330127363974992 -0.24999992072028737
vn -0.25881899729328384 0.9330127363974992 0.24999992072028737
vn 0 0.9659258492011171 0.2588189595935754
vn 1 0 0
vn -1 0 0
vn -0.866025336638934 -0.4829630369371624 -0.1294095098972794
vn -0.707106836382762 -0.68301266477803 -0.18301262714243635
vn 0.866025336638934 0.4829630369371624 0.1294095098972794
vn 0.707106836382762 0.68301266477803 0.18301262714243635
vn -0.2588189972932843 -0.9330127363974989 -0.24999992072028737
vn 0.2588189972932843 0.9330127363974989 0.24999992072028737
vn -0.965925859302718 -0.24999988691965527 -0.0669872440877027
vn 0.965925859302718 0.24999988691965527 0.0669872440877027
vn -0.5000002333882783 -0.8365161934247807 -0.22414375911406084
vn 0.5000002333882783 0.8365161934247807 0.22414375911406084
usemtl material_0_0
f 1//1 2//2 3//1
f 2//2 1//1 4//2
f 3//3 2//4 1//3
f 4//4 1//3 2//4
f 5//5 3//5 2//5
f 2//6 3//6 5//6
f 3//1 6//7 1//1
f 1//3 6//8 3//3
f 7//6 4//6 1//6
f 1//5 4//5 7//5
f 8//9 2//2 4//2
f 4//4 2//4 8//10
f 3//5 5//5 9//5
f 9//6 5//6 3//6
f 2//5 10//5 5//5
f 5//6 10//6 2//6
f 6//7 3//1 11//7
f 11//8 3//3 6//8
f 7//6 1//6 6//6
f 6//5 1//5 7//5
f 12//6 4//6 7//6
f 7//5 4//5 12//5
f 2//2 8//9 13//9
f 13//10 8//10 2//4
f 14//6 8//6 4//6
f 4//5 8//5 14//5
f 5//11 15//12 9//12
f 9//13 15//13 5//14
f 9//6 16//6 5//6
f 5//5 16//5 9//5
f 3//5 9//5 17//5
f 17//6 9//6 3//6
f 2//5 18//5 10//5
f 10//6 18//6 2//6
f 5//5 10//5 16//5
f 16//6 10//6 5//6
f 3//5 17//5 11//5
f 11//6 17//6 3//6
f 11//7 19//15 6//7
f 6//8 19//16 11//8
f 7//6 6//6 20//6
f 20//5 6//5 7//5
f 14//6 4//6 12//6
f 12//5 4//5 14//5
f 10//17 12//18 7//17
f 7//19 12//20 10//19
f 21//12 13//9 8//9
f 8//10 13//10 21//13
f 13//5 22//5 2//5
f 2//6 22//6 13//6
f 23//6 8//6 14//6
f 14//5 8//5 23//5
f 15//12 5//11 24//11
f 24//14 5//14 15//13
f 25//9 9//12 15//12
f 15//13 9//13 25//10
f 16//6 9//6 17//6
f 17//5 9//5 16//5
f 16//21 24//11 5//11
f 5//14 24//14 16//22
f 9//12 25//9 17//9
f 17//10 25//10 9//13
f 2//5 22//5 18//5
f 18//6 22//6 2//6
f 12//18 10//17 18//18
f 18//20 10//19 12//20
f 16//5 10//5 26//5
f 26//6 10//6 16//6
f 11//5 17//5 27//5
f 27//6 17//6 11//6
f 19//15 11//7 28//15
f 28//16 11//8 19//16
f 20//6 6//6 19//6
f 19//5 6//5 20//5
f 29//23 7//17 20//23
f 20//24 7//19 29//24
f 12//18 22//25 14//25
f 14//26 22//26 12//20
f 7//17 29//23 10//17
f 10//19 29//24 7//19
f 13//9 21//12 30//12
f 30//13 21//13 13//10
f 23//6 21//6 8//6
f 8//5 21//5 23//5
f 30//5 22//5 13//5
f 13//6 22//6 30//6
f 14//25 31//21 23//21
f 23//22 31//22 14//26
f 32//5 15//5 24//5
f 24//6 15//6 32//6
f 15//5 33//5 25//5
f 25//6 33//6 15//6
f 16//6 17//6 26//6
f 26//5 17//5 16//5
f 24//11 16//21 32//21
f 32//22 16//22 24//14
f 34//2 17//9 25//9
f 25//10 17//10 34//4
f 22//25 12//18 18//18
f 18//20 12//20 22//26
f 26//5 10//5 29//5
f 29//6 10//6 26//6
f 26//25 32//21 16//21
f 16//22 32//22 26//26
f 17//9 34//2 27//2
f 27//4 34//4 17//10
f 26//6 17//6 27//6
f 27//5 17//5 26//5
f 11//5 27//5 35//5
f 35//6 27//6 11//6
f 11//5 36//5 28//5
f 28//6 36//6 11//6
f 28//15 37//24 19//15
f 19//16 37//23 28//16
f 20//6 19//6 38//6
f 38//5 19//5 20//5
f 20//23 39//16 29//23
f 29//24 39//15 20//24
f 31//21 14//25 22//25
f 22//26 14//26 31//22
f 40//11 30//12 21//12
f 21//13 30//13 40//14
f 21//6 23//6 40//6
f 40//5 23//5 21//5
f 30//5 31//5 22//5
f 22//6 31//6 30//6
f 41//11 23//21 31//21
f 31//22 23//22 41//14
f 15//5 32//5 33//5
f 33//6 32//6 15//6
f 25//5 33//5 42//5
f 42//6 33//6 25//6
f 25//5 42//5 34//5
f 34//6 42//6 25//6
f 26//5 29//5 43//5
f 43//6 29//6 26//6
f 32//21 26//25 33//25
f 33//26 26//26 32//22
f 34//2 35//1 27//2
f 27//4 35//3 34//4
f 26//6 27//6 43//6
f 43//5 27//5 26//5
f 43//6 27//6 35//6
f 35//5 27//5 43//5
f 11//5 35//5 36//5
f 36//6 35//6 11//6
f 28//5 36//5 44//5
f 44//6 36//6 28//6
f 37//24 28//15 45//24
f 45//23 28//16 37//23
f 46//6 19//6 37//6
f 37//5 19//5 46//5
f 38//6 19//6 46//6
f 46//5 19//5 38//5
f 39//16 20//23 38//16
f 38//15 20//24 39//15
f 47//5 29//5 39//5
f 39//6 29//6 47//6
f 30//12 40//11 41//11
f 41//14 40//14 30//13
f 23//21 41//11 40//11
f 40//14 41//14 23//22
f 31//5 30//5 41//5
f 41//6 30//6 31//6
f 33//25 43//18 42//18
f 42//20 43//20 33//26
f 34//5 42//5 48//5
f 48//6 42//6 34//6
f 43//5 29//5 49//5
f 49//6 29//6 43//6
f 43//18 33//25 26//25
f 26//26 33//26 43//20
f 35//1 34//2 50//1
f 50//3 34//4 35//3
f 43//6 35//6 49//6
f 49//5 35//5 43//5
f 50//1 36//7 35//1
f 35//3 36//8 50//3
f 49//6 35//6 36//6
f 36//5 35//5 49//5
f 47//6 36//6 44//6
f 44//5 36//5 47//5
f 51//7 44//15 36//7
f 36//8 44//16 51//8
f 28//5 44//5 52//5
f 52//6 44//6 28//6
f 28//5 52//5 45//5
f 45//6 52//6 28//6
f 45//24 53//19 37//24
f 37//23 53//17 45//23
f 46//6 37//6 53//6
f 53//5 37//5 46//5
f 54//8 38//16 46//8
f 46//7 38//15 54//7
f 38//16 54//8 39//16
f 39//15 54//7 38//15
f 49//5 29//5 47//5
f 47//6 29//6 49//6
f 47//5 39//5 55//5
f 55//6 39//6 47//6
f 43//18 48//17 42//18
f 42//20 48//19 43//20
f 34//5 48//5 50//5
f 50//6 48//6 34//6
f 48//17 43//18 49//17
f 49//19 43//20 48//19
f 36//7 50//1 51//7
f 51//8 50//3 36//8
f 49//6 36//6 47//6
f 47//5 36//5 49//5
f 47//6 44//6 55//6
f 55//5 44//5 47//5
f 44//15 51//7 56//15
f 56//16 51//8 44//16
f 56//15 52//24 44//15
f 44//16 52//23 56//16
f 55//6 44//6 52//6
f 52//5 44//5 55//5
f 45//5 52//5 57//5
f 57//6 52//6 45//6
f 53//19 45//24 58//19
f 58//17 45//23 53//17
f 46//6 53//6 59//6
f 59//5 53//5 46//5
f 46//8 60//3 54//8
f 54//7 60//1 46//7
f 55//5 39//5 54//5
f 54//6 39//6 55//6
f 61//23 49//17 47//23
f 47//24 49//19 61//24
f 62//16 47//23 55//16
f 55//15 47//24 62//15
f 50//5 48//5 61//5
f 61//6 48//6 50//6
f 49//17 61//23 48//17
f 48//19 61//24 49//19
f 50//5 61//5 51//5
f 51//6 61//6 50//6
f 51//5 62//5 56//5
f 56//6 62//6 51//6
f 52//24 56//15 63//24
f 63//23 56//16 52//23
f 55//6 52//6 64//6
f 64//5 52//5 55//5
f 63//24 57//19 52//24
f 52//23 57//17 63//23
f 64//6 52//6 57//6
f 57//5 52//5 64//5
f 45//5 57//5 58//5
f 58//6 57//6 45//6
f 58//19 65//20 53//19
f 53//17 65//18 58//17
f 59//6 53//6 66//6
f 66//5 53//5 59//5
f 60//3 46//8 59//3
f 59//1 46//7 60//1
f 67//5 54//5 60//5
f 60//6 54//6 67//6
f 55//5 54//5 64//5
f 64//6 54//6 55//6
f 47//23 62//16 61//23
f 61//24 62//15 47//24
f 55//16 68//8 62//16
f 62//15 68//7 55//15
f 51//5 61//5 62//5
f 62//6 61//6 51//6
f 56//5 62//5 68//5
f 68//6 62//6 56//6
f 56//5 68//5 63//5
f 63//6 68//6 56//6
f 68//8 55//16 64//8
f 64//7 55//15 68//7
f 57//19 63//24 69//19
f 69//17 63//23 57//17
f 64//6 57//6 67//6
f 67//5 57//5 64//5
f 58//5 57//5 70//5
f 70//6 57//6 58//6
f 65//20 58//19 71//20
f 71//18 58//17 65//18
f 66//6 53//6 65//6
f 65//5 53//5 66//5
f 72//4 59//3 66//4
f 66//2 59//1 72//2
f 59//3 72//4 60//3
f 60//1 72//2 59//1
f 64//5 54//5 67//5
f 67//6 54//6 64//6
f 67//5 60//5 73//5
f 73//6 60//6 67//6
f 63//5 68//5 74//5
f 74//6 68//6 63//6
f 64//8 74//3 68//8
f 68//7 74//1 64//7
f 63//5 74//5 69//5
f 69//6 74//6 63//6
f 69//19 70//20 57//19
f 57//17 70//18 69//17
f 67//6 57//6 70//6
f 70//5 57//5 67//5
f 74//3 64//8 67//3
f 67//1 64//7 74//1
f 58//5 70//5 75//5
f 75//6 70//6 58//6
f 58//5 76//5 71//5
f 71//6 76//6 58//6
f 77//26 65//20 71//20
f 71//18 65//18 77//25
f 66//6 65//6 78//6
f 78//5 65//5 66//5
f 78//10 72//4 66//4
f 66//2 72//2 78//9
f 79//5 60//5 72//5
f 72//6 60//6 79//6
f 73//5 60//5 80//5
f 80//6 60//6 73//6
f 81//4 67//3 73//4
f 73//2 67//1 81//2
f 67//6 70//6 73//6
f 73//5 70//5 67//5
f 69//5 74//5 81//5
f 81//6 74//6 69//6
f 70//20 69//19 82//20
f 82//18 69//17 70//18
f 67//3 81//4 74//3
f 74//1 81//2 67//1
f 70//20 83//26 75//26
f 75//25 83//25 70//18
f 73//6 70//6 75//6
f 75//5 70//5 73//5
f 58//5 75//5 76//5
f 76//6 75//6 58//6
f 71//5 76//5 84//5
f 84//6 76//6 71//6
f 65//20 77//26 85//26
f 85//25 77//25 65//18
f 71//5 86//5 77//5
f 77//6 86//6 71//6
f 78//6 65//6 85//6
f 85//5 65//5 78//5
f 72//4 78//10 86//10
f 86//9 78//9 72//2
f 80//5 60//5 79//5
f 79//6 60//6 80//6
f 79//5 72//5 84//5
f 84//6 72//6 79//6
f 73//6 75//6 80//6
f 80//5 75//5 73//5
f 80//10 81//4 73//4
f 73//2 81//2 80//9
f 69//5 81//5 82//5
f 82//6 81//6 69//6
f 83//26 70//20 82//20
f 82//18 70//18 83//25
f 87//22 75//26 83//26
f 83//25 75//25 87//21
f 75//26 87//22 76//22
f 76//21 87//21 75//25
f 80//6 75//6 76//6
f 76//5 75//5 80//5
f 79//6 76//6 84//6
f 84//5 76//5 79//5
f 76//22 88//14 84//14
f 84//11 88//11 76//21
f 71//5 84//5 72//5
f 72//6 84//6 71//6
f 89//22 85//26 77//26
f 77//25 85//25 89//21
f 71//5 72//5 86//5
f 86//6 72//6 71//6
f 77//5 86//5 90//5
f 90//6 86//6 77//6
f 78//6 85//6 91//6
f 91//5 85//5 78//5
f 92//13 86//10 78//10
f 78//9 86//9 92//12
f 79//13 93//10 80//10
f 80//9 93//9 79//12
f 80//6 76//6 79//6
f 79//5 76//5 80//5
f 84//14 94//13 79//13
f 79//12 94//12 84//11
f 81//4 80//10 93//10
f 93//9 80//9 81//2
f 82//5 81//5 93//5
f 93//6 81//6 82//6
f 82//5 93//5 83//5
f 83//6 93//6 82//6
f 83//5 94//5 87//5
f 87//6 94//6 83//6
f 88//14 76//22 87//22
f 87//21 76//21 88//11
f 94//13 84//14 88//14
f 88//11 84//11 94//12
f 85//26 89//22 91//22
f 91//21 89//21 85//25
f 77//5 90//5 89//5
f 89//6 90//6 77//6
f 86//10 92//13 90//13
f 90//12 92//12 86//9
f 78//6 91//6 92//6
f 92//5 91//5 78//5
f 93//10 79//13 94//13
f 94//12 79//12 93//9
f 83//5 93//5 94//5
f 94//6 93//6 83//6
f 87//5 94//5 88//5
f 88//6 94//6 87//6
f 95//14 91//22 89//22
f 89//21 91//21 95//11
f 89//5 90//5 95//5
f 95//6 90//6 89//6
f 96//14 90//13 92//13
f 92//12 90//12 96//11
f 92//6 91//6 96//6
f 96//5 91//5 92//5
f 91//22 95//14 96//14
f 96//11 95//11 91//21
f 90//13 96//14 95//14
f 95//11 96//11 90//12
