# SSTK version 0.8.0
# 5
mtllib original-5.mtl
o #ID35
v -0.104383 0.993963 0.028782
v -0.093532 0.993963 -0.014739
v -0.101823 0.993963 0.006307
v -0.101040 0.993963 0.051153
v -0.080078 0.993963 -0.032922
v -0.092020 0.993963 0.071897
v -0.062375 0.993963 -0.047003
v -0.077939 0.993963 0.089600
v -0.041631 0.993963 -0.056023
v -0.059756 0.993963 0.103054
v -0.019260 0.993963 -0.059366
v -0.038710 0.993963 0.111345
v 0.003215 0.993963 -0.056806
v -0.016235 0.993963 0.113905
v 0.024261 0.993963 -0.048516
v 0.006136 0.993963 0.110562
v 0.042444 0.993963 -0.035061
v 0.026880 0.993963 0.101542
v 0.056525 0.993963 -0.017358
v 0.044582 0.993963 0.087461
v 0.065545 0.993963 0.003386
v 0.058037 0.993963 0.069278
v 0.068888 0.993963 0.025757
v 0.066328 0.993963 0.048232
v 0.003215 0.993963 -0.056806
v 0.024261 0.934546 -0.048516
v 0.003215 0.934546 -0.056806
v 0.024261 0.993963 -0.048516
v -0.019260 0.993963 -0.059366
v -0.019260 0.934546 -0.059366
v -0.041631 0.993963 -0.056023
v -0.041631 0.934546 -0.056023
v -0.062375 0.993963 -0.047003
v -0.062375 0.934546 -0.047003
v -0.080078 0.934546 -0.032922
v -0.080078 0.993963 -0.032922
v -0.093532 0.934546 -0.014739
v -0.093532 0.993963 -0.014739
v -0.101823 0.934546 0.006307
v -0.101823 0.993963 0.006307
v -0.104383 0.934546 0.028782
v -0.104383 0.993963 0.028782
v -0.101040 0.934546 0.051153
v -0.101040 0.993963 0.051153
v -0.092020 0.934546 0.071897
v -0.092020 0.993963 0.071897
v -0.077939 0.993963 0.089600
v -0.077939 0.934546 0.089600
v -0.059756 0.993963 0.103054
v -0.059756 0.934546 0.103054
v -0.038710 0.993963 0.111345
v -0.038710 0.934546 0.111345
v -0.016235 0.993963 0.113905
v -0.016235 0.934546 0.113905
v 0.006136 0.993963 0.110562
v 0.006136 0.934546 0.110562
v 0.026880 0.993963 0.101542
v 0.026880 0.934546 0.101542
v 0.044582 0.934546 0.087461
v 0.044582 0.993963 0.087461
v 0.058037 0.934546 0.069278
v 0.058037 0.993963 0.069278
v 0.066328 0.934546 0.048232
v 0.066328 0.993963 0.048232
v 0.068888 0.934546 0.025757
v 0.068888 0.993963 0.025757
v 0.065545 0.934546 0.003386
v 0.065545 0.993963 0.003386
v 0.056525 0.934546 -0.017358
v 0.056525 0.993963 -0.017358
v 0.042444 0.993963 -0.035061
v 0.042444 0.934546 -0.035061
vn 0 1 0
vn 0.24192189559967242 0 -0.9702957262759954
vn 0.48480958809393493 0 -0.8746197249617627
vn -0.017452369681303138 0 -0.9998476957979685
vn -0.27563735763591735 0 -0.9612616954167527
vn -0.5150380749100544 0 -0.8571673007021121
vn -0.7193397990242053 0 -0.6946583718201459
vn -0.8746197249617627 0 -0.4848095880939348
vn -0.9702957262759965 0 -0.24192189559966762
vn -0.9998476957979685 0 0.017452369681303138
vn -0.9612616954167525 0 0.27563735763591724
vn -0.8571673007021122 0 0.5150380749100543
vn -0.6946583718201459 0 0.7193397990242052
vn -0.48480958809393493 0 0.8746197249617627
vn -0.24192189559967242 0 0.9702957262759954
vn 0.017452369681303138 0 0.9998476957979685
vn 0.27563735763591735 0 0.9612616954167527
vn 0.5150380749100544 0 0.8571673007021121
vn 0.7193397990242053 0 0.6946583718201459
vn 0.8746197249617627 0 0.4848095880939348
vn 0.9702957262759965 0 0.24192189559966762
vn 0.9998476957979685 0 -0.017452369681303138
vn 0.9612616954167525 0 -0.27563735763591724
vn 0.8571673007021122 0 -0.5150380749100543
vn 0.6946583718201459 0 -0.7193397990242052
usemtl material_0_0
f 1//1 2//1 3//1
f 2//1 1//1 4//1
f 2//1 4//1 5//1
f 5//1 4//1 6//1
f 5//1 6//1 7//1
f 7//1 6//1 8//1
f 7//1 8//1 9//1
f 9//1 8//1 10//1
f 9//1 10//1 11//1
f 11//1 10//1 12//1
f 11//1 12//1 13//1
f 13//1 12//1 14//1
f 13//1 14//1 15//1
f 15//1 14//1 16//1
f 15//1 16//1 17//1
f 17//1 16//1 18//1
f 17//1 18//1 19//1
f 19//1 18//1 20//1
f 19//1 20//1 21//1
f 21//1 20//1 22//1
f 21//1 22//1 23//1
f 23//1 22//1 24//1
f 25//2 26//3 27//2
f 26//3 25//2 28//3
f 29//4 27//2 30//4
f 27//2 29//4 25//2
f 31//5 30//4 32//5
f 30//4 31//5 29//4
f 33//6 32//5 34//6
f 32//5 33//6 31//5
f 33//6 35//7 36//7
f 35//7 33//6 34//6
f 36//7 37//8 38//8
f 37//8 36//7 35//7
f 38//8 39//9 40//9
f 39//9 38//8 37//8
f 40//9 41//10 42//10
f 41//10 40//9 39//9
f 42//10 43//11 44//11
f 43//11 42//10 41//10
f 44//11 45//12 46//12
f 45//12 44//11 43//11
f 47//13 45//12 48//13
f 45//12 47//13 46//12
f 49//14 48//13 50//14
f 48//13 49//14 47//13
f 51//15 50//14 52//15
f 50//14 51//15 49//14
f 53//16 52//15 54//16
f 52//15 53//16 51//15
f 55//17 54//16 56//17
f 54//16 55//17 53//16
f 57//18 56//17 58//18
f 56//17 57//18 55//17
f 59//19 57//18 58//18
f 57//18 59//19 60//19
f 61//20 60//19 59//19
f 60//19 61//20 62//20
f 63//21 62//20 61//20
f 62//20 63//21 64//21
f 65//22 64//21 63//21
f 64//21 65//22 66//22
f 67//23 66//22 65//22
f 66//22 67//23 68//23
f 69//24 68//23 67//23
f 68//23 69//24 70//24
f 71//25 69//24 72//25
f 69//24 71//25 70//24
f 28//3 72//25 26//3
f 72//25 28//3 71//25
