# SSTK version 0.8.0
# 3
mtllib original-3.mtl
o #ID19
v -0.228522 0.934546 0.016451
v -0.194875 0.934546 -0.087487
v -0.218540 0.934546 -0.037733
v -0.224140 0.934546 0.071372
v -0.159138 0.934546 -0.129420
v -0.205693 0.934546 0.123288
v -0.113766 0.934546 -0.160676
v -0.174437 0.934546 0.168660
v -0.061851 0.934546 -0.179123
v -0.101823 0.934546 0.006307
v -0.132504 0.934546 0.204397
v -0.104383 0.934546 0.028782
v -0.101040 0.934546 0.051153
v -0.092020 0.934546 0.071897
v -0.082750 0.934546 0.228062
v -0.077939 0.934546 0.089600
v -0.059756 0.934546 0.103054
v -0.038710 0.934546 0.111345
v -0.028566 0.934546 0.238044
v -0.016235 0.934546 0.113905
v 0.006136 0.934546 0.110562
v 0.026355 0.934546 0.233662
v 0.026880 0.934546 0.101542
v 0.044582 0.934546 0.087461
v 0.058037 0.934546 0.069278
v 0.066328 0.934546 0.048232
v -0.093532 0.934546 -0.014739
v -0.006929 0.934546 -0.183505
v -0.080078 0.934546 -0.032922
v -0.062375 0.934546 -0.047003
v -0.041631 0.934546 -0.056023
v -0.019260 0.934546 -0.059366
v 0.047254 0.934546 -0.173524
v 0.003215 0.934546 -0.056806
v 0.024261 0.934546 -0.048516
v 0.097009 0.934546 -0.149858
v 0.042444 0.934546 -0.035061
v 0.056525 0.934546 -0.017358
v 0.065545 0.934546 0.003386
v 0.138942 0.934546 -0.114121
v 0.068888 0.934546 0.025757
v 0.078271 0.934546 0.215215
v 0.170198 0.934546 -0.068749
v 0.123643 0.934546 0.183960
v 0.188645 0.934546 -0.016833
v 0.159380 0.934546 0.142026
v 0.193027 0.934546 0.038088
v 0.183045 0.934546 0.092272
vn 0 1 0
usemtl material_0_0
f 1//1 2//1 3//1
f 2//1 1//1 4//1
f 2//1 4//1 5//1
f 5//1 4//1 6//1
f 5//1 6//1 7//1
f 7//1 6//1 8//1
f 7//1 8//1 9//1
f 9//1 8//1 10//1
f 10//1 8//1 11//1
f 10//1 11//1 12//1
f 12//1 11//1 13//1
f 13//1 11//1 14//1
f 14//1 11//1 15//1
f 14//1 15//1 16//1
f 16//1 15//1 17//1
f 17//1 15//1 18//1
f 18//1 15//1 19//1
f 18//1 19//1 20//1
f 20//1 19//1 21//1
f 21//1 19//1 22//1
f 21//1 22//1 23//1
f 23//1 22//1 24//1
f 24//1 22//1 25//1
f 25//1 22//1 26//1
f 9//1 27//1 28//1
f 27//1 9//1 10//1
f 28//1 27//1 29//1
f 28//1 29//1 30//1
f 28//1 30//1 31//1
f 28//1 31//1 32//1
f 28//1 32//1 33//1
f 33//1 32//1 34//1
f 33//1 34//1 35//1
f 33//1 35//1 36//1
f 36//1 35//1 37//1
f 36//1 37//1 38//1
f 36//1 38//1 39//1
f 36//1 39//1 40//1
f 40//1 39//1 41//1
f 40//1 41//1 26//1
f 40//1 26//1 22//1
f 40//1 22//1 42//1
f 40//1 42//1 43//1
f 43//1 42//1 44//1
f 43//1 44//1 45//1
f 45//1 44//1 46//1
f 45//1 46//1 47//1
f 47//1 46//1 48//1
