# SSTK version 0.8.0
# 6
mtllib original-6.mtl
o #ID41
v -0.008210 0.794946 0.236420
v -0.014591 0.794659 0.236929
v -0.011382 0.794381 0.236673
v -0.017619 0.795761 0.237171
v -0.005292 0.796314 0.236187
v -0.020260 0.797612 0.237382
v -0.002827 0.798394 0.235991
v -0.022333 0.800085 0.237547
v -0.000982 0.801043 0.235843
v -0.023698 0.803012 0.237656
v 0.000116 0.804081 0.235756
v -0.024260 0.806194 0.237701
v 0.000393 0.807300 0.235734
v -0.023983 0.809413 0.237679
v -0.000169 0.810482 0.235779
v -0.022885 0.812451 0.237591
v -0.001534 0.813409 0.235887
v -0.021040 0.815100 0.237444
v -0.003607 0.815883 0.236053
v -0.018575 0.817180 0.237247
v -0.006248 0.817733 0.236263
v -0.015657 0.818548 0.237014
v -0.009276 0.818835 0.236505
v -0.012485 0.819113 0.236761
vn 0.07953440640196531 0 0.9968321213716415
usemtl material_0_0
f 1//1 2//1 3//1
f 2//1 1//1 4//1
f 4//1 1//1 5//1
f 4//1 5//1 6//1
f 6//1 5//1 7//1
f 6//1 7//1 8//1
f 8//1 7//1 9//1
f 8//1 9//1 10//1
f 10//1 9//1 11//1
f 10//1 11//1 12//1
f 12//1 11//1 13//1
f 12//1 13//1 14//1
f 14//1 13//1 15//1
f 14//1 15//1 16//1
f 16//1 15//1 17//1
f 16//1 17//1 18//1
f 18//1 17//1 19//1
f 18//1 19//1 20//1
f 20//1 19//1 21//1
f 20//1 21//1 22//1
f 22//1 21//1 23//1
f 22//1 23//1 24//1
