# SSTK version 0.8.0
# 2
mtllib original-2.mtl
o #ID11
v -0.443764 0.624467 0.006163
v -0.388638 0.624467 -0.214937
v -0.430755 0.624467 -0.108016
v -0.426778 0.624467 0.119818
v -0.320282 0.624467 -0.307314
v -0.380955 0.624467 0.225204
v -0.230347 0.624467 -0.378851
v -0.309417 0.624467 0.315140
v -0.124961 0.624467 -0.424675
v -0.218540 0.624467 -0.037733
v -0.228522 0.624467 0.016451
v -0.217041 0.624467 0.383495
v -0.224140 0.624467 0.071372
v -0.205693 0.624467 0.123288
v -0.174437 0.624467 0.168660
v -0.132504 0.624467 0.204397
v -0.110119 0.624467 0.425612
v -0.082750 0.624467 0.228062
v -0.028566 0.624467 0.238044
v 0.004059 0.624467 0.438621
v 0.026355 0.624467 0.233662
v 0.078271 0.624467 0.215215
v 0.117715 0.624467 0.421636
v 0.123643 0.624467 0.183960
v 0.159380 0.624467 0.142026
v 0.183045 0.624467 0.092272
v -0.194875 0.624467 -0.087487
v -0.011306 0.624467 -0.441661
v -0.159138 0.624467 -0.129420
v -0.113766 0.624467 -0.160676
v -0.061851 0.624467 -0.179123
v 0.102873 0.624467 -0.428652
v -0.006929 0.624467 -0.183505
v 0.047254 0.624467 -0.173524
v 0.209794 0.624467 -0.386534
v 0.097009 0.624467 -0.149858
v 0.138942 0.624467 -0.114121
v 0.170198 0.624467 -0.068749
v 0.302171 0.624467 -0.318179
v 0.188645 0.624467 -0.016833
v 0.193027 0.624467 0.038088
v 0.223100 0.624467 0.375812
v 0.373708 0.624467 -0.228243
v 0.313036 0.624467 0.304274
v 0.419532 0.624467 -0.122857
v 0.381391 0.624467 0.211898
v 0.436518 0.624467 -0.009202
v 0.423509 0.624467 0.104976
v 0.373708 -0.750158 -0.228243
v 0.419532 0.624467 -0.122857
v 0.419532 -0.750158 -0.122857
v 0.373708 0.624467 -0.228243
v 0.302171 0.624467 -0.318179
v 0.302171 -0.750158 -0.318179
v 0.209794 0.624467 -0.386534
v 0.209794 -0.750158 -0.386534
v 0.102873 0.624467 -0.428652
v 0.102873 -0.750158 -0.428652
v -0.011306 0.624467 -0.441661
v -0.011306 -0.750158 -0.441661
v -0.124961 0.624467 -0.424675
v -0.124961 -0.750158 -0.424675
v -0.230347 0.624467 -0.378851
v -0.230347 -0.750158 -0.378851
v -0.320282 -0.750158 -0.307314
v -0.320282 0.624467 -0.307314
v -0.388638 -0.750158 -0.214937
v -0.388638 0.624467 -0.214937
v -0.430755 -0.750158 -0.108016
v -0.430755 0.624467 -0.108016
v -0.443764 -0.750158 0.006163
v -0.443764 0.624467 0.006163
v -0.426778 -0.750158 0.119818
v -0.426778 0.624467 0.119818
v -0.380955 -0.750158 0.225204
v -0.380955 0.624467 0.225204
v -0.309417 0.624467 0.315140
v -0.309417 -0.750158 0.315140
v -0.217041 0.624467 0.383495
v -0.217041 -0.750158 0.383495
v -0.110119 0.624467 0.425612
v -0.110119 -0.750158 0.425612
v 0.004059 0.624467 0.438621
v 0.004059 -0.750158 0.438621
v 0.117715 0.624467 0.421636
v 0.117715 -0.750158 0.421636
v 0.223100 0.624467 0.375812
v 0.223100 -0.750158 0.375812
v 0.313036 -0.750158 0.304274
v 0.313036 0.624467 0.304274
v 0.381391 -0.750158 0.211898
v 0.381391 0.624467 0.211898
v 0.423509 -0.750158 0.104976
v 0.423509 0.624467 0.104976
v 0.436518 -0.750158 -0.009202
v 0.436518 0.624467 -0.009202
vn 0 1 0
vn 0.8571673007021122 0 -0.5150380749100543
vn 0.9612616954167525 0 -0.27563735763591724
vn 0.6946583718201459 0 -0.7193397990242052
vn 0.48480958809393493 0 -0.8746197249617627
vn 0.24192189559966767 0 -0.9702957262759966
vn -0.017452369681303138 0 -0.9998476957979685
vn -0.27563735763591735 0 -0.9612616954167527
vn -0.5150380749100544 0 -0.8571673007021121
vn -0.7193397990242053 0 -0.6946583718201459
vn -0.8746197249617627 0 -0.4848095880939348
vn -0.9702957262759965 0 -0.2419218955996675
vn -0.9998476957979685 0 0.017452369681303138
vn -0.9612616954167525 0 0.27563735763591724
vn -0.8571673007021122 0 0.5150380749100543
vn -0.6946583718201459 0 0.7193397990242052
vn -0.48480958809393493 0 0.8746197249617627
vn -0.24192189559966742 0 0.9702957262759967
vn 0.017452369681303138 0 0.9998476957979685
vn 0.27563735763591735 0 0.9612616954167527
vn 0.5150380749100544 0 0.8571673007021121
vn 0.7193397990242053 0 0.6946583718201459
vn 0.8746197249617627 0 0.4848095880939348
vn 0.9702957262759966 0 0.24192189559966737
vn 0.9998476957979685 0 -0.017452369681303138
usemtl material_0_0
f 1//1 2//1 3//1
f 2//1 1//1 4//1
f 2//1 4//1 5//1
f 5//1 4//1 6//1
f 5//1 6//1 7//1
f 7//1 6//1 8//1
f 7//1 8//1 9//1
f 9//1 8//1 10//1
f 10//1 8//1 11//1
f 11//1 8//1 12//1
f 11//1 12//1 13//1
f 13//1 12//1 14//1
f 14//1 12//1 15//1
f 15//1 12//1 16//1
f 16//1 12//1 17//1
f 16//1 17//1 18//1
f 18//1 17//1 19//1
f 19//1 17//1 20//1
f 19//1 20//1 21//1
f 21//1 20//1 22//1
f 22//1 20//1 23//1
f 22//1 23//1 24//1
f 24//1 23//1 25//1
f 25//1 23//1 26//1
f 9//1 27//1 28//1
f 27//1 9//1 10//1
f 28//1 27//1 29//1
f 28//1 29//1 30//1
f 28//1 30//1 31//1
f 28//1 31//1 32//1
f 32//1 31//1 33//1
f 32//1 33//1 34//1
f 32//1 34//1 35//1
f 35//1 34//1 36//1
f 35//1 36//1 37//1
f 35//1 37//1 38//1
f 35//1 38//1 39//1
f 39//1 38//1 40//1
f 39//1 40//1 41//1
f 39//1 41//1 26//1
f 39//1 26//1 23//1
f 39//1 23//1 42//1
f 39//1 42//1 43//1
f 43//1 42//1 44//1
f 43//1 44//1 45//1
f 45//1 44//1 46//1
f 45//1 46//1 47//1
f 47//1 46//1 48//1
f 49//2 50//3 51//3
f 50//3 49//2 52//2
f 53//4 49//2 54//4
f 49//2 53//4 52//2
f 55//5 54//4 56//5
f 54//4 55//5 53//4
f 57//6 56//5 58//6
f 56//5 57//6 55//5
f 59//7 58//6 60//7
f 58//6 59//7 57//6
f 61//8 60//7 62//8
f 60//7 61//8 59//7
f 63//9 62//8 64//9
f 62//8 63//9 61//8
f 63//9 65//10 66//10
f 65//10 63//9 64//9
f 66//10 67//11 68//11
f 67//11 66//10 65//10
f 68//11 69//12 70//12
f 69//12 68//11 67//11
f 70//12 71//13 72//13
f 71//13 70//12 69//12
f 72//13 73//14 74//14
f 73//14 72//13 71//13
f 74//14 75//15 76//15
f 75//15 74//14 73//14
f 77//16 75//15 78//16
f 75//15 77//16 76//15
f 79//17 78//16 80//17
f 78//16 79//17 77//16
f 81//18 80//17 82//18
f 80//17 81//18 79//17
f 83//19 82//18 84//19
f 82//18 83//19 81//18
f 85//20 84//19 86//20
f 84//19 85//20 83//19
f 87//21 86//20 88//21
f 86//20 87//21 85//20
f 89//22 87//21 88//21
f 87//21 89//22 90//22
f 91//23 90//22 89//22
f 90//22 91//23 92//23
f 93//24 92//23 91//23
f 92//23 93//24 94//24
f 95//25 94//24 93//24
f 94//24 95//25 96//25
f 51//3 96//25 95//25
f 96//25 51//3 50//3
