# SSTK version 0.8.0
# 14
mtllib original-14.mtl
o Group14/mesh25/mesh25-geometry#mesh25-geometry
v 0.480780 0.599517 0.296296
v 0.498009 0.599517 0.335981
v 0.495951 0.599517 0.295525
v 0.482838 0.599517 0.336752
v 0.495951 -0.562729 0.295525
v 0.482838 -0.562729 0.336752
v 0.498009 -0.562729 0.335981
v 0.480780 -0.562729 0.296296
vn 0 1 0
vn 0 -1 0
vn 0.9987087453867279 0 -0.05080198704841606
vn -0.9987087453867279 0 0.05080198704841606
vn -0.05080198704841606 0 -0.9987087453867279
vn 0.05080198704841606 0 0.9987087453867279
usemtl material_0_0
f 1//1 2//1 3//1
f 2//1 1//1 4//1
f 3//2 2//2 1//2
f 4//2 1//2 2//2
f 2//3 5//3 3//3
f 3//4 5//4 2//4
f 5//5 1//5 3//5
f 3//6 1//6 5//6
f 1//4 6//4 4//4
f 4//3 6//3 1//3
f 6//6 2//6 4//6
f 4//5 2//5 6//5
f 5//3 2//3 7//3
f 7//4 2//4 5//4
f 1//5 5//5 8//5
f 8//6 5//6 1//6
f 6//4 1//4 8//4
f 8//3 1//3 6//3
f 2//6 6//6 7//6
f 7//5 6//5 2//5
f 7//2 8//2 5//2
f 5//1 8//1 7//1
f 8//2 7//2 6//2
f 6//1 7//1 8//1
