# SSTK version 0.8.0
# 5
mtllib original-5.mtl
o Group5/mesh7/mesh7-geometry#mesh7-geometry
v 0.442620 0.599517 0.162132
v 0.470781 0.599517 0.194975
v 0.456890 0.599517 0.156923
v 0.456511 0.599517 0.200184
v 0.456890 -0.562729 0.156923
v 0.456511 -0.562729 0.200184
v 0.470781 -0.562729 0.194975
v 0.442620 -0.562729 0.162132
vn 0 1 0
vn 0 -1 0
vn 0.9393697549485228 0 -0.3429059105468326
vn -0.9393697549485228 0 0.3429059105468326
vn -0.3429059105468326 0 -0.9393697549485228
vn 0.3429059105468326 0 0.9393697549485228
usemtl material_0_0
f 1//1 2//1 3//1
f 2//1 1//1 4//1
f 3//2 2//2 1//2
f 4//2 1//2 2//2
f 2//3 5//3 3//3
f 3//4 5//4 2//4
f 5//5 1//5 3//5
f 3//6 1//6 5//6
f 1//4 6//4 4//4
f 4//3 6//3 1//3
f 6//6 2//6 4//6
f 4//5 2//5 6//5
f 5//3 2//3 7//3
f 7//4 2//4 5//4
f 1//5 5//5 8//5
f 8//6 5//6 1//6
f 6//4 1//4 8//4
f 8//3 1//3 6//3
f 2//6 6//6 7//6
f 7//5 6//5 2//5
f 7//2 8//2 5//2
f 5//1 8//1 7//1
f 8//2 7//2 6//2
f 6//1 7//1 8//1
