# SSTK version 0.8.0
# 35
mtllib original-35.mtl
o Group35/mesh69/mesh69-geometry#mesh69-geometry
v -0.101635 -0.619318 -0.585119
v -0.061138 0.616185 -0.584143
v -0.061138 -0.619318 -0.584143
v -0.101635 0.616185 -0.585119
v -0.061504 -0.619318 -0.568957
v -0.102001 0.616185 -0.569933
v -0.061504 0.616185 -0.568957
v -0.102001 -0.619318 -0.569933
vn 0.024100988644809827 0 -0.9997095289864666
vn -0.024100988644809827 0 0.9997095289864666
vn 0.9997095289864666 0 0.024100988644809827
vn -0.9997095289864666 0 -0.024100988644809827
vn 0 -1 0
vn 0 1 0
usemtl material_0_0
f 1//1 2//1 3//1
f 2//1 1//1 4//1
f 3//2 2//2 1//2
f 4//2 1//2 2//2
f 2//3 5//3 3//3
f 3//4 5//4 2//4
f 5//5 1//5 3//5
f 3//6 1//6 5//6
f 1//4 6//4 4//4
f 4//3 6//3 1//3
f 6//6 2//6 4//6
f 4//5 2//5 6//5
f 5//3 2//3 7//3
f 7//4 2//4 5//4
f 1//5 5//5 8//5
f 8//6 5//6 1//6
f 6//4 1//4 8//4
f 8//3 1//3 6//3
f 2//6 6//6 7//6
f 7//5 6//5 2//5
f 6//2 5//2 7//2
f 7//1 5//1 6//1
f 5//2 6//2 8//2
f 8//1 6//1 5//1
