# SSTK version 0.8.0
# 21
mtllib original-21.mtl
o #ID50
v 0.054929 0.129951 -0.366926
v 0.050269 0.137857 -0.374901
v 0.050008 0.129218 -0.369920
v 0.055228 0.139857 -0.372638
v 0.055228 0.139857 -0.372638
v 0.054929 0.129951 -0.366926
v 0.050269 0.137857 -0.374901
v 0.050008 0.129218 -0.369920
v 0.050721 0.142844 -0.383527
v 0.055747 0.145576 -0.382531
v 0.055747 0.145576 -0.382531
v 0.050721 0.142844 -0.383527
v 0.050269 0.137857 -0.374901
v 0.050008 0.119244 -0.369920
v 0.050008 0.129218 -0.369920
v 0.050269 0.110606 -0.374901
v 0.050721 0.142844 -0.383527
v 0.050721 0.105618 -0.383527
v 0.051243 0.142844 -0.393488
v 0.051243 0.105618 -0.393488
v 0.051695 0.137857 -0.402114
v 0.051695 0.110606 -0.402114
v 0.051956 0.129218 -0.407095
v 0.051956 0.119244 -0.407095
v 0.051956 0.119244 -0.407095
v 0.051956 0.129218 -0.407095
v 0.051695 0.110606 -0.402114
v 0.051695 0.137857 -0.402114
v 0.051243 0.105618 -0.393488
v 0.051243 0.142844 -0.393488
v 0.050721 0.105618 -0.383527
v 0.050721 0.142844 -0.383527
v 0.050269 0.110606 -0.374901
v 0.050269 0.137857 -0.374901
v 0.050008 0.119244 -0.369920
v 0.050008 0.129218 -0.369920
v 0.050008 0.119244 -0.369920
v 0.054929 0.118512 -0.366926
v 0.050008 0.119244 -0.369920
v 0.054929 0.118512 -0.366926
v 0.080600 0.138859 -0.372307
v 0.054929 0.129951 -0.366926
v 0.080320 0.129585 -0.366960
v 0.055228 0.139857 -0.372638
v 0.055228 0.139857 -0.372638
v 0.080600 0.138859 -0.372307
v 0.054929 0.129951 -0.366926
v 0.080320 0.129585 -0.366960
v 0.051243 0.142844 -0.393488
v 0.056345 0.145576 -0.393954
v 0.056345 0.145576 -0.393954
v 0.051243 0.142844 -0.393488
v 0.055747 0.145576 -0.382531
v 0.081085 0.144214 -0.381568
v 0.081085 0.144214 -0.381568
v 0.055747 0.145576 -0.382531
v 0.051956 0.119244 -0.407095
v 0.057163 0.129951 -0.409558
v 0.057163 0.118512 -0.409558
v 0.051956 0.129218 -0.407095
v 0.051956 0.129218 -0.407095
v 0.051956 0.119244 -0.407095
v 0.057163 0.129951 -0.409558
v 0.057163 0.118512 -0.409558
v 0.051695 0.110606 -0.402114
v 0.056864 0.108605 -0.403846
v 0.051695 0.110606 -0.402114
v 0.056864 0.108605 -0.403846
v 0.056345 0.102886 -0.393954
v 0.051243 0.105618 -0.393488
v 0.056345 0.102886 -0.393954
v 0.051243 0.105618 -0.393488
v 0.055747 0.102886 -0.382531
v 0.050721 0.105618 -0.383527
v 0.055747 0.102886 -0.382531
v 0.050721 0.105618 -0.383527
v 0.055228 0.108605 -0.372638
v 0.050269 0.110606 -0.374901
v 0.055228 0.108605 -0.372638
v 0.050269 0.110606 -0.374901
v 0.051695 0.137857 -0.402114
v 0.056864 0.139857 -0.403846
v 0.056864 0.139857 -0.403846
v 0.051695 0.137857 -0.402114
v 0.080320 0.118877 -0.366960
v 0.054929 0.118512 -0.366926
v 0.080320 0.118877 -0.366960
v 0.054929 0.118512 -0.366926
v 0.080600 0.109603 -0.372307
v 0.080320 0.129585 -0.366960
v 0.080320 0.118877 -0.366960
v 0.080600 0.138859 -0.372307
v 0.081085 0.104249 -0.381568
v 0.081085 0.144214 -0.381568
v 0.081115 0.124231 -0.382130
v 0.081646 0.104249 -0.392262
v 0.081240 0.120081 -0.384523
v 0.081491 0.120081 -0.389308
v 0.081616 0.124231 -0.391701
v 0.081646 0.144214 -0.392262
v 0.081240 0.128381 -0.384523
v 0.081491 0.128381 -0.389308
v 0.082131 0.109603 -0.401524
v 0.082131 0.138859 -0.401524
v 0.082411 0.118877 -0.406870
v 0.082411 0.129585 -0.406870
v 0.082411 0.129585 -0.406870
v 0.082411 0.118877 -0.406870
v 0.082131 0.138859 -0.401524
v 0.082131 0.109603 -0.401524
v 0.081646 0.144214 -0.392262
v 0.081646 0.104249 -0.392262
v 0.081616 0.124231 -0.391701
v 0.081491 0.128381 -0.389308
v 0.081240 0.128381 -0.384523
v 0.081115 0.124231 -0.382130
v 0.081085 0.144214 -0.381568
v 0.081491 0.120081 -0.389308
v 0.081240 0.120081 -0.384523
v 0.081085 0.104249 -0.381568
v 0.080600 0.138859 -0.372307
v 0.080600 0.109603 -0.372307
v 0.080320 0.129585 -0.366960
v 0.080320 0.118877 -0.366960
v 0.056345 0.145576 -0.393954
v 0.081646 0.144214 -0.392262
v 0.081646 0.144214 -0.392262
v 0.056345 0.145576 -0.393954
v 0.057163 0.129951 -0.409558
v 0.082411 0.118877 -0.406870
v 0.057163 0.118512 -0.409558
v 0.082411 0.129585 -0.406870
v 0.082411 0.129585 -0.406870
v 0.057163 0.129951 -0.409558
v 0.082411 0.118877 -0.406870
v 0.057163 0.118512 -0.409558
v 0.082131 0.109603 -0.401524
v 0.056864 0.108605 -0.403846
v 0.082131 0.109603 -0.401524
v 0.056864 0.108605 -0.403846
v 0.081646 0.104249 -0.392262
v 0.056345 0.102886 -0.393954
v 0.081646 0.104249 -0.392262
v 0.056345 0.102886 -0.393954
v 0.081085 0.104249 -0.381568
v 0.055747 0.102886 -0.382531
v 0.081085 0.104249 -0.381568
v 0.055747 0.102886 -0.382531
v 0.080600 0.109603 -0.372307
v 0.055228 0.108605 -0.372638
v 0.080600 0.109603 -0.372307
v 0.055228 0.108605 -0.372638
v 0.056864 0.139857 -0.403846
v 0.082131 0.138859 -0.401524
v 0.082131 0.138859 -0.401524
v 0.056864 0.139857 -0.403846
vn -0.530647123118307 0.22602899424657244 0.8168993355892433
vn -0.518817713270131 0.6175226731729653 0.5911801151209903
vn 0.518817713270131 -0.6175226731729653 -0.5911801151209903
vn 0.530647123118307 -0.22602899424657244 -0.8168993355892433
vn -0.49832853091076457 0.8435516941021045 0.2002229124196048
vn 0.49832853091076457 -0.8435516941021045 -0.2002229124196048
vn -0.9986295344630197 0 -0.052335961806130524
vn 0.9986295344630197 0 0.052335961806130524
vn -0.530647123118307 -0.22602899424657283 0.8168993355892433
vn 0.530647123118307 0.22602899424657283 -0.8168993355892433
vn 0.018520010379179653 0.7060150657253826 0.7079546144946995
vn 0.00499538192557105 0.258419478313389 0.9660198856067371
vn -0.018520010379179653 -0.7060150657253826 -0.7079546144946995
vn -0.00499538192557105 -0.258419478313389 -0.9660198856067371
vn -0.4746696286716868 0.8435516927309701 -0.2512156151742916
vn 0.4746696286716868 -0.8435516927309701 0.2512156151742916
vn 0.04194536050192714 0.964434544974747 0.2609724031228517
vn -0.04194536050192714 -0.964434544974747 -0.2609724031228517
vn -0.44235099277782497 -0.22602898070900668 -0.8678919858301034
vn -0.44235099277782486 0.226028980709007 -0.8678919858301032
vn 0.44235099277782486 -0.226028980709007 0.8678919858301032
vn 0.44235099277782497 0.22602898070900668 0.8678919858301034
vn -0.4541804060906893 -0.6175226656593504 -0.6421728086117214
vn 0.4541804060906893 0.6175226656593504 0.6421728086117214
vn -0.47466962867168694 -0.8435516927309701 -0.251215615174292
vn 0.47466962867168694 0.8435516927309701 0.251215615174292
vn -0.49832853091076457 -0.8435516941021045 0.2002229124196044
vn 0.49832853091076457 0.8435516941021045 -0.2002229124196044
vn -0.518817713270131 -0.6175226731729655 0.5911801151209901
vn 0.518817713270131 0.6175226731729655 -0.5911801151209901
vn -0.4541804060906893 0.6175226656593507 -0.6421728086117212
vn 0.4541804060906893 -0.6175226656593507 0.6421728086117212
vn 0.00499538192557105 -0.25841947831338946 0.9660198856067369
vn -0.00499538192557105 0.25841947831338946 -0.9660198856067369
vn 0.06899462228039416 0.9644345653103836 -0.25515820843342935
vn -0.06899462228039416 -0.9644345653103836 0.25515820843342935
vn 0.10594459653642928 0.25841947371540125 -0.9602057686086812
vn 0.10594459653642926 -0.25841947371540075 -0.9602057686086812
vn -0.10594459653642928 -0.25841947371540125 0.9602057686086812
vn -0.10594459653642926 0.25841947371540075 0.9602057686086812
vn 0.09241996076861116 -0.706015057141972 -0.7021405058393558
vn -0.09241996076861116 0.706015057141972 0.7021405058393558
vn 0.06899462228039416 -0.9644345653103834 -0.2551582084334298
vn -0.06899462228039416 0.9644345653103834 0.2551582084334298
vn 0.04194536050192713 -0.964434544974747 0.2609724031228512
vn -0.04194536050192713 0.964434544974747 -0.2609724031228512
vn 0.018520010379179653 -0.7060150657253829 0.7079546144946993
vn -0.018520010379179653 0.7060150657253829 -0.7079546144946993
vn 0.09241996076861116 0.7060150571419722 -0.7021405058393556
vn -0.09241996076861116 -0.7060150571419722 0.7021405058393556
usemtl material_0_0
f 1//1 2//2 3//1
f 2//2 1//1 4//2
f 5//3 6//4 7//3
f 8//4 7//3 6//4
f 4//2 9//5 2//2
f 9//5 4//2 10//5
f 11//6 5//3 12//6
f 7//3 12//6 5//3
f 13//7 14//7 15//7
f 14//7 13//7 16//7
f 16//7 13//7 17//7
f 16//7 17//7 18//7
f 18//7 17//7 19//7
f 18//7 19//7 20//7
f 20//7 19//7 21//7
f 20//7 21//7 22//7
f 22//7 21//7 23//7
f 22//7 23//7 24//7
f 25//8 26//8 27//8
f 26//8 28//8 27//8
f 27//8 28//8 29//8
f 28//8 30//8 29//8
f 29//8 30//8 31//8
f 30//8 32//8 31//8
f 31//8 32//8 33//8
f 32//8 34//8 33//8
f 33//8 34//8 35//8
f 36//8 35//8 34//8
f 1//1 37//9 38//9
f 37//9 1//1 3//1
f 8//4 6//4 39//10
f 40//10 39//10 6//4
f 41//11 42//12 43//12
f 42//12 41//11 44//11
f 45//13 46//13 47//14
f 48//14 47//14 46//13
f 10//5 49//15 9//5
f 49//15 10//5 50//15
f 51//16 11//6 52//16
f 12//6 52//16 11//6
f 41//11 53//17 44//11
f 53//17 41//11 54//17
f 55//18 46//13 56//18
f 45//13 56//18 46//13
f 57//19 58//20 59//19
f 58//20 57//19 60//20
f 61//21 62//22 63//21
f 64//22 63//21 62//22
f 65//23 59//19 66//23
f 59//19 65//23 57//19
f 62//22 67//24 64//22
f 68//24 64//22 67//24
f 65//23 69//25 70//25
f 69//25 65//23 66//23
f 68//24 67//24 71//26
f 72//26 71//26 67//24
f 70//25 73//27 74//27
f 73//27 70//25 69//25
f 71//26 72//26 75//28
f 76//28 75//28 72//26
f 74//27 77//29 78//29
f 77//29 74//27 73//27
f 75//28 76//28 79//30
f 80//30 79//30 76//28
f 38//9 78//29 77//29
f 78//29 38//9 37//9
f 39//10 40//10 80//30
f 79//30 80//30 40//10
f 50//15 81//31 49//15
f 81//31 50//15 82//31
f 83//32 51//16 84//32
f 52//16 84//32 51//16
f 81//31 58//20 60//20
f 58//20 81//31 82//31
f 83//32 84//32 63//21
f 61//21 63//21 84//32
f 85//33 42//12 86//33
f 42//12 85//33 43//12
f 48//14 87//34 47//14
f 88//34 47//14 87//34
f 89//8 90//8 91//8
f 90//8 89//8 92//8
f 92//8 89//8 93//8
f 92//8 93//8 94//8
f 94//8 93//8 95//8
f 95//8 93//8 96//8
f 95//8 96//8 97//8
f 97//8 96//8 98//8
f 98//8 96//8 99//8
f 95//8 100//8 94//8
f 100//8 95//8 101//8
f 100//8 101//8 102//8
f 100//8 102//8 99//8
f 100//8 99//8 96//8
f 100//8 96//8 103//8
f 100//8 103//8 104//8
f 104//8 103//8 105//8
f 104//8 105//8 106//8
f 107//7 108//7 109//7
f 108//7 110//7 109//7
f 109//7 110//7 111//7
f 110//7 112//7 111//7
f 112//7 113//7 111//7
f 113//7 114//7 111//7
f 114//7 115//7 111//7
f 115//7 116//7 111//7
f 117//7 111//7 116//7
f 113//7 112//7 118//7
f 118//7 112//7 119//7
f 119//7 112//7 116//7
f 112//7 120//7 116//7
f 116//7 120//7 117//7
f 117//7 120//7 121//7
f 120//7 122//7 121//7
f 121//7 122//7 123//7
f 124//7 123//7 122//7
f 54//17 125//35 53//17
f 125//35 54//17 126//35
f 127//36 55//18 128//36
f 56//18 128//36 55//18
f 129//37 130//38 131//38
f 130//38 129//37 132//37
f 133//39 134//39 135//40
f 136//40 135//40 134//39
f 131//38 137//41 138//41
f 137//41 131//38 130//38
f 135//40 136//40 139//42
f 140//42 139//42 136//40
f 138//41 141//43 142//43
f 141//43 138//41 137//41
f 139//42 140//42 143//44
f 144//44 143//44 140//42
f 142//43 145//45 146//45
f 145//45 142//43 141//43
f 143//44 144//44 147//46
f 148//46 147//46 144//44
f 146//45 149//47 150//47
f 149//47 146//45 145//45
f 147//46 148//46 151//48
f 152//48 151//48 148//46
f 149//47 86//33 150//47
f 86//33 149//47 85//33
f 87//34 151//48 88//34
f 152//48 88//34 151//48
f 126//35 153//49 125//35
f 153//49 126//35 154//49
f 155//50 127//36 156//50
f 128//36 156//50 127//36
f 129//37 154//49 132//37
f 154//49 129//37 153//49
f 156//50 134//39 155//50
f 133//39 155//50 134//39
