# SSTK version 0.8.0
# 22
mtllib original-22.mtl
o #ID56
v 0.098334 0.106447 -0.381254
v 0.100856 0.109603 -0.371245
v 0.097902 0.111212 -0.373012
v 0.101341 0.104249 -0.380507
v 0.101341 0.104249 -0.380507
v 0.098334 0.106447 -0.381254
v 0.100856 0.109603 -0.371245
v 0.097902 0.111212 -0.373012
v 0.100575 0.118877 -0.365898
v 0.097652 0.119466 -0.368253
v 0.097652 0.119466 -0.368253
v 0.100575 0.118877 -0.365898
v 0.097902 0.137250 -0.373012
v 0.097652 0.119466 -0.368253
v 0.097652 0.128996 -0.368253
v 0.097902 0.111212 -0.373012
v 0.098334 0.142016 -0.381254
v 0.098332 0.124231 -0.381228
v 0.098458 0.128381 -0.383620
v 0.098832 0.142016 -0.390772
v 0.098708 0.128381 -0.388406
v 0.098834 0.124231 -0.390798
v 0.099264 0.137250 -0.399014
v 0.098334 0.106447 -0.381254
v 0.098458 0.120081 -0.383620
v 0.098832 0.106447 -0.390772
v 0.098708 0.120081 -0.388406
v 0.099264 0.111212 -0.399014
v 0.099514 0.128996 -0.403773
v 0.099514 0.119466 -0.403773
v 0.099514 0.119466 -0.403773
v 0.099514 0.128996 -0.403773
v 0.099264 0.111212 -0.399014
v 0.099264 0.137250 -0.399014
v 0.098834 0.124231 -0.390798
v 0.098832 0.106447 -0.390772
v 0.098708 0.120081 -0.388406
v 0.098458 0.120081 -0.383620
v 0.098334 0.106447 -0.381254
v 0.098332 0.124231 -0.381228
v 0.097902 0.111212 -0.373012
v 0.098832 0.142016 -0.390772
v 0.098708 0.128381 -0.388406
v 0.098458 0.128381 -0.383620
v 0.098334 0.142016 -0.381254
v 0.097902 0.137250 -0.373012
v 0.097652 0.119466 -0.368253
v 0.097652 0.128996 -0.368253
v 0.098832 0.106447 -0.390772
v 0.101901 0.104249 -0.391201
v 0.101901 0.104249 -0.391201
v 0.098832 0.106447 -0.390772
v 0.100856 0.109603 -0.371245
v 0.100575 0.129585 -0.365898
v 0.100575 0.118877 -0.365898
v 0.100856 0.138859 -0.371245
v 0.101341 0.104249 -0.380507
v 0.101341 0.144214 -0.380507
v 0.101370 0.124231 -0.381068
v 0.101901 0.104249 -0.391201
v 0.101496 0.120081 -0.383461
v 0.101747 0.120081 -0.388246
v 0.101872 0.124231 -0.390639
v 0.101901 0.144214 -0.391201
v 0.101496 0.128381 -0.383461
v 0.101747 0.128381 -0.388246
v 0.102387 0.109603 -0.400462
v 0.102387 0.138859 -0.400462
v 0.102667 0.118877 -0.405809
v 0.102667 0.129585 -0.405809
v 0.102667 0.129585 -0.405809
v 0.102667 0.118877 -0.405809
v 0.102387 0.138859 -0.400462
v 0.102387 0.109603 -0.400462
v 0.101901 0.144214 -0.391201
v 0.101901 0.104249 -0.391201
v 0.101872 0.124231 -0.390639
v 0.101747 0.128381 -0.388246
v 0.101496 0.128381 -0.383461
v 0.101370 0.124231 -0.381068
v 0.101341 0.144214 -0.380507
v 0.101747 0.120081 -0.388246
v 0.101496 0.120081 -0.383461
v 0.101341 0.104249 -0.380507
v 0.100856 0.138859 -0.371245
v 0.100856 0.109603 -0.371245
v 0.100575 0.129585 -0.365898
v 0.100575 0.118877 -0.365898
v 0.100575 0.129585 -0.365898
v 0.097652 0.128996 -0.368253
v 0.097652 0.128996 -0.368253
v 0.100575 0.129585 -0.365898
v 0.099264 0.137250 -0.399014
v 0.102667 0.129585 -0.405809
v 0.099514 0.128996 -0.403773
v 0.102387 0.138859 -0.400462
v 0.102387 0.138859 -0.400462
v 0.099264 0.137250 -0.399014
v 0.102667 0.129585 -0.405809
v 0.099514 0.128996 -0.403773
v 0.099514 0.119466 -0.403773
v 0.102667 0.118877 -0.405809
v 0.099514 0.119466 -0.403773
v 0.102667 0.118877 -0.405809
v 0.099264 0.111212 -0.399014
v 0.102387 0.109603 -0.400462
v 0.099264 0.111212 -0.399014
v 0.102387 0.109603 -0.400462
v 0.097902 0.137250 -0.373012
v 0.100856 0.138859 -0.371245
v 0.100856 0.138859 -0.371245
v 0.097902 0.137250 -0.373012
v 0.098334 0.142016 -0.381254
v 0.101341 0.144214 -0.380507
v 0.101341 0.144214 -0.380507
v 0.098334 0.142016 -0.381254
v 0.098832 0.142016 -0.390772
v 0.101901 0.144214 -0.391201
v 0.101901 0.144214 -0.391201
v 0.098832 0.142016 -0.390772
vn -0.6089707443769423 -0.7735043029790856 0.17562951279848127
vn -0.6277585183461325 -0.566244477465844 0.5341221156096251
vn 0.6089707443769423 0.7735043029790856 -0.17562951279848127
vn 0.6277585183461325 0.566244477465844 -0.5341221156096251
vn -0.6386057007423415 -0.20725988593571887 0.7410979008614824
vn 0.6386057007423415 0.20725988593571887 -0.7410979008614824
vn -0.9986295344630197 0 -0.052335961806130524
vn 0.9986295344630197 0 0.052335961806130524
vn -0.5872764549477755 -0.7735043189841957 -0.2383221222983068
vn 0.5872764549477755 0.7735043189841957 0.2383221222983068
vn -0.6386057007423415 0.20725988593571854 0.7410979008614824
vn 0.6386057007423415 -0.20725988593571854 -0.7410979008614824
vn -0.5684886047330394 0.5662444656318041 -0.5968148049688735
vn -0.5576414912481437 0.2072598824419691 -0.8037905873849778
vn 0.5684886047330394 -0.5662444656318041 0.5968148049688735
vn 0.5576414912481437 -0.2072598824419691 0.8037905873849778
vn -0.5576414912481438 -0.2072598824419688 -0.803790587384978
vn 0.5576414912481438 0.2072598824419688 0.803790587384978
vn -0.5684886047330394 -0.5662444656318039 -0.5968148049688737
vn 0.5684886047330394 0.5662444656318039 0.5968148049688737
vn -0.6277585183461325 0.5662444774658438 0.5341221156096253
vn 0.6277585183461325 -0.5662444774658438 -0.5341221156096253
vn -0.6089707443769423 0.7735043029790856 0.1756295127984816
vn 0.6089707443769423 -0.7735043029790856 -0.1756295127984816
vn -0.5872764549477755 0.7735043189841957 -0.23832212229830646
vn 0.5872764549477755 -0.7735043189841957 0.23832212229830646
usemtl material_0_0
f 1//1 2//2 3//2
f 2//2 1//1 4//1
f 5//3 6//3 7//4
f 8//4 7//4 6//3
f 9//5 3//2 2//2
f 3//2 9//5 10//5
f 11//6 12//6 8//4
f 7//4 8//4 12//6
f 13//7 14//7 15//7
f 14//7 13//7 16//7
f 16//7 13//7 17//7
f 16//7 17//7 18//7
f 18//7 17//7 19//7
f 19//7 17//7 20//7
f 19//7 20//7 21//7
f 21//7 20//7 22//7
f 22//7 20//7 23//7
f 18//7 24//7 16//7
f 24//7 18//7 25//7
f 24//7 25//7 26//7
f 26//7 25//7 27//7
f 26//7 27//7 22//7
f 26//7 22//7 28//7
f 28//7 22//7 23//7
f 28//7 23//7 29//7
f 28//7 29//7 30//7
f 31//8 32//8 33//8
f 32//8 34//8 33//8
f 34//8 35//8 33//8
f 33//8 35//8 36//8
f 35//8 37//8 36//8
f 37//8 38//8 36//8
f 36//8 38//8 39//8
f 38//8 40//8 39//8
f 41//8 39//8 40//8
f 34//8 42//8 35//8
f 35//8 42//8 43//8
f 43//8 42//8 44//8
f 42//8 45//8 44//8
f 44//8 45//8 40//8
f 40//8 45//8 41//8
f 45//8 46//8 41//8
f 41//8 46//8 47//8
f 48//8 47//8 46//8
f 49//9 4//1 1//1
f 4//1 49//9 50//9
f 51//10 52//10 5//3
f 6//3 5//3 52//10
f 53//8 54//8 55//8
f 54//8 53//8 56//8
f 56//8 53//8 57//8
f 56//8 57//8 58//8
f 58//8 57//8 59//8
f 59//8 57//8 60//8
f 59//8 60//8 61//8
f 61//8 60//8 62//8
f 62//8 60//8 63//8
f 59//8 64//8 58//8
f 64//8 59//8 65//8
f 64//8 65//8 66//8
f 64//8 66//8 63//8
f 64//8 63//8 60//8
f 64//8 60//8 67//8
f 64//8 67//8 68//8
f 68//8 67//8 69//8
f 68//8 69//8 70//8
f 71//7 72//7 73//7
f 72//7 74//7 73//7
f 73//7 74//7 75//7
f 74//7 76//7 75//7
f 76//7 77//7 75//7
f 77//7 78//7 75//7
f 78//7 79//7 75//7
f 79//7 80//7 75//7
f 81//7 75//7 80//7
f 77//7 76//7 82//7
f 82//7 76//7 83//7
f 83//7 76//7 80//7
f 76//7 84//7 80//7
f 80//7 84//7 81//7
f 81//7 84//7 85//7
f 84//7 86//7 85//7
f 85//7 86//7 87//7
f 88//7 87//7 86//7
f 89//11 10//5 9//5
f 10//5 89//11 90//11
f 91//12 92//12 11//6
f 12//6 11//6 92//12
f 93//13 94//14 95//14
f 94//14 93//13 96//13
f 97//15 98//15 99//16
f 100//16 99//16 98//15
f 101//17 94//14 102//17
f 94//14 101//17 95//14
f 100//16 103//18 99//16
f 104//18 99//16 103//18
f 105//19 102//17 106//19
f 102//17 105//19 101//17
f 103//18 107//20 104//18
f 108//20 104//18 107//20
f 105//19 50//9 49//9
f 50//9 105//19 106//19
f 108//20 107//20 51//10
f 52//10 51//10 107//20
f 89//11 109//21 90//11
f 109//21 89//11 110//21
f 111//22 92//12 112//22
f 91//12 112//22 92//12
f 110//21 113//23 109//21
f 113//23 110//21 114//23
f 115//24 111//22 116//24
f 112//22 116//24 111//22
f 114//23 117//25 113//23
f 117//25 114//23 118//25
f 119//26 115//24 120//26
f 116//24 120//26 115//24
f 118//25 93//13 117//25
f 93//13 118//25 96//13
f 97//15 119//26 98//15
f 120//26 98//15 119//26
