# SSTK version 0.8.0
# 8
mtllib original-8.mtl
o #ID192
v 0.151909 0.795265 0.275492
v -0.543323 0.795265 0.172647
v -0.543323 0.795265 0.275492
v 0.151909 0.795265 0.172647
v 0.151909 0.795265 0.172647
v 0.151909 0.795265 0.275492
v -0.543323 0.795265 0.172647
v -0.543323 0.795265 0.275492
v 0.151909 0.795265 0.275492
v 0.143923 -0.834043 0.275492
v 0.151909 -0.834043 0.275492
v 0.143923 0.787279 0.275492
v -0.535337 0.787279 0.275492
v -0.543323 -0.834043 0.275492
v -0.535337 -0.834043 0.275492
v -0.543323 0.795265 0.275492
v 0.151909 0.795265 0.275492
v -0.535337 0.787279 0.275492
v -0.543323 0.795265 0.275492
v -0.543323 -0.834043 0.275492
v -0.535337 -0.834043 0.275492
v 0.143923 0.787279 0.275492
v 0.143923 -0.834043 0.275492
v 0.151909 -0.834043 0.275492
v 0.151909 0.795265 0.172647
v 0.151909 -0.834043 0.275492
v 0.151909 0.795265 0.275492
v 0.151909 -0.834043 0.172647
v 0.151909 -0.834043 0.172647
v 0.151909 0.795265 0.172647
v 0.151909 -0.834043 0.275492
v 0.151909 0.795265 0.275492
v 0.161250 0.804606 0.172647
v 0.151909 -0.834043 0.172647
v 0.161250 -0.834043 0.172647
v 0.151909 0.795265 0.172647
v -0.543323 0.795265 0.172647
v -0.552664 -0.834043 0.172647
v -0.543323 -0.834043 0.172647
v -0.552664 0.804606 0.172647
v 0.161250 0.804606 0.172647
v -0.543323 0.795265 0.172647
v -0.552664 0.804606 0.172647
v -0.552664 -0.834043 0.172647
v -0.543323 -0.834043 0.172647
v 0.151909 0.795265 0.172647
v 0.151909 -0.834043 0.172647
v 0.161250 -0.834043 0.172647
v 0.143923 0.787279 0.275492
v -0.502426 0.754368 0.267265
v 0.111013 0.754368 0.267265
v -0.535337 0.787279 0.275492
v -0.535337 0.787279 0.275492
v 0.143923 0.787279 0.275492
v -0.502426 0.754368 0.267265
v 0.111013 0.754368 0.267265
v 0.143923 0.787279 0.275492
v 0.111013 -0.834043 0.267265
v 0.143923 -0.834043 0.275492
v 0.111013 0.754368 0.267265
v 0.111013 0.754368 0.267265
v 0.143923 0.787279 0.275492
v 0.111013 -0.834043 0.267265
v 0.143923 -0.834043 0.275492
v 0.161250 0.804606 0.156675
v 0.161250 -0.834043 0.172647
v 0.161250 0.804606 0.172647
v 0.161250 -0.834043 0.156675
v 0.161250 -0.834043 0.156675
v 0.161250 0.804606 0.156675
v 0.161250 -0.834043 0.172647
v 0.161250 0.804606 0.172647
v 0.161250 0.804606 0.172647
v -0.552664 0.804606 0.156675
v -0.552664 0.804606 0.172647
v 0.161250 0.804606 0.156675
v 0.161250 0.804606 0.156675
v 0.161250 0.804606 0.172647
v -0.552664 0.804606 0.156675
v -0.552664 0.804606 0.172647
v 0.111013 0.754368 0.267265
v -0.499248 0.751190 0.265535
v 0.107834 0.751190 0.265535
v -0.502426 0.754368 0.267265
v -0.502426 0.754368 0.267265
v 0.111013 0.754368 0.267265
v -0.499248 0.751190 0.265535
v 0.107834 0.751190 0.265535
v 0.111013 0.754368 0.267265
v 0.107834 -0.834043 0.265535
v 0.111013 -0.834043 0.267265
v 0.107834 0.751190 0.265535
v 0.107834 0.751190 0.265535
v 0.111013 0.754368 0.267265
v 0.107834 -0.834043 0.265535
v 0.111013 -0.834043 0.267265
v -0.552664 0.804606 0.156675
v -0.544679 -0.834043 0.156675
v -0.552664 -0.834043 0.156675
v -0.544679 0.796621 0.156675
v 0.153265 0.796621 0.156675
v 0.161250 -0.834043 0.156675
v 0.153265 -0.834043 0.156675
v 0.161250 0.804606 0.156675
v -0.552664 0.804606 0.156675
v 0.153265 0.796621 0.156675
v 0.161250 0.804606 0.156675
v 0.161250 -0.834043 0.156675
v 0.153265 -0.834043 0.156675
v -0.544679 0.796621 0.156675
v -0.544679 -0.834043 0.156675
v -0.552664 -0.834043 0.156675
v -0.496818 0.748760 0.262853
v 0.105405 0.748760 0.262853
v 0.105405 0.748760 0.262853
v -0.496818 0.748760 0.262853
v 0.105405 0.748760 0.262853
v 0.105405 -0.834043 0.262853
v 0.105405 -0.834043 0.262853
v 0.105405 0.748760 0.262853
v 0.120354 0.763710 0.164902
v 0.153265 -0.834043 0.156675
v 0.120354 -0.834043 0.164902
v 0.153265 0.796621 0.156675
v 0.153265 0.796621 0.156675
v 0.120354 0.763710 0.164902
v 0.153265 -0.834043 0.156675
v 0.120354 -0.834043 0.164902
v -0.544679 0.796621 0.156675
v 0.120354 0.763710 0.164902
v -0.511768 0.763710 0.164902
v 0.153265 0.796621 0.156675
v 0.153265 0.796621 0.156675
v -0.544679 0.796621 0.156675
v 0.120354 0.763710 0.164902
v -0.511768 0.763710 0.164902
v -0.495409 0.747351 0.259520
v 0.103995 0.747351 0.259520
v 0.103995 0.747351 0.259520
v -0.495409 0.747351 0.259520
v 0.103995 0.747351 0.259520
v 0.103995 -0.834043 0.259520
v 0.103995 -0.834043 0.259520
v 0.103995 0.747351 0.259520
v 0.117176 0.760532 0.166632
v 0.120354 -0.834043 0.164902
v 0.117176 -0.834043 0.166632
v 0.120354 0.763710 0.164902
v 0.120354 0.763710 0.164902
v 0.117176 0.760532 0.166632
v 0.120354 -0.834043 0.164902
v 0.117176 -0.834043 0.166632
v -0.511768 0.763710 0.164902
v 0.117176 0.760532 0.166632
v -0.508590 0.760532 0.166632
v 0.120354 0.763710 0.164902
v 0.120354 0.763710 0.164902
v -0.511768 0.763710 0.164902
v 0.117176 0.760532 0.166632
v -0.508590 0.760532 0.166632
v 0.103995 -0.834043 0.259520
v 0.099761 0.743117 0.259520
v 0.099761 -0.834043 0.259520
v 0.103995 0.747351 0.259520
v -0.491175 0.743117 0.259520
v -0.495409 -0.834043 0.259520
v -0.491175 -0.834043 0.259520
v -0.495409 0.747351 0.259520
v 0.103995 0.747351 0.259520
v -0.491175 0.743117 0.259520
v -0.495409 0.747351 0.259520
v -0.495409 -0.834043 0.259520
v -0.491175 -0.834043 0.259520
v 0.099761 0.743117 0.259520
v 0.103995 -0.834043 0.259520
v 0.099761 -0.834043 0.259520
v 0.114746 -0.834043 0.169314
v 0.114746 0.758102 0.169314
v 0.114746 -0.834043 0.169314
v 0.114746 0.758102 0.169314
v -0.506160 0.758102 0.169314
v 0.114746 0.758102 0.169314
v 0.114746 0.758102 0.169314
v -0.506160 0.758102 0.169314
v 0.099761 0.743117 0.204589
v -0.491175 0.743117 0.259520
v -0.491175 0.743117 0.204589
v 0.099761 0.743117 0.259520
v 0.099761 0.743117 0.259520
v 0.099761 0.743117 0.204589
v -0.491175 0.743117 0.259520
v -0.491175 0.743117 0.204589
v 0.099761 0.743117 0.204589
v 0.099761 -0.834043 0.259520
v 0.099761 0.743117 0.259520
v 0.099761 -0.834043 0.204589
v 0.099761 -0.834043 0.204589
v 0.099761 0.743117 0.204589
v 0.099761 -0.834043 0.259520
v 0.099761 0.743117 0.259520
v 0.113337 -0.834043 0.172647
v 0.113337 0.756693 0.172647
v 0.113337 -0.834043 0.172647
v 0.113337 0.756693 0.172647
v -0.504750 0.756693 0.172647
v 0.113337 0.756693 0.172647
v 0.113337 0.756693 0.172647
v -0.504750 0.756693 0.172647
v -0.500758 0.752700 0.204589
v -0.491175 -0.834043 0.204589
v -0.500758 -0.834043 0.204589
v -0.491175 0.743117 0.204589
v 0.099761 0.743117 0.204589
v 0.109344 -0.834043 0.204589
v 0.099761 -0.834043 0.204589
v 0.109344 0.752700 0.204589
v -0.500758 0.752700 0.204589
v 0.099761 0.743117 0.204589
v 0.109344 0.752700 0.204589
v 0.109344 -0.834043 0.204589
v 0.099761 -0.834043 0.204589
v -0.491175 0.743117 0.204589
v -0.491175 -0.834043 0.204589
v -0.500758 -0.834043 0.204589
v -0.504750 0.756693 0.172647
v -0.500758 -0.834043 0.172647
v -0.504750 -0.834043 0.172647
v -0.501556 0.113051 0.172647
v -0.501556 0.133015 0.172647
v -0.500758 0.133015 0.172647
v -0.500758 0.752700 0.172647
v 0.109344 0.752700 0.172647
v 0.113337 -0.834043 0.172647
v 0.109344 -0.834043 0.172647
v 0.113337 0.756693 0.172647
v -0.500758 0.113051 0.172647
v -0.501556 0.113051 0.172647
v -0.500758 -0.834043 0.172647
v -0.500758 0.113051 0.172647
v -0.504750 0.756693 0.172647
v 0.109344 0.752700 0.172647
v 0.113337 0.756693 0.172647
v 0.113337 -0.834043 0.172647
v 0.109344 -0.834043 0.172647
v -0.500758 0.752700 0.172647
v -0.500758 0.133015 0.172647
v -0.501556 0.133015 0.172647
v -0.504750 -0.834043 0.172647
v 0.109344 0.752700 0.172647
v -0.500758 0.752700 0.204589
v -0.500758 0.752700 0.172647
v 0.109344 0.752700 0.204589
v 0.109344 0.752700 0.204589
v 0.109344 0.752700 0.172647
v -0.500758 0.752700 0.204589
v -0.500758 0.752700 0.172647
v 0.109344 0.752700 0.172647
v 0.109344 -0.834043 0.204589
v 0.109344 0.752700 0.204589
v 0.109344 -0.834043 0.172647
v 0.109344 -0.834043 0.172647
v 0.109344 0.752700 0.172647
v 0.109344 -0.834043 0.204589
v 0.109344 0.752700 0.204589
vt -0.006396476 -0.07042199
vt -0.4824487 1.97373e-16
vt -0.4824487 -0.07042199
vt -0.006396476 1.97373e-16
vt -0.006396476 1.115651
vt -0.01186454 0
vt -0.006396476 0
vt -0.01186454 1.110183
vt -0.4769806 1.110183
vt -0.4824487 -4.472265e-18
vt -0.4769806 -4.472265e-18
vt -0.4824487 1.115651
vt -1.97373e-16 1.115651
vt 0.07042199 0
vt 0.07042199 1.115651
vt -1.97373e-16 0
vt -1.97373e-16 1.122047
vt -0.4888451 -4.472265e-18
vt -0.4888451 1.122047
vt -0.01186454 1.09412
vt -0.4544455 1.070891
vt -0.03439969 1.070891
vt -0.4769806 1.09412
vt 0.005568011 1.110183
vt -0.01766056 0
vt 0.005568011 0
vt -0.01766056 1.087648
vt -0.01093613 1.122047
vt -0.01093613 0
vt -1.97373e-16 1.97373e-16
vt -0.4888451 0.01093613
vt -0.4888451 1.97373e-16
vt -1.97373e-16 0.01093613
vt -0.03439969 0.986284
vt -0.4522691 0.9838062
vt -0.03657603 0.9838062
vt -0.4544455 0.986284
vt 0.0007586074 1.087648
vt -0.001719223 0
vt 0.0007586074 0
vt -0.001719223 1.085471
vt 0.4888451 1.122047
vt 0.4833771 -4.472265e-18
vt 0.4888451 -4.472265e-18
vt 0.4833771 1.116579
vt 0.005468066 1.116579
vt 1.97373e-16 0
vt 0.005468066 0
vt 1.97373e-16 1.122047
vt -0.4506053 0.7735252
vt -0.03657603 0.7760031
vt -0.4522691 0.7760031
vt -0.03823984 0.7735252
vt 0.02009434 1.083807
vt 0.02257217 0
vt 0.02257217 1.085471
vt 0.02009434 0
vt 0.02588123 1.094044
vt 0.002652659 0
vt 0.02588123 0
vt 0.002652659 1.116579
vt 0.4833771 1.085899
vt 0.02800321 1.06267
vt 0.4608419 1.06267
vt 0.005468066 1.085899
vt -0.4496403 0.4765194
vt -0.03823984 0.4789972
vt -0.4506053 0.4789972
vt -0.03920488 0.4765194
vt 0.03951992 1.082842
vt 0.04199775 0
vt 0.04199775 1.083807
vt 0.03951992 0
vt 0.02453875 1.091868
vt 0.02206092 0
vt 0.02453875 0
vt 0.02206092 1.094044
vt 0.4608419 0.9634645
vt 0.03017956 0.9609866
vt 0.4586656 0.9609866
vt 0.02800321 0.9634645
vt -0.03920488 0
vt -0.04210411 1.079943
vt -0.04210411 -4.472265e-18
vt -0.03920488 1.082842
vt -0.446741 1.079943
vt -0.4496403 -4.472265e-18
vt -0.446741 -4.472265e-18
vt -0.4496403 1.082842
vt 0.01721316 1.091868
vt 0.01969099 0
vt 0.01969099 1.090204
vt 0.01721316 0
vt 0.03017956 0.7362177
vt 0.4570018 0.7337399
vt 0.4586656 0.7362177
vt 0.03184337 0.7337399
vt 0.04210411 -0.02187227
vt 0.446741 -0.05948585
vt 0.446741 -0.02187227
vt 0.04210411 -0.05948585
vt 0.02187227 1.079943
vt 0.05948585 -4.472265e-18
vt 0.05948585 1.079943
vt 0.02187227 0
vt 0.01029993 1.090204
vt 0.01277776 0
vt 0.01277776 1.089239
vt 0.01029993 0
vt 0.03184337 0.4266995
vt 0.4560367 0.4242217
vt 0.4570018 0.4266995
vt 0.0328084 0.4242217
vt 0.4533027 1.086505
vt 0.446741 -4.472265e-18
vt 0.4533027 -4.472265e-18
vt 0.446741 1.079943
vt 0.04210411 1.079943
vt 0.03554243 0
vt 0.04210411 0
vt 0.03554243 1.086505
vt 0.4560367 1.089239
vt 0.4560367 -4.472265e-18
vt 0.4538495 0.6485127
vt 0.4538495 0.6621829
vt 0.4533027 0.6621829
vt 0.0328084 0
vt 0.0328084 1.089239
vt 0.4533027 0.6485127
vt 0.03554243 1.97373e-16
vt 0.4533027 -0.02187227
vt 0.4533027 1.97373e-16
vt 0.03554243 -0.02187227
vt -1.97373e-16 1.086505
vt 0.02187227 1.086505
vn 0 1 0
vn 0 -1 0
vn 0 0 1
vn 0 0 -1
vn -1 0 0
vn 1 0 0
vn 0 -0.2425147073322652 0.9701477293317478
vn 0 0.2425147073322652 -0.9701477293317478
vn -0.242514707332265 0 0.9701477293317478
vn 0.242514707332265 0 -0.9701477293317478
vn 0 -0.47805869508457677 0.8783278909689886
vn 0 -0.5634564006878114 0.8261458010084761
vn 0 0.47805869508457677 -0.8783278909689886
vn 0 0.5634564006878114 -0.8261458010084761
vn -0.47805869508457655 0 0.8783278909689887
vn -0.618253307973582 0 0.7859789101367307
vn -0.5634564006878112 0 0.8261458010084762
vn 0.5634564006878112 0 -0.8261458010084762
vn 0.47805869508457655 0 -0.8783278909689887
vn 0.618253307973582 0 -0.7859789101367307
vn 0 -0.815801167988905 0.5783324773069017
vn 0 0.815801167988905 -0.5783324773069017
vn -0.8158011679889049 0 0.578332477306902
vn -0.8429101109403958 0 0.5380544069835776
vn 0.8429101109403958 0 -0.5380544069835776
vn 0.8158011679889049 0 -0.578332477306902
vn -0.242514707332265 0 -0.9701477293317478
vn 0.242514707332265 0 0.9701477293317478
vn 0 -0.24251470733226477 -0.9701477293317478
vn 0 0.24251470733226477 0.9701477293317478
vn 0 -0.9210407649050872 0.3894661851599597
vn 0 0.9210407649050872 -0.3894661851599597
vn -0.9210407649050871 0 0.3894661851599599
vn 0.9210407649050871 0 -0.3894661851599599
vn -0.5634564006878112 0 -0.8261458010084762
vn -0.47805869508457655 0 -0.8783278909689887
vn -0.618253307973582 0 -0.7859789101367307
vn 0.47805869508457655 0 0.8783278909689887
vn 0.5634564006878112 0 0.8261458010084762
vn 0.618253307973582 0 0.7859789101367307
vn 0 -0.47805869508457643 -0.878327890968989
vn 0 -0.5634564006878111 -0.8261458010084765
vn 0 0.47805869508457643 0.878327890968989
vn 0 0.5634564006878111 0.8261458010084765
vn -0.8429101109403958 0 -0.5380544069835776
vn -0.8158011679889049 0 -0.578332477306902
vn 0.8429101109403958 0 0.5380544069835776
vn 0.8158011679889049 0 0.578332477306902
vn 0 -0.8158011679889048 -0.5783324773069022
vn 0 0.8158011679889048 0.5783324773069022
vn -0.9210407649050871 0 -0.3894661851599599
vn 0.9210407649050871 0 0.3894661851599599
vn 0 -0.921040764905087 -0.3894661851599601
vn 0 0.921040764905087 0.3894661851599601
usemtl material_0_0
f 1/1/1 2/2/1 3/3/1
f 2/2/1 1/1/1 4/4/1
f 5/4/2 6/1/2 7/2/2
f 8/3/2 7/2/2 6/1/2
f 9/5/3 10/6/3 11/7/3
f 10/6/3 9/5/3 12/8/3
f 12/8/3 9/5/3 13/9/3
f 13/9/3 14/10/3 15/11/3
f 14/10/3 13/9/3 16/12/3
f 16/12/3 13/9/3 9/5/3
f 17/5/4 18/9/4 19/12/4
f 19/12/4 18/9/4 20/10/4
f 21/11/4 20/10/4 18/9/4
f 18/9/4 17/5/4 22/8/4
f 22/8/4 17/5/4 23/6/4
f 24/7/4 23/6/4 17/5/4
f 25/13/5 26/14/5 27/15/5
f 26/14/5 25/13/5 28/16/5
f 29/16/6 30/13/6 31/14/6
f 32/15/6 31/14/6 30/13/6
f 33/17/3 34/7/3 35/16/3
f 34/7/3 33/17/3 36/5/3
f 36/5/3 33/17/3 37/12/3
f 37/12/3 38/18/3 39/10/3
f 38/18/3 37/12/3 40/19/3
f 40/19/3 37/12/3 33/17/3
f 41/17/4 42/12/4 43/19/4
f 43/19/4 42/12/4 44/18/4
f 45/10/4 44/18/4 42/12/4
f 42/12/4 41/17/4 46/5/4
f 46/5/4 41/17/4 47/7/4
f 48/16/4 47/7/4 41/17/4
f 49/20/7 50/21/7 51/22/7
f 50/21/7 49/20/7 52/23/7
f 53/23/8 54/20/8 55/21/8
f 56/22/8 55/21/8 54/20/8
f 57/24/9 58/25/9 59/26/9
f 58/25/9 57/24/9 60/27/9
f 61/27/10 62/24/10 63/25/10
f 64/26/10 63/25/10 62/24/10
f 65/28/5 66/16/5 67/17/5
f 66/16/5 65/28/5 68/29/5
f 69/29/6 70/28/6 71/16/6
f 72/17/6 71/16/6 70/28/6
f 73/30/1 74/31/1 75/32/1
f 74/31/1 73/30/1 76/33/1
f 77/33/2 78/30/2 79/31/2
f 80/32/2 79/31/2 78/30/2
f 81/34/11 82/35/12 83/36/12
f 82/35/12 81/34/11 84/37/11
f 85/37/13 86/34/13 87/35/14
f 88/36/14 87/35/14 86/34/13
f 89/38/15 90/39/16 91/40/15
f 90/39/16 89/38/15 92/41/17
f 93/41/18 94/38/19 95/39/20
f 96/40/19 95/39/20 94/38/19
f 97/42/4 98/43/4 99/44/4
f 98/43/4 97/42/4 100/45/4
f 100/45/4 97/42/4 101/46/4
f 101/46/4 102/47/4 103/48/4
f 102/47/4 101/46/4 104/49/4
f 104/49/4 101/46/4 97/42/4
f 105/42/3 106/46/3 107/49/3
f 107/49/3 106/46/3 108/47/3
f 109/48/3 108/47/3 106/46/3
f 106/46/3 105/42/3 110/45/3
f 110/45/3 105/42/3 111/43/3
f 112/44/3 111/43/3 105/42/3
f 113/50/21 83/51/12 82/52/12
f 83/51/12 113/50/21 114/53/21
f 115/53/22 116/50/22 88/51/14
f 87/52/14 88/51/14 116/50/22
f 117/54/23 90/55/16 92/56/17
f 90/55/16 117/54/23 118/57/24
f 119/57/25 120/54/26 95/55/20
f 93/56/18 95/55/20 120/54/26
f 121/58/27 122/59/27 123/60/27
f 122/59/27 121/58/27 124/61/27
f 125/61/28 126/58/28 127/59/28
f 128/60/28 127/59/28 126/58/28
f 129/62/29 130/63/29 131/64/29
f 130/63/29 129/62/29 132/65/29
f 133/65/30 134/62/30 135/63/30
f 136/64/30 135/63/30 134/62/30
f 137/66/31 114/67/21 113/68/21
f 114/67/21 137/66/31 138/69/31
f 139/69/32 140/66/32 115/67/22
f 116/68/22 115/67/22 140/66/32
f 141/70/33 118/71/24 117/72/23
f 118/71/24 141/70/33 142/73/33
f 143/73/34 144/70/34 119/71/25
f 120/72/26 119/71/25 144/70/34
f 145/74/35 146/75/36 147/76/37
f 146/75/36 145/74/35 148/77/36
f 149/77/38 150/74/39 151/75/38
f 152/76/40 151/75/38 150/74/39
f 153/78/41 154/79/42 155/80/42
f 154/79/42 153/78/41 156/81/41
f 157/81/43 158/78/43 159/79/44
f 160/80/44 159/79/44 158/78/43
f 161/82/3 162/83/3 163/84/3
f 162/83/3 161/82/3 164/85/3
f 162/83/3 164/85/3 165/86/3
f 165/86/3 166/87/3 167/88/3
f 166/87/3 165/86/3 168/89/3
f 168/89/3 165/86/3 164/85/3
f 169/85/4 170/86/4 171/89/4
f 171/89/4 170/86/4 172/87/4
f 173/88/4 172/87/4 170/86/4
f 170/86/4 169/85/4 174/83/4
f 169/85/4 175/82/4 174/83/4
f 176/84/4 174/83/4 175/82/4
f 145/90/35 177/91/45 178/92/46
f 177/91/45 145/90/35 147/93/37
f 152/93/40 150/90/39 179/91/47
f 180/92/48 179/91/47 150/90/39
f 154/94/42 181/95/49 155/96/42
f 181/95/49 154/94/42 182/97/49
f 183/97/50 159/94/44 184/95/50
f 160/96/44 184/95/50 159/94/44
f 185/98/2 186/99/2 187/100/2
f 186/99/2 185/98/2 188/101/2
f 189/101/1 190/98/1 191/99/1
f 192/100/1 191/99/1 190/98/1
f 193/102/5 194/103/5 195/104/5
f 194/103/5 193/102/5 196/105/5
f 197/105/6 198/102/6 199/103/6
f 200/104/6 199/103/6 198/102/6
f 178/106/46 201/107/51 202/108/51
f 201/107/51 178/106/46 177/109/45
f 179/109/47 180/106/48 203/107/52
f 204/108/52 203/107/52 180/106/48
f 182/110/49 205/111/53 181/112/49
f 205/111/53 182/110/49 206/113/53
f 207/113/54 183/110/50 208/111/54
f 184/112/50 208/111/54 183/110/50
f 209/114/4 210/115/4 211/116/4
f 210/115/4 209/114/4 212/117/4
f 212/117/4 209/114/4 213/118/4
f 213/118/4 214/119/4 215/120/4
f 214/119/4 213/118/4 216/121/4
f 216/121/4 213/118/4 209/114/4
f 217/114/3 218/118/3 219/121/3
f 219/121/3 218/118/3 220/119/3
f 221/120/3 220/119/3 218/118/3
f 218/118/3 217/114/3 222/117/3
f 222/117/3 217/114/3 223/115/3
f 224/116/3 223/115/3 217/114/3
f 225/122/4 226/116/4 227/123/4
f 226/116/4 225/122/4 228/124/4
f 228/124/4 225/122/4 229/125/4
f 229/125/4 225/122/4 230/126/4
f 230/126/4 225/122/4 231/114/4
f 231/114/4 225/122/4 232/121/4
f 232/121/4 233/127/4 234/119/4
f 233/127/4 232/121/4 235/128/4
f 235/128/4 232/121/4 225/122/4
f 236/129/4 226/116/4 228/124/4
f 237/124/3 238/116/3 239/129/3
f 240/122/3 241/121/3 242/128/3
f 242/128/3 241/121/3 243/127/3
f 244/119/3 243/127/3 241/121/3
f 241/121/3 240/122/3 245/114/3
f 245/114/3 240/122/3 246/126/3
f 246/126/3 240/122/3 247/125/3
f 247/125/3 240/122/3 237/124/3
f 237/124/3 240/122/3 238/116/3
f 248/123/3 238/116/3 240/122/3
f 249/130/2 250/131/2 251/132/2
f 250/131/2 249/130/2 252/133/2
f 253/133/1 254/130/1 255/131/1
f 256/132/1 255/131/1 254/130/1
f 257/134/5 258/105/5 259/135/5
f 258/105/5 257/134/5 260/16/5
f 261/16/6 262/134/6 263/105/6
f 264/135/6 263/105/6 262/134/6
