# SSTK version 0.8.0
# 2
mtllib original-2.mtl
o Component_115_1/Component_115/mesh2/mesh2-geometry#mesh2-geometry
v -0.609834 -0.558009 -0.231100
v -0.667722 -0.558009 0.326214
v -0.609834 -0.558009 0.326214
v -0.667722 -0.558009 -0.231100
v -0.609834 0.492887 0.326214
v -0.609834 0.492887 -0.231100
v -0.609834 -0.609931 -0.284865
v -0.667722 0.492887 -0.231100
v -0.667722 0.492887 0.326214
v -0.667722 -0.609931 0.384102
v -0.609834 0.547828 0.384102
v -0.609834 0.547828 -0.284865
v -0.609834 -0.609931 0.384102
v -0.667722 0.547828 -0.284865
v -0.667722 0.547828 0.384102
v -0.667722 -0.609931 -0.284865
vn 0 1 0
vn 0 0 -1
vn -1 0 0
vn 0 0 1
vn 0 -1 0
vn 1 0 0
usemtl material_0_0
f 1//1 2//1 3//1
f 2//1 1//1 4//1
f 2//2 5//2 3//2
f 1//3 7//3 3//3
f 1//4 8//4 4//4
f 9//3 4//3 2//3
f 4//3 10//3 2//3
f 5//2 2//2 9//2
f 3//3 11//3 5//3
f 12//3 1//3 6//3
f 8//4 1//4 6//4
f 7//3 1//3 12//3
f 13//3 3//3 7//3
f 4//3 9//3 8//3
f 14//3 4//3 8//3
f 2//3 15//3 9//3
f 4//3 16//3 10//3
f 15//3 2//3 10//3
f 8//5 5//5 9//5
f 5//3 11//3 6//3
f 5//5 8//5 6//5
f 3//3 13//3 11//3
f 12//3 6//3 11//3
f 14//4 7//4 12//4
f 7//1 10//1 13//1
f 9//3 15//3 8//3
f 16//3 4//3 14//3
f 14//3 8//3 15//3
f 10//1 7//1 16//1
f 11//2 10//2 15//2
f 10//2 11//2 13//2
f 11//5 14//5 12//5
f 7//4 14//4 16//4
f 14//5 11//5 15//5
usemtl material_1_0
f 3//5 2//5 1//5
f 4//5 1//5 2//5
f 3//4 5//4 2//4
f 1//3 3//3 6//3
f 3//6 7//6 1//6
f 4//2 8//2 1//2
f 2//6 4//6 9//6
f 2//6 10//6 4//6
f 9//4 2//4 5//4
f 5//3 6//3 3//3
f 5//6 11//6 3//6
f 6//6 1//6 12//6
f 6//2 1//2 8//2
f 12//6 1//6 7//6
f 7//6 3//6 13//6
f 8//6 9//6 4//6
f 8//6 4//6 14//6
f 9//6 15//6 2//6
f 10//6 16//6 4//6
f 10//6 2//6 15//6
f 9//1 5//1 8//1
f 6//6 11//6 5//6
f 6//1 8//1 5//1
f 11//6 13//6 3//6
f 11//6 6//6 12//6
f 12//2 7//2 14//2
f 13//5 10//5 7//5
f 8//6 15//6 9//6
f 14//6 4//6 16//6
f 15//6 8//6 14//6
f 16//5 7//5 10//5
f 15//4 10//4 11//4
f 13//4 11//4 10//4
f 12//1 14//1 11//1
f 16//2 14//2 7//2
f 15//1 11//1 14//1
usemtl material_2_0
f 6//6 3//6 1//6
f 3//6 6//6 5//6
