# SSTK version 0.8.0
# 26
mtllib original-26.mtl
o mesh87/mesh87-geometry#mesh87-geometry
v -0.027117 -0.443976 0.147641
v -0.010058 -0.572263 0.147641
v -0.027117 -0.572263 0.147641
v -0.010058 -0.510489 0.147641
v -0.027117 -0.572263 0.179122
v -0.010058 -0.495325 0.147641
v -0.010058 -0.510489 0.179122
v -0.010058 -0.572263 0.179122
v -0.027117 -0.443976 0.179122
v -0.010058 -0.459140 0.147641
v 0.047150 -0.495325 0.147641
v 0.047150 -0.510489 0.147641
v 0.049649 -0.443976 0.179122
v 0.049649 -0.443976 0.147641
v -0.010058 -0.459140 0.179122
v 0.047150 -0.495325 0.179122
v 0.047150 -0.510489 0.179122
v -0.010058 -0.495325 0.179122
v 0.049649 -0.459140 0.147641
v 0.049649 -0.459140 0.179122
vt -0.052018 0.026244
vt -0.049938 0.025968
vt -0.049938 0.026244
vt -0.05094 0.025968
vt -0.025968 0.010572
vt -0.026244 0.011082
vt -0.026244 0.010572
vt -0.049938 0.011082
vt -0.052018 0.010572
vt -0.049938 0.010572
vt -0.051186 0.025968
vt 0.05094 0.011082
vt 0.049938 0.010572
vt 0.05094 0.010572
vt -0.025968 0.011082
vt -0.052018 0.011082
vt -0.051772 0.025968
vt -0.051186 0.02504
vt 0.049938 0.011082
vt -0.02504 0.010572
vt 0.05094 0.025968
vt 0.049938 0.026244
vt 0.049938 0.025968
vt 0.052018 0.026244
vt 0.025 0.011082
vt 0.026244 0.010572
vt 0.026244 0.011082
vt -0.052018 0.025
vt 0.051772 0.011082
vt 0.051186 0.010572
vt 0.051772 0.010572
vt -0.05094 0.02504
vt 0.025968 0.010572
vt 0.02504 0.011082
vt 0.02504 0.010572
vt -0.02504 0.011082
vt 0.051186 0.025968
vt 0.025 0.010572
vt 0.051772 0.025968
vt 0.052018 0.025
vt -0.051772 0.025
vt 0.051186 0.011082
vt -0.025 0.010572
vt 0.025968 0.011082
vt 0.051186 0.02504
vt 0.05094 0.02504
vt 0.052018 0.011082
vt 0.052018 0.010572
vt 0.051772 0.025
vt -0.025 0.011082
vn 0 0 -1
vn 0 0 1
vn 0 -1 0
vn 0 1 0
vn -1 0 0
vn 1 0 0
usemtl material_0_0
f 1/1/1 2/2/1 3/3/1
f 2/2/1 1/1/1 4/4/1
f 3/3/2 2/2/2 1/1/2
f 4/4/2 1/1/2 2/2/2
f 2/5/3 5/6/3 3/7/3
f 3/7/4 5/6/4 2/5/4
f 5/8/5 1/9/5 3/10/5
f 3/10/6 1/9/6 5/8/6
f 4/4/1 1/1/1 6/11/1
f 6/11/2 1/1/2 4/4/2
f 7/12/6 2/13/6 4/14/6
f 4/14/5 2/13/5 7/12/5
f 5/6/3 2/5/3 8/15/3
f 8/15/4 2/5/4 5/6/4
f 1/9/5 5/8/5 9/16/5
f 9/16/6 5/8/6 1/9/6
f 6/11/1 1/1/1 10/17/1
f 10/17/2 1/1/2 6/11/2
f 11/18/1 4/4/1 6/11/1
f 6/11/2 4/4/2 11/18/2
f 2/13/6 7/12/6 8/19/6
f 8/19/5 7/12/5 2/13/5
f 12/20/3 7/15/3 4/5/3
f 4/5/4 7/15/4 12/20/4
f 7/21/2 5/22/2 8/23/2
f 8/23/1 5/22/1 7/21/1
f 5/22/2 7/21/2 9/24/2
f 9/24/1 7/21/1 5/22/1
f 13/25/4 1/26/4 9/27/4
f 9/27/3 1/26/3 13/25/3
f 10/17/1 1/1/1 14/28/1
f 14/28/2 1/1/2 10/17/2
f 15/29/6 6/30/6 10/31/6
f 10/31/5 6/30/5 15/29/5
f 4/4/1 11/18/1 12/32/1
f 12/32/2 11/18/2 4/4/2
f 6/33/4 16/34/4 11/35/4
f 11/35/3 16/34/3 6/33/3
f 7/15/3 12/20/3 17/36/3
f 17/36/4 12/20/4 7/15/4
f 9/24/2 7/21/2 18/37/2
f 18/37/1 7/21/1 9/24/1
f 1/26/4 13/25/4 14/38/4
f 14/38/3 13/25/3 1/26/3
f 9/24/2 15/39/2 13/40/2
f 13/40/1 15/39/1 9/24/1
f 14/28/1 19/41/1 10/17/1
f 10/17/2 19/41/2 14/28/2
f 6/30/6 15/29/6 18/42/6
f 18/42/5 15/29/5 6/30/5
f 19/43/3 15/15/3 10/5/3
f 10/5/4 15/15/4 19/43/4
f 16/42/6 12/14/6 11/30/6
f 11/30/5 12/14/5 16/42/5
f 16/34/4 6/33/4 18/44/4
f 18/44/3 6/33/3 16/34/3
f 12/14/6 16/42/6 17/12/6
f 17/12/5 16/42/5 12/14/5
f 16/45/2 7/21/2 17/46/2
f 17/46/1 7/21/1 16/45/1
f 18/37/2 7/21/2 16/45/2
f 16/45/1 7/21/1 18/37/1
f 9/24/2 18/37/2 15/39/2
f 15/39/1 18/37/1 9/24/1
f 13/47/6 19/31/6 14/48/6
f 14/48/5 19/31/5 13/47/5
f 13/40/2 15/39/2 20/49/2
f 20/49/1 15/39/1 13/40/1
f 15/15/3 19/43/3 20/50/3
f 20/50/4 19/43/4 15/15/4
f 19/31/6 13/47/6 20/29/6
f 20/29/5 13/47/5 19/31/5
