# SSTK version 0.8.0
# 17
mtllib original-17.mtl
o Group17/mesh31/mesh31-geometry#mesh31-geometry
v 0.041311 0.599517 0.823120
v 0.000451 0.599517 0.837338
v 0.040948 0.599517 0.838306
v 0.000814 0.599517 0.822152
v 0.040948 -0.562729 0.838306
v 0.000814 -0.562729 0.822152
v 0.000451 -0.562729 0.837338
v 0.041311 -0.562729 0.823120
vn 0 1 0
vn 0 -1 0
vn -0.02389098971366492 0 0.9997145695699856
vn 0.02389098971366492 0 -0.9997145695699856
vn 0.9997145695699856 0 0.02389098971366492
vn -0.9997145695699856 0 -0.02389098971366492
usemtl material_0_0
f 1//1 2//1 3//1
f 2//1 1//1 4//1
f 3//2 2//2 1//2
f 4//2 1//2 2//2
f 2//3 5//3 3//3
f 3//4 5//4 2//4
f 5//5 1//5 3//5
f 3//6 1//6 5//6
f 1//4 6//4 4//4
f 4//3 6//3 1//3
f 6//6 2//6 4//6
f 4//5 2//5 6//5
f 5//3 2//3 7//3
f 7//4 2//4 5//4
f 1//5 5//5 8//5
f 8//6 5//6 1//6
f 6//4 1//4 8//4
f 8//3 1//3 6//3
f 2//6 6//6 7//6
f 7//5 6//5 2//5
f 7//2 8//2 5//2
f 5//1 8//1 7//1
f 8//2 7//2 6//2
f 6//1 7//1 8//1
