# SSTK version 0.8.0
# 46
mtllib original-46.mtl
o Group46/mesh91/mesh91-geometry#mesh91-geometry
v 0.284711 -0.619318 -0.422413
v 0.309199 0.616185 -0.390144
v 0.309199 -0.619318 -0.390144
v 0.284711 0.616185 -0.422413
v 0.297098 -0.619318 -0.380962
v 0.272610 0.616185 -0.413231
v 0.297098 0.616185 -0.380962
v 0.272610 -0.619318 -0.413231
vn 0.7966037606923002 0 -0.604501818401636
vn -0.7966037606923002 0 0.604501818401636
vn 0.604501818401636 0 0.7966037606923002
vn -0.604501818401636 0 -0.7966037606923002
vn 0 -1 0
vn 0 1 0
usemtl material_0_0
f 1//1 2//1 3//1
f 2//1 1//1 4//1
f 3//2 2//2 1//2
f 4//2 1//2 2//2
f 2//3 5//3 3//3
f 3//4 5//4 2//4
f 5//5 1//5 3//5
f 3//6 1//6 5//6
f 1//4 6//4 4//4
f 4//3 6//3 1//3
f 6//6 2//6 4//6
f 4//5 2//5 6//5
f 5//3 2//3 7//3
f 7//4 2//4 5//4
f 1//5 5//5 8//5
f 8//6 5//6 1//6
f 6//4 1//4 8//4
f 8//3 1//3 6//3
f 2//6 6//6 7//6
f 7//5 6//5 2//5
f 6//2 5//2 7//2
f 7//1 5//1 6//1
f 5//2 6//2 8//2
f 8//1 6//1 5//1
