# SSTK version 0.8.0
# 66
mtllib original-66.mtl
o Group66/mesh125/mesh125-geometry#mesh125-geometry
v -0.226515 -0.538343 0.273633
v -0.197519 0.329029 0.284186
v -0.197519 -0.538343 0.284186
v -0.226515 0.329029 0.273633
v -0.199821 -0.538343 0.290509
v -0.228817 0.329029 0.279956
v -0.199821 0.329029 0.290509
v -0.228817 -0.538343 0.279956
vn 0.342019894888923 0 -0.9396927112094517
vn -0.342019894888923 0 0.9396927112094517
vn 0.9396927112094517 0 0.342019894888923
vn -0.9396927112094517 0 -0.342019894888923
vn 0 -1 0
vn 0 1 0
usemtl material_0_0
f 1//1 2//1 3//1
f 2//1 1//1 4//1
f 3//2 2//2 1//2
f 4//2 1//2 2//2
f 2//3 5//3 3//3
f 3//4 5//4 2//4
f 5//5 1//5 3//5
f 3//6 1//6 5//6
f 1//4 6//4 4//4
f 4//3 6//3 1//3
f 6//6 2//6 4//6
f 4//5 2//5 6//5
f 5//3 2//3 7//3
f 7//4 2//4 5//4
f 1//5 5//5 8//5
f 8//6 5//6 1//6
f 6//4 1//4 8//4
f 8//3 1//3 6//3
f 2//6 6//6 7//6
f 7//5 6//5 2//5
f 6//2 5//2 7//2
f 7//1 5//1 6//1
f 5//2 6//2 8//2
f 8//1 6//1 5//1
