# SSTK version 0.8.0
# 23
mtllib original-23.mtl
o Group23/mesh39/mesh39-geometry#mesh39-geometry
v 0.073114 0.632631 -0.575464
v 0.190367 0.617441 -0.520395
v 0.073114 0.617441 -0.575464
v 0.190367 0.632631 -0.520395
v 0.157296 0.617441 -0.468797
v -0.054397 0.632631 -0.598308
v 0.157296 0.632631 -0.468797
v 0.289373 0.617441 -0.436856
v 0.244074 0.617441 -0.395575
v 0.054524 0.617441 -0.517064
v -0.054397 0.617441 -0.598308
v 0.054524 0.632631 -0.517064
v 0.244074 0.632631 -0.395575
v 0.289373 0.632631 -0.436856
v -0.183475 0.632631 -0.587373
v -0.057238 0.632631 -0.537088
v 0.363383 0.632631 -0.330538
v 0.308943 0.617441 -0.302388
v -0.057238 0.617441 -0.537088
v -0.183475 0.617441 -0.587373
v 0.308943 0.632631 -0.302388
v 0.363383 0.617441 -0.330538
v 0.347484 0.632631 -0.195588
v 0.347484 0.617441 -0.195588
v -0.305325 0.632631 -0.543401
v -0.170375 0.632631 -0.527502
v -0.170375 0.617441 -0.527502
v 0.407354 0.632631 -0.208688
v 0.357069 0.632631 -0.082451
v -0.305325 0.617441 -0.543401
v -0.277176 0.632631 -0.488962
v 0.407354 0.617441 -0.208688
v 0.395445 0.632631 0.047901
v 0.357069 0.617441 -0.082451
v -0.277176 0.617441 -0.488962
v -0.411643 0.632631 -0.469391
v -0.370362 0.632631 -0.424092
v 0.418290 0.632631 -0.079609
v 0.395445 0.617441 0.047901
v 0.337046 0.617441 0.029312
v 0.340377 0.632631 0.165155
v -0.370362 0.617441 -0.424092
v -0.411643 0.617441 -0.469391
v 0.418290 0.617441 -0.079609
v 0.340377 0.617441 0.165155
v 0.337046 0.632631 0.029312
v -0.495182 0.617441 -0.370386
v -0.443584 0.632631 -0.337315
v 0.288779 0.617441 0.132084
v 0.256837 0.617441 0.264160
v 0.256837 0.632631 0.264160
v -0.443584 0.617441 -0.337315
v -0.495182 0.632631 -0.370386
v 0.288779 0.632631 0.132084
v -0.550251 0.617441 -0.253133
v -0.491852 0.617441 -0.234543
v -0.491852 0.632631 -0.234543
v 0.215557 0.617441 0.218861
v 0.150520 0.617441 0.338170
v 0.215557 0.632631 0.218861
v -0.550251 0.632631 -0.253133
v -0.511875 0.617441 -0.122780
v -0.511875 0.632631 -0.122780
v 0.150520 0.632631 0.338170
v -0.573096 0.617441 -0.125622
v -0.518189 0.617441 0.125307
v 0.122370 0.632631 0.283731
v 0.122370 0.617441 0.283731
v 0.028670 0.617441 0.382141
v -0.573096 0.632631 -0.125622
v -0.562160 0.617441 0.003457
v -0.518189 0.632631 0.125307
v -0.502290 0.617441 -0.009644
v -0.502290 0.632631 -0.009644
v 0.028670 0.632631 0.382141
v -0.562160 0.632631 0.003457
v -0.463749 0.617441 0.097157
v 0.015569 0.632631 0.322271
v 0.015569 0.617441 0.322271
v -0.100409 0.617441 0.393077
v -0.463749 0.632631 0.097157
v -0.444178 0.617441 0.231624
v -0.100409 0.632631 0.393077
v -0.444178 0.632631 0.231624
v -0.398880 0.617441 0.190344
v -0.398880 0.632631 0.190344
v -0.097568 0.632631 0.331856
v -0.097568 0.617441 0.331856
v -0.227920 0.617441 0.370233
v -0.345173 0.617441 0.315164
v -0.209330 0.617441 0.311833
v -0.227920 0.632631 0.370233
v -0.209330 0.632631 0.311833
v -0.345173 0.632631 0.315164
v -0.312102 0.617441 0.263566
v -0.312102 0.632631 0.263566
vn 0.30332294193292325 0 -0.9528878175825088
vn 0.5396130838186465 0 -0.8419131307752188
vn -0.30332294193292325 0 0.9528878175825088
vn -0.5396130838186465 0 0.8419131307752188
vn 0 -1 0
vn 0 1 0
vn 0.04636198630770798 0 -0.9989247049831153
vn -0.04636198630770798 0 0.9989247049831153
vn 0.7391294458393206 0 -0.6735634062902014
vn -0.7391294458393206 0 0.6735634062902014
vn -0.21375792589730086 0 -0.976886661346179
vn 0.21375792589730086 0 0.976886661346179
vn 0.8882750048992808 0 -0.4593120025333354
vn -0.8882750048992808 0 0.4593120025333354
vn -0.4593120025333354 0 -0.8882750048992808
vn 0.4593120025333354 0 0.8882750048992808
vn 0.976886661346179 0 -0.21375792589730086
vn -0.976886661346179 0 0.21375792589730086
vn -0.9989247049831153 0 -0.04636198630770798
vn 0.9989247049831153 0 0.04636198630770798
vn -0.6735634062902014 0 -0.7391294458393206
vn 0.6735634062902014 0 0.7391294458393206
vn -0.9528878175825088 0 -0.30332294193292325
vn 0.9528878175825088 0 0.30332294193292325
vn 0.8419131307752188 0 0.5396130838186465
vn -0.8419131307752188 0 -0.5396130838186465
usemtl material_0_0
f 1//1 2//2 3//1
f 2//2 1//1 4//2
f 3//3 2//4 1//3
f 4//4 1//3 2//4
f 2//5 5//5 3//5
f 3//6 5//6 2//6
f 3//1 6//7 1//1
f 1//3 6//8 3//3
f 7//6 4//6 1//6
f 1//5 4//5 7//5
f 4//2 8//9 2//2
f 2//4 8//10 4//4
f 2//5 9//5 5//5
f 5//6 9//6 2//6
f 3//5 5//5 10//5
f 10//6 5//6 3//6
f 6//7 3//1 11//7
f 11//8 3//3 6//8
f 12//6 1//6 6//6
f 6//5 1//5 12//5
f 13//6 4//6 7//6
f 7//5 4//5 13//5
f 7//6 1//6 12//6
f 12//5 1//5 7//5
f 8//9 4//2 14//9
f 14//10 4//4 8//10
f 8//5 9//5 2//5
f 2//6 9//6 8//6
f 13//10 5//4 9//10
f 9//9 5//2 13//9
f 7//4 10//3 5//4
f 5//2 10//1 7//2
f 3//5 10//5 11//5
f 11//6 10//6 3//6
f 11//7 15//11 6//7
f 6//8 15//12 11//8
f 12//6 6//6 16//6
f 16//5 6//5 12//5
f 13//6 14//6 4//6
f 4//5 14//5 13//5
f 5//4 13//10 7//4
f 7//2 13//9 5//2
f 10//3 7//4 12//3
f 12//1 7//2 10//1
f 17//13 8//9 14//9
f 14//10 8//10 17//14
f 8//5 18//5 9//5
f 9//6 18//6 8//6
f 18//14 13//10 9//10
f 9//9 13//9 18//13
f 11//5 10//5 19//5
f 19//6 10//6 11//6
f 15//11 11//7 20//11
f 20//12 11//8 15//12
f 16//6 6//6 15//6
f 15//5 6//5 16//5
f 19//8 12//3 16//8
f 16//7 12//1 19//7
f 21//6 14//6 13//6
f 13//5 14//5 21//5
f 12//3 19//8 10//3
f 10//1 19//7 12//1
f 8//9 17//13 22//13
f 22//14 17//14 8//10
f 23//6 17//6 14//6
f 14//5 17//5 23//5
f 8//5 24//5 18//5
f 18//6 24//6 8//6
f 13//10 18//14 21//14
f 21//13 18//13 13//9
f 11//5 19//5 20//5
f 20//6 19//6 11//6
f 20//11 25//15 15//11
f 15//12 25//16 20//12
f 16//6 15//6 26//6
f 26//5 15//5 16//5
f 16//8 27//12 19//8
f 19//7 27//11 16//7
f 23//6 14//6 21//6
f 21//5 14//5 23//5
f 28//17 22//13 17//13
f 17//14 22//14 28//18
f 22//5 24//5 8//5
f 8//6 24//6 22//6
f 17//6 23//6 29//6
f 29//5 23//5 17//5
f 24//18 21//14 18//14
f 18//13 21//13 24//17
f 20//5 19//5 27//5
f 27//6 19//6 20//6
f 25//15 20//11 30//15
f 30//16 20//12 25//16
f 31//6 15//6 25//6
f 25//5 15//5 31//5
f 26//6 15//6 31//6
f 31//5 15//5 26//5
f 27//12 16//8 26//12
f 26//11 16//7 27//11
f 21//14 24//18 23//18
f 23//17 24//17 21//13
f 22//13 28//17 32//17
f 32//18 28//18 22//14
f 33//6 28//6 17//6
f 17//5 28//5 33//5
f 24//5 22//5 34//5
f 34//6 22//6 24//6
f 23//18 34//19 29//19
f 29//20 34//20 23//17
f 33//6 17//6 29//6
f 29//5 17//5 33//5
f 20//5 27//5 35//5
f 35//6 27//6 20//6
f 20//5 35//5 30//5
f 30//6 35//6 20//6
f 30//15 36//21 25//15
f 25//16 36//22 30//16
f 31//6 25//6 37//6
f 37//5 25//5 31//5
f 35//16 26//12 31//16
f 31//15 26//11 35//15
f 26//12 35//16 27//12
f 27//11 35//15 26//11
f 34//19 23//18 24//18
f 24//17 23//17 34//20
f 38//20 32//17 28//17
f 28//18 32//18 38//19
f 32//5 39//5 22//5
f 22//6 39//6 32//6
f 28//6 33//6 38//6
f 38//5 33//5 28//5
f 22//5 39//5 34//5
f 34//6 39//6 22//6
f 40//23 29//19 34//19
f 34//20 29//20 40//24
f 33//6 29//6 41//6
f 41//5 29//5 33//5
f 30//5 35//5 42//5
f 42//6 35//6 30//6
f 36//21 30//15 43//21
f 43//22 30//16 36//22
f 37//6 25//6 36//6
f 36//5 25//5 37//5
f 42//22 31//16 37//22
f 37//21 31//15 42//21
f 31//16 42//22 35//16
f 35//15 42//21 31//15
f 32//17 38//20 44//20
f 44//19 38//19 32//18
f 39//5 32//5 44//5
f 44//6 32//6 39//6
f 33//24 44//20 38//20
f 38//19 44//19 33//23
f 34//5 39//5 45//5
f 45//6 39//6 34//6
f 29//19 40//23 46//23
f 46//24 40//24 29//20
f 34//5 45//5 40//5
f 40//6 45//6 34//6
f 41//6 29//6 46//6
f 46//5 29//5 41//5
f 41//25 39//24 33//24
f 33//23 39//23 41//26
f 30//5 42//5 43//5
f 43//6 42//6 30//6
f 47//26 36//21 43//21
f 43//22 36//22 47//25
f 37//6 36//6 48//6
f 48//5 36//5 37//5
f 48//25 42//22 37//22
f 37//21 42//21 48//26
f 44//20 33//24 39//24
f 39//23 33//23 44//19
f 39//24 41//25 45//25
f 45//26 41//26 39//23
f 49//26 46//23 40//23
f 40//24 46//24 49//25
f 40//5 45//5 50//5
f 50//6 45//6 40//6
f 41//6 46//6 51//6
f 51//5 46//5 41//5
f 43//5 42//5 52//5
f 52//6 42//6 43//6
f 36//21 47//26 53//26
f 53//25 47//25 36//22
f 43//5 52//5 47//5
f 47//6 52//6 43//6
f 48//6 36//6 53//6
f 53//5 36//5 48//5
f 42//22 48//25 52//25
f 52//26 48//26 42//21
f 51//22 45//25 41//25
f 41//26 45//26 51//21
f 46//23 49//26 54//26
f 54//25 49//25 46//24
f 40//5 50//5 49//5
f 49//6 50//6 40//6
f 45//25 51//22 50//22
f 50//21 51//21 45//26
f 51//6 46//6 54//6
f 54//5 46//5 51//5
f 55//23 53//26 47//26
f 47//25 53//25 55//24
f 47//5 52//5 56//5
f 56//6 52//6 47//6
f 48//6 53//6 57//6
f 57//5 53//5 48//5
f 57//24 52//25 48//25
f 48//26 52//26 57//23
f 58//21 54//26 49//26
f 49//25 54//25 58//22
f 49//5 50//5 58//5
f 58//6 50//6 49//6
f 51//22 59//16 50//22
f 50//21 59//15 51//21
f 51//6 54//6 60//6
f 60//5 54//5 51//5
f 53//26 55//23 61//23
f 61//24 55//24 53//25
f 47//5 62//5 55//5
f 55//6 62//6 47//6
f 52//25 57//24 56//24
f 56//23 57//23 52//26
f 47//5 56//5 62//5
f 62//6 56//6 47//6
f 57//6 53//6 63//6
f 63//5 53//5 57//5
f 54//26 58//21 60//21
f 60//22 58//22 54//25
f 58//5 50//5 59//5
f 59//6 50//6 58//6
f 59//16 51//22 64//16
f 64//15 51//21 59//15
f 51//6 60//6 64//6
f 64//5 60//5 51//5
f 65//19 61//23 55//23
f 55//24 61//24 65//20
f 63//6 53//6 61//6
f 61//5 53//5 63//5
f 55//5 62//5 66//5
f 66//6 62//6 55//6
f 63//20 56//24 57//24
f 57//23 56//23 63//19
f 56//24 63//20 62//20
f 62//19 63//19 56//23
f 58//21 67//15 60//21
f 60//22 67//16 58//22
f 58//5 59//5 68//5
f 68//6 59//6 58//6
f 64//16 69//12 59//16
f 59//15 69//11 64//15
f 64//6 60//6 67//6
f 67//5 60//5 64//5
f 61//23 65//19 70//19
f 70//20 65//20 61//24
f 55//5 71//5 65//5
f 65//6 71//6 55//6
f 63//6 61//6 72//6
f 72//5 61//5 63//5
f 73//5 66//5 62//5
f 62//6 66//6 73//6
f 55//5 66//5 71//5
f 71//6 66//6 55//6
f 74//17 62//20 63//20
f 63//19 62//19 74//18
f 67//15 58//21 68//15
f 68//16 58//22 67//16
f 68//5 59//5 69//5
f 69//6 59//6 68//6
f 69//12 64//16 75//12
f 75//11 64//15 69//11
f 64//6 67//6 75//6
f 75//5 67//5 64//5
f 71//18 70//19 65//19
f 65//20 70//20 71//17
f 76//6 61//6 70//6
f 70//5 61//5 76//5
f 72//6 61//6 76//6
f 76//5 61//5 72//5
f 72//6 74//6 63//6
f 63//5 74//5 72//5
f 77//5 66//5 73//5
f 73//6 66//6 77//6
f 62//20 74//17 73//17
f 73//18 74//18 62//19
f 66//14 76//18 71//18
f 71//17 76//17 66//13
f 68//15 78//11 67//15
f 67//16 78//12 68//16
f 68//5 69//5 79//5
f 79//6 69//6 68//6
f 75//12 80//8 69//12
f 69//11 80//7 75//11
f 75//6 67//6 78//6
f 78//5 67//5 75//5
f 70//19 71//18 76//18
f 76//17 71//17 70//20
f 76//18 66//14 72//14
f 72//13 66//13 76//17
f 72//6 81//6 74//6
f 74//5 81//5 72//5
f 77//5 82//5 66//5
f 66//6 82//6 77//6
f 73//17 81//13 77//13
f 77//14 81//14 73//18
f 81//13 73//17 74//17
f 74//18 73//18 81//14
f 78//11 68//15 79//11
f 79//12 68//16 78//12
f 79//5 69//5 80//5
f 80//6 69//6 79//6
f 80//8 75//12 83//8
f 83//7 75//11 80//7
f 75//6 78//6 83//6
f 83//5 78//5 75//5
f 82//10 72//14 66//14
f 66//13 72//13 82//9
f 84//6 81//6 72//6
f 72//5 81//5 84//5
f 85//5 82//5 77//5
f 77//6 82//6 85//6
f 86//9 77//13 81//13
f 81//14 77//14 86//10
f 79//11 87//7 78//11
f 78//12 87//8 79//12
f 79//5 80//5 88//5
f 88//6 80//6 79//6
f 83//8 89//3 80//8
f 80//7 89//1 83//7
f 83//6 78//6 87//6
f 87//5 78//5 83//5
f 72//14 82//10 84//10
f 84//9 82//9 72//13
f 84//6 86//6 81//6
f 81//5 86//5 84//5
f 85//5 90//5 82//5
f 82//6 90//6 85//6
f 77//13 86//9 85//9
f 85//10 86//10 77//14
f 87//7 79//11 88//7
f 88//8 79//12 87//8
f 88//5 80//5 91//5
f 91//6 80//6 88//6
f 89//3 83//8 92//3
f 92//1 83//7 89//1
f 91//5 80//5 89//5
f 89//6 80//6 91//6
f 83//6 87//6 93//6
f 93//5 87//5 83//5
f 82//10 94//4 84//10
f 84//9 94//2 82//9
f 94//6 86//6 84//6
f 84//5 86//5 94//5
f 95//5 90//5 85//5
f 85//6 90//6 95//6
f 94//4 82//10 90//4
f 90//2 82//9 94//2
f 86//9 95//2 85//9
f 85//10 95//4 86//10
f 88//7 93//1 87//7
f 87//8 93//3 88//8
f 93//1 88//7 91//1
f 91//3 88//8 93//3
f 83//6 93//6 92//6
f 92//5 93//5 83//5
f 92//3 90//4 89//3
f 89//1 90//2 92//1
f 91//5 89//5 95//5
f 95//6 89//6 91//6
f 94//6 96//6 86//6
f 86//5 96//5 94//5
f 95//5 89//5 90//5
f 90//6 89//6 95//6
f 90//4 92//3 94//4
f 94//2 92//1 90//2
f 95//2 86//9 96//2
f 96//4 86//10 95//4
f 91//1 96//2 93//1
f 93//3 96//4 91//3
f 92//6 93//6 96//6
f 96//5 93//5 92//5
f 96//2 91//1 95//2
f 95//4 91//3 96//4
f 92//6 96//6 94//6
f 94//5 96//5 92//5
