# SSTK version 0.8.0
# 48
mtllib original-48.mtl
o Group48/mesh95/mesh95-geometry#mesh95-geometry
v 0.041655 -0.619318 -0.570827
v 0.080065 0.616185 -0.557959
v 0.080065 -0.619318 -0.557959
v 0.041655 0.616185 -0.570827
v 0.075239 -0.619318 -0.543555
v 0.036830 0.616185 -0.556424
v 0.075239 0.616185 -0.543555
v 0.036830 -0.619318 -0.556424
vn 0.3176850931387704 0 -0.9481962779917515
vn -0.3176850931387704 0 0.9481962779917515
vn 0.9481962779917515 0 0.3176850931387704
vn -0.9481962779917515 0 -0.3176850931387704
vn 0 -1 0
vn 0 1 0
usemtl material_0_0
f 1//1 2//1 3//1
f 2//1 1//1 4//1
f 3//2 2//2 1//2
f 4//2 1//2 2//2
f 2//3 5//3 3//3
f 3//4 5//4 2//4
f 5//5 1//5 3//5
f 3//6 1//6 5//6
f 1//4 6//4 4//4
f 4//3 6//3 1//3
f 6//6 2//6 4//6
f 4//5 2//5 6//5
f 5//3 2//3 7//3
f 7//4 2//4 5//4
f 1//5 5//5 8//5
f 8//6 5//6 1//6
f 6//4 1//4 8//4
f 8//3 1//3 6//3
f 2//6 6//6 7//6
f 7//5 6//5 2//5
f 6//2 5//2 7//2
f 7//1 5//1 6//1
f 5//2 6//2 8//2
f 8//1 6//1 5//1
