# SSTK version 0.8.0
# 41
mtllib original-41.mtl
o Group41/mesh81/mesh81-geometry#mesh81-geometry
v 0.401936 -0.619318 -0.162873
v 0.403992 0.616185 -0.122417
v 0.403992 -0.619318 -0.122417
v 0.401936 0.616185 -0.162873
v 0.388821 -0.619318 -0.121646
v 0.386765 0.616185 -0.162102
v 0.388821 0.616185 -0.121646
v 0.386765 -0.619318 -0.162102
vn 0.998711387489607 0 -0.050750019690478584
vn -0.998711387489607 0 0.050750019690478584
vn 0.050750019690478584 0 0.998711387489607
vn -0.050750019690478584 0 -0.998711387489607
vn 0 -1 0
vn 0 1 0
usemtl material_0_0
f 1//1 2//1 3//1
f 2//1 1//1 4//1
f 3//2 2//2 1//2
f 4//2 1//2 2//2
f 2//3 5//3 3//3
f 3//4 5//4 2//4
f 5//5 1//5 3//5
f 3//6 1//6 5//6
f 1//4 6//4 4//4
f 4//3 6//3 1//3
f 6//6 2//6 4//6
f 4//5 2//5 6//5
f 5//3 2//3 7//3
f 7//4 2//4 5//4
f 1//5 5//5 8//5
f 8//6 5//6 1//6
f 6//4 1//4 8//4
f 8//3 1//3 6//3
f 2//6 6//6 7//6
f 7//5 6//5 2//5
f 6//2 5//2 7//2
f 7//1 5//1 6//1
f 5//2 6//2 8//2
f 8//1 6//1 5//1
