# SSTK version 0.8.0
# 3
mtllib original-3.mtl
o Group3/mesh3/mesh3-geometry#mesh3-geometry
v 0.466727 0.599517 0.227784
v 0.489678 0.599517 0.264458
v 0.481614 0.599517 0.224760
v 0.474791 0.599517 0.267482
v 0.481614 -0.562729 0.224760
v 0.474791 -0.562729 0.267482
v 0.489678 -0.562729 0.264458
v 0.466727 -0.562729 0.227784
vn 0 1 0
vn 0 -1 0
vn 0.979983856831719 0 -0.19907697091634977
vn -0.979983856831719 0 0.19907697091634977
vn -0.19907697091634977 0 -0.979983856831719
vn 0.19907697091634977 0 0.979983856831719
usemtl material_0_0
f 1//1 2//1 3//1
f 2//1 1//1 4//1
f 3//2 2//2 1//2
f 4//2 1//2 2//2
f 2//3 5//3 3//3
f 3//4 5//4 2//4
f 5//5 1//5 3//5
f 3//6 1//6 5//6
f 1//4 6//4 4//4
f 4//3 6//3 1//3
f 6//6 2//6 4//6
f 4//5 2//5 6//5
f 5//3 2//3 7//3
f 7//4 2//4 5//4
f 1//5 5//5 8//5
f 8//6 5//6 1//6
f 6//4 1//4 8//4
f 8//3 1//3 6//3
f 2//6 6//6 7//6
f 7//5 6//5 2//5
f 7//2 8//2 5//2
f 5//1 8//1 7//1
f 8//2 7//2 6//2
f 6//1 7//1 8//1
