# SSTK version 0.8.0
# 15
mtllib original-15.mtl
o Group15/mesh27/mesh27-geometry#mesh27-geometry
v 0.177950 0.599517 0.795082
v 0.143096 0.599517 0.820712
v 0.182079 0.599517 0.809700
v 0.138967 0.599517 0.806093
v 0.182079 -0.562729 0.809700
v 0.138967 -0.562729 0.806093
v 0.143096 -0.562729 0.820712
v 0.177950 -0.562729 0.795082
vn 0 1 0
vn 0 -1 0
vn 0.27182703511393913 0 0.9623461243134747
vn -0.27182703511393913 0 -0.9623461243134747
vn 0.9623461243134747 0 -0.27182703511393913
vn -0.9623461243134747 0 0.27182703511393913
usemtl material_0_0
f 1//1 2//1 3//1
f 2//1 1//1 4//1
f 3//2 2//2 1//2
f 4//2 1//2 2//2
f 2//3 5//3 3//3
f 3//4 5//4 2//4
f 5//5 1//5 3//5
f 3//6 1//6 5//6
f 1//4 6//4 4//4
f 4//3 6//3 1//3
f 6//6 2//6 4//6
f 4//5 2//5 6//5
f 5//3 2//3 7//3
f 7//4 2//4 5//4
f 1//5 5//5 8//5
f 8//6 5//6 1//6
f 6//4 1//4 8//4
f 8//3 1//3 6//3
f 2//6 6//6 7//6
f 7//5 6//5 2//5
f 7//2 8//2 5//2
f 5//1 8//1 7//1
f 8//2 7//2 6//2
f 6//1 7//1 8//1
