# SSTK version 0.8.0
# 44
mtllib original-44.mtl
o Group44/mesh87/mesh87-geometry#mesh87-geometry
v -0.369217 -0.619318 -0.487637
v -0.335206 0.616185 -0.509642
v -0.335206 -0.619318 -0.509642
v -0.369217 0.616185 -0.487637
v -0.326955 -0.619318 -0.496888
v -0.360965 0.616185 -0.474884
v -0.326955 0.616185 -0.496888
v -0.360965 -0.619318 -0.474884
vn -0.5432183143048496 0 -0.8395914857856752
vn 0.5432183143048496 0 0.8395914857856752
vn 0.8395914857856752 0 -0.5432183143048496
vn -0.8395914857856752 0 0.5432183143048496
vn 0 -1 0
vn 0 1 0
usemtl material_0_0
f 1//1 2//1 3//1
f 2//1 1//1 4//1
f 3//2 2//2 1//2
f 4//2 1//2 2//2
f 2//3 5//3 3//3
f 3//4 5//4 2//4
f 5//5 1//5 3//5
f 3//6 1//6 5//6
f 1//4 6//4 4//4
f 4//3 6//3 1//3
f 6//6 2//6 4//6
f 4//5 2//5 6//5
f 5//3 2//3 7//3
f 7//4 2//4 5//4
f 1//5 5//5 8//5
f 8//6 5//6 1//6
f 6//4 1//4 8//4
f 8//3 1//3 6//3
f 2//6 6//6 7//6
f 7//5 6//5 2//5
f 6//2 5//2 7//2
f 7//1 5//1 6//1
f 5//2 6//2 8//2
f 8//1 6//1 5//1
