# SSTK version 0.8.0
# 4
mtllib original-4.mtl
o Group4/mesh5/mesh5-geometry#mesh5-geometry
v 0.501372 -0.560462 0.249735
v 0.457401 -0.575652 0.127885
v 0.457401 -0.560462 0.127885
v 0.501372 -0.575652 0.249735
v 0.383391 -0.575652 0.021567
v 0.338092 -0.560462 0.062848
v 0.512308 -0.575652 0.378813
v 0.338092 -0.575652 0.062848
v 0.383391 -0.560462 0.021567
v 0.402961 -0.560462 0.156034
v 0.512308 -0.560462 0.378813
v 0.441502 -0.575652 0.262835
v 0.402961 -0.575652 0.156034
v 0.441502 -0.560462 0.262835
v 0.489463 -0.575652 0.506324
v 0.451087 -0.575652 0.375972
v 0.451087 -0.560462 0.375972
v 0.489463 -0.560462 0.506324
v 0.434395 -0.575652 0.623578
v 0.431064 -0.575652 0.487735
v 0.431064 -0.560462 0.487735
v 0.434395 -0.560462 0.623578
v 0.350855 -0.575652 0.722583
v 0.382796 -0.575652 0.590506
v 0.382796 -0.560462 0.590506
v 0.350855 -0.560462 0.722583
v 0.309574 -0.575652 0.677284
v 0.309574 -0.560462 0.677284
v 0.244538 -0.575652 0.796593
v 0.216388 -0.575652 0.742153
v 0.216388 -0.560462 0.742153
v 0.244538 -0.560462 0.796593
v 0.122688 -0.575652 0.840564
v 0.109587 -0.575652 0.780694
v 0.109587 -0.560462 0.780694
v 0.122688 -0.560462 0.840564
v -0.006391 -0.560462 0.851500
v -0.003550 -0.575652 0.790279
v -0.003550 -0.560462 0.790279
v -0.006391 -0.575652 0.851500
v -0.133902 -0.560462 0.828655
v -0.091387 -0.560462 0.774542
v -0.115312 -0.575652 0.770256
v -0.133902 -0.575652 0.828655
v -0.147034 -0.560462 0.824475
v -0.115312 -0.560462 0.770256
v -0.128445 -0.575652 0.766076
v -0.147034 -0.575652 0.824475
v -0.128445 -0.560462 0.766076
vn 0.976886661346179 0 -0.21375792589730086
vn 0.8882750048992808 0 -0.4593120025333354
vn -0.8882750048992808 0 0.4593120025333354
vn -0.976886661346179 0 0.21375792589730086
vn 0.820723942630988 0 -0.5713249600641009
vn -0.820723942630988 0 0.5713249600641009
vn 0 1 0
vn 0 -1 0
vn 0.9989247049831153 0 0.04636198630770798
vn -0.9989247049831153 0 -0.04636198630770798
vn -0.6735634062902014 0 -0.7391294458393206
vn -0.9937536622569751 0 -0.11159596207233319
vn 0.6735634062902014 0 0.7391294458393206
vn 0.9937536622569751 0 0.11159596207233319
vn 0.9528878175825088 0 0.30332294193292325
vn -0.9528878175825088 0 -0.30332294193292325
vn 0.8419131307752188 0 0.5396130838186465
vn -0.8419131307752188 0 -0.5396130838186465
vn 0.4593120025333354 0 0.8882750048992808
vn -0.4593120025333354 0 -0.8882750048992808
vn 0.21375792589730086 0 0.976886661346179
vn -0.21375792589730086 0 -0.976886661346179
vn -0.04636198630770798 0 0.9989247049831153
vn 0.04636198630770798 0 -0.9989247049831153
vn -0.17635106012425894 0 0.9843273355916973
vn 0.17635106012425894 0 -0.9843273355916973
vn -0.30332294193292325 0 0.9528878175825088
vn 0.30332294193292325 0 -0.9528878175825088
usemtl material_0_0
f 1//1 2//2 3//2
f 2//2 1//1 4//1
f 3//3 2//3 1//4
f 4//4 1//4 2//3
f 5//5 3//2 2//2
f 2//3 3//3 5//6
f 3//7 6//7 1//7
f 1//8 6//8 3//8
f 1//1 7//9 4//1
f 4//4 7//10 1//4
f 8//8 2//8 4//8
f 4//7 2//7 8//7
f 3//2 5//5 9//5
f 9//6 5//6 3//3
f 2//8 8//8 5//8
f 5//7 8//7 2//7
f 6//7 3//7 9//7
f 9//8 3//8 6//8
f 1//7 6//7 10//7
f 10//8 6//8 1//8
f 7//9 1//1 11//9
f 11//10 1//4 7//10
f 12//8 4//8 7//8
f 7//7 4//7 12//7
f 8//8 4//8 13//8
f 13//7 4//7 8//7
f 5//11 6//12 9//11
f 9//13 6//14 5//13
f 6//12 5//11 8//12
f 8//14 5//13 6//14
f 6//12 13//3 10//3
f 10//2 13//2 6//14
f 1//7 10//7 14//7
f 14//8 10//8 1//8
f 1//7 14//7 11//7
f 11//8 14//8 1//8
f 11//9 15//15 7//9
f 7//10 15//16 11//10
f 13//8 4//8 12//8
f 12//7 4//7 13//7
f 12//8 7//8 16//8
f 16//7 7//7 12//7
f 13//3 6//12 8//12
f 8//14 6//14 13//2
f 12//4 10//3 13//3
f 13//2 10//2 12//1
f 10//3 12//4 14//4
f 14//1 12//1 10//2
f 11//7 14//7 17//7
f 17//8 14//8 11//8
f 15//15 11//9 18//15
f 18//16 11//10 15//16
f 16//8 7//8 15//8
f 15//7 7//7 16//7
f 17//10 12//4 16//10
f 16//9 12//1 17//9
f 12//4 17//10 14//4
f 14//1 17//9 12//1
f 11//7 17//7 18//7
f 18//8 17//8 11//8
f 18//15 19//17 15//15
f 15//16 19//18 18//16
f 16//8 15//8 20//8
f 20//7 15//7 16//7
f 16//10 21//16 17//10
f 17//9 21//15 16//9
f 18//7 17//7 21//7
f 21//8 17//8 18//8
f 19//17 18//15 22//17
f 22//18 18//16 19//18
f 20//8 15//8 19//8
f 19//7 15//7 20//7
f 21//16 16//10 20//16
f 20//15 16//9 21//15
f 18//7 21//7 22//7
f 22//8 21//8 18//8
f 22//17 23//13 19//17
f 19//18 23//11 22//18
f 20//8 19//8 24//8
f 24//7 19//7 20//7
f 20//16 25//18 21//16
f 21//15 25//17 20//15
f 22//7 21//7 25//7
f 25//8 21//8 22//8
f 23//13 22//17 26//13
f 26//11 22//18 23//11
f 27//8 19//8 23//8
f 23//7 19//7 27//7
f 24//8 19//8 27//8
f 27//7 19//7 24//7
f 25//18 20//16 24//18
f 24//17 20//15 25//17
f 22//7 25//7 28//7
f 28//8 25//8 22//8
f 22//7 28//7 26//7
f 26//8 28//8 22//8
f 26//13 29//19 23//13
f 23//11 29//20 26//11
f 27//8 23//8 30//8
f 30//7 23//7 27//7
f 28//11 24//18 27//11
f 27//13 24//17 28//13
f 24//18 28//11 25//18
f 25//17 28//13 24//17
f 26//7 28//7 31//7
f 31//8 28//8 26//8
f 29//19 26//13 32//19
f 32//20 26//11 29//20
f 30//8 23//8 29//8
f 29//7 23//7 30//7
f 31//20 27//11 30//20
f 30//19 27//13 31//19
f 27//11 31//20 28//11
f 28//13 31//19 27//13
f 26//7 31//7 32//7
f 32//8 31//8 26//8
f 32//19 33//21 29//19
f 29//20 33//22 32//20
f 30//8 29//8 34//8
f 34//7 29//7 30//7
f 30//20 35//22 31//20
f 31//19 35//21 30//19
f 32//7 31//7 35//7
f 35//8 31//8 32//8
f 33//21 32//19 36//21
f 36//22 32//20 33//22
f 34//8 29//8 33//8
f 33//7 29//7 34//7
f 35//22 30//20 34//22
f 34//21 30//19 35//21
f 32//7 35//7 36//7
f 36//8 35//8 32//8
f 37//23 33//21 36//21
f 36//22 33//22 37//24
f 34//8 33//8 38//8
f 38//7 33//7 34//7
f 38//24 35//22 34//22
f 34//21 35//21 38//23
f 36//7 35//7 39//7
f 39//8 35//8 36//8
f 33//21 37//23 40//23
f 40//24 37//24 33//22
f 36//7 39//7 37//7
f 37//8 39//8 36//8
f 38//8 33//8 40//8
f 40//7 33//7 38//7
f 35//22 38//24 39//24
f 39//23 38//23 35//21
f 41//25 40//23 37//23
f 37//24 40//24 41//26
f 37//7 39//7 42//7
f 42//8 39//8 37//8
f 38//8 40//8 43//8
f 43//7 40//7 38//7
f 38//24 42//26 39//24
f 39//23 42//25 38//23
f 40//23 41//25 44//25
f 44//26 41//26 40//24
f 37//7 45//7 41//7
f 41//8 45//8 37//8
f 37//7 42//7 46//7
f 46//8 42//8 37//8
f 43//8 40//8 47//8
f 47//7 40//7 43//7
f 43//26 42//26 38//24
f 38//23 42//25 43//25
f 45//27 44//27 41//27
f 41//28 44//28 45//28
f 48//8 40//8 44//8
f 44//7 40//7 48//7
f 37//7 49//7 45//7
f 45//8 49//8 37//8
f 42//26 43//26 46//26
f 46//25 43//25 42//25
f 37//7 46//7 49//7
f 49//8 46//8 37//8
f 47//8 40//8 48//8
f 48//7 40//7 47//7
f 47//28 46//28 43//28
f 43//27 46//27 47//27
f 44//27 45//27 48//27
f 48//28 45//28 44//28
f 47//16 45//16 49//16
f 49//15 45//15 47//15
f 46//28 47//28 49//28
f 49//27 47//27 46//27
f 45//16 47//16 48//16
f 48//15 47//15 45//15
