# SSTK version 0.8.0
# 80
mtllib original-80.mtl
o Group80/mesh153/mesh153-geometry#mesh153-geometry
v 0.239856 -0.538343 -0.353900
v 0.220022 0.329029 -0.377538
v 0.220022 -0.538343 -0.377538
v 0.239856 0.329029 -0.353900
v 0.225177 -0.538343 -0.381863
v 0.245011 0.329029 -0.358225
v 0.225177 0.329029 -0.381863
v 0.245011 -0.538343 -0.358225
vn -0.7660440678408657 0 0.6427880569253128
vn 0.7660440678408657 0 -0.6427880569253128
vn -0.6427880569253128 0 -0.7660440678408657
vn 0.6427880569253128 0 0.7660440678408657
vn 0 -1 0
vn 0 1 0
usemtl material_0_0
f 1//1 2//1 3//1
f 2//1 1//1 4//1
f 3//2 2//2 1//2
f 4//2 1//2 2//2
f 2//3 5//3 3//3
f 3//4 5//4 2//4
f 5//5 1//5 3//5
f 3//6 1//6 5//6
f 1//4 6//4 4//4
f 4//3 6//3 1//3
f 6//6 2//6 4//6
f 4//5 2//5 6//5
f 5//3 2//3 7//3
f 7//4 2//4 5//4
f 1//5 5//5 8//5
f 8//6 5//6 1//6
f 6//4 1//4 8//4
f 8//3 1//3 6//3
f 2//6 6//6 7//6
f 7//5 6//5 2//5
f 6//2 5//2 7//2
f 7//1 5//1 6//1
f 5//2 6//2 8//2
f 8//1 6//1 5//1
