# SSTK version 0.8.0
# 38
mtllib original-38.mtl
o Group38/mesh75/mesh75-geometry#mesh75-geometry
v -0.507368 -0.619318 -0.322905
v -0.486272 0.616185 -0.357486
v -0.486272 -0.619318 -0.357486
v -0.507368 0.616185 -0.322905
v -0.473304 -0.619318 -0.349576
v -0.494400 0.616185 -0.314994
v -0.473304 0.616185 -0.349576
v -0.494400 -0.619318 -0.314994
vn -0.8536963009890385 0 -0.5207711836091098
vn 0.8536963009890385 0 0.5207711836091098
vn 0.5207711836091098 0 -0.8536963009890385
vn -0.5207711836091098 0 0.8536963009890385
vn 0 -1 0
vn 0 1 0
usemtl material_0_0
f 1//1 2//1 3//1
f 2//1 1//1 4//1
f 3//2 2//2 1//2
f 4//2 1//2 2//2
f 2//3 5//3 3//3
f 3//4 5//4 2//4
f 5//5 1//5 3//5
f 3//6 1//6 5//6
f 1//4 6//4 4//4
f 4//3 6//3 1//3
f 6//6 2//6 4//6
f 4//5 2//5 6//5
f 5//3 2//3 7//3
f 7//4 2//4 5//4
f 1//5 5//5 8//5
f 8//6 5//6 1//6
f 6//4 1//4 8//4
f 8//3 1//3 6//3
f 2//6 6//6 7//6
f 7//5 6//5 2//5
f 6//2 5//2 7//2
f 7//1 5//1 6//1
f 5//2 6//2 8//2
f 8//1 6//1 5//1
