# SSTK version 0.8.0
# 5
mtllib original-5.mtl
o #ID168
v -0.500758 -0.834043 0.204589
v -0.500758 0.101073 0.198073
v -0.500758 0.752700 0.204589
v -0.500758 -0.834043 0.172647
v -0.500758 0.101073 0.181303
v -0.500758 0.113051 0.181303
v -0.500758 0.113051 0.172647
v -0.500758 0.133015 0.172647
v -0.500758 0.144994 0.181303
v -0.500758 0.133015 0.181303
v -0.500758 0.144994 0.198073
v -0.500758 0.752700 0.172647
vt -0.02187227 -4.472265e-18
vt -0.01741032 0.6403106
vt -0.02187227 1.086505
vt 1.97373e-16 -4.472265e-18
vt -0.005927384 0.6403106
vt -0.005927384 0.6485127
vt 1.97373e-16 0.6485127
vt 1.97373e-16 0.6621829
vt -0.005927384 0.670385
vt -0.005927384 0.6621829
vt -0.01741032 0.670385
vt 1.97373e-16 1.086505
vn 1 0 0
vn -1 0 0
usemtl material_0_2
f 1/1/1 2/2/1 3/3/1
f 3/3/2 2/2/2 1/1/2
f 2/2/1 1/1/1 4/4/1
f 4/4/2 1/1/2 2/2/2
f 2/2/1 4/4/1 5/5/1
f 5/5/2 4/4/2 2/2/2
f 5/5/1 4/4/1 6/6/1
f 6/6/2 4/4/2 5/5/2
f 6/6/1 4/4/1 7/7/1
f 7/7/2 4/4/2 6/6/2
f 8/8/1 9/9/1 10/10/1
f 10/10/2 9/9/2 8/8/2
f 3/3/1 11/11/1 12/12/1
f 12/12/2 11/11/2 3/3/2
f 11/11/1 3/3/1 2/2/1
f 2/2/2 3/3/2 11/11/2
f 12/12/1 11/11/1 9/9/1
f 9/9/2 11/11/2 12/12/2
f 12/12/1 9/9/1 8/8/1
f 8/8/2 9/9/2 12/12/2
