# SSTK version 0.8.0
# 4
mtllib original-4.mtl
o #ID160
v -0.544679 0.796621 0.156675
v -0.511768 -0.834043 0.164902
v -0.544679 -0.834043 0.156675
v -0.511768 0.763710 0.164902
v -0.511768 0.763710 0.164902
v -0.508590 -0.834043 0.166632
v -0.511768 -0.834043 0.164902
v -0.508590 0.760532 0.166632
v -0.506160 0.758102 0.169314
v -0.506160 -0.834043 0.169314
v -0.504750 0.756693 0.172647
v -0.504750 -0.834043 0.172647
vt 0.4715993 1.116579
vt 0.4483708 -4.472265e-18
vt 0.4715993 -4.472265e-18
vt 0.4483708 1.094044
vt 0.4073054 1.094044
vt 0.4048276 -4.472265e-18
vt 0.4073054 -4.472265e-18
vt 0.4048276 1.091868
vt 0.311036 -4.472265e-18
vt 0.3085581 1.090204
vt 0.3085581 -4.472265e-18
vt 0.311036 1.091868
vt 0.1800887 -4.472265e-18
vt 0.1776109 1.089239
vt 0.1776109 -4.472265e-18
vt 0.1800887 1.090204
vn 0.242514707332265 0 -0.9701477293317478
vn -0.242514707332265 0 0.9701477293317478
vn 0.47805869508457655 0 -0.8783278909689887
vn 0.618253307973582 0 -0.7859789101367307
vn -0.47805869508457655 0 0.8783278909689887
vn -0.618253307973582 0 0.7859789101367307
vn 0.5634564006878112 0 -0.8261458010084762
vn -0.5634564006878112 0 0.8261458010084762
vn 0.8158011679889049 0 -0.578332477306902
vn 0.8429101109403958 0 -0.5380544069835776
vn -0.8158011679889049 0 0.578332477306902
vn -0.8429101109403958 0 0.5380544069835776
vn 0.9210407649050871 0 -0.3894661851599599
vn -0.9210407649050871 0 0.3894661851599599
usemtl material_0_2
f 1/1/1 2/2/1 3/3/1
f 3/3/2 2/2/2 1/1/2
f 2/2/1 1/1/1 4/4/1
f 4/4/2 1/1/2 2/2/2
f 5/5/3 6/6/4 7/7/3
f 7/7/5 6/6/6 5/5/5
f 6/6/4 5/5/3 8/8/7
f 8/8/8 5/5/5 6/6/6
f 6/9/4 9/10/9 10/11/10
f 10/11/12 9/10/11 6/9/6
f 9/10/9 6/9/4 8/12/7
f 8/12/8 6/9/6 9/10/11
f 10/13/10 11/14/13 12/15/13
f 12/15/14 11/14/14 10/13/12
f 11/14/13 10/13/10 9/16/9
f 9/16/11 10/13/12 11/14/14
