# SSTK version 0.8.0
# 9
mtllib original-9.mtl
o #ID200
v 0.109344 -0.834043 0.204589
v 0.099761 -0.834043 0.259520
v 0.099761 -0.834043 0.204589
v 0.103995 -0.834043 0.259520
v 0.105405 -0.834043 0.262853
v 0.107834 -0.834043 0.265535
v 0.111013 -0.834043 0.267265
v 0.113337 -0.834043 0.172647
v 0.109344 -0.834043 0.172647
v 0.143923 -0.834043 0.275492
v 0.114746 -0.834043 0.169314
v 0.117176 -0.834043 0.166632
v 0.120354 -0.834043 0.164902
v 0.151909 -0.834043 0.172647
v 0.153265 -0.834043 0.156675
v 0.161250 -0.834043 0.172647
v 0.161250 -0.834043 0.156675
v 0.151909 -0.834043 0.275492
v 0.151909 -0.834043 0.172647
v 0.143923 -0.834043 0.275492
v 0.151909 -0.834043 0.275492
v 0.161250 -0.834043 0.156675
v 0.153265 -0.834043 0.156675
v 0.161250 -0.834043 0.172647
v 0.120354 -0.834043 0.164902
v 0.117176 -0.834043 0.166632
v 0.114746 -0.834043 0.169314
v 0.113337 -0.834043 0.172647
v 0.111013 -0.834043 0.267265
v 0.109344 -0.834043 0.204589
v 0.109344 -0.834043 0.172647
v 0.107834 -0.834043 0.265535
v 0.105405 -0.834043 0.262853
v 0.103995 -0.834043 0.259520
v 0.099761 -0.834043 0.259520
v 0.099761 -0.834043 0.204589
vn 0 -1 0
vn 0 1 0
usemtl material_0_0
f 1//1 2//1 3//1
f 2//1 1//1 4//1
f 4//1 1//1 5//1
f 5//1 1//1 6//1
f 6//1 1//1 7//1
f 8//1 1//1 9//1
f 1//1 8//1 7//1
f 7//1 8//1 10//1
f 10//1 8//1 11//1
f 10//1 11//1 12//1
f 10//1 12//1 13//1
f 10//1 13//1 14//1
f 14//1 13//1 15//1
f 14//1 15//1 16//1
f 16//1 15//1 17//1
f 18//1 10//1 14//1
usemtl material_1_0
f 19//2 20//2 21//2
f 22//2 23//2 24//2
f 24//2 23//2 19//2
f 23//2 25//2 19//2
f 19//2 25//2 20//2
f 25//2 26//2 20//2
f 26//2 27//2 20//2
f 27//2 28//2 20//2
f 20//2 28//2 29//2
f 29//2 28//2 30//2
f 31//2 30//2 28//2
f 29//2 30//2 32//2
f 32//2 30//2 33//2
f 33//2 30//2 34//2
f 34//2 30//2 35//2
f 36//2 35//2 30//2
